<svg width="96" height="96" viewBox="0 0 96 96" fill="none" xmlns="http://www.w3.org/2000/svg">
<rect width="96" height="96" rx="48" fill="#F1EEFF"/>
<g clip-path="url(#clip0_14182_88077)">
<path d="M40 32H66V36H40V32ZM33 37C32.2044 37 31.4413 36.6839 30.8787 36.1213C30.3161 35.5587 30 34.7956 30 34C30 33.2044 30.3161 32.4413 30.8787 31.8787C31.4413 31.3161 32.2044 31 33 31C33.7956 31 34.5587 31.3161 35.1213 31.8787C35.6839 32.4413 36 33.2044 36 34C36 34.7956 35.6839 35.5587 35.1213 36.1213C34.5587 36.6839 33.7956 37 33 37ZM33 51C32.2044 51 31.4413 50.6839 30.8787 50.1213C30.3161 49.5587 30 48.7956 30 48C30 47.2044 30.3161 46.4413 30.8787 45.8787C31.4413 45.3161 32.2044 45 33 45C33.7956 45 34.5587 45.3161 35.1213 45.8787C35.6839 46.4413 36 47.2044 36 48C36 48.7956 35.6839 49.5587 35.1213 50.1213C34.5587 50.6839 33.7956 51 33 51ZM33 64.8C32.2044 64.8 31.4413 64.4839 30.8787 63.9213C30.3161 63.3587 30 62.5956 30 61.8C30 61.0044 30.3161 60.2413 30.8787 59.6787C31.4413 59.1161 32.2044 58.8 33 58.8C33.7956 58.8 34.5587 59.1161 35.1213 59.6787C35.6839 60.2413 36 61.0044 36 61.8C36 62.5956 35.6839 63.3587 35.1213 63.9213C34.5587 64.4839 33.7956 64.8 33 64.8ZM40 46H66V50H40V46ZM40 60H66V64H40V60Z" fill="#680DE4"/>
</g>
<defs>
<clipPath id="clip0_14182_88077">
<rect width="48" height="48" fill="white" transform="translate(24 24)"/>
</clipPath>
</defs>
</svg>
