<svg width="48" height="49" viewBox="0 0 48 49" fill="none" xmlns="http://www.w3.org/2000/svg">
    <rect y="0.00115967" width="48" height="48" rx="24" fill="#E0F9EC"/>
    <path d="M14 34.0012C14 29.5829 17.5817 26.0012 22 26.0012C26.4183 26.0012 30 29.5829 30 34.0012H28C28 30.6875 25.3137 28.0012 22 28.0012C18.6863 28.0012 16 30.6875 16 34.0012H14ZM22 25.0012C18.685 25.0012 16 22.3162 16 19.0012C16 15.6862 18.685 13.0012 22 13.0012C25.315 13.0012 28 15.6862 28 19.0012C28 22.3162 25.315 25.0012 22 25.0012ZM22 23.0012C24.21 23.0012 26 21.2112 26 19.0012C26 16.7912 24.21 15.0012 22 15.0012C19.79 15.0012 18 16.7912 18 19.0012C18 21.2112 19.79 23.0012 22 23.0012ZM30.2837 26.704C33.0644 27.9573 35 30.7532 35 34.0012H33C33 31.5652 31.5483 29.4683 29.4628 28.5283L30.2837 26.704ZM29.5962 15.4144C31.5944 16.2382 33 18.2048 33 20.5012C33 23.3714 30.8042 25.7264 28 25.9788V23.9658C29.6967 23.7234 31 22.2652 31 20.5012C31 19.1205 30.2016 17.9272 29.041 17.3575L29.5962 15.4144Z" fill="#13714A"/>
</svg>
