<svg width="24" height="24" viewBox="0 0 24 24" fill="none" xmlns="http://www.w3.org/2000/svg">
<path class="themed-icon" d="M10.7577 11.8276L18.6066 3.97873L20.0208 5.39295L18.6066 6.80716L21.0815 9.28204L19.6673 10.6962L17.1924 8.22137L15.7782 9.63559L17.8995 11.7569L16.4853 13.1711L14.364 11.0498L12.1719 13.2418C13.4581 15.1832 13.246 17.8246 11.5355 19.5351C9.58291 21.4877 6.41709 21.4877 4.46447 19.5351C2.51184 17.5824 2.51184 14.4166 4.46447 12.464C6.17493 10.7535 8.81633 10.5414 10.7577 11.8276ZM10.1213 18.1208C11.2929 16.9493 11.2929 15.0498 10.1213 13.8782C8.94975 12.7066 7.05025 12.7066 5.87868 13.8782C4.70711 15.0498 4.70711 16.9493 5.87868 18.1208C7.05025 19.2924 8.94975 19.2924 10.1213 18.1208Z" fill="#5A5A67"/>
</svg>
