<svg width="96" height="96" viewBox="0 0 96 96" fill="none" xmlns="http://www.w3.org/2000/svg">
<rect width="96" height="96" rx="48" fill="white" fill-opacity="0.7"/>
<g clip-path="url(#clip0_5901_5105)">
<path d="M48 46C50.6522 46 53.1957 47.0536 55.0711 48.9289C56.9464 50.8043 58 53.3478 58 56V68H54V56C54.0001 54.4696 53.4153 52.997 52.3654 51.8835C51.3155 50.77 49.8798 50.0998 48.352 50.01L48 50C46.4696 49.9999 44.997 50.5847 43.8835 51.6346C42.77 52.6845 42.0998 54.1202 42.01 55.648L42 56V68H38V56C38 53.3478 39.0536 50.8043 40.9289 48.9289C42.8043 47.0536 45.3478 46 48 46ZM35 52C35.558 52 36.1 52.066 36.62 52.188C36.278 53.206 36.0755 54.2656 36.018 55.338L36 56V56.172C35.7701 56.0897 35.531 56.036 35.288 56.012L35 56C34.2542 56 33.5352 56.2778 32.9832 56.7792C32.4311 57.2806 32.0856 57.9697 32.014 58.712L32 59V68H28V59C28 57.1435 28.7375 55.363 30.0503 54.0503C31.363 52.7375 33.1435 52 35 52ZM61 52C62.8565 52 64.637 52.7375 65.9497 54.0503C67.2625 55.363 68 57.1435 68 59V68H64V59C64 58.2542 63.7222 57.5352 63.2208 56.9832C62.7194 56.4311 62.0303 56.0856 61.288 56.014L61 56C60.65 56 60.314 56.06 60 56.17V56C60 54.668 59.784 53.388 59.382 52.192C59.9 52.066 60.442 52 61 52ZM35 40C36.3261 40 37.5979 40.5268 38.5355 41.4645C39.4732 42.4021 40 43.6739 40 45C40 46.3261 39.4732 47.5979 38.5355 48.5355C37.5979 49.4732 36.3261 50 35 50C33.6739 50 32.4021 49.4732 31.4645 48.5355C30.5268 47.5979 30 46.3261 30 45C30 43.6739 30.5268 42.4021 31.4645 41.4645C32.4021 40.5268 33.6739 40 35 40ZM61 40C62.3261 40 63.5979 40.5268 64.5355 41.4645C65.4732 42.4021 66 43.6739 66 45C66 46.3261 65.4732 47.5979 64.5355 48.5355C63.5979 49.4732 62.3261 50 61 50C59.6739 50 58.4021 49.4732 57.4645 48.5355C56.5268 47.5979 56 46.3261 56 45C56 43.6739 56.5268 42.4021 57.4645 41.4645C58.4021 40.5268 59.6739 40 61 40ZM35 44C34.7348 44 34.4804 44.1054 34.2929 44.2929C34.1054 44.4804 34 44.7348 34 45C34 45.2652 34.1054 45.5196 34.2929 45.7071C34.4804 45.8946 34.7348 46 35 46C35.2652 46 35.5196 45.8946 35.7071 45.7071C35.8946 45.5196 36 45.2652 36 45C36 44.7348 35.8946 44.4804 35.7071 44.2929C35.5196 44.1054 35.2652 44 35 44ZM61 44C60.7348 44 60.4804 44.1054 60.2929 44.2929C60.1054 44.4804 60 44.7348 60 45C60 45.2652 60.1054 45.5196 60.2929 45.7071C60.4804 45.8946 60.7348 46 61 46C61.2652 46 61.5196 45.8946 61.7071 45.7071C61.8946 45.5196 62 45.2652 62 45C62 44.7348 61.8946 44.4804 61.7071 44.2929C61.5196 44.1054 61.2652 44 61 44ZM48 28C50.1217 28 52.1566 28.8429 53.6569 30.3431C55.1571 31.8434 56 33.8783 56 36C56 38.1217 55.1571 40.1566 53.6569 41.6569C52.1566 43.1571 50.1217 44 48 44C45.8783 44 43.8434 43.1571 42.3431 41.6569C40.8429 40.1566 40 38.1217 40 36C40 33.8783 40.8429 31.8434 42.3431 30.3431C43.8434 28.8429 45.8783 28 48 28ZM48 32C46.9391 32 45.9217 32.4214 45.1716 33.1716C44.4214 33.9217 44 34.9391 44 36C44 37.0609 44.4214 38.0783 45.1716 38.8284C45.9217 39.5786 46.9391 40 48 40C49.0609 40 50.0783 39.5786 50.8284 38.8284C51.5786 38.0783 52 37.0609 52 36C52 34.9391 51.5786 33.9217 50.8284 33.1716C50.0783 32.4214 49.0609 32 48 32Z" fill="#014550"/>
</g>
<defs>
<clipPath id="clip0_5901_5105">
<rect width="48" height="48" fill="white" transform="translate(24 24)"/>
</clipPath>
</defs>
</svg>
