<svg width="294" height="162" viewBox="0 0 294 162" fill="none" xmlns="http://www.w3.org/2000/svg">
    <g clip-path="url(#clip0_4645_55855)">
        <path d="M226.88 106.881C218.076 105.13 208.94 106.362 200.914 110.38C192.887 114.399 186.428 120.977 182.556 129.076C178.684 137.174 177.619 146.331 179.53 155.102C181.441 163.872 186.219 171.756 193.11 177.509C200 183.263 208.61 186.557 217.581 186.872C226.552 187.187 235.372 184.506 242.65 179.25C249.927 173.995 255.246 166.466 257.768 157.851C260.291 149.236 259.872 140.027 256.577 131.677L249.062 134.642C251.697 141.322 252.032 148.689 250.015 155.581C247.997 162.473 243.741 168.496 237.92 172.701C232.098 176.905 225.042 179.05 217.865 178.798C210.688 178.546 203.8 175.91 198.288 171.308C192.776 166.705 188.953 160.398 187.424 153.382C185.895 146.365 186.747 139.039 189.845 132.561C192.942 126.082 198.11 120.82 204.531 117.605C210.952 114.389 218.261 113.405 225.304 114.805L226.88 106.881Z" fill="#AE70FF"/>
        <path d="M214.462 110.431C214.184 108.217 215.754 106.176 217.985 106.12C221.925 106.021 225.865 106.499 229.68 107.545C234.796 108.947 239.586 111.344 243.776 114.597C247.966 117.851 251.474 121.898 254.099 126.507C256.057 129.944 257.496 133.644 258.376 137.485C258.874 139.66 257.285 141.687 255.072 141.965C252.858 142.244 250.863 140.665 250.311 138.504C249.597 135.711 248.512 133.021 247.08 130.506C244.979 126.819 242.172 123.581 238.82 120.978C235.469 118.375 231.637 116.458 227.544 115.336C224.753 114.571 221.878 114.186 218.996 114.186C216.765 114.187 214.741 112.645 214.462 110.431Z" fill="#04DB8E"/>
        <path d="M202.12 146.109H235.095" stroke="#AE70FF" stroke-width="2" stroke-linecap="round"/>
        <path d="M208.401 152.39H228.814" stroke="#AE70FF" stroke-width="2" stroke-linecap="round"/>
    </g>
    <rect x="86" y="22.2316" width="108" height="117.782" rx="5.34439" fill="white" stroke="#F1EEFF"/>
    <path d="M107.223 125.184V125.72C107.216 125.746 107.209 125.772 107.203 125.798C107.122 126.125 107.069 126.462 106.954 126.776C106.666 127.559 106.182 128.226 105.631 128.843C104.425 130.193 102.995 131.268 101.461 132.213C101.322 132.299 101.184 132.294 101.044 132.208C99.7459 131.419 98.5284 130.523 97.4434 129.456C96.7732 128.796 96.17 128.083 95.7445 127.237C95.0945 125.945 95.1172 124.668 95.8986 123.441C96.4409 122.59 97.2258 122.071 98.2433 121.977C99.3185 121.878 100.201 122.287 100.906 123.091C101.033 123.235 101.139 123.397 101.26 123.558C101.279 123.532 101.296 123.507 101.314 123.484C101.457 123.3 101.584 123.101 101.747 122.938C102.607 122.079 103.633 121.745 104.814 122.086C106.01 122.43 106.726 123.276 107.079 124.445C107.151 124.684 107.176 124.938 107.223 125.184H107.223Z" fill="#04DB8E"/>
    <path d="M127.71 126.452V126.988C127.704 127.025 127.696 127.063 127.691 127.1C127.651 127.376 127.628 127.656 127.569 127.928C127.094 130.126 125.246 131.834 123.02 132.141C122.828 132.167 122.636 132.186 122.443 132.208H122.047C122.017 132.202 121.987 132.192 121.957 132.191C121.087 132.147 120.275 131.904 119.516 131.477C119.477 131.455 119.412 131.453 119.368 131.469C118.683 131.712 118 131.961 117.317 132.208H117.2C116.779 132.045 116.686 131.834 116.844 131.401C117.058 130.811 117.27 130.22 117.488 129.631C117.52 129.546 117.512 129.483 117.469 129.406C116.806 128.21 116.599 126.938 116.885 125.603C117.55 122.49 120.661 120.589 123.719 121.478C125.868 122.103 127.158 123.58 127.617 125.773C127.664 125.996 127.68 126.225 127.71 126.451V126.452Z" fill="#CBE6DC"/>
    <path d="M135.852 125.086C135.852 124.992 135.852 124.897 135.852 124.803C135.857 124.79 135.866 124.778 135.869 124.764C135.959 124.336 136.22 124.072 136.636 123.948C138.82 123.294 141.003 122.637 143.187 121.982C144.299 121.648 145.412 121.313 146.525 120.981C146.596 120.96 146.678 120.95 146.748 120.966C146.951 121.011 147.033 121.198 146.964 121.431C146.222 123.902 145.48 126.373 144.738 128.845C144.489 129.673 144.241 130.501 143.993 131.33C143.887 131.681 143.664 131.92 143.318 132.042C143.261 132.062 143.201 132.076 143.143 132.093H142.86C142.85 132.087 142.841 132.08 142.831 132.078C142.384 131.987 142.115 131.714 141.992 131.28C141.609 129.93 141.221 128.581 140.838 127.231C140.818 127.16 140.785 127.126 140.713 127.106C139.342 126.717 137.972 126.325 136.602 125.933C136.378 125.869 136.184 125.752 136.06 125.557C135.97 125.413 135.92 125.244 135.852 125.086Z" fill="#CBE6DC"/>
    <path d="M85.5 27.576C85.5 24.3483 88.1166 21.7316 91.3444 21.7316H188.656C191.883 21.7316 194.5 24.3483 194.5 27.576V112.565H85.5V27.576Z" fill="#04DB8E"/>
    <mask id="mask0_4645_55855" style="mask-type:alpha" maskUnits="userSpaceOnUse" x="85" y="21" width="110" height="92">
        <path d="M85.5 27.5762C85.5 24.3484 88.1166 21.7318 91.3444 21.7318H188.656C191.883 21.7318 194.5 24.3484 194.5 27.5762V112.565H85.5V27.5762Z" fill="#EEEEEE"/>
    </mask>
    <g mask="url(#mask0_4645_55855)">
        <g clip-path="url(#clip1_4645_55855)">
            <path d="M162.347 96.3243C162.347 96.3243 173.064 99.1905 181.5 125.911L160.042 137.472L155.522 121.938L162.352 96.3243H162.347Z" fill="#AE70FF"/>
            <path d="M116.187 96.4772C116.187 96.4772 107.449 99.19 99.0137 125.906L118.502 137.466L123.022 121.933L116.182 96.4772H116.187Z" fill="#AE70FF"/>
            <path d="M132.21 90.5169L117.064 96.0671C114.222 97.1072 112.626 100.132 113.374 103.065L124.498 146.939H154.296L164.567 101.042C165.022 99.0004 163.93 96.9347 161.988 96.1582L147.308 90.3156L132.215 90.5169H132.21Z" fill="#AE70FF"/>
            <path d="M132.209 90.5084L125.59 92.9337L140.022 102.088L153.38 92.7228L147.307 90.3071L132.209 90.5084Z" fill="#E69560"/>
            <path d="M164.25 64.72C162.932 59.7162 162.452 60.6124 158.019 50.6623C155.368 44.719 153.322 42.3321 152.1 41.3688C152.1 41.3688 147.618 36.5471 139.605 36.5471C131.591 36.5471 127.521 41.1291 127.521 41.1291C126.362 41.9056 124.176 44.1487 121.271 50.6623C116.838 60.6124 116.359 59.7162 115.041 64.72C113.723 69.7238 115.4 78.9502 125.71 80.7476C125.71 80.7476 124.392 79.4295 123.912 77.2727C123.912 77.2727 128.226 83.1441 134.102 82.7846H145.198C151.069 83.1441 155.388 77.2727 155.388 77.2727C154.908 79.4295 153.59 80.7476 153.59 80.7476C163.9 78.9502 165.577 69.719 164.259 64.72H164.25Z" fill="#13144D"/>
            <path d="M147.306 90.3103L145.471 74.321C145.471 74.321 143.577 76.2526 141.066 76.7175C138.554 77.1824 136.12 75.7158 136.091 75.6966C136.062 75.6774 134.039 73.9951 134.039 73.9951L132.213 90.5068C132.213 90.6889 132.079 92.17 132.05 92.3425L147.349 90.7704C147.325 90.6171 147.311 90.4589 147.311 90.3007L147.306 90.3103Z" fill="#E69560"/>
            <path d="M132.88 74.5661C132.88 74.5661 136.729 81.9952 141.306 80.9311C146.09 79.8192 146.066 73.5404 146.066 73.5404L132.875 74.5709L132.88 74.5661Z" fill="#13144D"/>
            <path d="M156.116 53.2214C156.116 62.3184 149.037 69.6947 140.304 69.6947C131.571 69.6947 124.492 62.3184 124.492 53.2214C124.492 44.1244 131.571 37.9319 140.304 37.9319C149.037 37.9319 156.116 44.1196 156.116 53.2166V53.2214Z" fill="#13144D"/>
            <path d="M153.37 54.0668C153.37 59.7368 152.579 64.6304 151.793 68.1053C151.021 71.5083 148.85 73.8808 145.787 75.7932L145.226 76.1431C141.982 78.1657 137.788 78.2136 134.495 76.2629C131.173 74.2978 128.844 71.7 128.13 68.0526C126.826 61.4144 126.687 54.062 126.687 54.062C126.687 54.062 125.451 39.7455 139.839 40.0235C154.228 40.3015 153.37 54.062 153.37 54.062V54.0668Z" fill="#E69560"/>
            <path d="M128.26 67.5155C125.725 69.7058 120.385 61.0354 122.839 58.6964C125.293 56.3575 127.033 60.1631 127.033 60.1631L127.532 62.9046L128.275 66.5904L128.466 67.4196L128.265 67.5155H128.26Z" fill="#E69560"/>
            <path d="M123.942 61.6166C123.942 61.6166 124.977 59.3687 127.393 63.3133" stroke="#13144D" stroke-width="0.680598" stroke-linecap="round" stroke-linejoin="round"/>
            <path d="M151.788 67.5658C154.362 69.713 159.548 60.9515 157.055 58.6557C154.558 56.3599 152.89 60.1943 152.89 60.1943L152.44 62.9406L151.764 66.6408L151.586 67.4699L151.793 67.5658H151.788Z" fill="#E69560"/>
            <path d="M156 61.5997C156 61.5997 154.927 59.371 152.578 63.3539" stroke="#13144D" stroke-width="0.680598" stroke-linecap="round" stroke-linejoin="round"/>
            <path d="M126.874 58.5262C126.874 58.5262 131.643 50.7472 130.316 42.8676C130.316 42.8676 127.032 45.0149 125.921 50.5651C124.809 56.1153 126.874 58.5262 126.874 58.5262Z" fill="#13144D"/>
            <path d="M153.614 58.6818C153.614 58.6818 147.685 50.2223 149.013 42.3427C149.013 42.3427 152.665 45.0219 153.777 50.5673C154.889 56.1128 153.619 58.6818 153.619 58.6818H153.614Z" fill="#13144D"/>
            <path d="M151.285 41.9966C151.285 41.9966 139.178 56.4713 125.916 50.5664C125.916 50.5664 122.978 39.0298 138.928 37.9897L151.285 41.9966Z" fill="#13144D"/>
            <path d="M142.519 39.8258C145.002 40.516 145.328 53.0112 156.117 53.2173L152.095 41.3644L142.514 39.821L142.519 39.8258Z" fill="#13144D"/>
            <path d="M137.596 55.5229L129.554 56.4911C129.554 56.4911 130.201 54.3582 133.484 53.994C136.767 53.6297 137.591 55.5277 137.591 55.5277L137.596 55.5229Z" fill="#13144D"/>
            <path d="M142.231 55.523L150.274 56.4912C150.274 56.4912 149.627 54.3583 146.344 53.9941C143.061 53.6298 142.236 55.5278 142.236 55.5278L142.231 55.523Z" fill="#13144D"/>
            <path d="M135.243 68.0618L137.568 67.0697C137.942 66.993 138.354 66.9978 138.766 67.0888L139.782 67.3141L140.65 67.0361C141.043 66.9115 141.579 66.9019 141.958 67.0169L144.148 68.0235L135.243 68.0618Z" fill="#FB577F"/>
            <path d="M135.243 68.0619C135.243 68.0619 136.389 71.139 139.763 71.139C143.137 71.139 144.148 68.0236 144.148 68.0236L135.243 68.0619Z" fill="#FB577F"/>
            <path d="M135.947 68.2307C135.947 68.2307 136.451 69.6015 139.762 69.6015C142.777 69.6015 143.597 68.1971 143.597 68.1971L135.947 68.2307Z" fill="white"/>
            <path d="M137.908 70.3353C138.118 70.3353 138.287 70.2194 138.287 70.0764C138.287 69.9335 138.118 69.8176 137.908 69.8176C137.699 69.8176 137.53 69.9335 137.53 70.0764C137.53 70.2194 137.699 70.3353 137.908 70.3353Z" fill="#F6939D"/>
            <path d="M139.178 62.6328V65.058L140.602 65.0819" stroke="#13144D" stroke-width="0.671012" stroke-linecap="round" stroke-linejoin="round"/>
            <path d="M135.469 59.9779C135.469 59.9779 133.571 58.6407 131.778 59.9779" stroke="#13144D" stroke-width="0.680598" stroke-linecap="round" stroke-linejoin="round"/>
            <path d="M144.407 59.9779C144.407 59.9779 146.305 58.6407 148.103 59.9779" stroke="#13144D" stroke-width="0.680598" stroke-linecap="round" stroke-linejoin="round"/>
            <path opacity="0.22" d="M137.532 61.641C138.213 58.742 136.415 55.8398 133.516 55.1587C130.617 54.4777 127.715 56.2757 127.034 59.1748C126.353 62.0738 128.151 64.976 131.05 65.6571C133.949 66.3381 136.851 64.54 137.532 61.641Z" fill="white"/>
            <path opacity="0.22" d="M152.595 61.641C153.276 58.742 151.478 55.8398 148.579 55.1587C145.68 54.4777 142.778 56.2757 142.097 59.1748C141.416 62.0738 143.214 64.976 146.113 65.6571C149.012 66.3381 151.914 64.54 152.595 61.641Z" fill="white"/>
            <path d="M137.532 61.6425C138.213 58.7434 136.415 55.8412 133.516 55.1602C130.617 54.4792 127.715 56.2772 127.034 59.1762C126.353 62.0753 128.151 64.9775 131.05 65.6585C133.949 66.3396 136.851 64.5415 137.532 61.6425Z" stroke="#AE70FF" stroke-width="0.987347" stroke-miterlimit="10"/>
            <path d="M151.789 63.7463C153.631 61.4064 153.228 58.0163 150.888 56.1743C148.548 54.3323 145.158 54.736 143.316 57.0759C141.474 59.4158 141.877 62.8059 144.217 64.6479C146.557 66.4899 149.947 66.0863 151.789 63.7463Z" stroke="#AE70FF" stroke-width="0.987347" stroke-miterlimit="10"/>
            <path d="M137.672 60.8532C137.672 60.8532 139.575 57.9248 142.163 60.8532" stroke="#AE70FF" stroke-width="0.987347" stroke-miterlimit="10"/>
        </g>
    </g>
    <path d="M205.897 16.5016C205.897 16.5016 203.291 34.4619 181.08 46.8548C180.268 47.3078 179.837 48.2244 179.981 49.139C180.537 52.4944 182.671 60.386 189.519 65.9418C190.207 66.5016 191.168 66.5882 191.952 66.1675C196.244 63.8859 211.737 56.7219 233.498 59.0683L205.892 16.5047L205.897 16.5016Z" fill="#AE70FF"/>
    <path d="M234.231 58.757C237.876 56.4724 234.725 44.875 227.192 32.8533C219.659 20.8316 210.597 12.9381 206.951 15.2227C203.305 17.5073 206.456 29.1047 213.989 41.1264C221.523 53.1481 230.585 61.0416 234.231 58.757Z" fill="#AE70FF" stroke="#9A4AFE" stroke-width="3.57352" stroke-miterlimit="10"/>
    <path d="M220.452 47.2666C223.431 45.1331 224.279 41.0241 222.309 37.8799C220.339 34.7357 216.059 33.6498 212.8 35.5936" stroke="#04DB8E" stroke-width="4.00463" stroke-miterlimit="10"/>
    <path d="M180.099 48.0031C180.099 48.0031 172.99 52.2261 178.03 61.1565C183.071 70.087 190.809 66.4188 190.809 66.4188C190.809 66.4188 188.168 65.9724 183.647 59.1057C181.854 56.3003 179.564 50.1098 180.089 48.0094L180.099 48.0031Z" fill="#AE70FF"/>
    <path d="M195.024 64.678C195.024 64.678 197.511 71.5748 200.705 77.3679C203.9 83.1609 206.193 82.0756 208.591 79.61C210.989 77.1444 212.336 75.2457 209.59 72.6794C206.843 70.1132 204.699 67.1409 202.264 61.9757C202.264 61.9757 198.1 63.1934 195.024 64.678Z" fill="#04DB8E"/>
    <path d="M187.944 55.6537C184.739 50.1694 184.325 46.5139 184.343 44.8933C183.305 45.558 182.225 46.2133 181.08 46.8536C180.267 47.3065 179.837 48.2231 179.981 49.1377C180.537 52.4931 182.671 60.3847 189.519 65.9405C190.207 66.5003 191.168 66.587 191.952 66.1662C192.715 65.7581 193.847 65.1968 195.294 64.5569C193.587 63.2015 190.756 60.4775 187.939 55.6569L187.944 55.6537Z" fill="#9A4AFE"/>
    <path d="M235.871 30.4218L246.237 23.926" stroke="#04DB8E" stroke-width="1.77363" stroke-linecap="round" stroke-linejoin="round"/>
    <path d="M230.47 23.0512L233.865 16.4676" stroke="#04DB8E" stroke-width="1.77363" stroke-linecap="round" stroke-linejoin="round"/>
    <path d="M247.229 37.8861L239.88 38.0702" stroke="#04DB8E" stroke-width="1.77363" stroke-linecap="round" stroke-linejoin="round"/>
    <rect x="0.5" y="47.0012" width="91" height="72.5955" rx="4.86992" fill="#AE70FF"/>
    <rect x="15.8369" y="81.8449" width="8.66488" height="23.4388" rx="4.33244" fill="white"/>
    <rect x="33.5132" y="74.9504" width="8.66488" height="30.3325" rx="4.33244" fill="white"/>
    <rect x="51.5356" y="61.6262" width="8.66488" height="43.6604" rx="4.33244" fill="#04DB8E"/>
    <rect x="69.5591" y="87.8176" width="8.31829" height="17.4642" rx="4.15914" fill="white"/>
    <defs>
        <clipPath id="clip0_4645_55855">
            <rect width="123" height="84" fill="white" transform="translate(170.5 77.0012)"/>
        </clipPath>
        <clipPath id="clip1_4645_55855">
            <rect width="82.4866" height="110.386" fill="white" transform="translate(99.0127 36.5482)"/>
        </clipPath>
    </defs>
</svg>
