<svg width="48" height="48" viewBox="0 0 48 48" fill="none" xmlns="http://www.w3.org/2000/svg">
    <g clip-path="url(#clip0_3405_60846)">
        <mask id="mask0_3405_60846" style="mask-type:luminance" maskUnits="userSpaceOnUse" x="0" y="0" width="48" height="48">
            <path d="M48 24C48 10.7452 37.2548 0 24 0C10.7452 0 0 10.7452 0 24C0 37.2548 10.7452 48 24 48C37.2548 48 48 37.2548 48 24Z" fill="white"/>
        </mask>
        <g mask="url(#mask0_3405_60846)">
            <path d="M48 0H0V48H48V0Z" fill="#0A0310"/>
            <path d="M21.256 57.2997C34.4926 56.606 44.6607 45.3132 43.967 32.0765C43.2733 18.8398 31.9805 8.67173 18.7438 9.36544C5.50716 10.0591 -4.66092 21.3519 -3.96722 34.5886C-3.27351 47.8253 8.01928 57.9934 21.256 57.2997Z" fill="#FF005B"/>
            <path d="M8.21094 30.8047C8.37255 32.1209 9.22468 33.2976 10.5799 34.0759C11.9351 34.8542 13.6823 35.1704 15.4373 34.955C17.1922 34.7395 18.811 34.01 19.9377 32.9269C21.0643 31.8439 21.6065 30.496 21.4449 29.1798" fill="white"/>
            <path d="M8.2218 25.4273C8.13206 24.6964 7.61493 24.1585 7.06677 24.2258C6.5186 24.2931 6.14697 24.9402 6.23671 25.6711C6.32645 26.4019 6.84358 26.9399 7.39175 26.8726C7.93992 26.8053 8.31155 26.1582 8.2218 25.4273Z" fill="white"/>
            <path d="M21.4562 23.8023C21.3664 23.0714 20.8493 22.5335 20.3011 22.6008C19.753 22.6681 19.3813 23.3152 19.4711 24.0461C19.5608 24.7769 20.078 25.3149 20.6261 25.2476C21.1743 25.1803 21.5459 24.5332 21.4562 23.8023Z" fill="white"/>
        </g>
    </g>
    <defs>
        <clipPath id="clip0_3405_60846">
            <rect width="48" height="48" fill="white"/>
        </clipPath>
    </defs>
</svg>
