<svg width="48" height="48" viewBox="0 0 48 48" fill="none" xmlns="http://www.w3.org/2000/svg">
    <g clip-path="url(#clip0_3405_60830)">
        <mask id="mask0_3405_60830" style="mask-type:luminance" maskUnits="userSpaceOnUse" x="0" y="0" width="48" height="48">
            <path d="M48 24C48 10.7452 37.2548 0 24 0C10.7452 0 0 10.7452 0 24C0 37.2548 10.7452 48 24 48C37.2548 48 48 37.2548 48 24Z" fill="white"/>
        </mask>
        <g mask="url(#mask0_3405_60830)">
            <path d="M48 0H0V48H48V0Z" fill="#0A0310"/>
            <path d="M0.592378 5.48637C-11.0404 16.3341 -11.6768 34.5581 -0.829055 46.1909C10.0187 57.8237 28.2427 58.4601 39.8755 47.6124C51.5083 36.7646 52.1447 18.5406 41.2969 6.90781C30.4492 -4.72496 12.2251 -5.36136 0.592378 5.48637Z" fill="#FF005B"/>
            <path d="M12.8906 31.8242C12.729 33.1404 13.2712 34.4883 14.3978 35.5714C15.5245 36.6544 17.1433 37.3839 18.8983 37.5994C20.6532 37.8149 22.4004 37.4987 23.7556 36.7204C25.1108 35.942 25.963 34.7653 26.1246 33.4491" fill="white"/>
            <path d="M14.5296 23.9656C14.6194 23.2347 14.2477 22.5876 13.6996 22.5203C13.1514 22.453 12.6343 22.9909 12.5445 23.7218C12.4548 24.4527 12.8264 25.0998 13.3746 25.1671C13.9228 25.2344 14.4399 24.6965 14.5296 23.9656Z" fill="white"/>
            <path d="M27.764 25.5906C27.8537 24.8597 27.4821 24.2126 26.934 24.1453C26.3858 24.078 25.8687 24.6159 25.7789 25.3468C25.6892 26.0777 26.0608 26.7248 26.609 26.7921C27.1571 26.8594 27.6743 26.3215 27.764 25.5906Z" fill="white"/>
        </g>
    </g>
    <defs>
        <clipPath id="clip0_3405_60830">
            <rect width="48" height="48" fill="white"/>
        </clipPath>
    </defs>
</svg>
