<svg width="48" height="48" viewBox="0 0 48 48" fill="none" xmlns="http://www.w3.org/2000/svg">
    <g clip-path="url(#clip0_3405_60782)">
        <mask id="mask0_3405_60782" style="mask-type:luminance" maskUnits="userSpaceOnUse" x="0" y="0" width="48" height="48">
            <path d="M48 24C48 10.7452 37.2548 0 24 0C10.7452 0 0 10.7452 0 24C0 37.2548 10.7452 48 24 48C37.2548 48 48 37.2548 48 24Z" fill="white"/>
        </mask>
        <g mask="url(#mask0_3405_60782)">
            <path d="M48 0H0V48H48V0Z" fill="#49007E"/>
            <path d="M54.2282 -1.41223L16.1144 3.26755C10.852 3.9137 7.10974 8.70353 7.75588 13.9659L12.4357 52.0797C13.0818 57.3421 17.8716 61.0844 23.1341 60.4382L61.2478 55.7584C66.5102 55.1123 70.2525 50.3225 69.6063 45.06L64.9265 6.94627C64.2804 1.68385 59.4906 -2.05837 54.2282 -1.41223Z" fill="#FF7D10"/>
            <path d="M24.8867 26.875C27.6195 28.0669 30.2825 27.9274 32.8758 26.4563" stroke="black" stroke-width="1.97531" stroke-linecap="round"/>
            <path d="M21.1374 19.0589C21.0988 18.3235 20.6205 17.7508 20.0689 17.7797C19.5174 17.8086 19.1016 18.4282 19.1401 19.1635C19.1786 19.8989 19.657 20.4716 20.2085 20.4427C20.76 20.4138 21.1759 19.7942 21.1374 19.0589Z" fill="black"/>
            <path d="M37.1139 18.2229C37.0754 17.4876 36.597 16.9149 36.0455 16.9438C35.494 16.9727 35.0781 17.5922 35.1167 18.3276C35.1552 19.063 35.6335 19.6357 36.1851 19.6068C36.7366 19.5779 37.1525 18.9583 37.1139 18.2229Z" fill="black"/>
        </g>
    </g>
    <defs>
        <clipPath id="clip0_3405_60782">
            <rect width="48" height="48" fill="white"/>
        </clipPath>
    </defs>
</svg>
