<svg width="48" height="48" viewBox="0 0 48 48" fill="none" xmlns="http://www.w3.org/2000/svg">
    <g clip-path="url(#clip0_3405_60798)">
        <mask id="mask0_3405_60798" style="mask-type:luminance" maskUnits="userSpaceOnUse" x="0" y="0" width="48" height="48">
            <path d="M48 24C48 10.7452 37.2548 0 24 0C10.7452 0 0 10.7452 0 24C0 37.2548 10.7452 48 24 48C37.2548 48 48 37.2548 48 24Z" fill="white"/>
        </mask>
        <g mask="url(#mask0_3405_60798)">
            <path d="M48 0H0V48H48V0Z" fill="#FF005B"/>
            <path d="M-6.36946 32.2437C-8.44297 45.3353 0.488987 57.6291 13.5806 59.7026C26.6723 61.7761 38.9661 52.8442 41.0396 39.7525C43.1131 26.6609 34.1811 14.3671 21.0895 12.2936C7.99784 10.22 -4.29594 19.152 -6.36946 32.2437Z" fill="#FFB238"/>
            <path d="M10.9609 32.3633C11.1684 33.673 12.0611 34.8193 13.4426 35.5498C14.8241 36.2804 16.5814 36.5354 18.3277 36.2588C20.074 35.9822 21.6664 35.1967 22.7546 34.075C23.8428 32.9532 24.3376 31.5872 24.1301 30.2775" fill="black"/>
            <path d="M8.1488 27.4064C8.0336 26.6791 7.49802 26.1595 6.95253 26.2459C6.40705 26.3323 6.05823 26.9919 6.17342 27.7193C6.28862 28.4466 6.82421 28.9661 7.36969 28.8797C7.91518 28.7933 8.264 28.1337 8.1488 27.4064Z" fill="black"/>
            <path d="M26.5863 24.4884C26.4711 23.7611 25.9355 23.2415 25.39 23.3279C24.8445 23.4143 24.4957 24.074 24.6109 24.8013C24.7261 25.5286 25.2617 26.0482 25.8072 25.9618C26.3527 25.8754 26.7015 25.2157 26.5863 24.4884Z" fill="black"/>
        </g>
    </g>
    <defs>
        <clipPath id="clip0_3405_60798">
            <rect width="48" height="48" fill="white"/>
        </clipPath>
    </defs>
</svg>
