<svg width="48" height="48" viewBox="0 0 48 48" fill="none" xmlns="http://www.w3.org/2000/svg">
    <g clip-path="url(#clip0_3405_60814)">
        <mask id="mask0_3405_60814" style="mask-type:luminance" maskUnits="userSpaceOnUse" x="0" y="0" width="48" height="48">
            <path d="M48 24C48 10.7452 37.2548 0 24 0C10.7452 0 0 10.7452 0 24C0 37.2548 10.7452 48 24 48C37.2548 48 48 37.2548 48 24Z" fill="white"/>
        </mask>
        <g mask="url(#mask0_3405_60814)">
            <path d="M48 0H0V48H48V0Z" fill="#FFB238"/>
            <path d="M60.125 34.9313L51.6094 0.776884C50.4336 -3.93886 45.6576 -6.80857 40.9419 -5.63281L6.78746 2.88284C2.07172 4.05861 -0.798002 8.83462 0.377764 13.5504L8.89342 47.7048C10.0692 52.4205 14.8452 55.2902 19.5609 54.1145L53.7153 45.5988C58.4311 44.423 61.3008 39.647 60.125 34.9313Z" fill="#49007E"/>
            <path d="M25.6328 21.7344C28.4242 22.7817 31.0763 22.5029 33.589 20.8981" stroke="white" stroke-width="1.48148" stroke-linecap="round"/>
            <path d="M24.2729 15.1756C24.196 14.4432 23.6883 13.8963 23.1391 13.9541C22.5898 14.0118 22.2069 14.6523 22.2839 15.3846C22.3609 16.117 22.8685 16.6639 23.4178 16.6061C23.9671 16.5484 24.3499 15.9079 24.2729 15.1756Z" fill="white"/>
            <path d="M34.8823 14.0623C34.8053 13.3299 34.2977 12.7831 33.7484 12.8408C33.1992 12.8985 32.8163 13.539 32.8933 14.2713C32.9703 15.0037 33.4779 15.5506 34.0272 15.4928C34.5764 15.4351 34.9593 14.7946 34.8823 14.0623Z" fill="white"/>
        </g>
    </g>
    <defs>
        <clipPath id="clip0_3405_60814">
            <rect width="48" height="48" fill="white"/>
        </clipPath>
    </defs>
</svg>
