<svg width="24" height="24" viewBox="0 0 24 24" fill="none" xmlns="http://www.w3.org/2000/svg">
    <path d="M20.2585 6.53108L20.7521 5.32108C20.7521 5.32108 20.1312 4.65239 19.3669 3.88817C18.6027 3.12396 16.9947 3.56975 16.9947 3.56975L15.1638 1.5H11.9477H8.71569L6.88476 3.58567C6.88476 3.58567 5.27672 3.13988 4.51251 3.90409C3.74829 4.66831 3.12737 5.337 3.12737 5.337L3.62092 6.54701L3 8.33017C3 8.33017 4.84685 15.3036 5.05383 16.1634C5.4837 17.8351 5.77028 18.4879 6.98029 19.3476C8.1903 20.2074 10.3715 21.6721 10.7377 21.895C11.0879 22.1179 11.5497 22.5 11.9477 22.5C12.3457 22.5 12.7915 22.1179 13.1577 21.895C13.508 21.6721 15.7051 20.1914 16.9151 19.3476C18.1251 18.5038 18.4117 17.851 18.8415 16.1634C19.0644 15.3036 20.8954 8.33017 20.8954 8.33017L20.2585 6.53108Z"
          fill="url(#paint0_linear_7285_1166)"/>
    <path d="M16.4861 4.90687C16.4861 4.90687 18.8424 7.75676 18.8424 8.37769C18.8424 8.99861 18.5399 9.1419 18.2374 9.46032C17.9349 9.77875 16.6294 11.1639 16.4702 11.339C16.295 11.5142 15.9607 11.7848 16.1517 12.2784C16.3587 12.756 16.6612 13.3769 16.3269 14.0138C15.9925 14.6347 15.4194 15.0646 15.0532 14.985C14.687 14.9213 13.8113 14.4596 13.4929 14.2526C13.1745 14.0456 12.1714 13.2177 12.1714 12.8993C12.1714 12.5809 13.2222 12.0077 13.4133 11.8803C13.6043 11.753 14.48 11.2435 14.4959 11.0524C14.5119 10.8614 14.5119 10.7977 14.2412 10.3041C13.9865 9.81059 13.5088 9.15782 13.5884 8.72795C13.668 8.29808 14.4163 8.07518 14.9576 7.86821C15.499 7.66123 16.5338 7.27913 16.6612 7.21544C16.7886 7.15176 16.7567 7.10399 16.3587 7.05623C15.9607 7.02439 14.8621 6.86518 14.3526 7.00847C13.8432 7.15176 12.9993 7.35873 12.9197 7.47018C12.8561 7.58163 12.7924 7.58163 12.8561 7.97966C12.9197 8.36176 13.3018 10.2405 13.3337 10.5748C13.3655 10.9091 13.4451 11.132 13.0789 11.2117C12.7287 11.2913 12.1237 11.4345 11.9167 11.4345C11.7097 11.4345 11.1047 11.2913 10.7545 11.2117C10.4042 11.132 10.4679 10.9091 10.4997 10.5748C10.5316 10.2405 10.8978 8.37769 10.9774 7.97966C11.041 7.59755 10.9933 7.58163 10.9137 7.47018C10.85 7.35873 9.99025 7.15176 9.48077 7.00847C8.97129 6.86518 7.87273 7.00847 7.4747 7.05623C7.07667 7.08807 7.04483 7.15176 7.1722 7.21544C7.29957 7.27913 8.33445 7.66123 8.87576 7.86821C9.41708 8.07518 10.1654 8.29808 10.245 8.72795C10.3246 9.15782 9.86288 9.81059 9.59222 10.3041C9.33748 10.7977 9.32156 10.8455 9.33748 11.0524C9.3534 11.2435 10.2291 11.753 10.4201 11.8803C10.6112 12.0077 11.662 12.5809 11.662 12.8993C11.662 13.2177 10.6589 14.0456 10.3405 14.2526C10.0221 14.4596 9.16234 14.9054 8.78024 14.985C8.41405 15.0486 7.84089 14.6347 7.50655 14.0138C7.1722 13.3928 7.4747 12.7719 7.68168 12.2784C7.88865 11.8007 7.53839 11.5301 7.36325 11.339C7.23589 11.148 5.94627 9.76283 5.64377 9.46032C5.34127 9.1419 5.05469 8.98269 5.05469 8.37769C5.05469 7.77268 7.41102 4.90687 7.41102 4.90687C7.41102 4.90687 9.40116 5.28898 9.67182 5.28898C9.94248 5.28898 10.5156 5.06609 11.057 4.89095C11.5983 4.71582 11.9485 4.71582 11.9485 4.71582C11.9485 4.71582 12.2988 4.71582 12.8401 4.89095C13.3815 5.06609 13.9546 5.28898 14.2253 5.28898C14.4959 5.28898 16.4861 4.90687 16.4861 4.90687ZM14.7188 15.8129C14.8621 15.9084 14.7825 16.0835 14.6392 16.1631C14.5119 16.2587 12.7128 17.6438 12.5536 17.803C12.3784 17.9622 12.1237 18.201 11.9485 18.201C11.7734 18.201 11.5187 17.9463 11.3435 17.803C11.1684 17.6438 9.38524 16.2587 9.25787 16.1631C9.1305 16.0676 9.03498 15.8925 9.17827 15.8129C9.32156 15.7173 9.78327 15.4944 10.4042 15.1601C11.041 14.8258 11.8212 14.5551 11.9485 14.5551C12.0759 14.5551 12.8561 14.8258 13.4929 15.1601C14.1138 15.4944 14.5596 15.7333 14.7188 15.8129Z"
          fill="white"/>
    <path d="M16.9939 3.58567L15.163 1.5H11.9469H8.7149L6.88397 3.58567C6.88397 3.58567 5.27593 3.13988 4.51172 3.90409C4.51172 3.90409 6.66107 3.71304 7.39345 4.90713C7.39345 4.90713 9.38359 5.28923 9.65425 5.28923C9.92491 5.28923 10.4981 5.06634 11.0394 4.89121C11.5807 4.71607 11.931 4.71607 11.931 4.71607C11.931 4.71607 12.2812 4.71607 12.8226 4.89121C13.3639 5.06634 13.937 5.28923 14.2077 5.28923C14.4784 5.28923 16.4685 4.90713 16.4685 4.90713C17.2009 3.71304 19.3502 3.90409 19.3502 3.90409C18.6019 3.13988 16.9939 3.58567 16.9939 3.58567Z"
          fill="url(#paint1_linear_7285_1166)"/>
    <defs>
        <linearGradient id="paint0_linear_7285_1166" x1="2.99988" y1="11.9957" x2="20.8813" y2="11.9957"
                        gradientUnits="userSpaceOnUse">
            <stop stop-color="#FF5500"/>
            <stop offset="0.4099" stop-color="#FF5500"/>
            <stop offset="0.582" stop-color="#FF2000"/>
            <stop offset="1" stop-color="#FF2000"/>
        </linearGradient>
        <linearGradient id="paint1_linear_7285_1166" x1="4.83702" y1="3.39112" x2="19.361" y2="3.39112"
                        gradientUnits="userSpaceOnUse">
            <stop stop-color="#FF452A"/>
            <stop offset="1" stop-color="#FF2000"/>
        </linearGradient>
    </defs>
</svg>
