<svg width="18" height="18" viewBox="0 0 18 18" fill="none" xmlns="http://www.w3.org/2000/svg">
<path d="M6.49996 0.832031V2.4987H11.5V0.832031H13.1666V2.4987H16.5C16.9602 2.4987 17.3333 2.8718 17.3333 3.33203V16.6654C17.3333 17.1256 16.9602 17.4987 16.5 17.4987H1.49996C1.03973 17.4987 0.666626 17.1256 0.666626 16.6654V3.33203C0.666626 2.8718 1.03973 2.4987 1.49996 2.4987H4.83329V0.832031H6.49996ZM15.6666 9.16536H2.33329V15.832H15.6666V9.16536ZM4.83329 4.16536H2.33329V7.4987H15.6666V4.16536H13.1666V5.83203H11.5V4.16536H6.49996V5.83203H4.83329V4.16536Z" fill="white"/>
</svg>
