<svg width="80" height="80" viewBox="0 0 80 80" fill="none" xmlns="http://www.w3.org/2000/svg">
<circle cx="40" cy="40" r="40" fill="white" fill-opacity="0.7"/>
<path d="M33.0769 48.5263C33.0769 48.5263 46 50.4211 51.5385 56.1053H53.3846C54.4042 56.1053 55.2308 55.257 55.2308 54.2105V42.7227C56.8233 42.3021 58 40.8183 58 39.0526C58 37.2869 56.8233 35.8032 55.2308 35.3825V23.8947C55.2308 22.8483 54.4042 22 53.3846 22H51.5385C46 27.6842 33.0769 29.5789 33.0769 29.5789H25.6923C23.6531 29.5789 22 31.2756 22 33.3684V44.7368C22 46.8298 23.6531 48.5263 25.6923 48.5263H27.5385L29.3846 58H33.0769V48.5263ZM36.7692 32.7265C38.0307 32.4487 39.5892 32.0647 41.2726 31.5565C44.3708 30.6213 48.3077 29.1481 51.5385 26.8782V51.2271C48.3077 48.9572 44.3708 47.484 41.2726 46.5488C39.5892 46.0406 38.0307 45.6565 36.7692 45.3788V32.7265ZM25.6923 33.3684H33.0769V44.7368H25.6923V33.3684Z" fill="#014550"/>
</svg>
