<svg width="150" height="122" viewBox="0 0 150 122" fill="none" xmlns="http://www.w3.org/2000/svg">
<line x1="11.2836" y1="1.49902" x2="11.2836" y2="61.3214" stroke="#014550" stroke-width="0.52123"/>
<line x1="11.0229" y1="16.1935" x2="74.8335" y2="16.1935" stroke="#014550" stroke-width="0.52123"/>
<line x1="11.0229" y1="31.1495" x2="74.8335" y2="31.1495" stroke="#014550" stroke-width="0.52123"/>
<line x1="11.0229" y1="46.1046" x2="74.8335" y2="46.1046" stroke="#014550" stroke-width="0.52123"/>
<line x1="11.0229" y1="61.0607" x2="74.8335" y2="61.0607" stroke="#014550" stroke-width="0.52123"/>
<line x1="11.0229" y1="1.23841" x2="74.8335" y2="1.23841" stroke="#014550" stroke-width="0.52123"/>
<line x1="27.2364" y1="1.49902" x2="27.2364" y2="61.3214" stroke="#014550" stroke-width="0.52123"/>
<line x1="43.1888" y1="1.49902" x2="43.1888" y2="61.3214" stroke="#014550" stroke-width="0.52123"/>
<line x1="59.1417" y1="1.49902" x2="59.1417" y2="61.3214" stroke="#014550" stroke-width="0.52123"/>
<path d="M75.083 1L75.083 61.3209" stroke="#014550" stroke-width="0.52123"/>
<rect x="36.4424" y="24.2314" width="88.8296" height="96.8015" rx="4.76289" fill="white"/>
<path d="M54.1448 108.533V108.97C54.1393 108.991 54.1334 109.012 54.1282 109.033C54.0622 109.299 54.0194 109.574 53.9253 109.83C53.6909 110.468 53.2967 111.011 52.8476 111.514C51.8649 112.615 50.6994 113.491 49.4488 114.261C49.3354 114.331 49.2233 114.326 49.1091 114.257C48.0513 113.613 47.0592 112.883 46.1749 112.014C45.6287 111.476 45.1371 110.895 44.7904 110.206C44.2607 109.152 44.2792 108.112 44.916 107.112C45.3579 106.419 45.9976 105.996 46.8268 105.919C47.703 105.838 48.422 106.171 48.9968 106.827C49.1 106.944 49.1869 107.076 49.2855 107.208C49.3009 107.186 49.3145 107.166 49.3293 107.147C49.4462 106.997 49.5493 106.835 49.6825 106.702C50.3829 106.002 51.219 105.73 52.1812 106.007C53.1563 106.288 53.7402 106.978 54.0273 107.931C54.086 108.125 54.1065 108.332 54.1446 108.533H54.1448Z" fill="#04DB8E"/>
<path d="M70.8412 109.564V110.001C70.8359 110.031 70.83 110.062 70.8256 110.093C70.793 110.318 70.7742 110.545 70.7262 110.767C70.3393 112.558 68.8333 113.951 67.0186 114.2C66.8626 114.222 66.7057 114.237 66.5491 114.255H66.2263C66.2018 114.25 66.1774 114.242 66.1527 114.241C65.4433 114.206 64.7818 114.007 64.1636 113.659C64.1316 113.641 64.0784 113.64 64.0428 113.652C63.4848 113.851 62.9281 114.053 62.371 114.255H62.276C61.9329 114.122 61.8573 113.95 61.9856 113.597C62.1605 113.117 62.3329 112.635 62.5109 112.155C62.5366 112.086 62.5299 112.034 62.4949 111.971C61.9551 110.997 61.7865 109.96 62.0191 108.872C62.5609 106.335 65.0962 104.786 67.589 105.511C69.3401 106.02 70.3913 107.224 70.7654 109.011C70.8035 109.192 70.8166 109.379 70.8412 109.563V109.564Z" fill="#CBE6DC"/>
<path d="M77.4758 108.452C77.4758 108.375 77.4758 108.298 77.4758 108.221C77.4806 108.211 77.4879 108.201 77.4902 108.189C77.5634 107.841 77.7757 107.626 78.1147 107.524C79.8946 106.991 81.6741 106.456 83.4537 105.922C84.3605 105.65 85.2669 105.377 86.1745 105.107C86.2317 105.09 86.299 105.081 86.3559 105.094C86.5215 105.131 86.5884 105.284 86.5316 105.473C85.927 107.487 85.3222 109.501 84.7176 111.515C84.5149 112.19 84.3125 112.865 84.1103 113.54C84.0247 113.826 83.8429 114.021 83.5606 114.12C83.5139 114.137 83.4654 114.148 83.4176 114.162H83.187C83.1792 114.158 83.1717 114.152 83.1635 114.15C82.7997 114.076 82.5804 113.853 82.48 113.5C82.1675 112.4 81.852 111.3 81.5396 110.2C81.5233 110.142 81.4963 110.115 81.4375 110.098C80.3203 109.781 79.2038 109.461 78.0872 109.142C77.9051 109.09 77.7464 108.995 77.6459 108.835C77.5721 108.718 77.5313 108.581 77.4758 108.452Z" fill="#CBE6DC"/>
<path d="M36.4424 28.9943C36.4424 26.3639 38.5748 24.2314 41.2053 24.2314H120.509C123.14 24.2314 125.272 26.3639 125.272 28.9943V98.2561H36.4424V28.9943Z" fill="#04DB8E"/>
<rect width="18.2693" height="32.5282" transform="matrix(-1 0 0 1 114.798 50.0254)" fill="#014550"/>
<rect width="18.2693" height="24.5075" transform="matrix(-1 0 0 1 96.5283 58.0469)" fill="white"/>
<rect width="17.8237" height="40.9944" transform="matrix(-1 0 0 1 132.176 41.5605)" fill="#B3F001"/>
<rect width="17.8237" height="50.3519" transform="matrix(-1 0 0 1 149.999 32.2021)" fill="#AE70FF"/>
<ellipse cx="0.411803" cy="0.411803" rx="0.411803" ry="0.411803" transform="matrix(-1 0 0 1 129.948 44.2334)" fill="#014550"/>
<ellipse cx="0.411803" cy="0.411803" rx="0.411803" ry="0.411803" transform="matrix(-1 0 0 1 127.474 44.2334)" fill="#014550"/>
<ellipse cx="0.411803" cy="0.411803" rx="0.411803" ry="0.411803" transform="matrix(-1 0 0 1 125.001 44.2334)" fill="#014550"/>
<ellipse cx="0.411803" cy="0.411803" rx="0.411803" ry="0.411803" transform="matrix(-1 0 0 1 122.528 44.2334)" fill="#014550"/>
<ellipse cx="0.411803" cy="0.411803" rx="0.411803" ry="0.411803" transform="matrix(-1 0 0 1 120.055 44.2334)" fill="#014550"/>
<ellipse cx="0.411803" cy="0.411803" rx="0.411803" ry="0.411803" transform="matrix(-1 0 0 1 117.582 44.2334)" fill="#014550"/>
<ellipse cx="0.411803" cy="0.411803" rx="0.411803" ry="0.411803" transform="matrix(-1 0 0 1 129.948 46.7061)" fill="#014550"/>
<ellipse cx="0.411803" cy="0.411803" rx="0.411803" ry="0.411803" transform="matrix(-1 0 0 1 127.474 46.7061)" fill="#014550"/>
<ellipse cx="0.411803" cy="0.411803" rx="0.411803" ry="0.411803" transform="matrix(-1 0 0 1 125.001 46.7061)" fill="#014550"/>
<ellipse cx="0.411803" cy="0.411803" rx="0.411803" ry="0.411803" transform="matrix(-1 0 0 1 122.528 46.7061)" fill="#014550"/>
<ellipse cx="0.411803" cy="0.411803" rx="0.411803" ry="0.411803" transform="matrix(-1 0 0 1 120.055 46.7061)" fill="#014550"/>
<ellipse cx="0.411803" cy="0.411803" rx="0.411803" ry="0.411803" transform="matrix(-1 0 0 1 117.582 46.7061)" fill="#014550"/>
<ellipse cx="0.411803" cy="0.411803" rx="0.411803" ry="0.411803" transform="matrix(-1 0 0 1 129.948 49.1797)" fill="#014550"/>
<ellipse cx="0.411803" cy="0.411803" rx="0.411803" ry="0.411803" transform="matrix(-1 0 0 1 127.474 49.1797)" fill="#014550"/>
<ellipse cx="0.411803" cy="0.411803" rx="0.411803" ry="0.411803" transform="matrix(-1 0 0 1 125.001 49.1797)" fill="#014550"/>
<ellipse cx="0.411803" cy="0.411803" rx="0.411803" ry="0.411803" transform="matrix(-1 0 0 1 122.528 49.1797)" fill="#014550"/>
<ellipse cx="0.411803" cy="0.411803" rx="0.411803" ry="0.411803" transform="matrix(-1 0 0 1 120.055 49.1797)" fill="#014550"/>
<ellipse cx="0.411803" cy="0.411803" rx="0.411803" ry="0.411803" transform="matrix(-1 0 0 1 117.582 49.1797)" fill="#014550"/>
<ellipse cx="0.411803" cy="0.411803" rx="0.411803" ry="0.411803" transform="matrix(-1 0 0 1 129.948 51.6543)" fill="#014550"/>
<ellipse cx="0.411803" cy="0.411803" rx="0.411803" ry="0.411803" transform="matrix(-1 0 0 1 127.474 51.6543)" fill="#014550"/>
<ellipse cx="0.411803" cy="0.411803" rx="0.411803" ry="0.411803" transform="matrix(-1 0 0 1 125.001 51.6543)" fill="#014550"/>
<ellipse cx="0.411803" cy="0.411803" rx="0.411803" ry="0.411803" transform="matrix(-1 0 0 1 122.528 51.6543)" fill="#014550"/>
<ellipse cx="0.411803" cy="0.411803" rx="0.411803" ry="0.411803" transform="matrix(-1 0 0 1 120.055 51.6543)" fill="#014550"/>
<ellipse cx="0.411803" cy="0.411803" rx="0.411803" ry="0.411803" transform="matrix(-1 0 0 1 117.582 51.6543)" fill="#014550"/>
<ellipse cx="0.411803" cy="0.411803" rx="0.411803" ry="0.411803" transform="matrix(-1 0 0 1 129.948 54.125)" fill="#014550"/>
<ellipse cx="0.411803" cy="0.411803" rx="0.411803" ry="0.411803" transform="matrix(-1 0 0 1 127.474 54.125)" fill="#014550"/>
<ellipse cx="0.411803" cy="0.411803" rx="0.411803" ry="0.411803" transform="matrix(-1 0 0 1 125.001 54.125)" fill="#014550"/>
<ellipse cx="0.411803" cy="0.411803" rx="0.411803" ry="0.411803" transform="matrix(-1 0 0 1 122.528 54.125)" fill="#014550"/>
<ellipse cx="0.411803" cy="0.411803" rx="0.411803" ry="0.411803" transform="matrix(-1 0 0 1 120.055 54.125)" fill="#014550"/>
<ellipse cx="0.411803" cy="0.411803" rx="0.411803" ry="0.411803" transform="matrix(-1 0 0 1 117.582 54.125)" fill="#014550"/>
<ellipse cx="0.411803" cy="0.411803" rx="0.411803" ry="0.411803" transform="matrix(-1 0 0 1 129.948 56.5986)" fill="#014550"/>
<ellipse cx="0.411803" cy="0.411803" rx="0.411803" ry="0.411803" transform="matrix(-1 0 0 1 127.474 56.5986)" fill="#014550"/>
<ellipse cx="0.411803" cy="0.411803" rx="0.411803" ry="0.411803" transform="matrix(-1 0 0 1 125.001 56.5986)" fill="#014550"/>
<ellipse cx="0.411803" cy="0.411803" rx="0.411803" ry="0.411803" transform="matrix(-1 0 0 1 122.528 56.5986)" fill="#014550"/>
<ellipse cx="0.411803" cy="0.411803" rx="0.411803" ry="0.411803" transform="matrix(-1 0 0 1 120.055 56.5986)" fill="#014550"/>
<ellipse cx="0.411803" cy="0.411803" rx="0.411803" ry="0.411803" transform="matrix(-1 0 0 1 117.582 56.5986)" fill="#014550"/>
<ellipse cx="0.411803" cy="0.411803" rx="0.411803" ry="0.411803" transform="matrix(-1 0 0 1 129.948 59.0723)" fill="#014550"/>
<ellipse cx="0.411803" cy="0.411803" rx="0.411803" ry="0.411803" transform="matrix(-1 0 0 1 127.474 59.0723)" fill="#014550"/>
<ellipse cx="0.411803" cy="0.411803" rx="0.411803" ry="0.411803" transform="matrix(-1 0 0 1 125.001 59.0723)" fill="#014550"/>
<ellipse cx="0.411803" cy="0.411803" rx="0.411803" ry="0.411803" transform="matrix(-1 0 0 1 122.528 59.0723)" fill="#014550"/>
<ellipse cx="0.411803" cy="0.411803" rx="0.411803" ry="0.411803" transform="matrix(-1 0 0 1 120.055 59.0723)" fill="#014550"/>
<ellipse cx="0.411803" cy="0.411803" rx="0.411803" ry="0.411803" transform="matrix(-1 0 0 1 117.582 59.0723)" fill="#014550"/>
<ellipse cx="0.411803" cy="0.411803" rx="0.411803" ry="0.411803" transform="matrix(-1 0 0 1 129.948 61.5449)" fill="#014550"/>
<ellipse cx="0.411803" cy="0.411803" rx="0.411803" ry="0.411803" transform="matrix(-1 0 0 1 127.474 61.5449)" fill="#014550"/>
<ellipse cx="0.411803" cy="0.411803" rx="0.411803" ry="0.411803" transform="matrix(-1 0 0 1 125.001 61.5449)" fill="#014550"/>
<ellipse cx="0.411803" cy="0.411803" rx="0.411803" ry="0.411803" transform="matrix(-1 0 0 1 122.528 61.5449)" fill="#014550"/>
<ellipse cx="0.411803" cy="0.411803" rx="0.411803" ry="0.411803" transform="matrix(-1 0 0 1 120.055 61.5449)" fill="#014550"/>
<ellipse cx="0.411803" cy="0.411803" rx="0.411803" ry="0.411803" transform="matrix(-1 0 0 1 117.582 61.5449)" fill="#014550"/>
<ellipse cx="0.411803" cy="0.411803" rx="0.411803" ry="0.411803" transform="matrix(-1 0 0 1 129.948 64.0186)" fill="#014550"/>
<ellipse cx="0.411803" cy="0.411803" rx="0.411803" ry="0.411803" transform="matrix(-1 0 0 1 127.474 64.0186)" fill="#014550"/>
<ellipse cx="0.411803" cy="0.411803" rx="0.411803" ry="0.411803" transform="matrix(-1 0 0 1 125.001 64.0186)" fill="#014550"/>
<ellipse cx="0.411803" cy="0.411803" rx="0.411803" ry="0.411803" transform="matrix(-1 0 0 1 122.528 64.0186)" fill="#014550"/>
<ellipse cx="0.411803" cy="0.411803" rx="0.411803" ry="0.411803" transform="matrix(-1 0 0 1 120.055 64.0186)" fill="#014550"/>
<ellipse cx="0.411803" cy="0.411803" rx="0.411803" ry="0.411803" transform="matrix(-1 0 0 1 117.582 64.0186)" fill="#014550"/>
<ellipse cx="0.411803" cy="0.411803" rx="0.411803" ry="0.411803" transform="matrix(-1 0 0 1 129.948 66.4912)" fill="#014550"/>
<ellipse cx="0.411803" cy="0.411803" rx="0.411803" ry="0.411803" transform="matrix(-1 0 0 1 127.474 66.4912)" fill="#014550"/>
<ellipse cx="0.411803" cy="0.411803" rx="0.411803" ry="0.411803" transform="matrix(-1 0 0 1 125.001 66.4912)" fill="#014550"/>
<ellipse cx="0.411803" cy="0.411803" rx="0.411803" ry="0.411803" transform="matrix(-1 0 0 1 122.528 66.4912)" fill="#014550"/>
<ellipse cx="0.411803" cy="0.411803" rx="0.411803" ry="0.411803" transform="matrix(-1 0 0 1 120.055 66.4912)" fill="#014550"/>
<ellipse cx="0.411803" cy="0.411803" rx="0.411803" ry="0.411803" transform="matrix(-1 0 0 1 117.582 66.4912)" fill="#014550"/>
<ellipse cx="0.411803" cy="0.411803" rx="0.411803" ry="0.411803" transform="matrix(-1 0 0 1 129.948 69.1865)" fill="#014550"/>
<ellipse cx="0.411803" cy="0.411803" rx="0.411803" ry="0.411803" transform="matrix(-1 0 0 1 127.474 69.1865)" fill="#014550"/>
<ellipse cx="0.411803" cy="0.411803" rx="0.411803" ry="0.411803" transform="matrix(-1 0 0 1 125.001 69.1865)" fill="#014550"/>
<ellipse cx="0.411803" cy="0.411803" rx="0.411803" ry="0.411803" transform="matrix(-1 0 0 1 122.528 69.1865)" fill="#014550"/>
<ellipse cx="0.411803" cy="0.411803" rx="0.411803" ry="0.411803" transform="matrix(-1 0 0 1 120.055 69.1865)" fill="#014550"/>
<ellipse cx="0.411803" cy="0.411803" rx="0.411803" ry="0.411803" transform="matrix(-1 0 0 1 117.582 69.1865)" fill="#014550"/>
<ellipse cx="0.411803" cy="0.411803" rx="0.411803" ry="0.411803" transform="matrix(-1 0 0 1 129.948 71.8818)" fill="#014550"/>
<ellipse cx="0.411803" cy="0.411803" rx="0.411803" ry="0.411803" transform="matrix(-1 0 0 1 127.474 71.8818)" fill="#014550"/>
<ellipse cx="0.411803" cy="0.411803" rx="0.411803" ry="0.411803" transform="matrix(-1 0 0 1 125.001 71.8818)" fill="#014550"/>
<ellipse cx="0.411803" cy="0.411803" rx="0.411803" ry="0.411803" transform="matrix(-1 0 0 1 122.528 71.8818)" fill="#014550"/>
<ellipse cx="0.411803" cy="0.411803" rx="0.411803" ry="0.411803" transform="matrix(-1 0 0 1 120.055 71.8818)" fill="#014550"/>
<ellipse cx="0.411803" cy="0.411803" rx="0.411803" ry="0.411803" transform="matrix(-1 0 0 1 117.582 71.8818)" fill="#014550"/>
<ellipse cx="0.411803" cy="0.411803" rx="0.411803" ry="0.411803" transform="matrix(-1 0 0 1 129.948 74.5771)" fill="#014550"/>
<ellipse cx="0.411803" cy="0.411803" rx="0.411803" ry="0.411803" transform="matrix(-1 0 0 1 127.474 74.5771)" fill="#014550"/>
<ellipse cx="0.411803" cy="0.411803" rx="0.411803" ry="0.411803" transform="matrix(-1 0 0 1 125.001 74.5771)" fill="#014550"/>
<ellipse cx="0.411803" cy="0.411803" rx="0.411803" ry="0.411803" transform="matrix(-1 0 0 1 122.528 74.5771)" fill="#014550"/>
<ellipse cx="0.411803" cy="0.411803" rx="0.411803" ry="0.411803" transform="matrix(-1 0 0 1 120.055 74.5771)" fill="#014550"/>
<ellipse cx="0.411803" cy="0.411803" rx="0.411803" ry="0.411803" transform="matrix(-1 0 0 1 117.582 74.5771)" fill="#014550"/>
<ellipse cx="0.411803" cy="0.411803" rx="0.411803" ry="0.411803" transform="matrix(-1 0 0 1 129.948 77.2725)" fill="#014550"/>
<ellipse cx="0.411803" cy="0.411803" rx="0.411803" ry="0.411803" transform="matrix(-1 0 0 1 127.474 77.2725)" fill="#014550"/>
<ellipse cx="0.411803" cy="0.411803" rx="0.411803" ry="0.411803" transform="matrix(-1 0 0 1 125.001 77.2725)" fill="#014550"/>
<ellipse cx="0.411803" cy="0.411803" rx="0.411803" ry="0.411803" transform="matrix(-1 0 0 1 122.528 77.2725)" fill="#014550"/>
<ellipse cx="0.411803" cy="0.411803" rx="0.411803" ry="0.411803" transform="matrix(-1 0 0 1 120.055 77.2725)" fill="#014550"/>
<ellipse cx="0.411803" cy="0.411803" rx="0.411803" ry="0.411803" transform="matrix(-1 0 0 1 117.582 77.2725)" fill="#014550"/>
<ellipse cx="0.411803" cy="0.411803" rx="0.411803" ry="0.411803" transform="matrix(-1 0 0 1 129.948 79.9678)" fill="#014550"/>
<ellipse cx="0.411803" cy="0.411803" rx="0.411803" ry="0.411803" transform="matrix(-1 0 0 1 127.474 79.9678)" fill="#014550"/>
<ellipse cx="0.411803" cy="0.411803" rx="0.411803" ry="0.411803" transform="matrix(-1 0 0 1 125.001 79.9678)" fill="#014550"/>
<ellipse cx="0.411803" cy="0.411803" rx="0.411803" ry="0.411803" transform="matrix(-1 0 0 1 122.528 79.9678)" fill="#014550"/>
<ellipse cx="0.411803" cy="0.411803" rx="0.411803" ry="0.411803" transform="matrix(-1 0 0 1 120.055 79.9678)" fill="#014550"/>
<ellipse cx="0.411803" cy="0.411803" rx="0.411803" ry="0.411803" transform="matrix(-1 0 0 1 117.582 79.9678)" fill="#014550"/>
<circle cx="37.9734" cy="66.6637" r="16.3229" transform="rotate(46.7854 37.9734 66.6637)" fill="white"/>
<rect x="22.2932" y="73.875" width="10.8819" height="4.08073" rx="2.04036" transform="rotate(46.7854 22.2932 73.875)" fill="#014550"/>
<path d="M26.019 77.8395C26.8121 78.6836 26.8366 79.9914 26.0755 80.8646L16.6244 91.7082C15.1889 93.3553 12.645 93.4028 11.149 91.8105C9.65293 90.2182 9.85878 87.6823 11.5921 86.3521L23.0033 77.5947C23.9222 76.8895 25.2259 76.9953 26.019 77.8395Z" fill="#014550"/>
<ellipse cx="38.1234" cy="66.9373" rx="11.9578" ry="11.9578" fill="#BBF7D8"/>
<path d="M33.4744 65.532C33.9526 61.7332 39.6912 59.1444 42.5604 63.3373" stroke="white" stroke-width="3" stroke-linecap="round"/>
</svg>
