<svg width="177" height="155" viewBox="0 0 177 155" fill="none" xmlns="http://www.w3.org/2000/svg">
<path d="M95.6086 2.32325C97.6526 0.922706 100.347 0.922704 102.391 2.32325L118.138 13.1123C119.09 13.7646 120.21 14.1285 121.363 14.1604L140.444 14.6872C142.921 14.7556 145.101 16.3395 145.931 18.674L152.328 36.6579C152.715 37.7453 153.407 38.698 154.322 39.4019L169.449 51.0434C171.413 52.5546 172.245 55.1174 171.545 57.4942L166.15 75.8036C165.824 76.9107 165.824 78.0883 166.15 79.1954L171.545 97.5048C172.245 99.8816 171.413 102.444 169.449 103.956L154.322 115.597C153.407 116.301 152.715 117.254 152.328 118.341L145.931 136.325C145.101 138.659 142.921 140.243 140.444 140.312L121.363 140.839C120.21 140.87 119.09 141.234 118.138 141.887L102.391 152.676C100.347 154.076 97.6526 154.076 95.6086 152.676L79.8625 141.887C78.9104 141.234 77.7904 140.87 76.6367 140.839L57.5562 140.312C55.0793 140.243 52.8992 138.66 52.0688 136.325L45.6716 118.341C45.2848 117.254 44.5925 116.301 43.6779 115.597L28.5511 103.956C26.5875 102.444 25.7548 99.8816 26.4551 97.5048L31.8503 79.1954C32.1765 78.0883 32.1765 76.9107 31.8503 75.8036L26.4551 57.4942C25.7548 55.1174 26.5875 52.5546 28.5511 51.0434L43.6779 39.4019C44.5925 38.698 45.2848 37.7453 45.6716 36.6579L52.0688 18.674C52.8992 16.3395 55.0793 14.7556 57.5562 14.6872L76.6367 14.1604C77.7904 14.1285 78.9104 13.7646 79.8625 13.1123L95.6086 2.32325Z" fill="#04DB8E"/>
<path d="M93.1649 46.657C93.1649 46.657 90.3264 66.2202 66.133 79.7191C65.2479 80.2125 64.7787 81.2108 64.9359 82.2071C65.5419 85.862 67.866 94.4578 75.3252 100.509C76.0748 101.119 77.1215 101.214 77.9751 100.755C82.6497 98.2701 99.5254 90.4667 123.229 93.0226L93.1594 46.6604L93.1649 46.657Z" fill="white"/>
<path d="M124.027 92.6794C127.998 90.1909 124.566 77.5584 116.361 64.4639C108.155 51.3694 98.2842 42.7715 94.313 45.2599C90.3418 47.7483 93.7743 60.3808 101.98 73.4754C110.185 86.5699 120.056 95.1678 124.027 92.6794Z" fill="#AE70FF" stroke="#9A4AFE" stroke-width="3.52404" stroke-miterlimit="10"/>
<path d="M109.019 80.1669C112.264 77.8429 113.188 73.3672 111.042 69.9424C108.896 66.5176 104.235 65.3348 100.685 67.4521" stroke="#04DB8E" stroke-width="3" stroke-miterlimit="10"/>
<path d="M65.0645 80.9672C65.0645 80.9672 57.3206 85.5671 62.8112 95.2945C68.3019 105.022 76.7307 101.026 76.7307 101.026C76.7307 101.026 73.8537 100.54 68.9295 93.0607C66.9764 90.0049 64.4812 83.2619 65.0535 80.9741L65.0645 80.9672Z" fill="white"/>
<path d="M81.322 99.1302C81.322 99.1302 84.0312 106.643 87.5106 112.953C90.99 119.263 93.4876 118.08 96.0996 115.395C98.7117 112.709 100.179 110.641 97.1876 107.846C94.1958 105.05 91.8608 101.813 89.2081 96.1867C89.2081 96.1867 84.6725 97.513 81.322 99.1302Z" fill="#AE70FF"/>
<path d="M73.6095 89.2998C70.1188 83.3261 69.6678 79.3443 69.6871 77.5791C68.556 78.3031 67.3803 79.0169 66.133 79.7143C65.2479 80.2077 64.7787 81.2061 64.9359 82.2023C65.5419 85.8572 67.8659 94.453 75.3252 100.505C76.0748 101.114 77.1215 101.209 77.9751 100.751C78.8066 100.306 80.0389 99.6946 81.6156 98.9975C79.7565 97.5212 76.6723 94.5541 73.604 89.3033L73.6095 89.2998Z" fill="#AE70FF"/>
<path d="M128.067 62.2046L139.358 55.1291" stroke="white" stroke-width="3" stroke-linecap="round" stroke-linejoin="round"/>
<path d="M122.184 54.1713L125.882 47.0002" stroke="white" stroke-width="3" stroke-linecap="round" stroke-linejoin="round"/>
<path d="M140.439 70.3302L132.435 70.5308" stroke="white" stroke-width="3" stroke-linecap="round" stroke-linejoin="round"/>
<path d="M146.012 104.54C150.849 103.966 155.741 105.012 159.92 107.516C164.099 110.019 167.33 113.838 169.106 118.374C170.883 122.91 171.105 127.907 169.738 132.583C168.37 137.259 165.49 141.349 161.55 144.213C157.609 147.077 152.83 148.553 147.96 148.41C143.091 148.267 138.406 146.513 134.64 143.423C130.874 140.332 128.24 136.08 127.149 131.332C126.058 126.585 126.573 121.609 128.612 117.185L148.606 126.403L146.012 104.54Z" fill="#B3F001"/>
<path d="M147.843 104.4C143.748 104.542 139.775 105.823 136.369 108.101C132.963 110.378 130.26 113.561 128.564 117.29C126.868 121.02 126.247 125.149 126.77 129.213C127.293 133.276 128.939 137.113 131.524 140.292C134.109 143.471 137.529 145.866 141.401 147.207C145.272 148.548 149.441 148.782 153.438 147.882C157.436 146.983 161.103 144.986 164.027 142.117C166.951 139.247 169.017 135.618 169.991 131.639L148.606 126.403L147.843 104.4Z" fill="#AE70FF"/>
<path d="M104 121.999H119" stroke="#AE70FF" stroke-linecap="round"/>
<path d="M104 127.999H119" stroke="#AE70FF" stroke-linecap="round"/>
<path d="M104 133.999H119" stroke="#AE70FF" stroke-linecap="round"/>
<rect x="0.166071" y="0.165583" width="61.668" height="49.1286" rx="3.1519" stroke="black" stroke-width="0.332143"/>
<rect x="10.6153" y="23.9044" width="5.57141" height="15.6371" rx="2.78571" stroke="black" stroke-width="0.332143"/>
<rect x="22.6587" y="19.2076" width="5.57141" height="20.334" rx="2.78571" stroke="black" stroke-width="0.332143"/>
<rect x="34.938" y="10.1299" width="5.57141" height="29.4146" rx="2.78571" stroke="black" stroke-width="0.332143"/>
<rect x="47.2173" y="27.9761" width="5.33527" height="11.5665" rx="2.66764" stroke="black" stroke-width="0.332143"/>
</svg>
