<svg width="96" height="96" viewBox="0 0 96 96" fill="none" xmlns="http://www.w3.org/2000/svg">
<rect width="96" height="96" rx="48" fill="#FFD5DC"/>
<g clip-path="url(#clip0_5145_39865)">
<path d="M49.7322 29.9999L68.7842 62.9999C68.9597 63.3039 69.0521 63.6488 69.0521 63.9999C69.0521 64.351 68.9597 64.6959 68.7842 64.9999C68.6087 65.3039 68.3562 65.5564 68.0522 65.7319C67.7481 65.9075 67.4033 65.9999 67.0522 65.9999H28.9482C28.5971 65.9999 28.2522 65.9075 27.9482 65.7319C27.6442 65.5564 27.3917 65.3039 27.2162 64.9999C27.0406 64.6959 26.9482 64.351 26.9482 63.9999C26.9482 63.6488 27.0407 63.3039 27.2162 62.9999L46.2682 29.9999C46.4437 29.6959 46.6962 29.4434 47.0002 29.2679C47.3043 29.0924 47.6491 29 48.0002 29C48.3512 29 48.6961 29.0924 49.0001 29.2679C49.3042 29.4434 49.5566 29.6959 49.7322 29.9999ZM32.4122 61.9999H63.5882L48.0002 34.9999L32.4122 61.9999ZM46.0002 55.9999H50.0002V59.9999H46.0002V55.9999ZM46.0002 41.9999H50.0002V51.9999H46.0002V41.9999Z" fill="#B00020"/>
</g>
<defs>
<clipPath id="clip0_5145_39865">
<rect width="48" height="48" fill="white" transform="translate(24 24)"/>
</clipPath>
</defs>
</svg>
