<svg width="49" height="48" viewBox="0 0 49 48" fill="none" xmlns="http://www.w3.org/2000/svg">
<path d="M26.2322 5.99991L45.2842 38.9999C45.4597 39.3039 45.5521 39.6488 45.5521 39.9999C45.5521 40.351 45.4597 40.6959 45.2842 40.9999C45.1087 41.3039 44.8562 41.5564 44.5522 41.7319C44.2481 41.9075 43.9033 41.9999 43.5522 41.9999H5.44819C5.09712 41.9999 4.75224 41.9075 4.44821 41.7319C4.14418 41.5564 3.89171 41.3039 3.71618 40.9999C3.54065 40.6959 3.44824 40.351 3.44824 39.9999C3.44824 39.6488 3.54066 39.3039 3.71619 38.9999L22.7682 5.99991C22.9437 5.6959 23.1962 5.44344 23.5002 5.26792C23.8043 5.0924 24.1491 5 24.5002 5C24.8512 5 25.1961 5.0924 25.5001 5.26792C25.8042 5.44344 26.0567 5.6959 26.2322 5.99991ZM22.5002 31.9999V35.9999H26.5002V31.9999H22.5002ZM22.5002 17.9999V27.9999H26.5002V17.9999H22.5002Z" fill="#D4D3D9"/>
</svg>
