<svg width="24" height="25" viewBox="0 0 24 25" fill="none" xmlns="http://www.w3.org/2000/svg">
<g clip-path="url(#clip0_3760_2529)">
<path d="M4 3.5H20C20.2652 3.5 20.5196 3.60536 20.7071 3.79289C20.8946 3.98043 21 4.23478 21 4.5V20.5C21 20.7652 20.8946 21.0196 20.7071 21.2071C20.5196 21.3946 20.2652 21.5 20 21.5H4C3.73478 21.5 3.48043 21.3946 3.29289 21.2071C3.10536 21.0196 3 20.7652 3 20.5V4.5C3 4.23478 3.10536 3.98043 3.29289 3.79289C3.48043 3.60536 3.73478 3.5 4 3.5ZM5 5.5V19.5H19V5.5H5ZM11.003 16.5L6.76 12.257L8.174 10.843L11.003 13.672L16.659 8.015L18.074 9.429L11.003 16.5Z" fill="#680DE4"/>
</g>
<defs>
<clipPath id="clip0_3760_2529">
<rect width="24" height="24" fill="white" transform="translate(0 0.5)"/>
</clipPath>
</defs>
</svg>
