<svg width="64" height="64" viewBox="0 0 64 64" fill="none" xmlns="http://www.w3.org/2000/svg">
    <rect width="64" height="64" rx="32" fill="white"/>
    <path d="M31.9998 45.3337C24.636 45.3337 18.6665 39.3641 18.6665 32.0003C18.6665 24.6365 24.636 18.667 31.9998 18.667C39.3636 18.667 45.3332 24.6365 45.3332 32.0003C45.3332 39.3641 39.3636 45.3337 31.9998 45.3337ZM31.9998 42.667C37.8909 42.667 42.6665 37.8914 42.6665 32.0003C42.6665 26.1093 37.8909 21.3337 31.9998 21.3337C26.1088 21.3337 21.3332 26.1093 21.3332 32.0003C21.3332 37.8914 26.1088 42.667 31.9998 42.667ZM33.3332 32.0003H38.6665V34.667H30.6665V25.3337H33.3332V32.0003Z" fill="#5A5A67"/>
</svg>
