<svg width="96" height="96" viewBox="0 0 96 96" fill="none" xmlns="http://www.w3.org/2000/svg">
    <rect width="96" height="96" rx="48" fill="var(--neutrals-background-grey)"/>
    <g clip-path="url(#clip0_2212_40287)">
        <path d="M38.582 65.648L28 68L30.352 57.418C28.8031 54.5208 27.9951 51.2853 28 48C28 36.954 36.954 28 48 28C59.046 28 68 36.954 68 48C68 59.046 59.046 68 48 68C44.7147 68.0049 41.4793 67.1969 38.582 65.648ZM39.162 61.422L40.468 62.122C42.7851 63.3603 45.3728 64.0055 48 64C51.1645 64 54.258 63.0616 56.8891 61.3035C59.5203 59.5454 61.5711 57.0466 62.7821 54.1229C63.9931 51.1993 64.31 47.9823 63.6926 44.8786C63.0752 41.7749 61.5514 38.9239 59.3137 36.6863C57.0761 34.4487 54.2252 32.9248 51.1215 32.3074C48.0178 31.6901 44.8007 32.0069 41.8771 33.2179C38.9535 34.4289 36.4546 36.4797 34.6965 39.1109C32.9384 41.7421 32 44.8355 32 48C32 50.668 32.65 53.236 33.88 55.532L34.578 56.838L33.268 62.732L39.162 61.422Z" fill="#5A5A67"/>
    </g>
    <defs>
        <clipPath id="clip0_2212_40287">
            <rect width="48" height="48" fill="white" transform="translate(24 24)"/>
        </clipPath>
    </defs>
</svg>