<svg width="48" height="48" viewBox="0 0 48 48" fill="none" xmlns="http://www.w3.org/2000/svg">
    <rect width="48" height="48" rx="24" fill="white"/>
    <g clip-path="url(#clip0_7526_52058)">
        <path d="M19.291 32.824L14 34L15.176 28.709C14.4015 27.2604 13.9975 25.6426 14 24C14 18.477 18.477 14 24 14C29.523 14 34 18.477 34 24C34 29.523 29.523 34 24 34C22.3574 34.0025 20.7396 33.5985 19.291 32.824ZM19.581 30.711L20.234 31.061C21.3926 31.6801 22.6864 32.0027 24 32C25.5823 32 27.129 31.5308 28.4446 30.6518C29.7602 29.7727 30.7855 28.5233 31.391 27.0615C31.9965 25.5997 32.155 23.9911 31.8463 22.4393C31.5376 20.8874 30.7757 19.462 29.6569 18.3431C28.538 17.2243 27.1126 16.4624 25.5607 16.1537C24.0089 15.845 22.4004 16.0035 20.9385 16.609C19.4767 17.2145 18.2273 18.2398 17.3483 19.5554C16.4692 20.871 16 22.4177 16 24C16 25.334 16.325 26.618 16.94 27.766L17.289 28.419L16.634 31.366L19.581 30.711Z" fill="#5A5A67"/>
    </g>
    <defs>
        <clipPath id="clip0_7526_52058">
            <rect width="24" height="24" fill="white" transform="translate(12 12)"/>
        </clipPath>
    </defs>
</svg>
