<svg width="14" height="14" viewBox="0 0 14 14" fill="none" xmlns="http://www.w3.org/2000/svg">
<path d="M6.99996 1.16602C10.2217 1.16602 12.8333 3.7776 12.8333 6.99935C12.8333 10.2211 10.2217 12.8327 6.99996 12.8327C3.77821 12.8327 1.16663 10.2211 1.16663 6.99935H2.33329C2.33329 9.57652 4.42279 11.666 6.99996 11.666C9.57713 11.666 11.6666 9.57652 11.6666 6.99935C11.6666 4.42218 9.57713 2.33268 6.99996 2.33268C5.56263 2.33268 4.27696 2.98252 3.42121 4.00393L4.66663 5.24935H1.16663V1.74935L2.59404 3.17618C3.66329 1.94535 5.24063 1.16602 6.99996 1.16602ZM7.58329 4.08268V6.75727L9.47504 8.64902L8.64963 9.47443L6.41663 7.24027V4.08268H7.58329Z" fill="#8A8894"/>
</svg>
