<svg width="270" height="300" viewBox="0 0 270 300" fill="none" xmlns="http://www.w3.org/2000/svg">
<path d="M0 8C0 3.58172 3.58172 0 8 0H270V324H8C3.58172 324 0 320.418 0 316V8Z" fill="#EBEBEF"/>
<g clip-path="url(#clip0_11323_16513)">
<path d="M166.204 195.6H174.6V204H141C117.803 204 99 185.197 99 162C99 138.803 117.803 120 141 120C164.197 120 183 138.803 183 162C183.005 168.521 181.49 174.953 178.574 180.786C175.659 186.618 171.423 191.691 166.204 195.6ZM141 153.6C143.228 153.6 145.364 152.715 146.94 151.14C148.515 149.564 149.4 147.428 149.4 145.2C149.4 142.972 148.515 140.836 146.94 139.26C145.364 137.685 143.228 136.8 141 136.8C138.772 136.8 136.636 137.685 135.06 139.26C133.485 140.836 132.6 142.972 132.6 145.2C132.6 147.428 133.485 149.564 135.06 151.14C136.636 152.715 138.772 153.6 141 153.6ZM124.2 170.4C126.428 170.4 128.564 169.515 130.14 167.94C131.715 166.364 132.6 164.228 132.6 162C132.6 159.772 131.715 157.636 130.14 156.06C128.564 154.485 126.428 153.6 124.2 153.6C121.972 153.6 119.836 154.485 118.26 156.06C116.685 157.636 115.8 159.772 115.8 162C115.8 164.228 116.685 166.364 118.26 167.94C119.836 169.515 121.972 170.4 124.2 170.4ZM157.8 170.4C160.028 170.4 162.164 169.515 163.74 167.94C165.315 166.364 166.2 164.228 166.2 162C166.2 159.772 165.315 157.636 163.74 156.06C162.164 154.485 160.028 153.6 157.8 153.6C155.572 153.6 153.436 154.485 151.86 156.06C150.285 157.636 149.4 159.772 149.4 162C149.4 164.228 150.285 166.364 151.86 167.94C153.436 169.515 155.572 170.4 157.8 170.4ZM141 187.2C143.228 187.2 145.364 186.315 146.94 184.74C148.515 183.164 149.4 181.028 149.4 178.8C149.4 176.572 148.515 174.436 146.94 172.86C145.364 171.285 143.228 170.4 141 170.4C138.772 170.4 136.636 171.285 135.06 172.86C133.485 174.436 132.6 176.572 132.6 178.8C132.6 181.028 133.485 183.164 135.06 184.74C136.636 186.315 138.772 187.2 141 187.2Z" fill="#D4D3D9"/>
</g>
<defs>
<clipPath id="clip0_11323_16513">
<rect width="84" height="84" fill="white" transform="translate(99 120)"/>
</clipPath>
</defs>
</svg>
