<svg width="24" height="24" viewBox="0 0 24 24" fill="none" xmlns="http://www.w3.org/2000/svg">
    <g clip-path="url(#clip0_533_10144)">
        <path d="M17 7V3C17 2.73478 16.8946 2.48043 16.7071 2.29289C16.5196 2.10536 16.2652 2 16 2H3C2.73478 2 2.48043 2.10536 2.29289 2.29289C2.10536 2.48043 2 2.73478 2 3V16C2 16.2652 2.10536 16.5196 2.29289 16.7071C2.48043 16.8946 2.73478 17 3 17H7V20.993C7 21.549 7.449 22 8.007 22H20.993C21.1253 22.0001 21.2563 21.9742 21.3785 21.9236C21.5008 21.8731 21.6118 21.7989 21.7053 21.7053C21.7989 21.6118 21.8731 21.5008 21.9236 21.3785C21.9742 21.2563 22.0001 21.1253 22 20.993L21.997 8.007C21.997 7.451 21.548 7 20.99 7H17ZM15 7H8.007C7.451 7 7 7.449 7 8.007V15H4V4H15V7ZM19.997 9L20 20H9V9H19.997Z" fill="#5A5A67"/>
    </g>
    <defs>
        <clipPath id="clip0_533_10144">
            <rect width="24" height="24" fill="white"/>
        </clipPath>
    </defs>
</svg>
