<svg width="100" height="100" viewBox="0 0 100 100" fill="none" xmlns="http://www.w3.org/2000/svg">
<rect width="100" height="100" rx="4" fill="#EBEBEF"/>
<path d="M66.8028 72.4H72.4V78H50C34.5356 78 22 65.4644 22 50C22 34.5356 34.5356 22 50 22C65.4644 22 78 34.5356 78 50C78.0036 54.3472 76.9934 58.6353 75.0496 62.5238C73.1059 66.4122 70.2822 69.7939 66.8028 72.4ZM50 44.4C51.4852 44.4 52.9096 43.81 53.9598 42.7598C55.01 41.7096 55.6 40.2852 55.6 38.8C55.6 37.3148 55.01 35.8904 53.9598 34.8402C52.9096 33.79 51.4852 33.2 50 33.2C48.5148 33.2 47.0904 33.79 46.0402 34.8402C44.99 35.8904 44.4 37.3148 44.4 38.8C44.4 40.2852 44.99 41.7096 46.0402 42.7598C47.0904 43.81 48.5148 44.4 50 44.4ZM38.8 55.6C40.2852 55.6 41.7096 55.01 42.7598 53.9598C43.81 52.9096 44.4 51.4852 44.4 50C44.4 48.5148 43.81 47.0904 42.7598 46.0402C41.7096 44.99 40.2852 44.4 38.8 44.4C37.3148 44.4 35.8904 44.99 34.8402 46.0402C33.79 47.0904 33.2 48.5148 33.2 50C33.2 51.4852 33.79 52.9096 34.8402 53.9598C35.8904 55.01 37.3148 55.6 38.8 55.6ZM61.2 55.6C62.6852 55.6 64.1096 55.01 65.1598 53.9598C66.21 52.9096 66.8 51.4852 66.8 50C66.8 48.5148 66.21 47.0904 65.1598 46.0402C64.1096 44.99 62.6852 44.4 61.2 44.4C59.7148 44.4 58.2904 44.99 57.2402 46.0402C56.19 47.0904 55.6 48.5148 55.6 50C55.6 51.4852 56.19 52.9096 57.2402 53.9598C58.2904 55.01 59.7148 55.6 61.2 55.6ZM50 66.8C51.4852 66.8 52.9096 66.21 53.9598 65.1598C55.01 64.1096 55.6 62.6852 55.6 61.2C55.6 59.7148 55.01 58.2904 53.9598 57.2402C52.9096 56.19 51.4852 55.6 50 55.6C48.5148 55.6 47.0904 56.19 46.0402 57.2402C44.99 58.2904 44.4 59.7148 44.4 61.2C44.4 62.6852 44.99 64.1096 46.0402 65.1598C47.0904 66.21 48.5148 66.8 50 66.8Z" fill="#5A5A67"/>
</svg>
