<svg width="129" height="104" viewBox="0 0 129 104" fill="none" xmlns="http://www.w3.org/2000/svg">
<path d="M50.3628 1.71772C51.434 0.983784 52.8461 0.983785 53.9172 1.71772L62.1688 7.37154C62.6677 7.7134 63.2546 7.9041 63.8592 7.9208L73.858 8.19687C75.156 8.23271 76.2984 9.06274 76.7336 10.2861L80.086 19.7103C80.2887 20.2801 80.6514 20.7794 81.1307 21.1482L89.0577 27.2488C90.0867 28.0407 90.5231 29.3837 90.1561 30.6292L87.3288 40.224C87.1579 40.8041 87.1579 41.4213 87.3288 42.0014L90.1561 51.5962C90.5231 52.8417 90.0867 54.1847 89.0577 54.9766L81.1307 61.0772C80.6514 61.446 80.2887 61.9453 80.086 62.5151L76.7336 71.9393C76.2984 73.1627 75.156 73.9927 73.858 74.0285L63.8592 74.3046C63.2546 74.3213 62.6677 74.512 62.1688 74.8539L53.9172 80.5077C52.8461 81.2416 51.434 81.2416 50.3628 80.5077L42.1113 74.8539C41.6124 74.512 41.0255 74.3213 40.4209 74.3046L30.422 74.0285C29.1241 73.9927 27.9816 73.1627 27.5465 71.9393L24.1941 62.5151C23.9914 61.9453 23.6286 61.446 23.1493 61.0772L15.2224 54.9766C14.1934 54.1847 13.757 52.8417 14.124 51.5962L16.9513 42.0014C17.1222 41.4213 17.1222 40.8041 16.9513 40.224L14.124 30.6292C13.757 29.3837 14.1934 28.0407 15.2224 27.2488L23.1493 21.1482C23.6286 20.7794 23.9914 20.2801 24.1941 19.7103L27.5465 10.2861C27.9816 9.06274 29.1241 8.23271 30.422 8.19687L40.4209 7.9208C41.0255 7.9041 41.6124 7.7134 42.1113 7.37154L50.3628 1.71772Z" fill="#04DB8E"/>
<mask id="mask0_5027_45718" style="mask-type:alpha" maskUnits="userSpaceOnUse" x="13" y="1" width="78" height="81">
<path d="M50.3628 1.71772C51.434 0.983784 52.8461 0.983785 53.9172 1.71772L62.1688 7.37154C62.6677 7.7134 63.2546 7.9041 63.8592 7.9208L73.858 8.19687C75.156 8.23271 76.2984 9.06274 76.7336 10.2861L80.086 19.7103C80.2887 20.2801 80.6514 20.7794 81.1307 21.1482L89.0577 27.2488C90.0867 28.0407 90.5231 29.3837 90.1561 30.6292L87.3288 40.224C87.1579 40.8041 87.1579 41.4213 87.3288 42.0014L90.1561 51.5962C90.5231 52.8417 90.0867 54.1847 89.0577 54.9766L81.1307 61.0772C80.6514 61.446 80.2887 61.9453 80.086 62.5151L76.7336 71.9393C76.2984 73.1627 75.156 73.9927 73.858 74.0285L63.8592 74.3046C63.2546 74.3213 62.6677 74.512 62.1688 74.8539L53.9172 80.5077C52.8461 81.2416 51.434 81.2416 50.3628 80.5077L42.1113 74.8539C41.6124 74.512 41.0255 74.3213 40.4209 74.3046L30.422 74.0285C29.1241 73.9927 27.9816 73.1627 27.5465 71.9393L24.1941 62.5151C23.9914 61.9453 23.6286 61.446 23.1493 61.0772L15.2224 54.9766C14.1934 54.1847 13.757 52.8417 14.124 51.5962L16.9513 42.0014C17.1222 41.4213 17.1222 40.8041 16.9513 40.224L14.124 30.6292C13.757 29.3837 14.1934 28.0407 15.2224 27.2488L23.1493 21.1482C23.6286 20.7794 23.9914 20.2801 24.1941 19.7103L27.5465 10.2861C27.9816 9.06274 29.1241 8.23271 30.422 8.19687L40.4209 7.9208C41.0255 7.9041 41.6124 7.7134 42.1113 7.37154L50.3628 1.71772Z" fill="#04DB8E"/>
</mask>
<g mask="url(#mask0_5027_45718)">
<path d="M86.8089 131.16H23.7514C23.4864 128.751 33.1467 77.5097 44.4918 61.0341C45.7818 59.1668 56.8028 57.8061 60.8555 62.4537C82.2968 87.0759 87.3273 130.565 86.8089 131.154V131.16Z" fill="#13144D"/>
<path d="M44.6186 61.9294C44.6186 63.1546 43.6938 64.1677 42.5039 64.3032C43.1636 63.1016 43.8293 62.0059 44.5008 61.034C44.5126 61.0163 44.5302 60.9928 44.542 60.9751C44.5891 61.2873 44.6186 61.6113 44.6186 61.9294Z" fill="#AE70FF"/>
<path d="M58.992 61.9287C58.992 63.2481 57.9199 64.3202 56.6064 64.3202C55.2928 64.3202 54.2148 63.2481 54.2148 61.9287C54.2148 61.0922 54.3857 60.2793 54.639 59.5312C56.1705 59.761 57.6549 60.2028 58.9037 60.9037C58.9626 61.2395 58.992 61.587 58.992 61.9287Z" fill="#AE70FF"/>
<path d="M37.3944 75.9067C37.3531 76.2425 37.2353 76.5488 37.0586 76.8198C37.1705 76.5135 37.2824 76.2072 37.3944 75.9067Z" fill="#AE70FF"/>
<path d="M51.7986 75.5587C51.7986 76.8782 50.7324 77.9444 49.413 77.9444C48.0935 77.9444 47.0273 76.8782 47.0273 75.5587C47.0273 72.4544 49.413 69.6152 49.413 69.6152C49.413 69.6152 51.7986 72.5664 51.7986 75.5587Z" fill="#AE70FF"/>
<path d="M66.1775 75.5587C66.1775 76.8782 65.1114 77.9444 63.7919 77.9444C62.4724 77.9444 61.4062 76.8782 61.4062 75.5587C61.4062 72.4544 63.7919 69.6152 63.7919 69.6152C63.7919 69.6152 66.1775 72.5664 66.1775 75.5587Z" fill="#AE70FF"/>
<path d="M43.0061 65.2871C41.2154 69.9229 34.4649 86.1806 30.7951 97.8496C28.3329 105.678 27.3963 112.252 26.8544 113.978C26.8544 113.978 45.4742 107.999 49.6682 107.987C56.1242 107.969 66.4796 121.453 63.9408 123.143C59.9471 125.8 40.9091 134.836 25.7058 137.669C17.4415 139.212 1.87295 128.71 3.10405 120.357C4.82996 108.635 26.0062 77.7454 34.0644 68.9863C38.2466 64.4388 45.1856 59.6381 43.0061 65.2871Z" fill="white"/>
<path d="M1.96164 122.832C2.35041 131.273 12.912 138.383 19.0381 138.754C29.5997 139.396 61.2904 130.166 61.2904 130.166L48.9735 106.433C48.9735 106.433 27.4143 113.749 26.8665 113.955V113.943C27.055 113.313 32.3682 93.3501 34.748 86.7292C34.8776 86.364 35.0189 85.9929 35.1603 85.5982C35.8436 83.7663 36.7802 81.3453 37.8169 78.7299L37.8287 78.7123C38.4001 77.2632 39.0068 75.7553 39.6076 74.2591V74.2473C42.2112 67.7796 44.75 61.624 44.75 61.624C41.1215 62.219 37.5342 64.1275 31.6496 70.3066C25.765 76.4857 1.31957 108.907 1.96164 122.832Z" fill="#13144D"/>
<path d="M44.6131 61.9297V61.9414C44.6072 62.5894 44.3539 63.1784 43.9298 63.6025C43.4998 64.0443 42.8931 64.3212 42.2275 64.3212C41.3733 64.3212 40.6253 63.8735 40.207 63.1961C41.768 62.3538 43.1876 61.9002 44.6072 61.6587C44.6131 61.7529 44.6131 61.8413 44.6131 61.9297Z" fill="#AE70FF"/>
<path d="M37.4275 75.5602C37.4275 76.8796 36.3614 77.9458 35.0419 77.9458C33.7224 77.9458 32.6562 76.8796 32.6562 75.5602C32.6562 72.4559 35.0419 69.6167 35.0419 69.6167C35.0419 69.6167 37.4275 72.5678 37.4275 75.5602Z" fill="#AE70FF"/>
<path d="M20.2617 117.466L26.8473 113.973L26.859 113.961V113.949C27.0475 113.319 32.3607 93.356 34.7405 86.7351C34.8701 86.3699 35.0114 85.9988 35.1528 85.6041C35.8361 83.7722 36.7727 81.3512 37.8094 78.7358L20.2676 117.454L20.2617 117.466Z" fill="#AE70FF"/>
<path d="M19.6016 115.25C21.2568 115.274 31.2293 112.606 32.6843 113.978C41.5377 122.325 44.3415 120.646 46.2265 121.73C60.8172 130.124 80.3028 139.984 87.2595 140.049C97.8093 140.138 102.009 131.284 100.254 122.92C96.7903 106.385 74.4889 74.1466 64.3986 65.5819C59.05 61.0462 59.4741 67.8851 61.6831 75.3247C62.979 79.6837 65.2527 86.1691 67.5676 92.5308C69.6175 98.1974 75.0544 112.676 75.1487 113.018V113.03C75.1487 113.03 75.1664 113.059 75.1664 113.071C75.1722 113.112 75.1369 113.118 75.0485 113.094C74.5832 113.012 62.1072 107.127 49.5605 103.899C45.1367 102.763 35.9299 101.137 32.6313 102.615C30.6698 103.493 30.6344 104.665 30.6344 104.665C30.6344 104.665 29.0617 104.524 27.4005 105.89C26.299 106.798 25.9574 108.082 25.9574 108.082C25.9574 108.082 24.2374 108.323 23.342 109.319C22.2758 110.509 22.1816 111.769 22.1816 111.769C19.8607 112.388 19.6133 115.262 19.6133 115.262L19.6016 115.25Z" fill="white"/>
<path d="M58.8878 106.402C56.5787 105.619 55.5361 105.619 55.5361 105.619L42.4062 127.791C42.4062 127.791 78.5678 140.809 85.9898 141.568C93.4118 142.328 101.859 136.485 102 127.16C102.2 114.06 80.8357 82.5989 70.0915 70.4351C65.167 64.8568 59.4238 60.8101 57.9571 61.7231C56.2253 62.8011 59.3708 69.8107 61.026 75.0415C64.0832 84.6959 75.0336 113.088 75.0336 113.088C75.0336 113.088 61.6327 107.333 58.8819 106.402H58.8878Z" fill="#13144D"/>
<path d="M58.99 61.9294C58.99 62.9013 58.4069 63.7437 57.5704 64.1148C57.3702 62.9131 57.4467 62.0472 57.971 61.7173C58.2066 61.5701 58.5483 61.5524 58.9842 61.6466C58.99 61.7409 58.99 61.8351 58.99 61.9294Z" fill="#AE70FF"/>
<path d="M66.1658 75.5592C66.1658 76.8787 65.0996 77.9448 63.7802 77.9448C62.4607 77.9448 61.3945 76.8787 61.3945 75.5592C61.3945 72.4549 63.7802 69.6157 63.7802 69.6157C63.7802 69.6157 66.1658 72.5668 66.1658 75.5592Z" fill="#AE70FF"/>
<path d="M45.6842 70.3288C49.083 71.5481 55.6804 66.8946 58.5372 62.842C58.7316 62.5651 58.6315 59.3843 58.6904 55.5201C58.7375 53.1757 58.8435 50.5662 59.1145 48.1924L43.8111 50.1186C43.8111 50.1186 44.7123 55.2609 44.2175 59.4019C44.1704 59.7495 44.0997 60.0676 44.0055 60.3621C43.9937 60.4033 43.976 60.4563 43.9642 60.5211C43.4518 62.3354 42.4033 69.1448 45.6901 70.3288H45.6842Z" fill="white"/>
<path d="M43.9519 60.5211C43.9225 60.6213 43.893 60.7273 43.8754 60.8569C53.0409 60.4681 56.5222 56.439 58.7783 52.5749C58.8489 51.1023 58.9432 49.6061 59.114 48.1924L43.8047 50.1186C43.8047 50.1186 44.7059 55.2668 44.2052 59.4019C44.164 59.7436 44.0874 60.0617 43.9873 60.3621C43.9755 60.4033 43.9696 60.4622 43.9461 60.5211H43.9519Z" fill="#13144D"/>
<path d="M64.739 38.2977C64.739 38.2977 73.987 48.0758 72.4732 49.843C70.9593 51.6101 57.4584 49.0772 54.4955 46.7505C51.5385 44.4237 46.1016 34.9106 46.1016 34.9106L64.739 38.2977Z" fill="#B3F001"/>
<path d="M63.2453 29.1544C64.8534 34.4735 61.9965 49.824 58.203 53.2346C52.7072 58.1826 43.7301 58.6244 39.5361 52.0271C35.4658 45.63 39.542 25.6967 43.7773 22.5983C50.0094 18.0332 60.8714 21.3024 63.2453 29.1603V29.1544Z" fill="white"/>
<path d="M45.5547 45.1199C45.5547 45.1199 46.1791 46.0152 47.0568 46.3569C47.3807 46.4865 47.7342 46.5395 48.1053 46.4511C48.871 46.2744 48.9064 45.5793 48.7886 44.9785C48.6884 44.4837 48.4764 44.0537 48.4764 44.0537C48.4764 44.0537 47.3395 45.061 45.5606 45.1199H45.5547Z" fill="white"/>
<path d="M46.2285 45.8436C46.2757 45.8849 46.3287 45.932 46.3817 45.9673C46.6232 45.9261 46.8706 45.8731 47.1003 45.7729C46.8058 45.8024 46.5113 45.826 46.2227 45.8377L46.2285 45.8436Z" fill="white"/>
<path d="M47.8555 45.5317C48.0381 45.4846 48.2207 45.4198 48.3915 45.3314C48.5388 45.2549 48.6742 45.1547 48.8038 45.0546C48.8038 45.0369 48.7979 45.0075 48.7921 44.9898C48.7862 44.9544 48.7803 44.9191 48.7744 44.8896C48.4916 45.1312 48.1736 45.3314 47.8555 45.5435V45.5317Z" fill="white"/>
<path d="M50.1834 37.755C50.201 37.7196 50.2541 37.8198 50.2482 37.861C50.0302 38.8918 49.9478 40.1053 50.8254 40.6177C50.8549 40.6354 50.8372 40.6825 50.8078 40.6767C49.6945 40.3114 49.8182 38.6975 50.1893 37.755H50.1834Z" fill="#13144D"/>
<path d="M51.3014 36.8416C52.9861 37.0183 52.5148 40.3759 50.9539 40.2168C49.4164 40.0578 49.8877 36.6943 51.3014 36.8416Z" fill="#13144D"/>
<path d="M43.8506 36.8028C43.8506 36.7616 43.7623 36.8381 43.7564 36.8853C43.6445 37.9338 43.3382 39.1119 42.3486 39.3239C42.3191 39.3298 42.3132 39.3828 42.3486 39.3828C43.5208 39.3828 43.9095 37.816 43.8506 36.8087V36.8028Z" fill="#13144D"/>
<path d="M43.0713 35.5825C41.4161 35.2173 40.8094 38.5572 42.3468 38.893C43.8547 39.2229 44.4615 35.883 43.0713 35.5825Z" fill="#13144D"/>
<path d="M52.8531 35.493C52.4113 35.3104 52.0343 35.0747 51.6161 34.8509C51.1449 34.5976 50.7443 34.4504 50.4793 33.9556C50.3379 33.6905 50.4734 33.2723 50.7149 33.1132C51.2804 32.7362 51.9342 32.9012 52.5174 33.1839C53.1476 33.4902 53.5541 33.8849 53.8486 34.5152C54.1372 35.1278 53.4363 35.7345 52.8531 35.4989V35.493Z" fill="#13144D"/>
<path d="M42.0087 33.7085C42.4858 33.6967 42.9217 33.6083 43.393 33.5494C43.9231 33.4846 44.3531 33.4846 44.7772 33.1194C45.0011 32.925 45.0305 32.4832 44.8597 32.2476C44.465 31.6939 43.7935 31.6173 43.1514 31.6703C42.4564 31.7293 41.9321 31.9531 41.4314 32.4361C40.9425 32.9073 41.3843 33.7261 42.0146 33.7085H42.0087Z" fill="#13144D"/>
<path d="M49.2145 47.3573C48.9318 47.5635 48.6373 47.8639 48.2544 47.8462C47.8892 47.8286 47.4886 47.6047 47.1706 47.428C47.1411 47.4103 47.0999 47.4398 47.1175 47.4751C47.3296 47.911 47.8656 48.2409 48.3604 48.2291C48.8434 48.2115 49.1321 47.8403 49.3088 47.4221C49.3324 47.3632 49.2558 47.3279 49.2145 47.3632V47.3573Z" fill="#13144D"/>
<path d="M48.556 44.0812C47.8433 44.9 46.9185 45.277 45.9701 45.3241C45.546 45.3477 45.1101 45.3006 44.686 45.2004C44.6035 45.1886 44.521 45.1651 44.4445 45.1356C44.3679 45.118 44.3031 45.0944 44.2206 45.0708C44.1028 45.0355 44.0498 44.9236 44.0439 44.8058C44.0498 44.7586 44.0557 44.7292 44.0675 44.6938L44.0793 44.5937C44.1676 43.7867 44.4209 42.5792 44.4209 42.5792C44.1087 42.6852 42.5183 43.1447 42.6008 42.7323C43.2958 39.2923 44.0675 35.4694 45.4871 32.2002C45.5283 32.0882 45.6991 32.1413 45.6756 32.2532C45.1395 35.5813 44.0204 38.7975 43.4254 42.1315C43.9261 42.0196 44.7508 41.7898 45.169 41.8605C45.2809 41.9077 44.6447 44.1873 44.633 44.5525C44.633 44.5525 44.633 44.5701 44.633 44.5937C45.9524 44.953 47.0304 44.6938 48.4618 43.9693C48.5501 43.9222 48.6208 44.0047 48.5442 44.0753L48.556 44.0812Z" fill="#13144D"/>
<path d="M63.031 42.7929C60.1741 41.6796 59.6086 31.6894 59.6086 31.6894C59.6086 31.6894 59.2375 35.8716 58.4658 35.6949C57.6942 35.5182 55.0199 29.5452 55.0435 25.4396C55.0435 25.4396 51.0851 27.6073 47.2622 28.3671C43.4393 29.127 39.852 29.6336 39.9109 28.9974C40.0876 27.1125 42.3731 21.9819 45.0945 20.4857C48.2282 18.7598 52.1454 17.2518 58.0005 20.1499C63.8556 23.048 64.9454 26.2996 65.558 29.4097C66.1706 32.5199 64.0795 43.2052 63.031 42.7929Z" fill="#13144D"/>
<path d="M39.8203 28.2543C39.8203 28.2543 48.9918 27.8007 55.6657 31.2172C58.2928 32.5602 64.9019 39.2459 64.9019 39.2459C64.9019 39.2459 66.5984 33.3554 65.2082 27.2882C63.1112 18.1226 51.7544 16.5617 46.4294 19.0769C41.6405 21.333 39.8203 28.2543 39.8203 28.2543ZM46.0642 26.7522C46.0642 26.7522 47.1304 23.1826 50.971 24.0897C54.305 24.879 54.7409 27.1881 54.6466 28.7314C54.6466 28.7314 50.4055 26.8936 46.0642 26.7522Z" fill="#AE70FF"/>
<path d="M59.9329 41.6622C59.9329 41.6622 63.5202 36.779 65.7409 38.069C67.9675 39.3591 65.1872 46.4924 62.5188 47.4172C59.8505 48.342 58.9492 45.8857 58.9492 45.8857L59.9329 41.6622Z" fill="white"/>
<path d="M64.8898 40.0952C64.931 40.0952 64.9369 40.1541 64.9016 40.1659C63.0284 40.8728 62.0152 42.5692 61.2907 44.3364C61.8562 43.6648 62.6161 43.3055 63.5232 43.9829C63.5703 44.0183 63.5232 44.0948 63.4702 44.0831C62.7162 43.9005 62.1625 44.0242 61.6382 44.6191C61.2671 45.0432 61.0021 45.5792 60.7311 46.074C60.6427 46.239 60.3423 46.1447 60.413 45.9503C60.413 45.9386 60.4248 45.9209 60.4307 45.9091C60.4366 43.5411 62.351 40.2778 64.8957 40.1011L64.8898 40.0952Z" fill="#13144D"/>
</g>
<g filter="url(#filter0_d_5027_45718)">
<rect x="5.94922" y="10" width="22" height="22" rx="11" fill="white" shape-rendering="crispEdges"/>
<path d="M20.2167 18.3317C20.2167 17.9994 19.9474 17.731 19.6163 17.731C19.2852 17.731 19.0156 17.9994 19.0156 18.3317C19.0156 18.6628 19.2852 18.9312 19.6163 18.9312C19.9474 18.9312 20.2167 18.6628 20.2167 18.3317Z" fill="url(#paint0_linear_5027_45718)"/>
<path d="M21.0181 23.0203C20.9959 23.5079 20.9144 23.7727 20.8467 23.9486C20.7557 24.1819 20.6473 24.3487 20.4713 24.5236C20.2974 24.6986 20.1306 24.8068 19.8973 24.8967C19.7214 24.9654 19.4555 25.0472 18.9681 25.0704C18.441 25.0937 18.2848 25.0986 16.9483 25.0986C15.6131 25.0986 15.4557 25.0937 14.9286 25.0704C14.4411 25.0472 14.1765 24.9654 14.0006 24.8967C13.7661 24.8068 13.6005 24.6986 13.4256 24.5236C13.2494 24.3487 13.1409 24.1819 13.0512 23.9486C12.9835 23.7727 12.9008 23.5079 12.8798 23.0203C12.8541 22.4933 12.8494 22.3347 12.8494 21.0009C12.8494 19.6644 12.8541 19.507 12.8798 18.9799C12.9008 18.4924 12.9835 18.2278 13.0512 18.0504C13.1409 17.8174 13.2494 17.6516 13.4256 17.4766C13.6005 17.302 13.7661 17.1935 14.0006 17.1025C14.1765 17.0336 14.4411 16.9531 14.9286 16.9298C15.4557 16.9066 15.6131 16.9007 16.9483 16.9007C18.2848 16.9007 18.441 16.9066 18.9681 16.9298C19.4555 16.9531 19.7214 17.0336 19.8973 17.1025C20.1306 17.1935 20.2974 17.302 20.4713 17.4766C20.6473 17.6516 20.7557 17.8174 20.8467 18.0504C20.9144 18.2278 20.9959 18.4924 21.0181 18.9799C21.0426 19.507 21.0485 19.6644 21.0485 21.0009C21.0485 22.3347 21.0426 22.4933 21.0181 23.0203ZM21.9183 18.9389C21.8938 18.4062 21.8098 18.0422 21.685 17.7252C21.558 17.3963 21.3878 17.1176 21.1091 16.8389C20.8316 16.5614 20.5529 16.3912 20.224 16.2627C19.9058 16.1391 19.543 16.0541 19.01 16.0309C18.4771 16.0052 18.3068 16.0005 16.9483 16.0005C15.5911 16.0005 15.4196 16.0052 14.8866 16.0309C14.3549 16.0541 13.9924 16.1391 13.6727 16.2627C13.345 16.3912 13.0663 16.5614 12.7888 16.8389C12.5101 17.1176 12.3399 17.3963 12.2116 17.7252C12.0881 18.0422 12.0041 18.4062 11.9784 18.9389C11.9551 19.4719 11.9492 19.6424 11.9492 21.0009C11.9492 22.3581 11.9551 22.5284 11.9784 23.0614C12.0041 23.5931 12.0881 23.9568 12.2116 24.2753C12.3399 24.6029 12.5101 24.8829 12.7888 25.1604C13.0663 25.4379 13.345 25.6094 13.6727 25.7376C13.9924 25.8611 14.3549 25.9451 14.8866 25.9696C15.4196 25.9941 15.5911 26 16.9483 26C18.3068 26 18.4771 25.9941 19.01 25.9696C19.543 25.9451 19.9058 25.8611 20.224 25.7376C20.5529 25.6094 20.8316 25.4379 21.1091 25.1604C21.3878 24.8829 21.558 24.6029 21.685 24.2753C21.8098 23.9568 21.8938 23.5931 21.9183 23.0614C21.9428 22.5284 21.9487 22.3581 21.9487 21.0009C21.9487 19.6424 21.9428 19.4719 21.9183 18.9389Z" fill="url(#paint1_linear_5027_45718)"/>
<path d="M16.9493 22.666C16.0294 22.666 15.283 21.9208 15.283 21.0009C15.283 20.0795 16.0294 19.3333 16.9493 19.3333C17.8695 19.3333 18.6169 20.0795 18.6169 21.0009C18.6169 21.9208 17.8695 22.666 16.9493 22.666ZM16.9493 18.4319C15.5313 18.4319 14.3828 19.5828 14.3828 21.0009C14.3828 22.4177 15.5313 23.5674 16.9493 23.5674C18.3674 23.5674 19.5171 22.4177 19.5171 21.0009C19.5171 19.5828 18.3674 18.4319 16.9493 18.4319Z" fill="url(#paint2_linear_5027_45718)"/>
</g>
<g filter="url(#filter1_d_5027_45718)">
<rect x="5.94922" y="35" width="22" height="22" rx="11" fill="white" shape-rendering="crispEdges"/>
<path d="M22.0885 43.2458C22.0231 43.005 21.8957 42.7854 21.7188 42.6091C21.5419 42.4327 21.3218 42.3056 21.0803 42.2404C20.1964 42 16.6388 42 16.6388 42C16.6388 42 13.0811 42.0073 12.1972 42.2477C11.9557 42.3129 11.7356 42.44 11.5587 42.6163C11.3819 42.7927 11.2544 43.0123 11.1891 43.253C10.9217 44.8193 10.818 47.206 11.1964 48.7096C11.2617 48.9504 11.3892 49.1699 11.566 49.3463C11.7429 49.5227 11.963 49.6498 12.2045 49.7149C13.0884 49.9554 16.6461 49.9554 16.6461 49.9554C16.6461 49.9554 20.2037 49.9554 21.0877 49.7149C21.3291 49.6498 21.5492 49.5227 21.7261 49.3463C21.903 49.1699 22.0304 48.9504 22.0958 48.7096C22.3778 47.1411 22.4647 44.756 22.0885 43.2458Z" fill="#FF0000"/>
<path d="M15.5078 47.6824L18.4591 45.9777L15.5078 44.2729V47.6824Z" fill="white"/>
</g>
<g filter="url(#filter2_d_5027_45718)">
<rect x="5.94922" y="60" width="22" height="22" rx="11" fill="white" shape-rendering="crispEdges"/>
<path d="M15.6328 70.2089V69.7924C15.4882 69.7695 15.3422 69.757 15.1959 69.7549C13.7789 69.7519 12.5244 70.6701 12.099 72.0216C11.6735 73.3732 12.1757 74.8444 13.3388 75.6536C12.4676 74.7212 12.2257 73.3638 12.7211 72.1878C13.2166 71.0118 14.357 70.2367 15.6328 70.2089Z" fill="#25F4EE"/>
<path d="M15.7104 74.9266C16.5026 74.9256 17.1538 74.3014 17.1885 73.51V66.4472H18.4788C18.4525 66.2996 18.4399 66.1499 18.4413 66H16.6765V73.056C16.6471 73.8514 15.9944 74.4816 15.1984 74.4829C14.9605 74.4808 14.7265 74.4223 14.5156 74.3122C14.6523 74.5015 14.8317 74.6558 15.0394 74.7626C15.247 74.8694 15.4769 74.9256 15.7104 74.9266ZM20.8889 68.8436V68.451C20.414 68.4511 19.9496 68.311 19.5541 68.0482C19.9009 68.4512 20.3694 68.7304 20.8889 68.8436Z" fill="#25F4EE"/>
<path d="M19.5559 68.0483C19.1663 67.6046 18.9516 67.0343 18.9517 66.4438H18.4806C18.5415 66.7703 18.6682 67.0809 18.8531 67.3568C19.038 67.6326 19.2771 67.8679 19.5559 68.0483ZM15.1967 71.5199C14.5169 71.5234 13.9267 71.9891 13.7652 72.6495C13.6037 73.3099 13.9124 73.9955 14.514 74.3123C14.3541 74.0916 14.2584 73.831 14.2374 73.5593C14.2163 73.2876 14.2708 73.0154 14.3948 72.7727C14.5188 72.53 14.7075 72.3264 14.9399 72.1842C15.1724 72.042 15.4397 71.9669 15.7122 71.9671C15.8603 71.9689 16.0075 71.9919 16.1491 72.0354V70.2398C16.0045 70.2181 15.8585 70.2067 15.7122 70.2057H15.6337V71.5711C15.4913 71.5329 15.3441 71.5157 15.1967 71.5199Z" fill="#FE2C55"/>
<path d="M20.8908 68.8433V70.2087C20.0117 70.207 19.1554 69.9287 18.4432 69.4133V73.0011C18.4395 74.7913 16.9871 76.2406 15.1969 76.2406C14.532 76.2418 13.8832 76.0366 13.3398 75.6534C14.2466 76.6287 15.6577 76.9497 16.8971 76.4627C18.1364 75.9757 18.9515 74.7799 18.9518 73.4482V69.8708C19.6664 70.3828 20.5238 70.6574 21.4028 70.6559V68.8979C21.2307 68.8973 21.0591 68.879 20.8908 68.8433Z" fill="#FE2C55"/>
<path d="M18.4434 73.0014V69.4137C19.1578 69.9262 20.0153 70.2008 20.8944 70.1988V68.8334C20.375 68.7237 19.9054 68.4482 19.5563 68.0483C19.2775 67.8679 19.0383 67.6326 18.8534 67.3568C18.6686 67.0809 18.5418 66.7703 18.481 66.4438H17.1906V73.5101C17.1648 74.1405 16.7426 74.6854 16.1386 74.8677C15.5345 75.0501 14.8813 74.8299 14.5109 74.3191C13.9094 74.0023 13.6007 73.3168 13.7621 72.6564C13.9236 71.996 14.5138 71.5302 15.1937 71.5267C15.3419 71.5281 15.4891 71.5511 15.6306 71.595V70.2296C14.3476 70.2513 13.1986 71.029 12.7018 72.2121C12.2049 73.3952 12.4539 74.76 13.3367 75.6914C13.8853 76.0619 14.5351 76.2539 15.1971 76.241C16.9873 76.241 18.4397 74.7917 18.4434 73.0014Z" fill="black"/>
</g>
<g filter="url(#filter3_d_5027_45718)">
<rect x="62.9492" y="60" width="56" height="34" rx="4.87274" fill="white"/>
</g>
<path d="M73.6452 72.0566V67.693H75.2816C75.6168 67.693 75.8981 67.7512 76.1254 67.8677C76.354 67.9842 76.5266 68.1475 76.6431 68.3578C76.761 68.5666 76.82 68.8102 76.82 69.0886C76.82 69.3684 76.7603 69.6113 76.641 69.8173C76.5231 70.0218 76.3491 70.1802 76.119 70.2924C75.8888 70.4032 75.6062 70.4586 75.271 70.4586H74.1055V69.8024H75.1644C75.3604 69.8024 75.521 69.7754 75.646 69.7214C75.771 69.666 75.8633 69.5858 75.9229 69.4806C75.984 69.3741 76.0146 69.2434 76.0146 69.0886C76.0146 68.9338 75.984 68.8017 75.9229 68.6923C75.8619 68.5815 75.7688 68.4977 75.6438 68.4409C75.5188 68.3826 75.3576 68.3535 75.1602 68.3535H74.4357V72.0566H73.6452ZM75.8995 70.0794L76.9798 72.0566H76.0977L75.0366 70.0794H75.8995ZM81.4467 69.8748C81.4467 70.345 81.3587 70.7477 81.1825 71.0829C81.0078 71.4167 80.7692 71.6724 80.4666 71.85C80.1655 72.0275 79.8239 72.1163 79.4418 72.1163C79.0597 72.1163 78.7173 72.0275 78.4148 71.85C78.1136 71.671 77.875 71.4146 77.6989 71.0808C77.5241 70.7456 77.4368 70.3436 77.4368 69.8748C77.4368 69.4047 77.5241 69.0027 77.6989 68.6689C77.875 68.3336 78.1136 68.0772 78.4148 67.8997C78.7173 67.7221 79.0597 67.6333 79.4418 67.6333C79.8239 67.6333 80.1655 67.7221 80.4666 67.8997C80.7692 68.0772 81.0078 68.3336 81.1825 68.6689C81.3587 69.0027 81.4467 69.4047 81.4467 69.8748ZM80.652 69.8748C80.652 69.5439 80.6001 69.2647 80.4964 69.0375C80.3942 68.8088 80.2521 68.6362 80.0703 68.5197C79.8885 68.4018 79.679 68.3429 79.4418 68.3429C79.2045 68.3429 78.995 68.4018 78.8132 68.5197C78.6314 68.6362 78.4886 68.8088 78.3849 69.0375C78.2827 69.2647 78.2315 69.5439 78.2315 69.8748C78.2315 70.2058 78.2827 70.4856 78.3849 70.7143C78.4886 70.9416 78.6314 71.1142 78.8132 71.2321C78.995 71.3485 79.2045 71.4068 79.4418 71.4068C79.679 71.4068 79.8885 71.3485 80.0703 71.2321C80.2521 71.1142 80.3942 70.9416 80.4964 70.7143C80.6001 70.4856 80.652 70.2058 80.652 69.8748ZM82.9846 67.693V72.0566H82.1941V67.693H82.9846Z" fill="#13144D"/>
<circle cx="77.7774" cy="81.2441" r="5.84768" transform="rotate(-90 77.7774 81.2441)" fill="#04DB8E"/>
<path d="M77.9496 79.0923C77.8545 78.9971 77.7002 78.9971 77.6051 79.0923L76.0545 80.6429C75.9593 80.738 75.9593 80.8923 76.0545 80.9875C76.1496 81.0826 76.3039 81.0826 76.399 80.9875L77.7773 79.6091L79.1557 80.9875C79.2508 81.0826 79.4051 81.0826 79.5002 80.9875C79.5954 80.8923 79.5954 80.738 79.5002 80.6429L77.9496 79.0923ZM78.021 83.1934L78.021 79.2646L77.5337 79.2646L77.5337 83.1934L78.021 83.1934Z" fill="black"/>
<path d="M89.1357 78.6784V84.4966H87.9055V79.846H87.8714L86.5391 80.6812V79.5903L87.9794 78.6784H89.1357ZM90.4304 83.4739V82.5051L92.8594 78.6784H93.6946V80.0193H93.2003L91.669 82.4426V82.4881H95.1207V83.4739H90.4304ZM93.223 84.4966V83.1784L93.2457 82.7494V78.6784H94.3991V84.4966H93.223ZM96.5497 84.5704C96.3622 84.5704 96.2012 84.5042 96.0668 84.3716C95.9342 84.2371 95.8679 84.0761 95.8679 83.8886C95.8679 83.703 95.9342 83.5439 96.0668 83.4114C96.2012 83.2788 96.3622 83.2125 96.5497 83.2125C96.7315 83.2125 96.8906 83.2788 97.027 83.4114C97.1634 83.5439 97.2315 83.703 97.2315 83.8886C97.2315 84.0136 97.1993 84.1282 97.1349 84.2324C97.0724 84.3347 96.9901 84.417 96.8878 84.4795C96.7855 84.5401 96.6728 84.5704 96.5497 84.5704ZM100.15 84.5761C99.7124 84.5761 99.3232 84.5051 98.9822 84.3631C98.6432 84.2191 98.3771 84.0231 98.1839 83.775C97.9908 83.5269 97.8942 83.2456 97.8942 82.9312C97.8942 82.6888 97.9491 82.4663 98.0589 82.2636C98.1707 82.0591 98.3222 81.8896 98.5135 81.7551C98.7048 81.6187 98.9188 81.5316 99.1555 81.4937V81.454C98.8449 81.3915 98.593 81.2409 98.3999 81.0023C98.2067 80.7617 98.1101 80.4824 98.1101 80.1642C98.1101 79.8631 98.1982 79.5951 98.3743 79.3602C98.5504 79.1235 98.7919 78.9379 99.0987 78.8034C99.4074 78.667 99.7578 78.5989 100.15 78.5989C100.542 78.5989 100.891 78.667 101.198 78.8034C101.507 78.9398 101.749 79.1263 101.925 79.3631C102.102 79.5979 102.191 79.865 102.192 80.1642C102.191 80.4843 102.092 80.7636 101.897 81.0023C101.702 81.2409 101.452 81.3915 101.147 81.454V81.4937C101.38 81.5316 101.591 81.6187 101.781 81.7551C101.972 81.8896 102.123 82.0591 102.235 82.2636C102.349 82.4663 102.406 82.6888 102.408 82.9312C102.406 83.2456 102.309 83.5269 102.116 83.775C101.923 84.0231 101.656 84.2191 101.315 84.3631C100.976 84.5051 100.587 84.5761 100.15 84.5761ZM100.15 83.6727C100.345 83.6727 100.515 83.6377 100.661 83.5676C100.807 83.4956 100.921 83.3972 101.002 83.2722C101.085 83.1453 101.127 82.9994 101.127 82.8347C101.127 82.6661 101.085 82.5174 100.999 82.3886C100.914 82.2579 100.799 82.1557 100.653 82.0818C100.507 82.0061 100.339 81.9682 100.15 81.9682C99.9624 81.9682 99.7947 82.0061 99.647 82.0818C99.4993 82.1557 99.3828 82.2579 99.2976 82.3886C99.2143 82.5174 99.1726 82.6661 99.1726 82.8347C99.1726 82.9994 99.2133 83.1453 99.2947 83.2722C99.3762 83.3972 99.4908 83.4956 99.6385 83.5676C99.7862 83.6377 99.9567 83.6727 100.15 83.6727ZM100.15 81.0733C100.313 81.0733 100.458 81.0401 100.585 80.9739C100.711 80.9076 100.811 80.8157 100.883 80.6983C100.955 80.5809 100.991 80.4454 100.991 80.292C100.991 80.1405 100.955 80.0079 100.883 79.8943C100.811 79.7788 100.712 79.6888 100.587 79.6244C100.462 79.5581 100.317 79.525 100.15 79.525C99.9851 79.525 99.8393 79.5581 99.7124 79.6244C99.5855 79.6888 99.486 79.7788 99.4141 79.8943C99.344 80.0079 99.3089 80.1405 99.3089 80.292C99.3089 80.4454 99.3449 80.5809 99.4169 80.6983C99.4889 80.8157 99.5883 80.9076 99.7152 80.9739C99.8421 81.0401 99.987 81.0733 100.15 81.0733ZM106.453 83.4057V83.0989C106.453 82.8659 106.502 82.6519 106.601 82.4568C106.701 82.2598 106.846 82.1026 107.036 81.9852C107.227 81.8659 107.46 81.8062 107.734 81.8062C108.013 81.8062 108.247 81.865 108.436 81.9824C108.627 82.0998 108.771 82.257 108.868 82.454C108.966 82.649 109.016 82.864 109.016 83.0989V83.4057C109.016 83.6386 108.966 83.8536 108.868 84.0506C108.769 84.2456 108.625 84.4019 108.433 84.5193C108.242 84.6386 108.009 84.6983 107.734 84.6983C107.456 84.6983 107.222 84.6386 107.033 84.5193C106.843 84.4019 106.699 84.2456 106.601 84.0506C106.502 83.8536 106.453 83.6386 106.453 83.4057ZM107.28 83.0989V83.4057C107.28 83.5401 107.312 83.667 107.376 83.7864C107.443 83.9057 107.562 83.9653 107.734 83.9653C107.907 83.9653 108.024 83.9066 108.087 83.7892C108.151 83.6718 108.183 83.5439 108.183 83.4057V83.0989C108.183 82.9606 108.153 82.8318 108.092 82.7125C108.032 82.5932 107.912 82.5335 107.734 82.5335C107.564 82.5335 107.446 82.5932 107.379 82.7125C107.313 82.8318 107.28 82.9606 107.28 83.0989ZM103.467 80.0761V79.7693C103.467 79.5345 103.518 79.3195 103.618 79.1244C103.718 78.9275 103.863 78.7703 104.053 78.6528C104.244 78.5354 104.475 78.4767 104.746 78.4767C105.026 78.4767 105.261 78.5354 105.45 78.6528C105.64 78.7703 105.784 78.9275 105.882 79.1244C105.981 79.3195 106.03 79.5345 106.03 79.7693V80.0761C106.03 80.311 105.98 80.5259 105.879 80.721C105.781 80.9161 105.636 81.0723 105.445 81.1898C105.255 81.3053 105.022 81.3631 104.746 81.3631C104.469 81.3631 104.235 81.3043 104.044 81.1869C103.855 81.0676 103.711 80.9114 103.612 80.7182C103.516 80.5231 103.467 80.3091 103.467 80.0761ZM104.3 79.7693V80.0761C104.3 80.2144 104.332 80.3422 104.396 80.4597C104.463 80.5771 104.579 80.6358 104.746 80.6358C104.92 80.6358 105.038 80.5771 105.101 80.4597C105.165 80.3422 105.197 80.2144 105.197 80.0761V79.7693C105.197 79.6311 105.167 79.5023 105.107 79.3829C105.046 79.2636 104.926 79.204 104.746 79.204C104.577 79.204 104.461 79.2646 104.396 79.3858C104.332 79.507 104.3 79.6348 104.3 79.7693ZM103.842 84.4966L107.842 78.6784H108.587L104.587 84.4966H103.842Z" fill="#13714A"/>
<defs>
<filter id="filter0_d_5027_45718" x="1.94922" y="6" width="30" height="30" filterUnits="userSpaceOnUse" color-interpolation-filters="sRGB">
<feFlood flood-opacity="0" result="BackgroundImageFix"/>
<feColorMatrix in="SourceAlpha" type="matrix" values="0 0 0 0 0 0 0 0 0 0 0 0 0 0 0 0 0 0 127 0" result="hardAlpha"/>
<feOffset/>
<feGaussianBlur stdDeviation="2"/>
<feComposite in2="hardAlpha" operator="out"/>
<feColorMatrix type="matrix" values="0 0 0 0 0 0 0 0 0 0 0 0 0 0 0 0 0 0 0.07 0"/>
<feBlend mode="normal" in2="BackgroundImageFix" result="effect1_dropShadow_5027_45718"/>
<feBlend mode="normal" in="SourceGraphic" in2="effect1_dropShadow_5027_45718" result="shape"/>
</filter>
<filter id="filter1_d_5027_45718" x="1.94922" y="31" width="30" height="30" filterUnits="userSpaceOnUse" color-interpolation-filters="sRGB">
<feFlood flood-opacity="0" result="BackgroundImageFix"/>
<feColorMatrix in="SourceAlpha" type="matrix" values="0 0 0 0 0 0 0 0 0 0 0 0 0 0 0 0 0 0 127 0" result="hardAlpha"/>
<feOffset/>
<feGaussianBlur stdDeviation="2"/>
<feComposite in2="hardAlpha" operator="out"/>
<feColorMatrix type="matrix" values="0 0 0 0 0 0 0 0 0 0 0 0 0 0 0 0 0 0 0.07 0"/>
<feBlend mode="normal" in2="BackgroundImageFix" result="effect1_dropShadow_5027_45718"/>
<feBlend mode="normal" in="SourceGraphic" in2="effect1_dropShadow_5027_45718" result="shape"/>
</filter>
<filter id="filter2_d_5027_45718" x="1.94922" y="56" width="30" height="30" filterUnits="userSpaceOnUse" color-interpolation-filters="sRGB">
<feFlood flood-opacity="0" result="BackgroundImageFix"/>
<feColorMatrix in="SourceAlpha" type="matrix" values="0 0 0 0 0 0 0 0 0 0 0 0 0 0 0 0 0 0 127 0" result="hardAlpha"/>
<feOffset/>
<feGaussianBlur stdDeviation="2"/>
<feComposite in2="hardAlpha" operator="out"/>
<feColorMatrix type="matrix" values="0 0 0 0 0 0 0 0 0 0 0 0 0 0 0 0 0 0 0.07 0"/>
<feBlend mode="normal" in2="BackgroundImageFix" result="effect1_dropShadow_5027_45718"/>
<feBlend mode="normal" in="SourceGraphic" in2="effect1_dropShadow_5027_45718" result="shape"/>
</filter>
<filter id="filter3_d_5027_45718" x="53.3266" y="50.3774" width="75.2453" height="53.2453" filterUnits="userSpaceOnUse" color-interpolation-filters="sRGB">
<feFlood flood-opacity="0" result="BackgroundImageFix"/>
<feColorMatrix in="SourceAlpha" type="matrix" values="0 0 0 0 0 0 0 0 0 0 0 0 0 0 0 0 0 0 127 0" result="hardAlpha"/>
<feOffset/>
<feGaussianBlur stdDeviation="4.81132"/>
<feComposite in2="hardAlpha" operator="out"/>
<feColorMatrix type="matrix" values="0 0 0 0 0 0 0 0 0 0 0 0 0 0 0 0 0 0 0.07 0"/>
<feBlend mode="normal" in2="BackgroundImageFix" result="effect1_dropShadow_5027_45718"/>
<feBlend mode="normal" in="SourceGraphic" in2="effect1_dropShadow_5027_45718" result="shape"/>
</filter>
<linearGradient id="paint0_linear_5027_45718" x1="12.0381" y1="25.8967" x2="21.1145" y2="16.8204" gradientUnits="userSpaceOnUse">
<stop stop-color="#FFD521"/>
<stop offset="0.05" stop-color="#FFD521"/>
<stop offset="0.501119" stop-color="#F50000"/>
<stop offset="0.95" stop-color="#B900B4"/>
<stop offset="0.950079" stop-color="#B900B4"/>
<stop offset="1" stop-color="#B900B4"/>
</linearGradient>
<linearGradient id="paint1_linear_5027_45718" x1="12.0394" y1="25.9091" x2="21.1233" y2="16.8252" gradientUnits="userSpaceOnUse">
<stop stop-color="#FFD521"/>
<stop offset="0.05" stop-color="#FFD521"/>
<stop offset="0.501119" stop-color="#F50000"/>
<stop offset="0.95" stop-color="#B900B4"/>
<stop offset="0.950079" stop-color="#B900B4"/>
<stop offset="1" stop-color="#B900B4"/>
</linearGradient>
<linearGradient id="paint2_linear_5027_45718" x1="12.0428" y1="25.9093" x2="21.1244" y2="16.8276" gradientUnits="userSpaceOnUse">
<stop stop-color="#FFD521"/>
<stop offset="0.05" stop-color="#FFD521"/>
<stop offset="0.501119" stop-color="#F50000"/>
<stop offset="0.95" stop-color="#B900B4"/>
<stop offset="0.950079" stop-color="#B900B4"/>
<stop offset="1" stop-color="#B900B4"/>
</linearGradient>
</defs>
</svg>
