<svg width="72" height="72" viewBox="0 0 72 72" fill="none" xmlns="http://www.w3.org/2000/svg">
    <rect width="72" height="72" rx="36" fill="#F5F5F6"/>
    <g clip-path="url(#clip0_6375_79193)">
        <path d="M24 51C24 47.8174 25.2643 44.7652 27.5147 42.5147C29.7652 40.2643 32.8174 39 36 39C39.1826 39 42.2348 40.2643 44.4853 42.5147C46.7357 44.7652 48 47.8174 48 51H45C45 48.6131 44.0518 46.3239 42.364 44.636C40.6761 42.9482 38.3869 42 36 42C33.6131 42 31.3239 42.9482 29.636 44.636C27.9482 46.3239 27 48.6131 27 51H24ZM36 37.5C31.0275 37.5 27 33.4725 27 28.5C27 23.5275 31.0275 19.5 36 19.5C40.9725 19.5 45 23.5275 45 28.5C45 33.4725 40.9725 37.5 36 37.5ZM36 34.5C39.315 34.5 42 31.815 42 28.5C42 25.185 39.315 22.5 36 22.5C32.685 22.5 30 25.185 30 28.5C30 31.815 32.685 34.5 36 34.5Z" fill="#5A5A67"/>
    </g>
    <defs>
        <clipPath id="clip0_6375_79193">
            <rect width="36" height="36" fill="white" transform="translate(18 18)"/>
        </clipPath>
    </defs>
</svg>
