<svg width="64" height="64" viewBox="0 0 64 64" fill="none" xmlns="http://www.w3.org/2000/svg">
    <circle cx="32" cy="32" r="32" fill="white"/>
    <circle cx="32" cy="32" r="31.3846" stroke="#AB6FFF" stroke-opacity="0.1" stroke-width="1.23077"/>
    <path d="M36.8 49.7C36.7 49.7 36.6 49.7 36.4 49.6C36.2 49.5 36 49.3 35.8 49.1L32.1 40.5L27.6 44.7C27.5 44.9 27.3 45 27 45C26.9 45 26.7 45 26.6 44.9C26.3 44.8 26 44.4 26 44V22C26 21.6 26.2 21.2 26.6 21.1C26.7 21 26.9 21 27 21C27.2 21 27.5 21.1 27.7 21.3L43.7 36.3C44 36.6 44.1 37 44 37.4C43.9 37.8 43.5 38 43.1 38.1L36.8 38.7L40.7 47.2C40.8 47.4 40.8 47.7 40.7 48C40.6 48.2 40.4 48.5 40.2 48.6L37.3 49.9C37.1 49.7 36.9 49.7 36.8 49.7Z" fill="#FF7D50"/>
    <path d="M37.8 46.7C37.7 46.7 37.6 46.7 37.4 46.6C37.2 46.5 37 46.3 36.8 46.1L33.1 37.5L28.6 41.7C28.5 41.9 28.3 42 28 42C27.9 42 27.7 42 27.6 41.9C27.3 41.8 27 41.4 27 41V19C27 18.6 27.2 18.2 27.6 18.1C27.7 18 27.9 18 28 18C28.2 18 28.5 18.1 28.7 18.3L44.7 33.3C45 33.6 45.1 34 45 34.4C44.9 34.8 44.5 35 44.1 35.1L37.8 35.7L41.7 44.2C41.8 44.4 41.8 44.7 41.7 45C41.6 45.2 41.4 45.5 41.2 45.6L38.3 46.9C38.1 46.7 37.9 46.7 37.8 46.7Z" fill="#FFC628"/>
    <path d="M23.1819 26.4012L23.7681 25.4317C23.7681 25.4317 24.1626 24.4961 24.8559 23.7634C24.8559 23.7634 25.1828 23.397 25.0926 23.025C25.0926 23.025 25.0362 22.8278 24.884 22.5967L23.8864 20.8945L22.0039 23.8705L22.6352 24.9921L23.0804 25.7023C23.0804 25.7023 23.3115 26.0573 23.1762 26.4012H23.1819Z" fill="white"/>
    <path d="M48.2862 38.6076C49.1756 38.6076 49.8967 37.8866 49.8967 36.9972C49.8967 36.1077 49.1756 35.3867 48.2862 35.3867C47.3968 35.3867 46.6758 36.1077 46.6758 36.9972C46.6758 37.8866 47.3968 38.6076 48.2862 38.6076Z" fill="#AB6FFF"/>
    <path d="M48.1191 36.107C48.5746 36.053 49.0929 36.1863 49.2539 36.8305" stroke="#E7D6FF" stroke-width="0.479736" stroke-linecap="round"/>
    <path d="M39.9108 20.5676C41.1559 20.5676 42.1653 19.5582 42.1653 18.3131C42.1653 17.068 41.1559 16.0586 39.9108 16.0586C38.6656 16.0586 37.6562 17.068 37.6562 18.3131C37.6562 19.5582 38.6656 20.5676 39.9108 20.5676Z" fill="#AB6FFF"/>
    <path d="M39.6172 17.5465C39.9989 17.4041 40.5835 17.4721 40.9055 18.1163" stroke="#E7D6FF" stroke-width="0.959473" stroke-linecap="round"/>
    <path d="M11.2479 41.1834C13.3826 41.1834 15.1131 39.4529 15.1131 37.3182C15.1131 35.1836 13.3826 33.4531 11.2479 33.4531C9.11329 33.4531 7.38281 35.1836 7.38281 37.3182C7.38281 39.4529 9.11329 41.1834 11.2479 41.1834Z" fill="#AB6FFF"/>
    <path d="M10.4883 35.342C11.1013 35.1133 12.0401 35.2225 12.5574 36.2571" stroke="#E7D6FF" stroke-width="1.54091" stroke-linecap="round"/>
    <path d="M47.3577 22.8242L47.7128 24.4362L49.3247 24.7913L47.7128 25.152L47.3577 26.7583L47.0026 25.152L45.3906 24.7913L47.0026 24.4362L47.3577 22.8242Z" fill="#FFC343"/>
    <path d="M20.9475 39.8945L21.3082 41.5065L22.9202 41.8616L21.3082 42.2167L20.9475 43.8286L20.5924 42.2167L18.9805 41.8616L20.5924 41.5065L20.9475 39.8945Z" fill="#FFC343"/>
    <path d="M19.0196 16.7031L19.3746 18.3151L20.9866 18.6702L19.3746 19.0253L19.0196 20.6372L18.6588 19.0253L17.0469 18.6702L18.6588 18.3151L19.0196 16.7031Z" fill="#FFC343"/>
    <path d="M17.6587 31.38C18.2599 31.38 18.7472 30.8927 18.7472 30.2916C18.7472 29.6904 18.2599 29.2031 17.6587 29.2031C17.0576 29.2031 16.5703 29.6904 16.5703 30.2916C16.5703 30.8927 17.0576 31.38 17.6587 31.38Z" fill="#F88560"/>
    <path d="M25.2226 49.1562C25.4685 49.1562 25.6679 48.9568 25.6679 48.7109C25.6679 48.465 25.4685 48.2656 25.2226 48.2656C24.9767 48.2656 24.7773 48.465 24.7773 48.7109C24.7773 48.9568 24.9767 49.1562 25.2226 49.1562Z" fill="white"/>
    <path d="M55.0234 28.8202C55.2693 28.8202 55.4687 28.6209 55.4687 28.375C55.4687 28.129 55.2693 27.9297 55.0234 27.9297C54.7775 27.9297 54.5781 28.129 54.5781 28.375C54.5781 28.6209 54.7775 28.8202 55.0234 28.8202Z" fill="white"/>
    <path d="M47.3582 47.4859C47.9767 47.4859 48.4781 46.9845 48.4781 46.366C48.4781 45.7475 47.9767 45.2461 47.3582 45.2461C46.7397 45.2461 46.2383 45.7475 46.2383 46.366C46.2383 46.9845 46.7397 47.4859 47.3582 47.4859Z" fill="#F88560"/>
    <path d="M30.375 15.6601C30.6209 15.6601 30.8202 15.4607 30.8202 15.2148C30.8202 14.9689 30.6209 14.7695 30.375 14.7695C30.129 14.7695 29.9297 14.9689 29.9297 15.2148C29.9297 15.4607 30.129 15.6601 30.375 15.6601Z" fill="white"/>
</svg>
