<svg width="14" height="14" viewBox="0 0 14 14" fill="none" xmlns="http://www.w3.org/2000/svg">
<path d="M4.08341 3.50008V1.75008C4.08341 1.59537 4.14487 1.447 4.25427 1.3376C4.36367 1.22821 4.51204 1.16675 4.66675 1.16675H9.33342C9.48812 1.16675 9.6365 1.22821 9.74589 1.3376C9.85529 1.447 9.91675 1.59537 9.91675 1.75008V3.50008H12.8334V4.66675H11.6667V12.2501C11.6667 12.4048 11.6053 12.5532 11.4959 12.6626C11.3865 12.772 11.2381 12.8334 11.0834 12.8334H2.91675C2.76204 12.8334 2.61367 12.772 2.50427 12.6626C2.39487 12.5532 2.33341 12.4048 2.33341 12.2501V4.66675H1.16675V3.50008H4.08341ZM5.25008 2.33341V3.50008H8.75008V2.33341H5.25008Z" fill="#62616F"/>
</svg>
