<svg width="48" height="48" viewBox="0 0 48 48" fill="none" xmlns="http://www.w3.org/2000/svg">
    <g clip-path="url(#clip0_4035_14524)">
        <rect width="48" height="48" rx="6" fill="white"/>
        <path d="M14.8365 32.6619C16.0306 32.5803 20.0419 32.8571 24.2276 32.959C24.8425 32.974 37.076 33.1046 37.2656 32.8038C37.2066 32.7918 28.6622 32.4941 28.6609 32.4941C15.0709 32.1619 12.9287 32.7927 14.8365 32.6619ZM40.3045 30.6826C40.3045 30.6992 40.3226 30.6945 40.1854 30.6945L40.3045 30.6826ZM8.1387 29.6577H8.06715C8.0965 29.6302 8.10948 29.6302 8.1387 29.6577ZM20.0683 28.6259C18.8252 28.7892 18.5135 29.4777 16.5884 29.5618C15.262 29.6198 14.7695 29.1844 14.0975 29.101C13.1869 28.9876 12.5227 29.3718 11.6306 29.5213C11.1176 29.6075 10.282 29.5355 10.3207 30.0629C10.384 30.9286 13.2088 30.5296 14.5861 30.624C15.5518 30.6902 18.1656 31.0775 21.5341 30.1155C21.7286 30.06 22.0135 30.0066 22.1514 29.8482C22.3202 29.6539 22.1958 29.3262 21.9871 29.2212C21.8038 29.129 21.5916 29.0877 21.4031 29.0039C20.9739 28.8126 20.5609 28.5612 20.0683 28.6259ZM8.68686 26.0636C7.90093 26.1634 7.99317 27.0771 8.29897 27.5839C8.91435 28.6041 10.7926 28.8762 12.1073 28.7128C12.7465 28.6332 13.4027 28.4822 14.0499 28.5266C14.7283 28.573 15.3435 28.8391 16.0044 28.9688C18.0223 29.3644 19.627 27.915 20.7237 27.9902C21.5406 28.0462 22.0885 28.7671 22.8689 28.9518C23.7741 29.1658 24.4555 28.7523 25.0856 29.0362C25.6465 29.2891 25.9404 30.0067 27.1474 30.2482C28.6246 30.5435 29.5168 29.8051 30.2937 29.7311C30.7612 29.6866 31.2001 29.9572 31.6284 30.0986C32.2464 30.3025 33.6995 30.3588 34.3933 30.0813C34.7475 29.9397 35.0551 29.637 35.4422 29.5896C35.936 29.5289 36.4483 29.7407 36.9437 29.7529C40.0978 29.83 41.7743 27.2186 40.3403 27.1203C39.4052 27.0558 38.2478 27.9508 36.8365 28.333C34.0432 29.0896 33.1132 28.4944 32.1886 28.4312C31.6102 28.3916 31.0891 28.6663 30.5201 28.6802C29.5237 28.7046 27.5891 28.3674 26.7661 28.1867C24.5207 27.6934 21.3869 26.3653 19.6869 26.2036C18.0704 26.0496 17.2477 26.9738 14.4789 26.7844C12.9142 26.6772 11.3578 26.4461 9.79523 26.3315C9.42235 26.3042 9.06962 26.0145 8.68686 26.0636ZM16.6956 22.4527C16.654 22.4577 16.6134 22.467 16.5765 22.4873C16.2559 22.664 16.5456 23.075 16.6694 23.2816C17.9628 25.4421 20.0422 25.6916 21.9274 26.1377C24.7243 26.7996 27.6187 28.2142 28.1723 27.99C28.558 27.8338 28.2218 27.4047 28.0699 27.2145C27.4415 26.4286 26.6543 25.8803 25.7769 25.3277C23.1229 23.6559 20.3619 23.0838 17.375 22.5636C17.1683 22.5276 16.9044 22.4275 16.6956 22.4527ZM9.09207 21.1059C8.54391 21.1804 8.34955 21.7575 8.1813 22.2091C7.9031 22.9556 7.78989 23.8418 8.00927 24.6164C8.27733 25.5633 8.81697 25.888 9.71178 26.0123C10.5798 26.1331 13.56 26.2134 14.4908 26.2134C15.2057 26.2134 16.5959 26.2251 17.4226 25.8347C17.7731 25.6692 18.2061 25.3611 18.0043 24.9144C17.9341 24.7587 17.8226 24.7399 17.6967 24.6571C17.6337 24.6157 16.776 23.7715 16.0163 23.1794C14.4527 21.9617 12.8044 22.1405 11.0108 21.6922C9.87976 21.4094 9.49389 21.051 9.09207 21.1059ZM35.9546 23.1982C36.2612 22.6709 35.9641 22.161 35.4541 21.9267C35.212 21.8157 34.9553 21.741 34.7032 21.6569C32.7595 21.009 32.4506 21.5594 31.7119 21.5415C31.6021 21.5388 31.4372 21.5122 31.3736 21.4103C31.3218 21.3276 31.4155 21.1612 31.4395 21.0769C31.5154 20.8102 31.5373 20.4994 31.271 20.3258C30.7331 19.9747 29.9674 20.7111 29.7258 20.4652C29.6062 20.3435 29.6627 20.0531 29.662 19.897C29.6602 19.5113 29.469 19.0793 29.0661 18.9782C28.2839 18.7815 27.5666 19.7396 27.1832 19.4722C26.8347 19.2286 27.8386 18.473 26.9329 17.6338C26.5895 17.3155 26.1327 17.2819 25.7531 17.5459C25.5563 17.6829 25.1852 18.028 24.9187 17.9059C24.5437 17.7339 25.1786 16.9212 24.6447 16.4429C23.8231 15.7073 21.4001 17.0476 20.7766 18.0498C20.5391 18.4312 20.4873 18.9672 20.986 19.1603C21.8958 19.5131 23.1234 18.5855 23.87 18.4942C23.9128 18.489 24.0592 18.514 24.0825 18.4716C24.1118 18.4181 23.9877 18.361 23.9535 18.3463C23.2803 18.0572 21.8541 18.8134 21.2601 18.6853C20.7554 18.5773 22.0212 17.2586 23.4886 16.8445C24.6238 16.5242 24.3226 17.1581 24.2802 17.4301C24.1435 18.3127 24.8453 18.7843 25.7769 18.1847C25.9961 18.0433 26.1975 17.7985 26.4682 17.9599C26.601 18.0391 26.758 18.1879 26.786 18.3478C26.847 18.696 26.2881 19.3417 26.7576 19.8235C27.6225 20.711 29.003 18.646 29.1278 19.897C29.1622 20.2417 29.0724 20.6051 29.3642 20.8723C29.878 21.3426 30.4186 20.7671 30.9611 20.7671C30.9487 21.0379 30.7638 21.2702 30.8471 21.5536C30.941 21.8722 31.3002 22.058 31.6165 22.0659C32.0754 22.0771 32.4887 21.9204 32.9394 21.8773C33.5322 21.8211 34.6699 22.1377 35.2277 22.4147C35.3938 22.4972 35.5965 22.6135 35.5322 22.8288C35.4044 23.2586 35.2638 23.1672 35.0489 23.1421C31.7526 22.7532 31.7426 22.8837 27.6003 20.6981C23.9117 18.7519 22.9371 19.4701 21.4746 19.609C21.1327 19.6416 20.7782 19.5998 20.4378 19.5764C18.3807 19.4356 17.8558 19.7096 16.6837 19.6582C14.792 19.5754 13.1522 18.7062 12.0387 17.3586C11.5387 16.7533 11.2823 15.8689 10.6056 15.8689C10.566 15.7403 9.96009 15.5163 9.12453 17.4539C8.78654 18.2378 8.49427 19.3429 9.09761 20.0758C9.58518 20.6678 10.434 20.8269 11.142 20.9893C11.9903 21.1841 12.8176 21.4551 13.6685 21.642C15.8183 22.1142 18.0247 22.2303 20.1756 22.7028C22.6278 23.2413 26.4364 24.791 27.9526 26.571C28.7386 27.4934 28.6847 28.0419 28.9474 28.2712C29.0487 28.3597 29.152 28.3341 29.2687 28.3662C29.4392 28.4131 29.5914 28.4821 29.7693 28.5085C30.6465 28.6383 31.4909 28.2163 32.3554 28.1571C33.1634 28.1018 33.9363 28.4173 34.7509 28.3076C35.9498 28.1461 39.1855 26.822 40.2926 26.3495C41.1923 25.9656 42.0188 25.5112 42.6658 24.7595C42.9233 24.4602 43.2279 24.0462 43.1612 23.6273C43.0165 22.717 41.4726 23.4446 37.2179 23.2584C36.8059 23.2404 36.3604 23.2735 35.9546 23.1982ZM43.8441 27.2026C43.9534 26.9493 44.1291 26.8097 44.4734 25.9036C44.5324 25.7486 44.6452 25.5104 44.6068 25.3435C44.4058 25.545 44.2661 25.804 44.1012 26.0346C43.9681 26.2209 43.1451 27.2705 42.9621 27.4052C43.056 27.1875 43.5601 26.3683 43.5223 26.1181C42.9029 26.8834 43.2086 26.5446 42.1398 27.632C41.3244 28.3654 41.4586 28.2741 41.8488 27.7746C41.8964 27.7136 42.6666 26.7252 42.7119 26.5829C42.5222 26.7165 42.6492 26.6641 41.5798 27.5926C39.7732 29.1617 38.9862 29.8136 37.3132 30.2549C36.7362 30.4071 36.3548 29.6583 35.7758 29.8144C35.39 29.9186 35.2028 30.3277 34.8344 30.4702C34.3188 30.6697 32.9827 30.7045 32.4269 30.7182C32.1316 30.7253 31.75 30.7724 31.4974 30.588C31.2079 30.3771 31.0517 29.915 30.6273 29.9448C30.2205 29.9733 30.0033 30.5114 29.5071 30.7384C29.1887 30.8844 28.8369 30.8852 28.494 30.8852C27.4281 30.8852 26.8366 30.8852 26.3609 30.5288C25.6936 30.0292 25.208 29.1514 24.2514 29.2426C23.1168 29.3507 21.6268 30.3512 20.0206 30.8205C19.1613 31.0716 18.8654 31.04 13.2752 31.04C12.2573 31.04 10.4628 30.992 10.4387 30.9841C10.3318 30.9483 9.15131 30.0542 8.71594 29.5385C7.47476 28.0682 7.65965 25.3382 7.74499 23.3889C7.82709 21.513 7.76311 18.402 9.06989 16.0596C9.75249 14.836 10.229 14.7258 11.3326 15.7487C12.5432 16.871 13.8428 18.7144 15.8018 18.8002C17.1215 18.8579 18.4034 18.2244 19.544 17.6358C20.0954 17.3513 20.6502 17.0755 21.1767 16.7457C22.3464 16.0135 22.6812 15.3542 23.4767 15.4299C24.343 15.5124 24.6716 16.1374 26.039 16.843C28.4478 18.0861 28.3269 18.2233 29.5429 18.9698C30.1484 19.3414 30.7964 19.6359 31.4139 19.9855C32.3647 20.5238 33.3069 21.0956 34.3576 21.4221C40.0147 23.1805 41.8301 21.4506 43.7249 22.6506C44.1569 22.9243 44.8798 23.6448 45.0665 24.1398C45.415 25.063 44.9914 25.9743 44.3823 26.6662C44.2212 26.8492 44.044 27.0618 43.8441 27.2026ZM7.80504 29.1094C7.32044 29.1094 6.56156 29.1954 6.38682 29.2339C6.3641 29.2391 6.30919 29.251 6.32082 29.2861C6.33178 29.3195 6.3825 29.3213 6.41063 29.3239C6.51517 29.3337 7.43054 29.4685 7.82885 29.6218C7.82885 29.6654 5.39761 29.556 5.39761 29.7411C5.88451 29.7411 6.33732 29.9175 6.81583 29.9556C6.81583 30.0162 3.66133 29.9321 4.5515 30.0598C4.74788 30.0879 7.19466 30.3489 7.22104 30.3489C7.22104 30.3554 3.08558 30.5001 3.08558 30.6231C3.33558 30.6826 3.6167 30.6481 3.87218 30.6593C7.73972 30.8282 7.46462 30.9448 8.79412 30.9448C8.66346 31.0782 8.41515 30.8788 4.7422 31.0398C3.63544 31.0883 1 31.0868 1 31.1593C1.1858 31.2487 1.48695 31.2179 1.69119 31.232C7.24849 31.6149 6.3146 31.505 8.65116 31.505V31.5169C8.30019 31.5169 7.93988 31.5768 7.59054 31.6103C5.04407 31.8536 4.8435 31.759 4.7422 31.8625C4.99917 31.9238 5.312 31.892 5.57641 31.8985C10.2706 32.0076 9.87543 31.8983 13.025 31.8983C13.025 31.9634 13.0895 31.7823 10.2958 32.1673C9.65944 32.255 9.43736 32.2458 9.46576 32.3382C9.47915 32.3823 9.54366 32.3856 9.58072 32.3869C15.7991 32.5792 11.9508 32.232 23.4648 32.232C27.217 32.232 30.4875 31.9821 37.9807 32.4952C37.9817 32.4953 40.8032 32.661 40.8647 32.661C40.8647 32.5896 36.765 32.0738 36.765 32.0532C37.7038 32.0539 38.6409 32.107 39.5775 32.1481C40.3134 32.1802 41.0566 32.128 41.7943 32.1366C42.1432 32.1408 44.2289 32.2558 45.2385 32.2558C45.4122 32.2558 45.7324 32.3359 45.882 32.232C45.7641 32.1822 46.1643 32.2645 41.8896 31.8367C41.5161 31.7993 41.1328 31.7314 40.7575 31.7314V31.7195C47.1945 31.7195 46.3113 31.5288 48.1941 31.5288C48.2459 31.5288 48.3045 31.5394 48.3371 31.4931C47.9204 31.4158 40.972 31.1844 40.972 31.1833C46.9259 30.8145 46.4779 30.8737 46.4779 30.8138C45.657 30.7095 42.6707 30.5887 41.7465 30.6113C41.2702 30.6231 40.3283 30.7168 40.3283 30.6708C40.9081 30.6708 42.8381 30.327 44.7618 30.1112C44.8397 30.1025 45.0227 30.1152 45.0716 30.051C41.4908 30.1024 41.7465 30.1053 41.7465 30.0868C42.1586 29.999 43.6503 29.6717 44.0348 29.5028C43.0404 29.5028 42.0502 29.7292 41.0554 29.7292C41.4434 29.5028 41.8488 29.3063 42.2352 29.0762C45.1134 27.3625 47.0937 24.8669 44.5711 22.6416C42.8734 21.1439 41.3208 21.7924 39.3511 21.7443C37.3879 21.6961 35.1049 21.1792 33.9286 20.7004C33.1471 20.3823 32.4342 19.9478 31.7 19.538C31.101 19.2036 30.476 18.9149 29.8885 18.56C28.4885 17.7147 29.1458 17.8828 26.1702 16.3125C25.2147 15.8085 24.429 14.8781 23.2741 14.8918C22.6662 14.8991 22.2163 15.2978 21.7726 15.6613C20.9014 16.3748 20.2445 16.6691 19.4843 17.0701C16.006 18.9054 14.916 18.4837 13.1919 16.8347C11.787 15.4917 10.8907 14.2642 9.83107 14.5631C8.76558 14.8639 8.0965 16.8303 7.79476 17.8949C7.30787 19.6129 7.29786 21.3735 7.22063 23.1388C7.15125 24.7227 7.03764 26.3696 7.39564 27.9297C7.49045 28.3428 7.65275 28.7171 7.80504 29.1095" fill="#232323"/>
    </g>
    <rect x="0.5" y="0.5" width="47" height="47" rx="5.5" stroke="#E5E5E8"/>
    <defs>
        <clipPath id="clip0_4035_14524">
            <rect width="48" height="48" rx="6" fill="white"/>
        </clipPath>
    </defs>
</svg>
