<svg width="133" height="146" viewBox="0 0 133 146" fill="none" xmlns="http://www.w3.org/2000/svg">
<path d="M100.888 19H62.8764C57.2919 19 52.7646 23.5272 52.7646 29.1118V80.5055C52.7646 86.09 57.2919 90.6172 62.8764 90.6172H100.888C106.473 90.6172 111 86.09 111 80.5055V29.1118C111 23.5272 106.473 19 100.888 19Z" fill="white"/>
<path d="M67.4197 54.8066H96.3457" stroke="#04DB8E" stroke-width="6.84154" stroke-linecap="round" stroke-linejoin="round"/>
<path d="M67.4197 39.2773H79.4608" stroke="#04DB8E" stroke-width="6.84154" stroke-linecap="round" stroke-linejoin="round"/>
<path d="M67.4197 70.3379H96.3457" stroke="#04DB8E" stroke-width="6.84154" stroke-linecap="round" stroke-linejoin="round"/>
<circle cx="59.8125" cy="84.4316" r="27" fill="white" fill-opacity="0.55"/>
<rect x="33.1497" y="102.442" width="20.2347" height="7.58803" rx="3.79402" transform="rotate(36.7469 33.1497 102.442)" fill="#AE70FF"/>
<path d="M41.2562 108.492C42.9821 109.781 43.4507 112.168 42.3402 114.013L28.5498 136.931C26.4551 140.412 21.8127 141.324 18.5573 138.893C15.3019 136.463 14.8569 131.753 17.5994 128.755L35.655 109.022C37.109 107.433 39.5304 107.204 41.2562 108.492Z" fill="#AE70FF"/>
<path fill-rule="evenodd" clip-rule="evenodd" d="M41.3636 108.477C54.7955 118.506 73.8144 115.748 83.8434 102.316C93.8724 88.8836 91.1138 69.8647 77.6818 59.8357C64.2499 49.8067 45.231 52.5654 35.202 65.9973C25.173 79.4293 27.9316 98.4482 41.3636 108.477ZM63.7619 106.507C75.8541 104.366 83.9216 92.8282 81.781 80.7359C79.6404 68.6437 68.1025 60.5762 56.0102 62.7168C43.918 64.8574 35.8505 76.3953 37.9911 88.4876C40.1316 100.58 51.6696 108.647 63.7619 106.507Z" fill="#AE70FF"/>
<path d="M54.3076 79.3867L65.559 90.6381" stroke="#AE70FF" stroke-width="6.29756" stroke-linecap="round"/>
<path d="M54.3076 79.3867L65.559 90.6381" stroke="#AE70FF" stroke-width="6.29756" stroke-linecap="round"/>
<path d="M54.3076 79.3867L65.559 90.6381" stroke="#AE70FF" stroke-width="6.29756" stroke-linecap="round"/>
<path d="M65.5593 79.7266L54.3079 90.978" stroke="#AE70FF" stroke-width="6.29756" stroke-linecap="round"/>
<rect x="13" width="120" height="120" rx="8" fill="#E0F9EC"/>
<path d="M100.888 19H62.8764C57.2919 19 52.7646 23.5272 52.7646 29.1118V80.5055C52.7646 86.09 57.2919 90.6172 62.8764 90.6172H100.888C106.473 90.6172 111 86.09 111 80.5055V29.1118C111 23.5272 106.473 19 100.888 19Z" fill="white"/>
<path d="M67.4197 54.8066H96.3457" stroke="#04DB8E" stroke-width="6.84154" stroke-linecap="round" stroke-linejoin="round"/>
<path d="M67.4197 39.2773H79.4608" stroke="#04DB8E" stroke-width="6.84154" stroke-linecap="round" stroke-linejoin="round"/>
<path d="M67.4197 70.3379H96.3457" stroke="#04DB8E" stroke-width="6.84154" stroke-linecap="round" stroke-linejoin="round"/>
<circle cx="59.8125" cy="84.4316" r="27" fill="white" fill-opacity="0.55"/>
<rect x="33.1497" y="102.442" width="20.2347" height="7.58803" rx="3.79402" transform="rotate(36.7469 33.1497 102.442)" fill="#AE70FF"/>
<path d="M41.2562 108.492C42.9821 109.781 43.4507 112.168 42.3402 114.013L28.5498 136.931C26.4551 140.412 21.8127 141.324 18.5573 138.893C15.3019 136.463 14.8569 131.753 17.5994 128.755L35.655 109.022C37.109 107.433 39.5304 107.204 41.2562 108.492Z" fill="#AE70FF"/>
<path fill-rule="evenodd" clip-rule="evenodd" d="M41.3636 108.477C54.7955 118.506 73.8144 115.748 83.8434 102.316C93.8724 88.8836 91.1138 69.8647 77.6818 59.8357C64.2499 49.8067 45.231 52.5654 35.202 65.9973C25.173 79.4293 27.9316 98.4482 41.3636 108.477ZM63.7619 106.507C75.8541 104.366 83.9216 92.8282 81.781 80.7359C79.6404 68.6437 68.1025 60.5762 56.0102 62.7168C43.918 64.8574 35.8505 76.3953 37.9911 88.4876C40.1316 100.58 51.6696 108.647 63.7619 106.507Z" fill="#AE70FF"/>
<path d="M54.3076 79.3867L65.559 90.6381" stroke="#AE70FF" stroke-width="6.29756" stroke-linecap="round"/>
<path d="M54.3076 79.3867L65.559 90.6381" stroke="#AE70FF" stroke-width="6.29756" stroke-linecap="round"/>
<path d="M54.3076 79.3867L65.559 90.6381" stroke="#AE70FF" stroke-width="6.29756" stroke-linecap="round"/>
<path d="M65.5593 79.7266L54.3079 90.978" stroke="#AE70FF" stroke-width="6.29756" stroke-linecap="round"/>
</svg>
