<svg width="249" height="149" viewBox="0 0 249 149" fill="none" xmlns="http://www.w3.org/2000/svg">
<g clip-path="url(#clip0_3978_35998)">
<path d="M242.648 92H166.258C162.781 92 160 94.7811 160 98.2575L160 162H248.875L248.875 98.2575C248.875 94.8114 246.094 92 242.617 92H242.648ZM244.008 156.861H164.897L164.897 97.139H244.008L244.008 156.861Z" fill="#AE70FF"/>
<path d="M194.999 130.536L188.59 124.127L194.999 117.719" stroke="#04DB8E" stroke-width="4" stroke-linecap="round" stroke-linejoin="round"/>
<path d="M213.906 130.536L220.285 124.127L213.906 117.719" stroke="#04DB8E" stroke-width="4" stroke-linecap="round" stroke-linejoin="round"/>
<path d="M205.465 113.762L202.926 135.164" stroke="#04DB8E" stroke-width="4" stroke-linecap="round" stroke-linejoin="round"/>
<path d="M228.5 104.5H231.5C234.261 104.5 236.5 106.739 236.5 109.5V112" stroke="white" stroke-width="4" stroke-linecap="round"/>
</g>
<rect x="71" y="9.73047" width="109" height="118.782" rx="5.84439" fill="white"/>
<path d="M92.7235 113.183V113.719C92.7167 113.745 92.7094 113.771 92.7031 113.797C92.6221 114.124 92.5696 114.461 92.4542 114.775C92.1665 115.558 91.6828 116.225 91.1317 116.842C89.9259 118.192 88.4958 119.267 86.9612 120.212C86.822 120.298 86.6845 120.293 86.5443 120.207C85.2463 119.417 84.0289 118.522 82.9439 117.454C82.2737 116.795 81.6704 116.082 81.2449 115.236C80.595 113.943 80.6177 112.667 81.3991 111.44C81.9413 110.589 82.7263 110.07 83.7438 109.976C84.819 109.876 85.7013 110.286 86.4065 111.09C86.5331 111.234 86.6398 111.396 86.7608 111.557C86.7797 111.53 86.7963 111.506 86.8145 111.482C86.9579 111.299 87.0845 111.099 87.248 110.936C88.1074 110.078 89.1333 109.744 90.3141 110.084C91.5105 110.429 92.227 111.275 92.5794 112.444C92.6513 112.683 92.6765 112.936 92.7232 113.183H92.7235Z" fill="#04DB8E"/>
<path d="M113.21 114.451V114.986C113.204 115.024 113.196 115.061 113.191 115.099C113.151 115.375 113.128 115.655 113.069 115.927C112.594 118.125 110.746 119.833 108.52 120.14C108.328 120.166 108.136 120.185 107.943 120.207H107.547C107.517 120.201 107.487 120.191 107.457 120.19C106.587 120.146 105.775 119.903 105.016 119.476C104.977 119.454 104.912 119.452 104.868 119.467C104.183 119.711 103.5 119.959 102.817 120.206H102.7C102.279 120.044 102.186 119.833 102.344 119.4C102.558 118.81 102.77 118.219 102.988 117.63C103.02 117.545 103.012 117.482 102.969 117.405C102.306 116.209 102.099 114.937 102.385 113.602C103.05 110.489 106.161 108.588 109.219 109.477C111.368 110.102 112.658 111.579 113.117 113.772C113.164 113.994 113.18 114.224 113.21 114.45V114.451Z" fill="#CBE6DC"/>
<path d="M121.352 113.085C121.352 112.991 121.352 112.896 121.352 112.802C121.357 112.789 121.366 112.777 121.369 112.763C121.459 112.335 121.72 112.071 122.136 111.946C124.32 111.292 126.503 110.636 128.687 109.98C129.799 109.646 130.912 109.312 132.025 108.98C132.096 108.959 132.178 108.949 132.248 108.964C132.451 109.01 132.533 109.197 132.464 109.43C131.722 111.901 130.98 114.372 130.238 116.843C129.989 117.672 129.741 118.5 129.493 119.329C129.387 119.68 129.164 119.919 128.818 120.041C128.761 120.061 128.701 120.075 128.643 120.091H128.36C128.35 120.086 128.341 120.079 128.331 120.077C127.884 119.986 127.615 119.712 127.492 119.279C127.109 117.929 126.721 116.58 126.338 115.23C126.318 115.159 126.285 115.125 126.213 115.105C124.842 114.716 123.472 114.324 122.102 113.932C121.878 113.868 121.684 113.751 121.56 113.556C121.47 113.412 121.42 113.243 121.352 113.085Z" fill="#CBE6DC"/>
<path d="M71 15.5749C71 12.3471 73.6166 9.73047 76.8444 9.73047H174.156C177.383 9.73047 180 12.3471 180 15.5749V100.564H71V15.5749Z" fill="#04DB8E"/>
<mask id="mask0_3978_35998" style="mask-type:alpha" maskUnits="userSpaceOnUse" x="71" y="9" width="109" height="92">
<path d="M71 15.5749C71 12.3471 73.6166 9.73047 76.8444 9.73047H174.156C177.383 9.73047 180 12.3471 180 15.5749V100.564H71V15.5749Z" fill="#EEEEEE"/>
</mask>
<g mask="url(#mask0_3978_35998)">
<g clip-path="url(#clip1_3978_35998)">
<path d="M147.848 84.3203C147.848 84.3203 158.565 87.1865 167 113.907L145.542 125.468L141.022 109.934L147.852 84.3203H147.848Z" fill="#AE70FF"/>
<path d="M101.687 84.4727C101.687 84.4727 92.9493 87.1855 84.5137 113.901L104.002 125.462L108.522 109.928L101.682 84.4727H101.687Z" fill="#AE70FF"/>
<path d="M117.709 78.5138L102.564 84.064C99.7214 85.1041 98.1254 88.1285 98.8731 91.0617L109.997 134.936H139.795L150.067 89.0391C150.522 86.9973 149.429 84.9316 147.488 84.1551L132.807 78.3125L117.714 78.5138H117.709Z" fill="#AE70FF"/>
<path d="M117.71 78.5099L111.091 80.9351L125.522 90.0897L138.88 80.7242L132.808 78.3086L117.71 78.5099Z" fill="#E69560"/>
<path d="M149.75 52.7198C148.432 47.716 147.952 48.6122 143.519 38.6621C140.868 32.7188 138.822 30.332 137.6 29.3686C137.6 29.3686 133.118 24.5469 125.105 24.5469C117.091 24.5469 113.021 29.1289 113.021 29.1289C111.862 29.9054 109.676 32.1485 106.771 38.6621C102.338 48.6122 101.859 47.716 100.541 52.7198C99.2226 57.7236 100.9 66.9501 111.21 68.7474C111.21 68.7474 109.892 67.4294 109.412 65.2725C109.412 65.2725 113.726 71.1439 119.602 70.7844H130.698C136.569 71.1439 140.888 65.2725 140.888 65.2725C140.408 67.4294 139.09 68.7474 139.09 68.7474C149.4 66.9501 151.077 57.7188 149.759 52.7198H149.75Z" fill="#13144D"/>
<path d="M132.807 78.3113L130.971 62.322C130.971 62.322 129.078 64.2536 126.566 64.7185C124.055 65.1834 121.62 63.7168 121.591 63.6976C121.562 63.6784 119.54 61.9961 119.54 61.9961L117.714 78.5078C117.714 78.6899 117.58 80.1709 117.551 80.3435L132.85 78.7714C132.826 78.618 132.812 78.4599 132.812 78.3017L132.807 78.3113Z" fill="#E69560"/>
<path d="M118.381 62.5648C118.381 62.5648 122.23 69.9938 126.807 68.9298C131.59 67.8178 131.566 61.5391 131.566 61.5391L118.376 62.5695L118.381 62.5648Z" fill="#13144D"/>
<path d="M141.616 41.2231C141.616 50.3201 134.537 57.6964 125.804 57.6964C117.071 57.6964 109.992 50.3201 109.992 41.2231C109.992 32.1261 117.071 25.9336 125.804 25.9336C134.537 25.9336 141.616 32.1213 141.616 41.2183V41.2231Z" fill="#13144D"/>
<path d="M138.869 42.0669C138.869 47.7369 138.078 52.6305 137.292 56.1054C136.521 59.5084 134.349 61.8809 131.287 63.7933L130.726 64.1432C127.481 66.1658 123.287 66.2137 119.994 64.263C116.673 62.2979 114.344 59.7001 113.629 56.0527C112.326 49.4144 112.187 42.0621 112.187 42.0621C112.187 42.0621 110.95 27.7455 125.339 28.0235C139.727 28.3015 138.869 42.0621 138.869 42.0621V42.0669Z" fill="#E69560"/>
<path d="M113.76 55.5166C111.225 57.707 105.885 49.0366 108.339 46.6976C110.793 44.3586 112.533 48.1642 112.533 48.1642L113.032 50.9058L113.775 54.5916L113.966 55.4208L113.765 55.5166H113.76Z" fill="#E69560"/>
<path d="M109.442 49.6182C109.442 49.6182 110.478 47.3703 112.893 51.3149" stroke="#13144D" stroke-width="0.680598" stroke-linecap="round" stroke-linejoin="round"/>
<path d="M137.287 55.5645C139.861 57.7117 145.047 48.9502 142.555 46.6544C140.058 44.3586 138.39 48.1929 138.39 48.1929L137.939 50.9393L137.263 54.6394L137.086 55.4686L137.292 55.5645H137.287Z" fill="#E69560"/>
<path d="M141.499 49.5982C141.499 49.5982 140.426 47.3694 138.077 51.3524" stroke="#13144D" stroke-width="0.680598" stroke-linecap="round" stroke-linejoin="round"/>
<path d="M112.374 46.5257C112.374 46.5257 117.143 38.7468 115.816 30.8672C115.816 30.8672 112.532 33.0144 111.421 38.5647C110.309 44.1149 112.374 46.5257 112.374 46.5257Z" fill="#13144D"/>
<path d="M139.114 46.6829C139.114 46.6829 133.185 38.2234 134.513 30.3438C134.513 30.3438 138.165 33.023 139.277 38.5684C140.389 44.1139 139.119 46.6829 139.119 46.6829H139.114Z" fill="#13144D"/>
<path d="M136.784 29.9952C136.784 29.9952 124.677 44.4699 111.415 38.565C111.415 38.565 108.477 27.0284 124.428 25.9883L136.784 29.9952Z" fill="#13144D"/>
<path d="M128.018 27.8251C130.501 28.5153 130.827 41.0105 141.616 41.2166L137.595 29.3636L128.014 27.8203L128.018 27.8251Z" fill="#13144D"/>
<path d="M123.096 43.5246L115.054 44.4928C115.054 44.4928 115.701 42.3599 118.984 41.9957C122.267 41.6314 123.091 43.5294 123.091 43.5294L123.096 43.5246Z" fill="#13144D"/>
<path d="M127.731 43.5246L135.774 44.4928C135.774 44.4928 135.127 42.3599 131.844 41.9957C128.561 41.6314 127.736 43.5294 127.736 43.5294L127.731 43.5246Z" fill="#13144D"/>
<path d="M120.743 56.063L123.068 55.0708C123.442 54.9941 123.854 54.9989 124.266 55.09L125.282 55.3153L126.15 55.0373C126.543 54.9127 127.079 54.9031 127.458 55.0181L129.648 56.0246L120.743 56.063Z" fill="#FB577F"/>
<path d="M120.743 56.0618C120.743 56.0618 121.889 59.1389 125.263 59.1389C128.637 59.1389 129.648 56.0234 129.648 56.0234L120.743 56.0618Z" fill="#FB577F"/>
<path d="M121.447 56.2328C121.447 56.2328 121.951 57.6036 125.262 57.6036C128.277 57.6036 129.097 56.1992 129.097 56.1992L121.447 56.2328Z" fill="white"/>
<path d="M123.408 58.3379C123.617 58.3379 123.787 58.2221 123.787 58.0791C123.787 57.9362 123.617 57.8203 123.408 57.8203C123.199 57.8203 123.029 57.9362 123.029 58.0791C123.029 58.2221 123.199 58.3379 123.408 58.3379Z" fill="#F6939D"/>
<path d="M124.679 50.6328V53.058L126.102 53.082" stroke="#13144D" stroke-width="0.671012" stroke-linecap="round" stroke-linejoin="round"/>
<path d="M120.969 47.981C120.969 47.981 119.071 46.6438 117.278 47.981" stroke="#13144D" stroke-width="0.680598" stroke-linecap="round" stroke-linejoin="round"/>
<path d="M129.907 47.981C129.907 47.981 131.805 46.6438 133.603 47.981" stroke="#13144D" stroke-width="0.680598" stroke-linecap="round" stroke-linejoin="round"/>
<path opacity="0.22" d="M123.032 49.6428C123.713 46.7438 121.915 43.8416 119.016 43.1606C116.117 42.4795 113.215 44.2776 112.534 47.1766C111.853 50.0756 113.651 52.9779 116.55 53.6589C119.449 54.3399 122.351 52.5419 123.032 49.6428Z" fill="white"/>
<path opacity="0.22" d="M138.096 49.6428C138.777 46.7438 136.979 43.8416 134.08 43.1606C131.181 42.4795 128.278 44.2776 127.597 47.1766C126.916 50.0756 128.714 52.9779 131.613 53.6589C134.512 54.3399 137.415 52.5419 138.096 49.6428Z" fill="white"/>
<path d="M123.032 49.6428C123.713 46.7438 121.915 43.8416 119.016 43.1606C116.117 42.4795 113.215 44.2776 112.534 47.1766C111.853 50.0756 113.651 52.9779 116.55 53.6589C119.449 54.3399 122.351 52.5419 123.032 49.6428Z" stroke="#AE70FF" stroke-width="0.987347" stroke-miterlimit="10"/>
<path d="M137.289 51.7462C139.131 49.4062 138.728 46.0161 136.388 44.1741C134.048 42.3321 130.658 42.7358 128.816 45.0757C126.974 47.4156 127.377 50.8057 129.717 52.6477C132.057 54.4897 135.447 54.0861 137.289 51.7462Z" stroke="#AE70FF" stroke-width="0.987347" stroke-miterlimit="10"/>
<path d="M123.173 48.8523C123.173 48.8523 125.076 45.9238 127.664 48.8523" stroke="#AE70FF" stroke-width="0.987347" stroke-miterlimit="10"/>
</g>
</g>
<circle cx="208.983" cy="34.0159" r="24.0646" transform="rotate(46.7854 208.983 34.0159)" fill="#AE70FF"/>
<rect x="185.866" y="44.6484" width="16.0431" height="6.01615" rx="3.00807" transform="rotate(46.7854 185.866 44.6484)" fill="#13144D"/>
<path d="M191.358 50.4905C192.527 51.735 192.563 53.6631 191.441 54.9504L177.508 70.937C175.391 73.3652 171.641 73.4353 169.435 71.0877C167.23 68.7402 167.533 65.0015 170.089 63.0405L186.912 50.1296C188.267 49.0899 190.189 49.2459 191.358 50.4905Z" fill="#13144D"/>
<circle cx="209.203" cy="34.4183" r="17.6292" fill="white" fill-opacity="0.85"/>
<path d="M202.351 32.3455C203.056 26.7449 211.516 22.9282 215.746 29.1098" stroke="white" stroke-width="4.23014" stroke-linecap="round"/>
<path d="M5.45391 36.4805H73.5414C76.5769 36.4805 79.02 38.9236 79.02 41.9344V88.1322H0V41.9344C0 38.9236 2.44315 36.4805 5.45391 36.4805Z" fill="white"/>
<path d="M73.5661 36.4805H5.45391C2.44315 36.4805 0 38.9236 0 41.9344V48.7456H79.02V41.9344C79.02 38.9236 76.5769 36.4805 73.5661 36.4805Z" fill="#AE70FF"/>
<path d="M8.02096 44.7997C9.1522 44.7997 10.0693 43.8827 10.0693 42.7514C10.0693 41.6202 9.1522 40.7031 8.02096 40.7031C6.88971 40.7031 5.97266 41.6202 5.97266 42.7514C5.97266 43.8827 6.88971 44.7997 8.02096 44.7997Z" fill="white"/>
<path d="M16.0659 44.7997C17.1971 44.7997 18.1142 43.8827 18.1142 42.7514C18.1142 41.6202 17.1971 40.7031 16.0659 40.7031C14.9346 40.7031 14.0176 41.6202 14.0176 42.7514C14.0176 43.8827 14.9346 44.7997 16.0659 44.7997Z" fill="white"/>
<path d="M24.1362 44.7997C25.2674 44.7997 26.1845 43.8827 26.1845 42.7514C26.1845 41.6202 25.2674 40.7031 24.1362 40.7031C23.0049 40.7031 22.0879 41.6202 22.0879 42.7514C22.0879 43.8827 23.0049 44.7997 24.1362 44.7997Z" fill="white"/>
<path d="M60.7882 84.5701C59.6297 84.5701 58.6836 83.624 58.6836 82.4656V72.4641C58.6836 69.0852 55.9419 66.3242 52.5437 66.3242H45.6895V72.7344L48.7015 72.773C50.362 72.7923 51.7135 74.1439 51.7135 75.8237V84.4736C51.7135 86.5009 53.3547 88.1614 55.4013 88.1614C53.374 88.1614 51.7135 89.8026 51.7135 91.8492V100.499C51.7135 102.16 50.3813 103.53 48.7015 103.55L45.6895 103.588V109.999H52.5437C55.9226 109.999 58.6836 107.257 58.6836 103.859V93.8572C58.6836 92.6987 59.6297 91.7526 60.7882 91.7526C61.213 91.7526 61.5798 91.4051 61.5798 90.961V85.3618C61.5798 84.937 61.2323 84.5701 60.7882 84.5701Z" fill="#04DB8E"/>
<path d="M18.0592 84.5701C19.2177 84.5701 20.1638 83.624 20.1638 82.4656V72.4641C20.1638 69.0852 22.9055 66.3242 26.3036 66.3242H33.1579V72.7344L30.1459 72.773C28.4854 72.7923 27.1339 74.1439 27.1339 75.8237V84.4736C27.1339 86.5009 25.4927 88.1614 23.4461 88.1614C25.4734 88.1614 27.1339 89.8026 27.1339 91.8492V100.499C27.1339 102.16 28.4661 103.53 30.1459 103.55L33.1579 103.588V109.999H26.3036C22.9248 109.999 20.1638 107.257 20.1638 103.859V93.8572C20.1638 92.6987 19.2177 91.7526 18.0592 91.7526C17.6344 91.7526 17.2676 91.4051 17.2676 90.961V88.1614V85.3618C17.2676 84.937 17.6151 84.5701 18.0592 84.5701Z" fill="#04DB8E"/>
<defs>
<clipPath id="clip0_3978_35998">
<rect width="89" height="57" fill="white" transform="translate(160 92)"/>
</clipPath>
<clipPath id="clip1_3978_35998">
<rect width="82.4866" height="110.386" fill="white" transform="translate(84.5127 24.5469)"/>
</clipPath>
</defs>
</svg>
