<svg width="17" height="16" viewBox="0 0 17 16" fill="none" xmlns="http://www.w3.org/2000/svg">
<path d="M1.00002 0.5H16C16.221 0.5 16.433 0.587797 16.5893 0.744078C16.7456 0.900358 16.8334 1.11232 16.8334 1.33333V14.6667C16.8334 14.8877 16.7456 15.0996 16.5893 15.2559C16.433 15.4122 16.221 15.5 16 15.5H1.00002C0.779007 15.5 0.567045 15.4122 0.410765 15.2559C0.254484 15.0996 0.166687 14.8877 0.166687 14.6667V1.33333C0.166687 1.11232 0.254484 0.900358 0.410765 0.744078C0.567045 0.587797 0.779007 0.5 1.00002 0.5ZM15.1667 4.03167L8.56002 9.94833L1.83335 4.01333V13.8333H15.1667V4.03167ZM2.25919 2.16667L8.55085 7.71833L14.7517 2.16667H2.25919Z" fill="#680DE4"/>
</svg>
