<svg width="16" height="13" viewBox="0 0 16 13" fill="none" xmlns="http://www.w3.org/2000/svg">
    <path d="M2.09091 8.14773V6.67045H12.0227C12.4545 6.67045 12.8485 6.56439 13.2045 6.35227C13.5606 6.14015 13.8428 5.85606 14.0511 5.5C14.2633 5.14394 14.3693 4.75 14.3693 4.31818C14.3693 3.88636 14.2633 3.49432 14.0511 3.14205C13.839 2.78598 13.5549 2.50189 13.1989 2.28977C12.8466 2.07765 12.4545 1.97159 12.0227 1.97159H11.3864V0.5H12.0227C12.7273 0.5 13.3674 0.672348 13.9432 1.01705C14.5189 1.36174 14.9792 1.82197 15.3239 2.39773C15.6686 2.97348 15.8409 3.61364 15.8409 4.31818C15.8409 4.8447 15.7405 5.33902 15.5398 5.80114C15.3428 6.26326 15.0701 6.67045 14.7216 7.02273C14.3731 7.375 13.9678 7.65151 13.5057 7.85227C13.0436 8.04924 12.5492 8.14773 12.0227 8.14773H2.09091ZM5.74432 12.5739L0.579545 7.40909L5.74432 2.24432L6.76136 3.26136L2.60795 7.40909L6.76136 11.5568L5.74432 12.5739Z" fill="#5A5A67"/>
</svg>
