<svg width="196" height="171" viewBox="0 0 196 171" fill="none" xmlns="http://www.w3.org/2000/svg">
<rect x="23.9565" y="20.8955" width="137.414" height="149.746" rx="7.65827" fill="#F5F5F6"/>
<path d="M51.34 151.308V151.984C51.3314 152.017 51.3223 152.049 51.3143 152.082C51.2122 152.494 51.1459 152.919 51.0005 153.315C50.6378 154.302 50.0281 155.143 49.3332 155.921C47.8132 157.623 46.0102 158.979 44.0756 160.169C43.9001 160.277 43.7267 160.271 43.5501 160.164C41.9137 159.168 40.3789 158.038 39.0111 156.693C38.1661 155.862 37.4056 154.963 36.8692 153.896C36.0499 152.267 36.0784 150.657 37.0635 149.111C37.7472 148.038 38.7367 147.384 40.0194 147.265C41.3749 147.14 42.4872 147.655 43.3764 148.669C43.5359 148.851 43.6705 149.056 43.823 149.258C43.8468 149.225 43.8677 149.194 43.8907 149.164C44.0715 148.933 44.231 148.681 44.4371 148.476C45.5206 147.394 46.8139 146.973 48.3025 147.402C49.8108 147.836 50.714 148.903 51.1583 150.377C51.249 150.678 51.2808 150.997 51.3397 151.308H51.34Z" fill="#C8C8C8"/>
<path d="M77.1689 152.898V153.574C77.1606 153.621 77.1515 153.668 77.1447 153.716C77.0944 154.064 77.0652 154.416 76.991 154.759C76.3925 157.53 74.0628 159.684 71.2556 160.07C71.0141 160.104 70.7715 160.127 70.5292 160.155H70.0299C69.9919 160.147 69.9542 160.135 69.916 160.133C68.8187 160.078 67.7953 159.772 66.839 159.233C66.7896 159.205 66.7071 159.203 66.6521 159.223C65.7889 159.53 64.9277 159.843 64.066 160.154H63.919C63.3882 159.95 63.2713 159.684 63.4698 159.138C63.7403 158.394 64.0071 157.648 64.2824 156.906C64.3221 156.799 64.3118 156.72 64.2576 156.622C63.4227 155.115 63.1618 153.511 63.5216 151.828C64.3598 147.904 68.2817 145.507 72.1379 146.628C74.8468 147.415 76.4729 149.278 77.0517 152.042C77.1106 152.323 77.1309 152.612 77.1689 152.897V152.898Z" fill="#C8C8C8"/>
<path d="M87.4313 151.18C87.4313 151.061 87.4313 150.942 87.4313 150.823C87.4387 150.807 87.45 150.791 87.4535 150.774C87.5668 150.234 87.8952 149.901 88.4196 149.744C91.173 148.92 93.9258 148.092 96.6786 147.266C98.0814 146.845 99.4837 146.423 100.888 146.005C100.976 145.978 101.08 145.965 101.168 145.985C101.424 146.042 101.528 146.279 101.44 146.571C100.505 149.687 99.5691 152.802 98.6339 155.918C98.3203 156.962 98.0072 158.007 97.6944 159.051C97.562 159.494 97.2808 159.795 96.8441 159.948C96.7718 159.974 96.6968 159.991 96.6228 160.012H96.2661C96.254 160.006 96.2425 159.997 96.2298 159.994C95.6669 159.88 95.3278 159.535 95.1725 158.988C94.689 157.286 94.2009 155.586 93.7177 153.883C93.6925 153.794 93.6507 153.752 93.5597 153.726C91.8315 153.236 90.1044 152.741 88.377 152.248C88.0953 152.167 87.8499 152.019 87.6943 151.773C87.5802 151.592 87.517 151.379 87.4313 151.18Z" fill="#C8C8C8"/>
<path d="M23.9565 28.5538C23.9565 24.3242 27.3853 20.8955 31.6148 20.8955H153.712C157.942 20.8955 161.371 24.3242 161.371 28.5538V135.407H23.9565V28.5538Z" fill="#F0E4FF"/>
<mask id="mask0_3200_27001" style="mask-type:alpha" maskUnits="userSpaceOnUse" x="0" y="0" width="196" height="141">
<rect x="0.130859" width="195.738" height="140.078" fill="#CAFFEC"/>
</mask>
<g mask="url(#mask0_3200_27001)">
<g clip-path="url(#clip0_3200_27001)">
<path d="M53.8088 145.415L63.4648 113.541L84.7045 121.504L74.5121 152.031C72.4222 158.334 65.2194 161.312 59.2906 158.312C54.5632 155.925 52.2498 150.477 53.8088 145.415Z" fill="#E69560"/>
<path d="M68.7006 96.5203C70.6117 90.3065 77.2836 86.9034 83.436 89.0045C89.4151 91.0497 92.6393 97.5261 90.65 103.528L84.6988 121.498L63.4591 113.536L68.7006 96.5147V96.5203Z" fill="#04DB8E"/>
<path d="M70.2039 143.023L45.9467 97.0284C45.9467 97.0284 46.4999 88.7192 32.6977 88.2218V88.233C32.5133 88.2218 32.3289 88.2051 32.1389 88.2051H27.5233C26.6683 88.2051 25.886 88.8086 25.7686 89.6579C25.6345 90.6414 26.3219 91.4852 27.2439 91.6025L31.8986 92.2619L25.5675 93.9495L24.3828 94.3853L15.7607 88.6856C15.0733 88.1939 14.1122 88.423 13.7155 89.1662C13.4026 89.7529 13.5423 90.4738 14.0508 90.8985C14.5816 91.3399 15.4366 92.0775 16.3753 92.8822L14.4699 91.7422C13.7434 91.3064 12.8046 91.6081 12.4694 92.3849C12.2067 92.9939 12.4023 93.698 12.9443 94.0836C13.4081 94.4133 14.0061 94.8324 14.6431 95.2794L13.9837 95.0224C13.2573 94.7374 12.4023 94.9441 11.9553 95.5867C11.3518 96.4585 11.715 97.6431 12.6705 98.0398L22.0918 101.985C23.7179 102.667 25.2713 103.091 27.188 102.639L35.5866 100.661L54.3789 153.265L70.2039 143.028V143.023Z" fill="#E69560"/>
<path d="M60.2515 124.146L64.7386 132.657" stroke="#DB5749" stroke-width="0.903543" stroke-miterlimit="10"/>
<path d="M87.5879 88.496L78.569 89.1722C78.569 89.1722 61.0899 107.116 87.5935 152.602L132.788 151.211L129.604 101.644L125.29 87.7305H109.632L87.5935 88.496H87.5879Z" fill="#04DB8E"/>
<path d="M158.482 139.017L143.97 109.043L124.233 120.224L139.064 148.784C142.109 154.685 149.692 156.501 155.079 152.612C159.37 149.516 160.812 143.772 158.482 139.017Z" fill="#E69560"/>
<path d="M136.13 93.0441C133.269 87.2047 126.15 84.8857 120.4 87.9255C114.812 90.876 112.644 97.7826 115.544 103.399L124.228 120.224L143.964 109.042L136.13 93.0497V93.0441Z" fill="#04DB8E"/>
<path d="M188.78 87.7363C188.338 87.0937 187.478 86.8926 186.751 87.172L182.538 88.8148L186.5 85.4621C187.154 84.9089 187.338 83.9254 186.846 83.2269C186.276 82.4222 185.187 82.2993 184.466 82.886L180.783 85.8532L183.924 81.7461C184.444 81.0643 184.416 80.0641 183.779 79.4886C183.052 78.8236 181.963 78.9409 181.376 79.6618L175.173 86.0991L168.842 84.4115L173.497 83.7522C174.419 83.6348 175.112 82.791 174.972 81.8075C174.855 80.9582 174.072 80.3547 173.217 80.3547H168.602C165.875 80.3547 163.215 81.3046 161.198 83.1151C161.164 83.1431 161.131 83.1598 161.097 83.1878C158.264 85.4229 159.298 89.9995 159.298 89.9995L141.914 139.218L159.141 146.862L169.071 94.006L175.413 94.0172C175.805 94.0563 176.201 94.0507 176.598 94.0172H176.648C177.33 93.9557 178.006 93.7937 178.649 93.5254L188.07 90.1894C189.026 89.7871 189.389 88.6081 188.785 87.7363H188.78Z" fill="#E69560"/>
<path d="M148.664 118.743L144.909 131.852" stroke="#DB5749" stroke-width="0.903543" stroke-miterlimit="10"/>
<path d="M86.8837 47.8999C85.7996 48.6431 78.513 50.5374 78.3677 51.8617C78.3677 51.8617 80.7649 61.2327 78.3118 62.9817C71.6733 67.7091 69.5499 76.9795 69.5499 76.9795C69.5499 76.9795 87.0625 90.0944 133.61 76.3257C133.61 76.3257 134.169 70.749 125.703 66.7033C123.289 65.5466 121.138 63.8087 119.78 61.4395C118.729 59.6066 118.567 58.8299 118.288 57.187C117.506 52.5938 104.827 35.5953 86.8893 47.9055L86.8837 47.8999Z" fill="#211D4F"/>
<path d="M87.5711 61.9425C87.7835 65.0159 85.4645 67.6869 82.3911 67.8993C79.3178 68.1116 76.6467 65.7926 76.4344 62.7193C76.2221 59.6459 78.541 56.9749 81.6144 56.7625C84.6878 56.5502 87.3588 58.8692 87.5711 61.9425Z" fill="#E69560"/>
<path d="M90.0968 75.6156L90.8679 87.7581C91.1306 92.0217 92.874 94.9275 97.0705 94.6369C100.652 94.3854 104.91 91.5188 105.106 87.937L102.971 68.8877L90.0968 75.6212V75.6156Z" fill="#E69560"/>
<path d="M87.5877 88.496L109.627 87.7305C109.627 87.7305 109.09 98.5655 95.992 97.5541C86.8836 96.85 87.5877 88.5016 87.5877 88.5016V88.496Z" fill="#E69560"/>
<path d="M94.2893 82.563C97.6749 83.7039 99.3915 81.6353 101.247 78.3884C102.691 75.8609 104.816 71.8438 104.816 71.8438L89.9907 74.3751C89.9907 74.3751 90.8531 81.405 94.2893 82.563Z" fill="#13144D"/>
<path d="M93.7903 77.5775C86.6154 77.5999 80.6922 71.9505 80.4798 66.0943L80.0551 52.2754C79.7869 44.9328 85.3916 38.7023 92.7174 38.1938C100.216 37.6741 108.039 43.2397 108.559 50.7387L108.777 61.8587C108.945 70.4585 102.368 76.9796 93.7847 77.5775H93.7903Z" fill="#E69560"/>
<path d="M88.0013 61.2266L87.5878 64.6631L89.3591 64.7246" stroke="black" stroke-width="0.746929" stroke-linecap="round" stroke-linejoin="round"/>
<path d="M95.0868 52.8509C95.0868 52.8509 91.1249 52.5268 91.0858 54.1362C91.0858 54.1362 91.0858 55.2258 94.5447 55.4437C98.0037 55.6617 98.9033 55.4046 99.2163 54.382C99.5348 53.3539 96.9476 52.8565 95.0868 52.8454V52.8509Z" fill="black"/>
<path d="M83.5982 55.2083C83.5982 55.2083 86.5989 54.968 86.8839 56.4153C86.8839 56.4153 87.0516 57.3988 84.4252 57.5496C81.7989 57.7005 80.9831 57.3764 80.9328 56.5438C80.8769 55.5547 82.1733 55.1971 83.6038 55.2083H83.5982Z" fill="black"/>
<path d="M85.3414 59.9197C85.3638 60.6182 84.8162 61.205 84.1177 61.2273C83.4192 61.2497 82.8325 60.702 82.8101 60.0035C82.7878 59.3051 83.3354 58.7183 84.0339 58.696C84.7324 58.6736 85.3191 59.2212 85.3414 59.9197Z" fill="black"/>
<path d="M95.9866 59.5731C96.0089 60.2715 95.4613 60.8583 94.7628 60.8806C94.0643 60.903 93.4776 60.3554 93.4553 59.6569C93.4329 58.9584 93.9805 58.3716 94.679 58.3493C95.3775 58.3269 95.9642 58.8746 95.9866 59.5731Z" fill="black"/>
<path d="M92.2818 67.1108C92.2818 67.1108 90.4098 66.2559 88.1411 68.2117" stroke="black" stroke-width="0.746929" stroke-linecap="round" stroke-linejoin="round"/>
<path d="M97.1599 35.8125C95.3718 35.7175 93.5669 35.913 91.8402 36.3768C87.5431 37.5224 79.8317 40.7019 78.5074 48.9553C78.0659 51.129 78.3733 51.861 78.3733 51.861C78.3733 51.861 92.779 52.4254 101.301 48.4021C102.524 53.5933 103.659 56.8063 108.788 61.8578L113.343 55.0182L118.467 59.6115C118.5 59.7847 118.495 36.9468 97.1711 35.8125H97.1599Z" fill="#211D4F"/>
<path d="M116.254 61.9982C116.466 65.0716 114.147 67.7426 111.074 67.9549C108 68.1673 105.329 65.8483 105.117 62.7749C104.905 59.7016 107.224 57.0305 110.297 56.8182C113.371 56.6058 116.042 58.9248 116.254 61.9982Z" fill="#E69560"/>
<path d="M108.554 63.9815C108.554 63.9815 108.274 59.947 112.175 60.3102" stroke="black" stroke-width="0.746929" stroke-linecap="round" stroke-linejoin="round"/>
<path d="M39.0443 39H13.0269C8.66615 39 5.1311 42.535 5.1311 46.8957V68.9569C5.1311 73.3176 8.66615 76.8527 13.0269 76.8527H39.0443C43.405 76.8527 46.94 73.3176 46.94 68.9569V46.8957C46.94 42.535 43.405 39 39.0443 39Z" fill="#B3F001"/>
<rect x="19.08" y="53.7256" width="4.14694" height="15.359" rx="2.07347" transform="rotate(-46.2529 19.08 53.7256)" fill="#211D4F"/>
<rect width="4.14694" height="15.359" rx="2.07347" transform="matrix(-0.691476 -0.722399 -0.722399 0.691476 33.0358 53.7256)" fill="#211D4F"/>
<path d="M177.933 13H139.012C135.764 13 133.131 15.6331 133.131 18.8813V50.277C133.131 53.5252 135.764 56.1583 139.012 56.1583H177.933C181.181 56.1583 183.814 53.5252 183.814 50.277V18.8813C183.814 15.6331 181.181 13 177.933 13Z" fill="#AE70FF"/>
<path d="M155.283 38.7014V38.2116C155.283 37.0894 155.372 36.195 155.548 35.5284C155.725 34.8619 155.987 34.328 156.334 33.9267C156.681 33.5186 157.106 33.1513 157.609 32.8248C158.045 32.5391 158.432 32.2637 158.772 31.9984C159.119 31.7332 159.391 31.4509 159.589 31.1516C159.793 30.8523 159.895 30.5123 159.895 30.1314C159.895 29.7913 159.813 29.492 159.65 29.2336C159.487 28.9751 159.266 28.7745 158.987 28.6316C158.708 28.4888 158.398 28.4174 158.058 28.4174C157.691 28.4174 157.351 28.5024 157.038 28.6724C156.732 28.8425 156.484 29.0771 156.293 29.3764C156.11 29.6757 156.018 30.0226 156.018 30.417H150.794C150.808 28.9207 151.148 27.7066 151.814 26.7748C152.481 25.8362 153.365 25.1492 154.467 24.7139C155.569 24.2718 156.78 24.0508 158.099 24.0508C159.555 24.0508 160.854 24.265 161.996 24.6935C163.139 25.1152 164.04 25.7546 164.7 26.6116C165.36 27.4618 165.69 28.5262 165.69 29.8049C165.69 30.6279 165.547 31.3523 165.261 31.978C164.982 32.597 164.591 33.1445 164.088 33.6206C163.591 34.0899 163.01 34.5184 162.343 34.9061C161.854 35.1917 161.442 35.4876 161.109 35.7937C160.775 36.093 160.524 36.4364 160.354 36.8241C160.184 37.205 160.099 37.6675 160.099 38.2116V38.7014H155.283ZM157.773 45.5573C156.984 45.5573 156.307 45.2819 155.742 44.7309C155.185 44.1732 154.909 43.4965 154.916 42.7007C154.909 41.9253 155.185 41.2621 155.742 40.7112C156.307 40.1603 156.984 39.8848 157.773 39.8848C158.521 39.8848 159.181 40.1603 159.752 40.7112C160.33 41.2621 160.622 41.9253 160.629 42.7007C160.622 43.2312 160.483 43.7141 160.211 44.1494C159.946 44.5779 159.599 44.9214 159.17 45.1799C158.742 45.4315 158.276 45.5573 157.773 45.5573Z" fill="white"/>
</g>
</g>
<defs>
<clipPath id="clip0_3200_27001">
<rect width="209.653" height="139.673" fill="white" transform="translate(-2.6521 -4.58301)"/>
</clipPath>
</defs>
</svg>
