<svg width="96" height="96" viewBox="0 0 96 96" fill="none" xmlns="http://www.w3.org/2000/svg">
<rect width="96" height="96" rx="48" fill="#F1EEFF"/>
<g clip-path="url(#clip0_3439_36428)">
<path d="M50 52H46C42.7192 51.9987 39.5005 52.8943 36.6918 54.5898C33.883 56.2853 31.5912 58.7163 30.064 61.62C30.0211 61.0811 29.9997 60.5406 30 60C30 48.954 38.954 40 50 40V29L71 46L50 63V52ZM46 48H54V54.616L64.642 46L54 37.384V44H50C47.7005 43.9974 45.4276 44.4916 43.3368 45.4488C41.246 46.406 39.3866 47.8036 37.886 49.546C40.4686 48.5224 43.2219 47.9978 46 48Z" fill="#680DE4"/>
</g>
<defs>
<clipPath id="clip0_3439_36428">
<rect width="48" height="48" fill="white" transform="translate(24 24)"/>
</clipPath>
</defs>
</svg>