<svg width="48" height="48" viewBox="0 0 48 48" fill="none" xmlns="http://www.w3.org/2000/svg">
    <rect x="0.375" y="0.375" width="47.25" height="47.25" rx="23.625" fill="white" stroke="#E5E5E8" stroke-width="0.75"/>
    <rect x="8" y="8" width="32" height="32" rx="16" fill="white"/>
    <g clip-path="url(#clip0_3728_39680)">
        <path d="M35 24C35 17.9249 30.0751 13 24 13C17.9249 13 13 17.9249 13 24C13 29.4904 17.0226 34.0412 22.2812 34.8664V27.1797H19.4883V24H22.2812V21.5766C22.2812 18.8197 23.9235 17.2969 26.4361 17.2969C27.6396 17.2969 28.8984 17.5117 28.8984 17.5117V20.2188H27.5114C26.1449 20.2188 25.7188 21.0667 25.7188 21.9366V24H28.7695L28.2818 27.1797H25.7188V34.8664C30.9775 34.0412 35 29.4904 35 24Z" fill="#1877F2"/>
        <path d="M28.2818 27.1797L28.7695 24H25.7188V21.9366C25.7188 21.0667 26.1449 20.2188 27.5114 20.2188H28.8984V17.5117C28.8984 17.5117 27.6396 17.2969 26.4361 17.2969C23.9235 17.2969 22.2812 18.8197 22.2812 21.5766V24H19.4883V27.1797H22.2812V34.8664C22.8413 34.9542 23.4153 35 24 35C24.5847 35 25.1587 34.9542 25.7188 34.8664V27.1797H28.2818Z" fill="white"/>
    </g>
    <defs>
        <clipPath id="clip0_3728_39680">
            <rect width="22" height="22" fill="white" transform="translate(13 13)"/>
        </clipPath>
    </defs>
</svg>
