<svg width="49" height="48" viewBox="0 0 49 48" fill="none" xmlns="http://www.w3.org/2000/svg">
<g clip-path="url(#clip0_9936_14038)">
<path d="M26.2319 5.99991L45.284 38.9999C45.4595 39.3039 45.5519 39.6488 45.5519 39.9999C45.5519 40.351 45.4595 40.6959 45.284 40.9999C45.1084 41.3039 44.856 41.5564 44.5519 41.7319C44.2479 41.9075 43.903 41.9999 43.5519 41.9999H5.44795C5.09688 41.9999 4.752 41.9075 4.44797 41.7319C4.14393 41.5564 3.89147 41.3039 3.71593 40.9999C3.5404 40.6959 3.448 40.351 3.448 39.9999C3.448 39.6488 3.54041 39.3039 3.71595 38.9999L22.7679 5.99991C22.9435 5.6959 23.196 5.44344 23.5 5.26792C23.804 5.0924 24.1489 5 24.4999 5C24.851 5 25.1959 5.0924 25.4999 5.26792C25.8039 5.44344 26.0564 5.6959 26.2319 5.99991ZM22.4999 31.9999V35.9999H26.4999V31.9999H22.4999ZM22.4999 17.9999V27.9999H26.4999V17.9999H22.4999Z" fill="#D4D3D9"/>
</g>
<defs>
<clipPath id="clip0_9936_14038">
<rect width="48" height="48" fill="white" transform="translate(0.5)"/>
</clipPath>
</defs>
</svg>
