<svg width="18" height="22" viewBox="0 0 18 22" fill="none" xmlns="http://www.w3.org/2000/svg">
<path class="themed-icon" d="M1.99958 11.9983C1.99958 6.9104 4.90222 2.56202 8.9996 0.816406C13.0969 2.56202 15.9996 6.9104 15.9996 11.9983C15.9996 12.8212 15.9236 13.6248 15.779 14.4011L17.7194 16.2337C17.8845 16.3896 17.9238 16.6373 17.815 16.8366L15.3196 21.4117C15.1873 21.6541 14.8836 21.7434 14.6412 21.6112C14.5993 21.5883 14.5608 21.5596 14.5271 21.5258L12.2925 19.2912C12.1049 19.1037 11.8506 18.9983 11.5854 18.9983H6.41379C6.14857 18.9983 5.89422 19.1037 5.70668 19.2912L3.47209 21.5258C3.27683 21.7211 2.96025 21.7211 2.76498 21.5258C2.73122 21.492 2.70246 21.4536 2.67959 21.4117L0.184118 16.8366C0.0753682 16.6373 0.114638 16.3896 0.279748 16.2337L2.22014 14.4011C2.07551 13.6248 1.99958 12.8212 1.99958 11.9983ZM3.47542 18.694L4.29247 17.877C4.85508 17.3144 5.61814 16.9983 6.41379 16.9983H11.5854C12.381 16.9983 13.1441 17.3144 13.7067 17.877L14.5237 18.694L15.5056 16.8939L14.4058 15.8551C13.9117 15.3885 13.6884 14.7029 13.8128 14.0348C13.9366 13.3706 13.9996 12.6895 13.9996 11.9983C13.9996 8.12879 12.0045 4.69807 8.9996 3.03875C5.99462 4.69807 3.99958 8.12879 3.99958 11.9983C3.99958 12.6895 4.06255 13.3706 4.18631 14.0348C4.31078 14.7029 4.08746 15.3885 3.59338 15.8551L2.49353 16.8939L3.47542 18.694ZM8.9996 11.9983C7.895 11.9983 6.99958 11.1029 6.99958 9.99834C6.99958 8.89379 7.895 7.99836 8.9996 7.99836C10.1041 7.99836 10.9996 8.89379 10.9996 9.99834C10.9996 11.1029 10.1041 11.9983 8.9996 11.9983Z" fill="#5A5A67"/>
</svg>
