<svg width="40" height="40" viewBox="0 0 40 40" fill="none" xmlns="http://www.w3.org/2000/svg">
<rect width="40" height="40" rx="20" fill="#D91D4A" fill-opacity="0.08"/>
<g clip-path="url(#clip0_15269_64640)">
<path d="M24.5 11C27.538 11 30 13.5 30 17C30 24 22.5 28 20 29.5C17.5 28 10 24 10 17C10 13.5 12.5 11 15.5 11C17.36 11 19 12 20 13C21 12 22.64 11 24.5 11ZM20.934 26.604C21.815 26.048 22.61 25.495 23.354 24.903C26.335 22.533 28 19.943 28 17C28 14.64 26.463 13 24.5 13C23.424 13 22.26 13.57 21.414 14.414L20 15.828L18.586 14.414C17.74 13.57 16.576 13 15.5 13C13.56 13 12 14.656 12 17C12 19.944 13.666 22.533 16.645 24.903C17.39 25.495 18.185 26.048 19.066 26.603C19.365 26.792 19.661 26.973 20 27.175C20.339 26.973 20.635 26.792 20.934 26.604Z" fill="#D91D4A"/>
</g>
<defs>
<clipPath id="clip0_15269_64640">
<rect width="24" height="24" fill="white" transform="translate(8 8)"/>
</clipPath>
</defs>
</svg>
