<svg width="24" height="24" viewBox="0 0 24 24" fill="none" xmlns="http://www.w3.org/2000/svg">
<path class="themed-icon" d="M12 21.9997C6.47715 21.9997 2 17.5225 2 11.9997C2 6.47688 6.47715 1.99973 12 1.99973C17.5228 1.99973 22 6.47688 22 11.9997C22 17.5225 17.5228 21.9997 12 21.9997ZM12 19.9997C16.4183 19.9997 20 16.418 20 11.9997C20 7.58145 16.4183 3.99973 12 3.99973C7.58172 3.99973 4 7.58145 4 11.9997C4 16.418 7.58172 19.9997 12 19.9997ZM11 14.9997H13V16.9997H11V14.9997ZM13 13.3548V13.9997H11V12.4997C11 11.9474 11.4477 11.4997 12 11.4997C12.8284 11.4997 13.5 10.8281 13.5 9.99973C13.5 9.1713 12.8284 8.49973 12 8.49973C11.2723 8.49973 10.6656 9.01795 10.5288 9.70549L8.56731 9.31319C8.88637 7.70892 10.302 6.49973 12 6.49973C13.933 6.49973 15.5 8.06673 15.5 9.99973C15.5 11.5852 14.4457 12.9245 13 13.3548Z" fill="#5A5A67"/>
</svg>

