<svg width="96" height="96" viewBox="0 0 96 96" fill="none" xmlns="http://www.w3.org/2000/svg">
<rect width="96" height="96" rx="48" fill="#F1EEFF"/>
<g clip-path="url(#clip0_13921_30781)">
<path d="M48 68C36.954 68 28 59.046 28 48C28 36.954 36.954 28 48 28C59.046 28 68 36.954 68 48C68 59.046 59.046 68 48 68ZM48 64C52.2435 64 56.3131 62.3143 59.3137 59.3137C62.3143 56.3131 64 52.2435 64 48C64 43.7565 62.3143 39.6869 59.3137 36.6863C56.3131 33.6857 52.2435 32 48 32C43.7565 32 39.6869 33.6857 36.6863 36.6863C33.6857 39.6869 32 43.7565 32 48C32 52.2435 33.6857 56.3131 36.6863 59.3137C39.6869 62.3143 43.7565 64 48 64ZM46 38H50V42H46V38ZM46 46H50V58H46V46Z" fill="#680DE4"/>
</g>
<defs>
<clipPath id="clip0_13921_30781">
<rect width="48" height="48" fill="white" transform="translate(24 24)"/>
</clipPath>
</defs>
</svg>
