<svg width="198" height="56" viewBox="0 0 198 56" fill="none" xmlns="http://www.w3.org/2000/svg">
<path d="M161.87 0.000251532L155.716 6.1543L161.87 12.3083L168.024 6.15429L161.87 0.000251532Z" fill="#AE70FF"/>
<path d="M98.1344 43.9043C97.8131 47.8448 95.9609 50.0938 93.2583 50.0938C90.5557 50.0938 88.7036 47.8448 88.3823 43.9043H80.1611C80.6714 51.3412 85.7175 55.9999 93.2678 55.9999C100.818 55.9999 105.864 51.2939 106.374 43.9043H98.1533H98.1344Z" fill="#13144D"/>
<path d="M0 15.4668H7.86211V41.1604H0V15.4668Z" fill="#13144D"/>
<path d="M36.6362 25.2304V41.1625H28.7741V26.8746C28.7741 22.3577 27.6968 20.6568 25.1738 20.6568C22.4995 20.6568 20.8553 22.9719 20.8553 27.0258V41.153H12.9932V15.4594H19.8253L20.2883 18.7007C21.7813 16.8013 24.1438 15.0059 27.4322 15.0059C33.4989 15.0059 36.6267 18.4455 36.6267 25.2304H36.6362Z" fill="#13144D"/>
<path d="M40.7471 32.6865H48.7604C48.7604 34.5859 50.2534 36.0223 52.871 36.0223C55.4885 36.0223 56.8304 34.945 56.8304 33.5559C56.8304 28.6232 41.314 34.3308 41.314 23.0762C41.314 18.1908 45.7837 14.959 52.3607 14.959C58.9377 14.959 63.4073 18.5593 63.4073 23.2274H55.6019C55.6019 21.3281 54.1656 20.5532 52.2095 20.5532C50.7731 20.5532 49.025 21.2241 49.025 22.5565C49.025 27.1774 64.5413 21.9895 64.5413 33.0362C64.5413 38.2807 59.9677 41.6637 53.1356 41.6637C45.2262 41.6637 40.7565 37.9689 40.7565 32.6676L40.7471 32.6865Z" fill="#13144D"/>
<path d="M68.1318 15.4668H75.9939V41.1604H68.1318V15.4668Z" fill="#13144D"/>
<path d="M107.452 14.959H94.1656V14.9968C93.8632 14.9779 93.5702 14.959 93.2584 14.959C85.2923 14.959 80.1045 20.1468 80.1045 28.3208C80.1045 36.4947 85.2923 41.6826 93.2584 41.6826C101.224 41.6826 106.412 36.438 106.412 28.3208C106.412 25.4197 105.741 22.8872 104.532 20.8367H107.442V14.9684L107.452 14.959ZM93.2584 35.7671C90.2818 35.7671 88.3257 33.0456 88.3257 28.3208C88.3257 23.596 90.2818 20.8745 93.2584 20.8745C96.235 20.8745 98.1911 23.596 98.1911 28.3208C98.1911 33.0456 96.235 35.7671 93.2584 35.7671Z" fill="#13144D"/>
<path d="M134.157 25.2302V41.1623H126.295V26.9784C126.295 22.452 125.217 20.6566 122.694 20.6566C120.02 20.6566 118.376 23.0757 118.376 27.1296V41.1529H110.514V5.1875H118.376V18.0296C119.869 16.3853 122.023 14.9962 124.953 14.9962C131.019 14.9962 134.147 18.4359 134.147 25.2208L134.157 25.2302Z" fill="#13144D"/>
<path d="M158.376 15.4668H166.238V41.1604H158.376V15.4668Z" fill="#AE70FF"/>
<path d="M194.852 35.6629C196.014 33.6312 196.656 31.1459 196.656 28.311C196.656 20.1938 191.516 14.9492 183.503 14.9492C175.489 14.9492 170.349 20.1371 170.349 28.311C170.349 36.485 175.536 41.6728 183.503 41.6728C183.852 41.6728 184.183 41.6539 184.514 41.635H197.8V35.6629H194.852ZM178.57 28.311C178.57 23.5862 180.526 20.8647 183.503 20.8647C186.479 20.8647 188.435 23.5862 188.435 28.311C188.435 33.0359 186.479 35.7573 183.503 35.7573C180.526 35.7573 178.57 33.0359 178.57 28.311Z" fill="#AE70FF"/>
<path d="M153.482 21.713V21.1177V15.4668H137.247V21.1177V21.713H140.687V33.0904C140.687 39.2043 142.539 41.3588 149.116 41.3588C150.401 41.3588 151.837 41.3116 153.482 41.1509V35.3489C152.659 35.3961 151.941 35.4528 151.374 35.4528C148.955 35.4528 148.549 34.7346 148.549 32.221V21.7225H153.482V21.713Z" fill="#13144D"/>
</svg>
