<svg width="48" height="48" viewBox="0 0 48 48" fill="none" xmlns="http://www.w3.org/2000/svg">
<circle cx="24" cy="24" r="24" fill="#F5F5F6"/>
<g clip-path="url(#clip0_4645_56256)">
<path d="M25.1484 19.7859L26.6813 21.3188C27.3855 22.023 27.9442 22.859 28.3253 23.7791C28.7065 24.6992 28.9027 25.6854 28.9027 26.6813C28.9027 27.6772 28.7065 28.6634 28.3253 29.5835C27.9442 30.5036 27.3855 31.3396 26.6813 32.0438L26.2978 32.4262C24.8756 33.8484 22.9466 34.6474 20.9353 34.6474C18.924 34.6474 16.995 33.8484 15.5728 32.4262C14.1506 31.004 13.3516 29.075 13.3516 27.0637C13.3516 25.0524 14.1506 23.1234 15.5728 21.7012L17.1057 23.2341C16.5991 23.7363 16.1967 24.3336 15.9215 24.9917C15.6464 25.6499 15.504 26.3558 15.5024 27.0692C15.5008 27.7825 15.6402 28.4891 15.9124 29.1484C16.1847 29.8077 16.5845 30.4068 17.0889 30.9112C17.5933 31.4156 18.1923 31.8154 18.8517 32.0876C19.511 32.3599 20.2176 32.4992 20.9309 32.4977C21.6442 32.4961 22.3502 32.3537 23.0083 32.0785C23.6665 31.8034 24.2638 31.401 24.7659 30.8944L25.1494 30.5109C26.1649 29.4951 26.7354 28.1176 26.7354 26.6813C26.7354 25.245 26.1649 23.8675 25.1494 22.8517L23.6165 21.3188L25.1494 19.787L25.1484 19.7859ZM32.4262 26.2978L30.8944 24.766C31.401 24.2638 31.8034 23.6665 32.0785 23.0084C32.3537 22.3502 32.4961 21.6442 32.4977 20.9309C32.4992 20.2176 32.3599 19.511 32.0876 18.8517C31.8154 18.1924 31.4156 17.5933 30.9112 17.0889C30.4068 16.5845 29.8077 16.1847 29.1484 15.9125C28.4891 15.6402 27.7825 15.5009 27.0692 15.5024C26.3558 15.504 25.6498 15.6464 24.9917 15.9216C24.3336 16.1967 23.7363 16.5991 23.2341 17.1057L22.8506 17.4892C21.8351 18.505 21.2647 19.8825 21.2647 21.3188C21.2647 22.7551 21.8351 24.1326 22.8506 25.1484L24.3835 26.6813L22.8506 28.2131L21.3188 26.6813C20.6145 25.9771 20.0559 25.1411 19.6747 24.221C19.2936 23.3009 19.0974 22.3147 19.0974 21.3188C19.0974 20.3229 19.2936 19.3367 19.6747 18.4166C20.0559 17.4965 20.6145 16.6605 21.3188 15.9563L21.7023 15.5739C23.1245 14.1517 25.0535 13.3527 27.0648 13.3527C29.0761 13.3527 31.0051 14.1517 32.4273 15.5739C33.8495 16.9961 34.6485 18.9251 34.6485 20.9364C34.6485 22.9477 33.8495 24.8767 32.4273 26.2989L32.4262 26.2978Z" fill="#5A5A67"/>
</g>
<defs>
<clipPath id="clip0_4645_56256">
<rect width="26" height="26" fill="white" transform="translate(11 11)"/>
</clipPath>
</defs>
</svg>
