<svg width="92" height="100" viewBox="0 0 92 100" fill="none" xmlns="http://www.w3.org/2000/svg">
<path d="M69.6759 13.0815H43.5052C39.6602 13.0815 36.5433 16.1985 36.5433 20.0435V55.4277C36.5433 59.2726 39.6602 62.3896 43.5052 62.3896H69.6759C73.5209 62.3896 76.6378 59.2726 76.6378 55.4277V20.0435C76.6378 16.1985 73.5209 13.0815 69.6759 13.0815Z" fill="white"/>
<path d="M46.6332 37.7344H66.5486" stroke="#04DB8E" stroke-width="4.67478" stroke-linecap="round" stroke-linejoin="round"/>
<path d="M46.6332 27.0425H54.9234" stroke="#04DB8E" stroke-width="4.67478" stroke-linecap="round" stroke-linejoin="round"/>
<path d="M46.6332 48.4272H66.5486" stroke="#04DB8E" stroke-width="4.67478" stroke-linecap="round" stroke-linejoin="round"/>
<circle cx="41.3955" cy="58.1308" r="18.5893" fill="white" fill-opacity="0.55"/>
<rect x="23.0385" y="70.5312" width="13.9315" height="5.22431" rx="2.61216" transform="rotate(36.7469 23.0385 70.5312)" fill="#AE70FF"/>
<path d="M28.6199 74.6967C29.8081 75.5838 30.1308 77.2271 29.3662 78.4977L19.8716 94.2767C18.4294 96.6734 15.2332 97.301 12.9919 95.6275C10.7506 93.954 10.4441 90.7112 12.3323 88.6475L24.7635 75.061C25.7645 73.967 27.4317 73.8095 28.6199 74.6967Z" fill="#AE70FF"/>
<path fill-rule="evenodd" clip-rule="evenodd" d="M28.6936 74.6858C37.9414 81.5907 51.0358 79.6914 57.9407 70.4436C64.8456 61.1958 62.9463 48.1014 53.6984 41.1965C44.4506 34.2916 31.3562 36.1909 24.4513 45.4387C17.5464 54.6865 19.4457 67.7809 28.6936 74.6858ZM44.1148 73.3291C52.4402 71.8554 57.9946 63.9115 56.5209 55.5861C55.0471 47.2607 47.1033 41.7063 38.7778 43.18C30.4524 44.6538 24.898 52.5976 26.3718 60.9231C27.8455 69.2485 35.7894 74.8029 44.1148 73.3291Z" fill="#AE70FF"/>
<path d="M37.6055 54.6572L45.3521 62.4037" stroke="#AE70FF" stroke-width="4.30308" stroke-linecap="round"/>
<path d="M37.6055 54.6572L45.3521 62.4037" stroke="#AE70FF" stroke-width="4.30308" stroke-linecap="round"/>
<path d="M37.6055 54.6572L45.3521 62.4037" stroke="#AE70FF" stroke-width="4.30308" stroke-linecap="round"/>
<path d="M45.3527 54.8911L37.6062 62.6376" stroke="#AE70FF" stroke-width="4.30308" stroke-linecap="round"/>
<rect x="9.16559" width="82.6193" height="82.6193" rx="5.46634" fill="#E0F9EC"/>
<path d="M69.6759 13.0815H43.5052C39.6602 13.0815 36.5433 16.1985 36.5433 20.0435V55.4277C36.5433 59.2726 39.6602 62.3896 43.5052 62.3896H69.6759C73.5209 62.3896 76.6378 59.2726 76.6378 55.4277V20.0435C76.6378 16.1985 73.5209 13.0815 69.6759 13.0815Z" fill="white"/>
<path d="M46.6332 37.7344H66.5486" stroke="#04DB8E" stroke-width="4.67478" stroke-linecap="round" stroke-linejoin="round"/>
<path d="M46.6332 27.0425H54.9234" stroke="#04DB8E" stroke-width="4.67478" stroke-linecap="round" stroke-linejoin="round"/>
<path d="M46.6332 48.4272H66.5486" stroke="#04DB8E" stroke-width="4.67478" stroke-linecap="round" stroke-linejoin="round"/>
<circle cx="41.3955" cy="58.1308" r="18.5893" fill="white" fill-opacity="0.55"/>
<rect x="23.0385" y="70.5312" width="13.9315" height="5.22431" rx="2.61216" transform="rotate(36.7469 23.0385 70.5312)" fill="#AE70FF"/>
<path d="M28.6199 74.6967C29.8081 75.5838 30.1308 77.2271 29.3662 78.4977L19.8716 94.2767C18.4294 96.6734 15.2332 97.301 12.9919 95.6275C10.7506 93.954 10.4441 90.7112 12.3323 88.6475L24.7635 75.061C25.7645 73.967 27.4317 73.8095 28.6199 74.6967Z" fill="#AE70FF"/>
<path fill-rule="evenodd" clip-rule="evenodd" d="M28.6936 74.6858C37.9414 81.5907 51.0358 79.6914 57.9407 70.4436C64.8456 61.1958 62.9463 48.1014 53.6984 41.1965C44.4506 34.2916 31.3562 36.1909 24.4513 45.4387C17.5464 54.6865 19.4457 67.7809 28.6936 74.6858ZM44.1148 73.3291C52.4402 71.8554 57.9946 63.9115 56.5209 55.5861C55.0471 47.2607 47.1033 41.7063 38.7778 43.18C30.4524 44.6538 24.898 52.5976 26.3718 60.9231C27.8455 69.2485 35.7894 74.8029 44.1148 73.3291Z" fill="#AE70FF"/>
</svg>
