<svg width="72" height="72" viewBox="0 0 72 72" fill="none" xmlns="http://www.w3.org/2000/svg">
<rect width="72" height="72" rx="36" fill="#F5F5F6"/>
<path d="M48 51H45V48C45 45.5147 42.9853 43.5 40.5 43.5H31.5C29.0147 43.5 27 45.5147 27 48V51H24V48C24 43.8579 27.3579 40.5 31.5 40.5H40.5C44.6421 40.5 48 43.8579 48 48V51ZM36 37.5C31.0294 37.5 27 33.4705 27 28.5C27 23.5294 31.0294 19.5 36 19.5C40.9706 19.5 45 23.5294 45 28.5C45 33.4705 40.9706 37.5 36 37.5ZM36 34.5C39.3137 34.5 42 31.8137 42 28.5C42 25.1863 39.3137 22.5 36 22.5C32.6863 22.5 30 25.1863 30 28.5C30 31.8137 32.6863 34.5 36 34.5Z" fill="#121B2E"/>
</svg>