<svg width="32" height="32" viewBox="0 0 32 32" fill="none" xmlns="http://www.w3.org/2000/svg">
    <rect width="32" height="32" rx="16" fill="white"/>
    <path d="M13.9776 13.759V12.9419C13.694 12.8969 13.4075 12.8723 13.1203 12.8682C10.3401 12.8623 7.87861 14.6639 7.04384 17.3158C6.20894 19.9677 7.19441 22.8544 9.47654 24.4423C7.76709 22.6127 7.2924 19.9493 8.26461 17.6418C9.23676 15.3344 11.4743 13.8136 13.9776 13.759Z" fill="#25F4EE"/>
    <path d="M14.1316 23.0152C15.686 23.0131 16.9638 21.7885 17.0319 20.2355V6.37743H19.5637C19.512 6.08787 19.4873 5.79413 19.49 5.5L16.0272 5.5V19.3447C15.9696 20.9055 14.6888 22.1419 13.1269 22.1445C12.6602 22.1405 12.2011 22.0257 11.7874 21.8096C12.0555 22.181 12.4076 22.4839 12.815 22.6934C13.2224 22.9029 13.6735 23.0132 14.1316 23.0152ZM24.2925 11.0794V10.3091C23.3607 10.3095 22.4496 10.0345 21.6736 9.51878C22.3539 10.3096 23.2732 10.8574 24.2925 11.0794Z" fill="#25F4EE"/>
    <path d="M21.6736 9.51914C20.9092 8.64862 20.4878 7.52961 20.4881 6.37109H19.5638C19.6832 7.01163 19.9318 7.62111 20.2946 8.16236C20.6573 8.70361 21.1266 9.16526 21.6736 9.51914ZM13.1203 16.331C11.7864 16.3378 10.6283 17.2517 10.3115 18.5475C9.99466 19.8433 10.6004 21.1883 11.7807 21.8099C11.4671 21.3769 11.2793 20.8656 11.238 20.3325C11.1967 19.7994 11.3036 19.2652 11.5469 18.7891C11.7902 18.313 12.1603 17.9133 12.6165 17.6344C13.0726 17.3554 13.597 17.208 14.1317 17.2084C14.4224 17.212 14.7111 17.2572 14.9891 17.3424V13.8192C14.7052 13.7767 14.4187 13.7543 14.1317 13.7523H13.9777V16.4314C13.6983 16.3565 13.4095 16.3227 13.1203 16.331Z" fill="#FE2C55"/>
    <path d="M24.2925 11.0791V13.7583C22.5675 13.7549 20.8874 13.209 19.49 12.1977V19.2372C19.4827 22.7499 16.6329 25.5936 13.1203 25.5936C11.8157 25.5959 10.5426 25.1934 9.47656 24.4416C11.2557 26.355 14.0245 26.9849 16.4563 26.0294C18.8881 25.0738 20.4874 22.7275 20.488 20.1147V13.0952C21.8901 14.0999 23.5723 14.6387 25.2972 14.6357V11.1863C24.9595 11.1852 24.6228 11.1493 24.2925 11.0791Z" fill="#FE2C55"/>
    <path d="M19.4901 19.2379V12.1983C20.8917 13.2038 22.5742 13.7428 24.2992 13.7389V11.0597C23.2801 10.8445 22.3586 10.3038 21.6736 9.51914C21.1265 9.16526 20.6573 8.70361 20.2945 8.16236C19.9318 7.62111 19.6831 7.01163 19.5637 6.37109H17.0319V20.2359C16.9813 21.4729 16.1527 22.542 14.9676 22.8998C13.7824 23.2576 12.5007 22.8256 11.774 21.8233C10.5937 21.2017 9.98792 19.8567 10.3047 18.5609C10.6215 17.2651 11.7796 16.3512 13.1136 16.3444C13.4044 16.347 13.6932 16.3921 13.9709 16.4783V13.7991C11.4535 13.8418 9.1991 15.3678 8.22415 17.6891C7.24926 20.0104 7.73787 22.6885 9.4699 24.5159C10.5465 25.243 11.8214 25.6196 13.1203 25.5943C16.633 25.5943 19.4827 22.7506 19.4901 19.2379Z" fill="black"/>
    <circle cx="25" cy="25" r="6" fill="white" stroke="white" stroke-width="2"/>
    <path d="M25 30C22.2385 30 20 27.7615 20 25C20 22.2385 22.2385 20 25 20C27.7615 20 30 22.2385 30 25C30 27.7615 27.7615 30 25 30ZM25 24.293L23.586 22.8785L22.8785 23.586L24.293 25L22.8785 26.414L23.586 27.1215L25 25.707L26.414 27.1215L27.1215 26.414L25.707 25L27.1215 23.586L26.414 22.8785L25 24.293Z" fill="#FF6633"/>
</svg>
