<svg width="600" height="162" viewBox="0 0 600 162" fill="none" xmlns="http://www.w3.org/2000/svg">
<path d="M0 8C0 3.58172 3.58172 0 8 0H592C596.418 0 600 3.58172 600 8V162H0V8Z" fill="#EBE6FF"/>
<g clip-path="url(#clip0_3032_26477)">
<path d="M380.38 107.879C371.576 106.128 362.44 107.359 354.414 111.378C346.387 115.397 339.928 121.975 336.056 130.073C332.184 138.172 331.119 147.329 333.03 156.099C334.941 164.87 339.719 172.754 346.61 178.507C353.5 184.26 362.11 187.554 371.081 187.87C380.052 188.185 388.872 185.503 396.15 180.248C403.427 174.993 408.746 167.464 411.268 158.849C413.791 150.234 413.372 141.025 410.077 132.675L402.562 135.64C405.197 142.32 405.532 149.687 403.515 156.579C401.497 163.471 397.241 169.494 391.42 173.698C385.598 177.902 378.542 180.048 371.365 179.796C364.188 179.543 357.3 176.908 351.788 172.306C346.276 167.703 342.453 161.396 340.924 154.379C339.395 147.363 340.247 140.037 343.345 133.558C346.442 127.08 351.61 121.818 358.031 118.602C364.452 115.387 371.761 114.402 378.804 115.803L380.38 107.879Z" fill="#AE70FF"/>
<path d="M367.962 111.429C367.684 109.216 369.254 107.174 371.485 107.118C375.425 107.019 379.365 107.497 383.18 108.543C388.296 109.945 393.086 112.342 397.276 115.596C401.466 118.849 404.974 122.896 407.599 127.506C409.557 130.942 410.996 134.642 411.876 138.484C412.374 140.658 410.785 142.685 408.572 142.964C406.358 143.242 404.363 141.663 403.811 139.502C403.097 136.71 402.012 134.019 400.58 131.505C398.479 127.817 395.672 124.58 392.32 121.977C388.969 119.374 385.137 117.457 381.044 116.335C378.253 115.569 375.378 115.184 372.496 115.185C370.265 115.185 368.241 113.643 367.962 111.429Z" fill="#04DB8E"/>
<path d="M355.62 147.109H388.595" stroke="#AE70FF" stroke-width="2" stroke-linecap="round"/>
<path d="M361.901 153.387H382.314" stroke="#AE70FF" stroke-width="2" stroke-linecap="round"/>
</g>
<rect x="239" y="22.7305" width="109" height="118.782" rx="5.84439" fill="white"/>
<path d="M260.723 126.183V126.719C260.716 126.745 260.709 126.771 260.703 126.797C260.622 127.124 260.569 127.461 260.454 127.775C260.166 128.558 259.682 129.225 259.131 129.842C257.925 131.192 256.495 132.267 254.961 133.212C254.822 133.298 254.684 133.293 254.544 133.207C253.246 132.417 252.028 131.522 250.943 130.454C250.273 129.795 249.67 129.082 249.244 128.236C248.595 126.943 248.617 125.667 249.399 124.44C249.941 123.589 250.726 123.07 251.743 122.976C252.818 122.876 253.701 123.286 254.406 124.09C254.533 124.234 254.639 124.396 254.76 124.557C254.779 124.53 254.796 124.506 254.814 124.482C254.957 124.299 255.084 124.099 255.247 123.936C256.107 123.078 257.133 122.744 258.314 123.084C259.51 123.429 260.226 124.275 260.579 125.444C260.651 125.683 260.676 125.936 260.723 126.183H260.723Z" fill="#04DB8E"/>
<path d="M281.21 127.451V127.986C281.204 128.024 281.196 128.061 281.191 128.099C281.151 128.375 281.128 128.655 281.069 128.927C280.594 131.125 278.746 132.833 276.52 133.14C276.328 133.166 276.136 133.185 275.943 133.207H275.547C275.517 133.201 275.487 133.191 275.457 133.19C274.587 133.146 273.775 132.903 273.016 132.476C272.977 132.454 272.912 132.452 272.868 132.467C272.183 132.711 271.5 132.959 270.817 133.206H270.7C270.279 133.044 270.186 132.833 270.344 132.4C270.558 131.81 270.77 131.219 270.988 130.63C271.02 130.545 271.012 130.482 270.969 130.405C270.306 129.209 270.099 127.937 270.385 126.602C271.05 123.489 274.161 121.588 277.219 122.477C279.368 123.102 280.658 124.579 281.117 126.772C281.164 126.994 281.18 127.224 281.21 127.45V127.451Z" fill="#CBE6DC"/>
<path d="M289.352 126.085C289.352 125.991 289.352 125.896 289.352 125.802C289.357 125.789 289.366 125.777 289.369 125.763C289.459 125.335 289.72 125.071 290.136 124.946C292.32 124.292 294.503 123.636 296.687 122.98C297.799 122.646 298.912 122.312 300.025 121.98C300.096 121.959 300.178 121.949 300.248 121.964C300.451 122.01 300.533 122.197 300.464 122.43C299.722 124.901 298.98 127.372 298.238 129.843C297.989 130.672 297.741 131.5 297.493 132.329C297.387 132.68 297.164 132.919 296.818 133.041C296.761 133.061 296.701 133.075 296.643 133.091H296.36C296.35 133.086 296.341 133.079 296.331 133.077C295.884 132.986 295.615 132.712 295.492 132.279C295.109 130.929 294.721 129.58 294.338 128.23C294.318 128.159 294.285 128.125 294.213 128.105C292.842 127.716 291.472 127.324 290.102 126.932C289.878 126.868 289.684 126.751 289.56 126.556C289.47 126.412 289.42 126.243 289.352 126.085Z" fill="#CBE6DC"/>
<path d="M239 28.5749C239 25.3471 241.617 22.7305 244.844 22.7305H342.156C345.383 22.7305 348 25.3471 348 28.5749V113.564H239V28.5749Z" fill="#04DB8E"/>
<mask id="mask0_3032_26477" style="mask-type:alpha" maskUnits="userSpaceOnUse" x="239" y="22" width="109" height="92">
<path d="M239 28.5749C239 25.3471 241.617 22.7305 244.844 22.7305H342.156C345.383 22.7305 348 25.3471 348 28.5749V113.564H239V28.5749Z" fill="#EEEEEE"/>
</mask>
<g mask="url(#mask0_3032_26477)">
<g clip-path="url(#clip1_3032_26477)">
<path d="M315.847 97.3203C315.847 97.3203 326.564 100.186 335 126.907L313.542 138.468L309.022 122.934L315.852 97.3203H315.847Z" fill="#AE70FF"/>
<path d="M269.687 97.4727C269.687 97.4727 260.949 100.185 252.514 126.901L272.002 138.462L276.522 122.928L269.682 97.4727H269.687Z" fill="#AE70FF"/>
<path d="M285.71 91.5138L270.564 97.064C267.722 98.1041 266.126 101.128 266.874 104.062L277.998 147.936H307.796L318.067 102.039C318.522 99.9973 317.43 97.9316 315.488 97.1551L300.808 91.3125L285.715 91.5138H285.71Z" fill="#AE70FF"/>
<path d="M285.709 91.5099L279.09 93.9351L293.522 103.09L306.88 93.7242L300.807 91.3086L285.709 91.5099Z" fill="#E69560"/>
<path d="M317.75 65.7198C316.432 60.716 315.952 61.6122 311.519 51.6621C308.868 45.7188 306.822 43.332 305.6 42.3686C305.6 42.3686 301.118 37.5469 293.105 37.5469C285.091 37.5469 281.021 42.1289 281.021 42.1289C279.862 42.9054 277.676 45.1485 274.771 51.6621C270.338 61.6122 269.859 60.716 268.541 65.7198C267.223 70.7236 268.9 79.9501 279.21 81.7474C279.21 81.7474 277.892 80.4294 277.412 78.2725C277.412 78.2725 281.726 84.1439 287.602 83.7844H298.698C304.569 84.1439 308.888 78.2725 308.888 78.2725C308.408 80.4294 307.09 81.7474 307.09 81.7474C317.4 79.9501 319.077 70.7188 317.759 65.7198H317.75Z" fill="#13144D"/>
<path d="M300.806 91.3113L298.971 75.322C298.971 75.322 297.077 77.2536 294.566 77.7185C292.054 78.1834 289.62 76.7168 289.591 76.6976C289.562 76.6784 287.539 74.9961 287.539 74.9961L285.713 91.5078C285.713 91.6899 285.579 93.1709 285.55 93.3435L300.849 91.7714C300.825 91.618 300.811 91.4599 300.811 91.3017L300.806 91.3113Z" fill="#E69560"/>
<path d="M286.38 75.5648C286.38 75.5648 290.229 82.9938 294.806 81.9298C299.59 80.8178 299.566 74.5391 299.566 74.5391L286.375 75.5695L286.38 75.5648Z" fill="#13144D"/>
<path d="M309.616 54.2231C309.616 63.3201 302.537 70.6964 293.804 70.6964C285.071 70.6964 277.992 63.3201 277.992 54.2231C277.992 45.1261 285.071 38.9336 293.804 38.9336C302.537 38.9336 309.616 45.1213 309.616 54.2183V54.2231Z" fill="#13144D"/>
<path d="M306.87 55.0669C306.87 60.7369 306.079 65.6305 305.293 69.1054C304.521 72.5084 302.35 74.8809 299.287 76.7933L298.726 77.1432C295.482 79.1658 291.288 79.2137 287.995 77.263C284.673 75.2979 282.344 72.7001 281.63 69.0527C280.326 62.4144 280.187 55.0621 280.187 55.0621C280.187 55.0621 278.951 40.7455 293.339 41.0235C307.728 41.3015 306.87 55.0621 306.87 55.0621V55.0669Z" fill="#E69560"/>
<path d="M281.76 68.5166C279.225 70.707 273.885 62.0366 276.339 59.6976C278.793 57.3586 280.533 61.1642 280.533 61.1642L281.032 63.9058L281.775 67.5916L281.966 68.4208L281.765 68.5166H281.76Z" fill="#E69560"/>
<path d="M277.442 62.6182C277.442 62.6182 278.477 60.3703 280.893 64.3149" stroke="#13144D" stroke-width="0.680598" stroke-linecap="round" stroke-linejoin="round"/>
<path d="M305.288 68.5645C307.862 70.7117 313.048 61.9502 310.555 59.6544C308.058 57.3586 306.39 61.1929 306.39 61.1929L305.94 63.9393L305.264 67.6394L305.086 68.4686L305.293 68.5645H305.288Z" fill="#E69560"/>
<path d="M309.5 62.5982C309.5 62.5982 308.427 60.3694 306.078 64.3524" stroke="#13144D" stroke-width="0.680598" stroke-linecap="round" stroke-linejoin="round"/>
<path d="M280.374 59.5257C280.374 59.5257 285.143 51.7468 283.816 43.8672C283.816 43.8672 280.532 46.0144 279.421 51.5647C278.309 57.1149 280.374 59.5257 280.374 59.5257Z" fill="#13144D"/>
<path d="M307.114 59.6829C307.114 59.6829 301.185 51.2234 302.513 43.3438C302.513 43.3438 306.165 46.023 307.277 51.5684C308.389 57.1139 307.119 59.6829 307.119 59.6829H307.114Z" fill="#13144D"/>
<path d="M304.785 42.9952C304.785 42.9952 292.678 57.4699 279.416 51.565C279.416 51.565 276.478 40.0284 292.428 38.9883L304.785 42.9952Z" fill="#13144D"/>
<path d="M296.019 40.8251C298.502 41.5153 298.828 54.0105 309.617 54.2166L305.595 42.3636L296.014 40.8203L296.019 40.8251Z" fill="#13144D"/>
<path d="M291.096 56.5246L283.054 57.4928C283.054 57.4928 283.701 55.3599 286.984 54.9957C290.267 54.6314 291.091 56.5294 291.091 56.5294L291.096 56.5246Z" fill="#13144D"/>
<path d="M295.731 56.5246L303.774 57.4928C303.774 57.4928 303.127 55.3599 299.844 54.9957C296.561 54.6314 295.736 56.5294 295.736 56.5294L295.731 56.5246Z" fill="#13144D"/>
<path d="M288.743 69.063L291.068 68.0708C291.442 67.9941 291.854 67.9989 292.266 68.09L293.282 68.3153L294.15 68.0373C294.543 67.9127 295.079 67.9031 295.458 68.0181L297.648 69.0246L288.743 69.063Z" fill="#FB577F"/>
<path d="M288.743 69.0618C288.743 69.0618 289.889 72.1389 293.263 72.1389C296.637 72.1389 297.648 69.0234 297.648 69.0234L288.743 69.0618Z" fill="#FB577F"/>
<path d="M289.447 69.2328C289.447 69.2328 289.951 70.6036 293.262 70.6036C296.277 70.6036 297.097 69.1992 297.097 69.1992L289.447 69.2328Z" fill="white"/>
<path d="M291.408 71.3379C291.618 71.3379 291.787 71.2221 291.787 71.0791C291.787 70.9362 291.618 70.8203 291.408 70.8203C291.199 70.8203 291.03 70.9362 291.03 71.0791C291.03 71.2221 291.199 71.3379 291.408 71.3379Z" fill="#F6939D"/>
<path d="M292.678 63.6328V66.058L294.102 66.082" stroke="#13144D" stroke-width="0.671012" stroke-linecap="round" stroke-linejoin="round"/>
<path d="M288.969 60.981C288.969 60.981 287.071 59.6438 285.278 60.981" stroke="#13144D" stroke-width="0.680598" stroke-linecap="round" stroke-linejoin="round"/>
<path d="M297.907 60.981C297.907 60.981 299.805 59.6438 301.603 60.981" stroke="#13144D" stroke-width="0.680598" stroke-linecap="round" stroke-linejoin="round"/>
<path opacity="0.22" d="M291.032 62.6428C291.713 59.7438 289.915 56.8416 287.016 56.1606C284.117 55.4795 281.215 57.2776 280.534 60.1766C279.853 63.0756 281.651 65.9779 284.55 66.6589C287.449 67.3399 290.351 65.5419 291.032 62.6428Z" fill="white"/>
<path opacity="0.22" d="M306.095 62.6428C306.776 59.7438 304.978 56.8416 302.079 56.1606C299.18 55.4795 296.278 57.2776 295.597 60.1766C294.916 63.0756 296.714 65.9779 299.613 66.6589C302.512 67.3399 305.414 65.5419 306.095 62.6428Z" fill="white"/>
<path d="M291.032 62.6428C291.713 59.7438 289.915 56.8416 287.016 56.1606C284.117 55.4795 281.215 57.2776 280.534 60.1766C279.853 63.0756 281.651 65.9779 284.55 66.6589C287.449 67.3399 290.351 65.5419 291.032 62.6428Z" stroke="#AE70FF" stroke-width="0.987347" stroke-miterlimit="10"/>
<path d="M305.289 64.7462C307.131 62.4062 306.728 59.0161 304.388 57.1741C302.048 55.3321 298.658 55.7358 296.816 58.0757C294.974 60.4156 295.377 63.8057 297.717 65.6477C300.057 67.4897 303.447 67.0861 305.289 64.7462Z" stroke="#AE70FF" stroke-width="0.987347" stroke-miterlimit="10"/>
<path d="M291.172 61.8523C291.172 61.8523 293.075 58.9238 295.663 61.8523" stroke="#AE70FF" stroke-width="0.987347" stroke-miterlimit="10"/>
</g>
</g>
<path d="M359.397 17.5017C359.397 17.5017 356.791 35.462 334.58 47.8549C333.768 48.3079 333.337 49.2245 333.481 50.1391C334.037 53.4945 336.171 61.3861 343.019 66.9419C343.707 67.5017 344.668 67.5883 345.452 67.1676C349.744 64.886 365.237 57.722 386.998 60.0684L359.392 17.5049L359.397 17.5017Z" fill="#AE70FF"/>
<path d="M387.731 59.7571C391.376 57.4726 388.225 45.8751 380.692 33.8534C373.159 21.8317 364.097 13.9383 360.451 16.2228C356.805 18.5074 359.956 30.1049 367.489 42.1265C375.023 54.1482 384.085 62.0417 387.731 59.7571Z" fill="#AE70FF" stroke="#9A4AFE" stroke-width="3.57352" stroke-miterlimit="10"/>
<path d="M373.952 48.2668C376.931 46.1332 377.779 42.0242 375.809 38.88C373.839 35.7358 369.559 34.6499 366.3 36.5938" stroke="#04DB8E" stroke-width="4.00463" stroke-miterlimit="10"/>
<path d="M333.599 49.0032C333.599 49.0032 326.49 53.2262 331.53 62.1566C336.571 71.0871 344.309 67.4189 344.309 67.4189C344.309 67.4189 341.668 66.9725 337.147 60.1059C335.354 57.3005 333.064 51.1099 333.589 49.0095L333.599 49.0032Z" fill="#AE70FF"/>
<path d="M348.524 65.6782C348.524 65.6782 351.011 72.575 354.205 78.368C357.4 84.1611 359.693 83.0757 362.091 80.6101C364.489 78.1445 365.836 76.2458 363.09 73.6795C360.343 71.1133 358.199 68.141 355.764 62.9759C355.764 62.9759 351.6 64.1935 348.524 65.6782Z" fill="#04DB8E"/>
<path d="M341.444 56.6538C338.239 51.1695 337.825 47.514 337.843 45.8934C336.805 46.5581 335.725 47.2134 334.58 47.8537C333.767 48.3067 333.337 49.2232 333.481 50.1378C334.037 53.4933 336.171 61.3848 343.019 66.9406C343.707 67.5004 344.668 67.5871 345.452 67.1663C346.215 66.7582 347.347 66.1969 348.794 65.557C347.087 64.2016 344.256 61.4776 341.439 56.657L341.444 56.6538Z" fill="#9A4AFE"/>
<path d="M389.371 31.4219L399.737 24.9261" stroke="#04DB8E" stroke-width="1.77363" stroke-linecap="round" stroke-linejoin="round"/>
<path d="M383.97 24.0513L387.365 17.4677" stroke="#04DB8E" stroke-width="1.77363" stroke-linecap="round" stroke-linejoin="round"/>
<path d="M400.729 38.8862L393.38 39.0703" stroke="#04DB8E" stroke-width="1.77363" stroke-linecap="round" stroke-linejoin="round"/>
<rect x="154" y="48" width="91" height="72.5955" rx="4.86992" fill="#AE70FF"/>
<rect x="169.337" y="82.8438" width="8.66488" height="23.4388" rx="4.33244" fill="white"/>
<rect x="187.013" y="75.9492" width="8.66488" height="30.3325" rx="4.33244" fill="white"/>
<rect x="205.036" y="62.625" width="8.66488" height="43.6604" rx="4.33244" fill="#04DB8E"/>
<rect x="223.059" y="88.8164" width="8.31829" height="17.4642" rx="4.15914" fill="white"/>
<defs>
<clipPath id="clip0_3032_26477">
<rect width="123" height="84" fill="white" transform="translate(324 78)"/>
</clipPath>
<clipPath id="clip1_3032_26477">
<rect width="82.4866" height="110.386" fill="white" transform="translate(252.513 37.5469)"/>
</clipPath>
</defs>
</svg>
