<svg width="312" height="211" viewBox="0 0 312 211" fill="none" xmlns="http://www.w3.org/2000/svg">
<path d="M174.519 58.3237C176.563 56.9232 179.258 56.9232 181.302 58.3237L197.048 69.1128C198 69.7651 199.12 70.129 200.273 70.1609L219.354 70.6877C221.831 70.7561 224.011 72.34 224.841 74.6745L231.239 92.6584C231.625 93.7458 232.318 94.6985 233.232 95.4024L248.359 107.044C250.323 108.555 251.155 111.118 250.455 113.495L245.06 131.804C244.734 132.911 244.734 134.089 245.06 135.196L250.455 153.505C251.155 155.882 250.323 158.445 248.359 159.956L233.232 171.598C232.318 172.301 231.625 173.254 231.239 174.342L224.841 192.325C224.011 194.66 221.831 196.244 219.354 196.312L200.273 196.839C199.12 196.871 198 197.235 197.048 197.887L181.302 208.676C179.258 210.077 176.563 210.077 174.519 208.676L158.773 197.887C157.821 197.235 156.701 196.871 155.547 196.839L136.466 196.312C133.989 196.244 131.809 194.66 130.979 192.325L124.582 174.342C124.195 173.254 123.503 172.301 122.588 171.598L107.461 159.956C105.498 158.445 104.665 155.882 105.365 153.505L110.76 135.196C111.087 134.089 111.087 132.911 110.76 131.804L105.365 113.495C104.665 111.118 105.498 108.555 107.461 107.044L122.588 95.4024C123.503 94.6985 124.195 93.7458 124.582 92.6584L130.979 74.6745C131.809 72.34 133.989 70.7561 136.466 70.6877L155.547 70.1609C156.701 70.129 157.821 69.7651 158.773 69.1128L174.519 58.3237Z" fill="#04DB8E"/>
<mask id="mask0_10351_62209" style="mask-type:alpha" maskUnits="userSpaceOnUse" x="105" y="57" width="146" height="153">
<path d="M174.519 58.3237C176.563 56.9232 179.258 56.9232 181.302 58.3237L197.048 69.1128C198 69.7651 199.12 70.129 200.273 70.1609L219.354 70.6877C221.831 70.7561 224.011 72.34 224.841 74.6745L231.239 92.6584C231.625 93.7458 232.318 94.6985 233.232 95.4024L248.359 107.044C250.323 108.555 251.155 111.118 250.455 113.495L245.06 131.804C244.734 132.911 244.734 134.089 245.06 135.196L250.455 153.505C251.155 155.882 250.323 158.445 248.359 159.956L233.232 171.598C232.318 172.301 231.625 173.254 231.239 174.342L224.841 192.325C224.011 194.66 221.831 196.244 219.354 196.312L200.273 196.839C199.12 196.871 198 197.235 197.048 197.887L181.302 208.676C179.258 210.077 176.563 210.077 174.519 208.676L158.773 197.887C157.821 197.235 156.701 196.871 155.547 196.839L136.466 196.312C133.989 196.244 131.809 194.66 130.979 192.325L124.582 174.342C124.195 173.254 123.503 172.301 122.588 171.598L107.461 159.956C105.498 158.445 104.665 155.882 105.365 153.505L110.76 135.196C111.087 134.089 111.087 132.911 110.76 131.804L105.365 113.495C104.665 111.118 105.498 108.555 107.461 107.044L122.588 95.4024C123.503 94.6985 124.195 93.7458 124.582 92.6584L130.979 74.6745C131.809 72.34 133.989 70.7561 136.466 70.6877L155.547 70.1609C156.701 70.129 157.821 69.7651 158.773 69.1128L174.519 58.3237Z" fill="#04DB8E"/>
</mask>
<g mask="url(#mask0_10351_62209)">
<path d="M236.057 274.774H136.438C136.019 270.968 151.281 190.017 169.204 163.988C171.242 161.038 188.653 158.889 195.055 166.231C228.928 205.129 236.876 273.834 236.057 274.765V274.774Z" fill="#13144D"/>
<path d="M169.384 165.401C169.384 167.337 167.923 168.937 166.043 169.151C167.085 167.253 168.137 165.522 169.198 163.987C169.216 163.959 169.244 163.921 169.263 163.894C169.337 164.387 169.384 164.899 169.384 165.401Z" fill="#AE70FF"/>
<path d="M192.106 165.402C192.106 167.486 190.412 169.18 188.337 169.18C186.262 169.18 184.559 167.486 184.559 165.402C184.559 164.08 184.828 162.796 185.229 161.614C187.648 161.977 189.993 162.675 191.966 163.783C192.059 164.313 192.106 164.862 192.106 165.402Z" fill="#AE70FF"/>
<path d="M169.385 206.598C169.385 208.682 167.701 210.366 165.617 210.366C163.532 210.366 161.848 208.682 161.848 206.598C161.848 201.693 165.617 197.208 165.617 197.208C165.617 197.208 169.385 201.87 169.385 206.598Z" fill="#AE70FF"/>
<path d="M192.096 206.598C192.096 208.682 190.412 210.366 188.327 210.366C186.243 210.366 184.559 208.682 184.559 206.598C184.559 201.693 188.327 197.208 188.327 197.208C188.327 197.208 192.096 201.87 192.096 206.598Z" fill="#AE70FF"/>
<path d="M214.823 206.598C214.823 208.682 213.139 210.366 211.054 210.366C208.97 210.366 207.285 208.682 207.285 206.598C207.285 201.693 211.054 197.208 211.054 197.208C211.054 197.208 214.823 201.87 214.823 206.598Z" fill="#AE70FF"/>
<path d="M157.98 187.483C157.915 188.014 157.728 188.498 157.449 188.926C157.626 188.442 157.803 187.958 157.98 187.483Z" fill="#AE70FF"/>
<path d="M180.745 186.934C180.745 189.018 179.06 190.702 176.976 190.702C174.891 190.702 173.207 189.018 173.207 186.934C173.207 182.029 176.976 177.544 176.976 177.544C176.976 177.544 180.745 182.206 180.745 186.934Z" fill="#AE70FF"/>
<path d="M203.46 186.934C203.46 189.018 201.775 190.702 199.691 190.702C197.606 190.702 195.922 189.018 195.922 186.934C195.922 182.029 199.691 177.544 199.691 177.544C199.691 177.544 203.46 182.206 203.46 186.934Z" fill="#AE70FF"/>
<path d="M166.849 170.701C164.021 178.025 153.356 203.709 147.559 222.143C143.669 234.511 142.189 244.896 141.333 247.623C141.333 247.623 170.749 238.177 177.374 238.159C187.574 238.131 203.933 259.432 199.922 262.102C193.613 266.299 163.537 280.574 139.518 285.051C126.462 287.489 101.867 270.896 103.812 257.701C106.539 239.182 139.993 190.383 152.723 176.545C159.33 169.361 170.293 161.777 166.849 170.701Z" fill="white"/>
<path d="M102.02 261.61C102.634 274.945 119.319 286.177 128.997 286.763C145.682 287.778 195.748 273.195 195.748 273.195L176.289 235.702C176.289 235.702 142.23 247.26 141.365 247.586V247.567C141.662 246.571 150.056 215.034 153.816 204.574C154.02 203.997 154.244 203.411 154.467 202.788C155.547 199.894 157.026 196.069 158.664 191.937L158.683 191.909C159.585 189.62 160.544 187.238 161.493 184.874V184.855C165.606 174.638 169.617 164.913 169.617 164.913C163.885 165.853 158.217 168.868 148.921 178.63C139.624 188.392 101.005 239.611 102.02 261.61Z" fill="#13144D"/>
<path d="M169.398 165.398V165.416C169.389 166.44 168.989 167.371 168.319 168.041C167.639 168.739 166.681 169.176 165.629 169.176C164.28 169.176 163.098 168.469 162.438 167.399C164.904 166.068 167.146 165.351 169.389 164.97C169.398 165.119 169.398 165.258 169.398 165.398Z" fill="#AE70FF"/>
<path d="M146.671 206.594C146.671 208.678 144.986 210.363 142.902 210.363C140.817 210.363 139.133 208.678 139.133 206.594C139.133 201.689 142.902 197.204 142.902 197.204C142.902 197.204 146.671 201.866 146.671 206.594Z" fill="#AE70FF"/>
<path d="M158.042 186.932C158.042 189.016 156.357 190.7 154.273 190.7C152.188 190.7 150.504 189.016 150.504 186.932C150.504 182.027 154.273 177.542 154.273 177.542C154.273 177.542 158.042 182.204 158.042 186.932Z" fill="#AE70FF"/>
<path d="M130.938 253.134L141.341 247.616L141.36 247.597V247.578C141.658 246.583 150.052 215.045 153.811 204.586C154.016 204.009 154.239 203.422 154.463 202.799C155.542 199.905 157.022 196.08 158.659 191.948L130.947 253.115L130.938 253.134Z" fill="#AE70FF"/>
<path d="M129.875 249.633C132.49 249.671 148.245 245.455 150.543 247.623C164.53 260.81 168.959 258.158 171.937 259.87C194.988 273.131 225.771 288.708 236.761 288.811C253.428 288.95 260.063 274.964 257.29 261.75C251.818 235.628 216.586 184.698 200.646 171.167C192.196 164.001 192.866 174.805 196.356 186.559C198.403 193.445 201.995 203.691 205.652 213.741C208.891 222.693 217.48 245.567 217.629 246.106V246.125C217.629 246.125 217.657 246.172 217.657 246.19C217.666 246.255 217.61 246.265 217.471 246.227C216.735 246.097 197.026 236.801 177.204 231.701C170.216 229.905 155.671 227.337 150.459 229.672C147.361 231.059 147.305 232.911 147.305 232.911C147.305 232.911 144.82 232.688 142.196 234.846C140.456 236.28 139.916 238.308 139.916 238.308C139.916 238.308 137.199 238.69 135.784 240.262C134.1 242.142 133.951 244.134 133.951 244.134C130.284 245.111 129.894 249.652 129.894 249.652L129.875 249.633Z" fill="white"/>
<path d="M191.948 235.657C188.3 234.42 186.653 234.42 186.653 234.42L165.91 269.447C165.91 269.447 223.038 290.012 234.764 291.213C246.489 292.413 259.834 283.182 260.057 268.451C260.373 247.755 226.621 198.052 209.647 178.836C201.868 170.023 192.795 163.63 190.477 165.073C187.742 166.776 192.711 177.85 195.326 186.113C200.156 201.365 217.455 246.219 217.455 246.219C217.455 246.219 196.284 237.128 191.938 235.657H191.948Z" fill="#13144D"/>
<path d="M192.118 165.398C192.118 166.934 191.197 168.264 189.875 168.851C189.559 166.952 189.68 165.584 190.508 165.063C190.881 164.83 191.42 164.803 192.109 164.951C192.118 165.1 192.118 165.249 192.118 165.398Z" fill="#AE70FF"/>
<path d="M214.811 206.595C214.811 208.679 213.127 210.363 211.042 210.363C208.958 210.363 207.273 208.679 207.273 206.595C207.273 201.69 211.042 197.205 211.042 197.205C211.042 197.205 214.811 201.867 214.811 206.595Z" fill="#AE70FF"/>
<path d="M233.264 210.329C231.421 210.087 229.988 208.514 229.988 206.597C229.988 206.253 230.007 205.909 230.044 205.564C231.124 207.128 232.194 208.719 233.264 210.329Z" fill="#AE70FF"/>
<path d="M203.46 186.932C203.46 189.016 201.775 190.7 199.691 190.7C197.606 190.7 195.922 189.016 195.922 186.932C195.922 182.027 199.691 177.542 199.691 177.542C199.691 177.542 203.46 182.204 203.46 186.932Z" fill="#AE70FF"/>
<path d="M200.547 203.757C201.422 205.163 202.296 206.559 203.041 208.038C203.078 208.103 203.106 208.178 203.143 208.243C202.036 204.883 200.994 201.515 199.989 198.118C199.923 197.913 200.268 197.802 200.352 197.997C205.256 210.43 209.816 223.011 214.236 235.63C215.473 239.157 216.553 242.721 217.679 246.285C217.716 246.406 217.521 246.471 217.465 246.35C216.116 243.298 214.757 240.264 213.519 237.156C212.282 234.048 211.137 230.902 209.983 227.776C207.954 222.295 206.019 216.786 204.158 211.249C203.571 210.281 202.985 209.313 202.436 208.327C201.636 206.884 200.975 205.377 200.305 203.878C200.231 203.711 200.463 203.618 200.547 203.757Z" fill="#AE70FF"/>
<path d="M171.092 178.667C176.462 180.593 186.884 173.241 191.397 166.839C191.705 166.401 191.546 161.376 191.639 155.272C191.714 151.568 191.881 147.446 192.309 143.695L168.133 146.738C168.133 146.738 169.557 154.862 168.775 161.404C168.701 161.953 168.589 162.456 168.44 162.921C168.421 162.986 168.394 163.07 168.375 163.172C167.565 166.039 165.909 176.796 171.102 178.667H171.092Z" fill="white"/>
<path d="M168.358 163.172C168.311 163.331 168.265 163.498 168.237 163.703C182.716 163.089 188.216 156.723 191.78 150.619C191.892 148.292 192.041 145.929 192.311 143.695L168.125 146.738C168.125 146.738 169.549 154.872 168.758 161.404C168.693 161.944 168.572 162.447 168.413 162.921C168.395 162.986 168.386 163.079 168.348 163.172H168.358Z" fill="#13144D"/>
<path d="M201.19 128.068C201.19 128.068 215.8 143.515 213.408 146.307C211.017 149.099 189.688 145.097 185.007 141.421C180.335 137.746 171.746 122.717 171.746 122.717L201.19 128.068Z" fill="#B3F001"/>
<path d="M198.826 113.622C201.366 122.025 196.853 146.276 190.86 151.664C182.178 159.481 167.996 160.179 161.37 149.756C154.94 139.65 161.379 108.159 168.07 103.264C177.916 96.0524 195.076 101.217 198.826 113.631V113.622Z" fill="white"/>
<path d="M170.887 138.838C170.887 138.838 171.873 140.252 173.26 140.792C173.772 140.997 174.33 141.08 174.916 140.941C176.126 140.662 176.182 139.564 175.996 138.614C175.837 137.833 175.502 137.153 175.502 137.153C175.502 137.153 173.706 138.745 170.896 138.838H170.887Z" fill="white"/>
<path d="M171.951 139.98C172.025 140.045 172.109 140.119 172.193 140.175C172.574 140.11 172.965 140.026 173.328 139.868C172.863 139.915 172.397 139.952 171.941 139.971L171.951 139.98Z" fill="white"/>
<path d="M174.52 139.488C174.808 139.414 175.096 139.311 175.366 139.172C175.599 139.051 175.813 138.892 176.018 138.734C176.018 138.706 176.008 138.66 175.999 138.632C175.99 138.576 175.981 138.52 175.971 138.474C175.525 138.855 175.022 139.172 174.52 139.507V139.488Z" fill="white"/>
<path d="M178.196 127.205C178.224 127.149 178.308 127.307 178.298 127.373C177.954 129.001 177.824 130.918 179.21 131.728C179.257 131.756 179.229 131.83 179.182 131.821C177.424 131.244 177.619 128.694 178.205 127.205H178.196Z" fill="#13144D"/>
<path d="M179.958 125.763C182.62 126.042 181.875 131.347 179.409 131.096C176.98 130.844 177.725 125.531 179.958 125.763Z" fill="#13144D"/>
<path d="M168.181 125.7C168.181 125.635 168.041 125.756 168.032 125.831C167.855 127.487 167.371 129.348 165.808 129.683C165.761 129.692 165.752 129.776 165.808 129.776C167.66 129.776 168.274 127.301 168.181 125.71V125.7Z" fill="#13144D"/>
<path d="M166.958 123.774C164.343 123.198 163.385 128.474 165.814 129.004C168.196 129.525 169.154 124.249 166.958 123.774Z" fill="#13144D"/>
<path d="M182.411 123.635C181.713 123.346 181.118 122.974 180.457 122.621C179.713 122.22 179.08 121.988 178.661 121.206C178.438 120.787 178.652 120.127 179.033 119.875C179.927 119.28 180.96 119.54 181.881 119.987C182.877 120.471 183.519 121.094 183.984 122.09C184.44 123.058 183.332 124.016 182.411 123.644V123.635Z" fill="#13144D"/>
<path d="M165.277 120.814C166.031 120.796 166.719 120.656 167.464 120.563C168.301 120.461 168.981 120.461 169.651 119.884C170.004 119.577 170.051 118.879 169.781 118.507C169.157 117.632 168.097 117.511 167.082 117.595C165.984 117.688 165.156 118.041 164.365 118.804C163.593 119.549 164.291 120.842 165.286 120.814H165.277Z" fill="#13144D"/>
<path d="M176.663 142.377C176.217 142.703 175.751 143.178 175.146 143.15C174.57 143.122 173.937 142.768 173.434 142.489C173.388 142.461 173.323 142.508 173.35 142.563C173.685 143.252 174.532 143.773 175.314 143.754C176.077 143.727 176.533 143.14 176.812 142.48C176.849 142.387 176.728 142.331 176.663 142.387V142.377Z" fill="#13144D"/>
<path d="M175.62 137.202C174.494 138.495 173.033 139.091 171.535 139.165C170.865 139.202 170.176 139.128 169.506 138.97C169.376 138.951 169.246 138.914 169.125 138.867C169.004 138.84 168.901 138.802 168.771 138.765C168.585 138.709 168.501 138.532 168.492 138.346C168.501 138.272 168.51 138.225 168.529 138.17L168.548 138.011C168.687 136.736 169.087 134.829 169.087 134.829C168.594 134.996 166.082 135.722 166.212 135.071C167.31 129.636 168.529 123.597 170.772 118.432C170.837 118.255 171.107 118.339 171.07 118.516C170.223 123.773 168.455 128.854 167.515 134.121C168.306 133.945 169.609 133.582 170.269 133.693C170.446 133.768 169.441 137.369 169.422 137.946C169.422 137.946 169.422 137.974 169.422 138.011C171.507 138.579 173.21 138.17 175.471 137.025C175.611 136.95 175.722 137.081 175.601 137.192L175.62 137.202Z" fill="#13144D"/>
<path d="M198.487 135.168C193.974 133.409 193.081 117.627 193.081 117.627C193.081 117.627 192.494 124.234 191.275 123.955C190.056 123.675 185.831 114.239 185.869 107.753C185.869 107.753 179.615 111.178 173.576 112.378C167.536 113.579 161.869 114.379 161.962 113.374C162.241 110.396 165.852 102.291 170.151 99.927C175.102 97.2004 181.29 94.8181 190.54 99.3966C199.79 103.975 201.512 109.112 202.48 114.025C203.447 118.939 200.144 135.82 198.487 135.168Z" fill="#13144D"/>
<path d="M161.828 112.2C161.828 112.2 176.317 111.483 186.861 116.881C191.011 119.002 201.452 129.564 201.452 129.564C201.452 129.564 204.132 120.259 201.936 110.674C198.623 96.1938 180.682 93.7277 172.269 97.7013C164.704 101.265 161.828 112.2 161.828 112.2ZM171.692 109.827C171.692 109.827 173.377 104.187 179.444 105.621C184.711 106.868 185.4 110.515 185.251 112.954C185.251 112.954 178.551 110.05 171.692 109.827Z" fill="#AE70FF"/>
<path d="M193.597 133.382C193.597 133.382 199.264 125.667 202.773 127.705C206.29 129.743 201.898 141.012 197.682 142.473C193.467 143.934 192.043 140.054 192.043 140.054L193.597 133.382Z" fill="white"/>
<path d="M201.425 130.908C201.49 130.908 201.5 131.001 201.444 131.02C198.485 132.137 196.884 134.817 195.739 137.608C196.633 136.548 197.833 135.98 199.266 137.05C199.341 137.106 199.266 137.227 199.183 137.208C197.991 136.92 197.117 137.115 196.288 138.055C195.702 138.725 195.283 139.572 194.855 140.354C194.716 140.614 194.241 140.465 194.353 140.158C194.353 140.14 194.371 140.112 194.381 140.093C194.39 136.352 197.414 131.197 201.435 130.918L201.425 130.908Z" fill="#13144D"/>
</g>
<g filter="url(#filter0_d_10351_62209)">
<rect x="40" y="134" width="105" height="53" rx="7.59575" fill="white"/>
</g>
<path d="M90.342 153.695V152.745H95.3322V153.695H93.3991V159H92.2752V153.695H90.342ZM97.6113 159.092C97.1532 159.092 96.7562 158.991 96.4202 158.789C96.0843 158.588 95.8237 158.306 95.6384 157.943C95.4552 157.581 95.3635 157.157 95.3635 156.673C95.3635 156.188 95.4552 155.764 95.6384 155.399C95.8237 155.035 96.0843 154.752 96.4202 154.55C96.7562 154.349 97.1532 154.248 97.6113 154.248C98.0694 154.248 98.4664 154.349 98.8023 154.55C99.1383 154.752 99.3979 155.035 99.5811 155.399C99.7664 155.764 99.859 156.188 99.859 156.673C99.859 157.157 99.7664 157.581 99.5811 157.943C99.3979 158.306 99.1383 158.588 98.8023 158.789C98.4664 158.991 98.0694 159.092 97.6113 159.092ZM97.6174 158.206C97.8658 158.206 98.0734 158.138 98.2404 158.001C98.4073 157.863 98.5315 157.678 98.613 157.446C98.6965 157.213 98.7382 156.955 98.7382 156.67C98.7382 156.383 98.6965 156.123 98.613 155.891C98.5315 155.657 98.4073 155.471 98.2404 155.332C98.0734 155.194 97.8658 155.125 97.6174 155.125C97.3629 155.125 97.1511 155.194 96.9822 155.332C96.8152 155.471 96.69 155.657 96.6065 155.891C96.5251 156.123 96.4844 156.383 96.4844 156.67C96.4844 156.955 96.5251 157.213 96.6065 157.446C96.69 157.678 96.8152 157.863 96.9822 158.001C97.1511 158.138 97.3629 158.206 97.6174 158.206ZM103.14 154.309V155.164H100.443V154.309H103.14ZM101.109 153.185H102.214V157.589C102.214 157.738 102.237 157.852 102.282 157.931C102.328 158.008 102.389 158.061 102.465 158.09C102.54 158.118 102.624 158.133 102.715 158.133C102.784 158.133 102.848 158.128 102.905 158.117C102.964 158.107 103.008 158.098 103.039 158.09L103.225 158.954C103.166 158.975 103.082 158.997 102.972 159.021C102.864 159.046 102.732 159.06 102.575 159.064C102.298 159.072 102.048 159.031 101.827 158.939C101.605 158.845 101.428 158.701 101.298 158.505C101.17 158.31 101.107 158.065 101.109 157.772V153.185ZM105.414 159.095C105.117 159.095 104.849 159.042 104.611 158.936C104.375 158.828 104.188 158.669 104.049 158.459C103.913 158.25 103.844 157.991 103.844 157.684C103.844 157.419 103.893 157.2 103.991 157.027C104.089 156.854 104.222 156.716 104.391 156.612C104.56 156.508 104.75 156.43 104.962 156.377C105.176 156.322 105.397 156.282 105.625 156.258C105.9 156.229 106.123 156.204 106.294 156.181C106.465 156.157 106.589 156.12 106.666 156.071C106.746 156.02 106.785 155.942 106.785 155.836V155.818C106.785 155.588 106.717 155.41 106.581 155.283C106.444 155.157 106.248 155.094 105.991 155.094C105.721 155.094 105.506 155.153 105.347 155.271C105.19 155.389 105.084 155.529 105.029 155.689L103.997 155.543C104.079 155.258 104.213 155.02 104.4 154.828C104.588 154.635 104.817 154.49 105.087 154.395C105.358 154.297 105.657 154.248 105.985 154.248C106.211 154.248 106.436 154.274 106.66 154.327C106.884 154.38 107.089 154.468 107.274 154.59C107.459 154.71 107.608 154.874 107.72 155.082C107.834 155.289 107.891 155.549 107.891 155.861V159H106.828V158.356H106.792C106.724 158.486 106.63 158.608 106.508 158.722C106.387 158.834 106.236 158.925 106.052 158.994C105.871 159.061 105.659 159.095 105.414 159.095ZM105.701 158.282C105.923 158.282 106.116 158.239 106.278 158.151C106.441 158.061 106.567 157.943 106.654 157.797C106.744 157.65 106.788 157.49 106.788 157.317V156.764C106.754 156.793 106.695 156.819 106.611 156.844C106.53 156.868 106.438 156.89 106.336 156.908C106.235 156.926 106.134 156.943 106.034 156.957C105.934 156.971 105.848 156.983 105.775 156.994C105.61 157.016 105.462 157.053 105.332 157.103C105.201 157.154 105.099 157.226 105.023 157.317C104.948 157.407 104.91 157.523 104.91 157.665C104.91 157.869 104.985 158.023 105.133 158.127C105.282 158.23 105.471 158.282 105.701 158.282ZM110.108 152.745V159H109.003V152.745H110.108ZM94.2756 166.549L93.2678 166.659C93.2393 166.557 93.1894 166.461 93.1181 166.372C93.0489 166.282 92.9552 166.21 92.8371 166.155C92.7191 166.1 92.5745 166.073 92.4035 166.073C92.1734 166.073 91.98 166.122 91.8232 166.222C91.6685 166.322 91.5921 166.451 91.5942 166.61C91.5921 166.746 91.642 166.857 91.7438 166.943C91.8477 167.028 92.0187 167.099 92.2569 167.154L93.057 167.325C93.5009 167.42 93.8307 167.572 94.0465 167.78C94.2644 167.987 94.3743 168.259 94.3763 168.595C94.3743 168.89 94.2878 169.151 94.1168 169.377C93.9478 169.601 93.7126 169.776 93.4113 169.902C93.11 170.029 92.7638 170.092 92.3729 170.092C91.7988 170.092 91.3366 169.971 90.9864 169.731C90.6362 169.489 90.4276 169.152 90.3604 168.72L91.4384 168.617C91.4873 168.828 91.5911 168.988 91.7499 169.096C91.9087 169.204 92.1154 169.258 92.3699 169.258C92.6325 169.258 92.8433 169.204 93.0021 169.096C93.1629 168.988 93.2433 168.855 93.2433 168.696C93.2433 168.562 93.1914 168.451 93.0876 168.363C92.9858 168.276 92.827 168.208 92.6112 168.162L91.811 167.994C91.3611 167.9 91.0282 167.742 90.8124 167.52C90.5965 167.296 90.4897 167.013 90.4917 166.671C90.4897 166.382 90.568 166.132 90.7268 165.92C90.8877 165.706 91.1106 165.541 91.3957 165.425C91.6827 165.307 92.0136 165.248 92.3882 165.248C92.9379 165.248 93.3706 165.365 93.6862 165.599C94.0038 165.833 94.2002 166.15 94.2756 166.549ZM95.288 171.759V165.309H96.3752V166.085H96.4393C96.4963 165.971 96.5767 165.85 96.6806 165.721C96.7844 165.591 96.9249 165.48 97.102 165.388C97.2792 165.295 97.5051 165.248 97.78 165.248C98.1424 165.248 98.4692 165.341 98.7603 165.526C99.0535 165.709 99.2856 165.981 99.4566 166.341C99.6297 166.7 99.7162 167.139 99.7162 167.661C99.7162 168.176 99.6317 168.613 99.4627 168.974C99.2938 169.334 99.0637 169.609 98.7726 169.798C98.4814 169.988 98.1516 170.082 97.7831 170.082C97.5143 170.082 97.2914 170.038 97.1142 169.948C96.9371 169.858 96.7946 169.751 96.6867 169.624C96.5808 169.496 96.4984 169.375 96.4393 169.261H96.3935V171.759H95.288ZM96.3721 167.655C96.3721 167.958 96.4149 168.224 96.5004 168.452C96.5879 168.68 96.7132 168.858 96.876 168.986C97.0409 169.112 97.2405 169.175 97.4746 169.175C97.7189 169.175 97.9235 169.11 98.0885 168.98C98.2534 168.848 98.3776 168.667 98.461 168.439C98.5466 168.209 98.5893 167.948 98.5893 167.655C98.5893 167.363 98.5476 167.105 98.4641 166.879C98.3806 166.653 98.2564 166.476 98.0915 166.347C97.9266 166.219 97.721 166.155 97.4746 166.155C97.2384 166.155 97.0379 166.217 96.873 166.341C96.7081 166.466 96.5828 166.64 96.4973 166.864C96.4139 167.088 96.3721 167.351 96.3721 167.655ZM102.74 170.092C102.269 170.092 101.863 169.994 101.521 169.798C101.181 169.601 100.919 169.322 100.736 168.962C100.553 168.599 100.461 168.173 100.461 167.682C100.461 167.2 100.553 166.776 100.736 166.412C100.922 166.045 101.18 165.76 101.512 165.556C101.844 165.351 102.234 165.248 102.682 165.248C102.971 165.248 103.244 165.295 103.5 165.388C103.759 165.48 103.987 165.623 104.184 165.816C104.384 166.009 104.54 166.256 104.655 166.555C104.769 166.852 104.826 167.207 104.826 167.618V167.957H100.981V167.212H103.766C103.764 167 103.718 166.812 103.628 166.647C103.539 166.48 103.414 166.348 103.253 166.253C103.094 166.157 102.909 166.109 102.697 166.109C102.471 166.109 102.272 166.164 102.101 166.274C101.93 166.382 101.797 166.525 101.701 166.702C101.608 166.877 101.56 167.069 101.558 167.279V167.929C101.558 168.202 101.608 168.436 101.707 168.632C101.807 168.825 101.947 168.974 102.126 169.078C102.305 169.179 102.515 169.23 102.755 169.23C102.916 169.23 103.061 169.208 103.192 169.163C103.322 169.116 103.435 169.048 103.531 168.959C103.626 168.869 103.699 168.758 103.747 168.626L104.78 168.742C104.715 169.015 104.59 169.253 104.407 169.456C104.226 169.658 103.994 169.815 103.711 169.927C103.428 170.037 103.104 170.092 102.74 170.092ZM106.866 167.251V170H105.761V165.309H106.817V166.106H106.872C106.98 165.844 107.152 165.635 107.389 165.48C107.627 165.325 107.921 165.248 108.271 165.248C108.595 165.248 108.877 165.317 109.117 165.456C109.359 165.594 109.547 165.795 109.679 166.057C109.813 166.32 109.88 166.639 109.878 167.013V170H108.772V167.184C108.772 166.871 108.691 166.625 108.528 166.448C108.367 166.271 108.144 166.183 107.859 166.183C107.665 166.183 107.493 166.225 107.343 166.311C107.194 166.394 107.077 166.515 106.992 166.674C106.908 166.833 106.866 167.025 106.866 167.251ZM112.742 170.082C112.374 170.082 112.044 169.988 111.753 169.798C111.462 169.609 111.232 169.334 111.063 168.974C110.894 168.613 110.809 168.176 110.809 167.661C110.809 167.139 110.895 166.7 111.066 166.341C111.239 165.981 111.472 165.709 111.765 165.526C112.058 165.341 112.385 165.248 112.745 165.248C113.02 165.248 113.246 165.295 113.423 165.388C113.6 165.48 113.741 165.591 113.845 165.721C113.949 165.85 114.029 165.971 114.086 166.085H114.132V163.745H115.24V170H114.153V169.261H114.086C114.029 169.375 113.946 169.496 113.839 169.624C113.731 169.751 113.588 169.858 113.411 169.948C113.234 170.038 113.011 170.082 112.742 170.082ZM113.051 169.175C113.285 169.175 113.484 169.112 113.649 168.986C113.814 168.858 113.939 168.68 114.025 168.452C114.11 168.224 114.153 167.958 114.153 167.655C114.153 167.351 114.11 167.088 114.025 166.864C113.941 166.64 113.817 166.466 113.652 166.341C113.489 166.217 113.289 166.155 113.051 166.155C112.804 166.155 112.599 166.219 112.434 166.347C112.269 166.476 112.145 166.653 112.061 166.879C111.978 167.105 111.936 167.363 111.936 167.655C111.936 167.948 111.978 168.209 112.061 168.439C112.147 168.667 112.272 168.848 112.437 168.98C112.604 169.11 112.808 169.175 113.051 169.175ZM116.418 170V165.309H117.524V170H116.418ZM116.974 164.643C116.799 164.643 116.648 164.585 116.522 164.469C116.396 164.351 116.333 164.21 116.333 164.045C116.333 163.878 116.396 163.736 116.522 163.62C116.648 163.502 116.799 163.443 116.974 163.443C117.151 163.443 117.302 163.502 117.426 163.62C117.552 163.736 117.616 163.878 117.616 164.045C117.616 164.21 117.552 164.351 117.426 164.469C117.302 164.585 117.151 164.643 116.974 164.643ZM119.766 167.251V170H118.661V165.309H119.717V166.106H119.772C119.88 165.844 120.052 165.635 120.289 165.48C120.527 165.325 120.821 165.248 121.171 165.248C121.495 165.248 121.777 165.317 122.017 165.456C122.259 165.594 122.447 165.795 122.579 166.057C122.713 166.32 122.78 166.639 122.778 167.013V170H121.672V167.184C121.672 166.871 121.591 166.625 121.428 166.448C121.267 166.271 121.044 166.183 120.759 166.183C120.565 166.183 120.393 166.225 120.243 166.311C120.094 166.394 119.977 166.515 119.892 166.674C119.808 166.833 119.766 167.025 119.766 167.251ZM125.941 171.857C125.544 171.857 125.203 171.803 124.918 171.695C124.633 171.589 124.404 171.447 124.231 171.267C124.058 171.088 123.938 170.89 123.871 170.672L124.866 170.431C124.911 170.522 124.976 170.613 125.062 170.702C125.147 170.794 125.262 170.869 125.407 170.928C125.554 170.989 125.738 171.02 125.96 171.02C126.273 171.02 126.533 170.944 126.739 170.791C126.944 170.64 127.047 170.392 127.047 170.046V169.157H126.992C126.935 169.271 126.852 169.388 126.742 169.508C126.634 169.628 126.49 169.729 126.311 169.811C126.134 169.892 125.911 169.933 125.642 169.933C125.282 169.933 124.955 169.848 124.662 169.679C124.371 169.508 124.139 169.254 123.966 168.916C123.795 168.576 123.709 168.15 123.709 167.639C123.709 167.124 123.795 166.689 123.966 166.335C124.139 165.979 124.372 165.709 124.665 165.526C124.958 165.341 125.285 165.248 125.645 165.248C125.92 165.248 126.146 165.295 126.323 165.388C126.502 165.48 126.645 165.591 126.751 165.721C126.857 165.85 126.937 165.971 126.992 166.085H127.053V165.309H128.143V170.076C128.143 170.477 128.048 170.809 127.856 171.072C127.665 171.335 127.403 171.531 127.071 171.661C126.74 171.792 126.363 171.857 125.941 171.857ZM125.951 169.065C126.185 169.065 126.384 169.008 126.549 168.894C126.714 168.78 126.839 168.617 126.925 168.403C127.01 168.189 127.053 167.932 127.053 167.633C127.053 167.338 127.01 167.079 126.925 166.857C126.841 166.636 126.717 166.463 126.552 166.341C126.389 166.217 126.189 166.155 125.951 166.155C125.704 166.155 125.499 166.219 125.334 166.347C125.169 166.476 125.045 166.652 124.961 166.876C124.878 167.098 124.836 167.35 124.836 167.633C124.836 167.92 124.878 168.172 124.961 168.387C125.047 168.601 125.172 168.768 125.337 168.888C125.504 169.006 125.708 169.065 125.951 169.065Z" fill="#13144D"/>
<path d="M60.543 162.686H63.188C64.9515 162.686 66.1266 163.503 67.3023 164.253C68.478 165.004 68.9352 165.233 70.7638 165.265C72.5924 165.298 74.6495 165.212 74.6495 166.774C74.6495 168.335 72.9188 168.107 70.8288 168.107H67.3674C66.551 168.107 66.1917 168.14 66.1917 168.629C66.1917 169.118 66.6817 169.151 67.3346 169.151H72.2325C73.7675 169.151 74.8775 168.466 77.3919 167.323C79.9062 166.18 81.1797 165.625 81.6369 166.506C82.094 167.388 80.6247 168.4 78.1432 169.706C75.6617 171.013 70.5674 176.041 60.543 170.229V162.686V162.686Z" fill="#AE70FF"/>
<path d="M61.1347 162.631V170.917C61.1347 171.295 60.8281 171.601 60.4501 171.601H59.3406C59.1245 171.601 58.9214 171.499 58.7918 171.326C58.1519 170.47 56.3137 167.614 56.0014 162.677C55.9765 162.282 56.2882 161.946 56.6843 161.946H60.4501C60.8281 161.946 61.1347 162.253 61.1347 162.631Z" fill="#05D98D"/>
<path d="M71.3284 162.59C73.0716 162.59 74.4848 161.177 74.4848 159.434C74.4848 157.691 73.0716 156.277 71.3284 156.277C69.5851 156.277 68.1719 157.691 68.1719 159.434C68.1719 161.177 69.5851 162.59 71.3284 162.59Z" fill="#05D98D"/>
<path d="M78.5627 158.341C80.306 158.341 81.7192 156.928 81.7192 155.185C81.7192 153.442 80.306 152.028 78.5627 152.028C76.8195 152.028 75.4062 153.442 75.4062 155.185C75.4062 156.928 76.8195 158.341 78.5627 158.341Z" fill="#05D98D"/>
<path d="M70.1565 154.313C71.8998 154.313 73.313 152.9 73.313 151.156C73.313 149.413 71.8998 148 70.1565 148C68.4132 148 67 149.413 67 151.156C67 152.9 68.4132 154.313 70.1565 154.313Z" fill="#05D98D"/>
<g filter="url(#filter1_d_10351_62209)">
<rect x="221" y="87" width="76" height="53" rx="7.59575" fill="white"/>
</g>
<path d="M237.617 107V100.745H239.962C240.443 100.745 240.846 100.829 241.172 100.996C241.5 101.163 241.747 101.397 241.914 101.698C242.083 101.998 242.167 102.347 242.167 102.746C242.167 103.147 242.082 103.495 241.911 103.79C241.742 104.083 241.492 104.31 241.163 104.471C240.833 104.63 240.428 104.71 239.947 104.71H238.277V103.769H239.794C240.075 103.769 240.305 103.73 240.485 103.653C240.664 103.573 240.796 103.458 240.882 103.308C240.969 103.155 241.013 102.968 241.013 102.746C241.013 102.524 240.969 102.335 240.882 102.178C240.794 102.019 240.661 101.899 240.482 101.817C240.302 101.734 240.071 101.692 239.788 101.692H238.75V107H237.617ZM240.848 104.166L242.396 107H241.132L239.611 104.166H240.848ZM248.799 103.873C248.799 104.547 248.673 105.124 248.42 105.604C248.17 106.083 247.828 106.449 247.394 106.704C246.963 106.958 246.473 107.086 245.925 107.086C245.378 107.086 244.887 106.958 244.453 106.704C244.022 106.447 243.68 106.08 243.427 105.601C243.177 105.121 243.051 104.545 243.051 103.873C243.051 103.199 243.177 102.623 243.427 102.144C243.68 101.664 244.022 101.296 244.453 101.042C244.887 100.787 245.378 100.66 245.925 100.66C246.473 100.66 246.963 100.787 247.394 101.042C247.828 101.296 248.17 101.664 248.42 102.144C248.673 102.623 248.799 103.199 248.799 103.873ZM247.66 103.873C247.66 103.398 247.586 102.998 247.437 102.673C247.29 102.345 247.087 102.097 246.826 101.93C246.566 101.761 246.265 101.677 245.925 101.677C245.585 101.677 245.285 101.761 245.024 101.93C244.764 102.097 244.559 102.345 244.41 102.673C244.264 102.998 244.191 103.398 244.191 103.873C244.191 104.347 244.264 104.748 244.41 105.076C244.559 105.402 244.764 105.649 245.024 105.818C245.285 105.985 245.585 106.069 245.925 106.069C246.265 106.069 246.566 105.985 246.826 105.818C247.087 105.649 247.29 105.402 247.437 105.076C247.586 104.748 247.66 104.347 247.66 103.873ZM251.003 100.745V107H249.87V100.745H251.003Z" fill="#13144D"/>
<circle cx="244.116" cy="120.116" r="9.11551" transform="rotate(-90 244.116 120.116)" fill="#04DB8E"/>
<path d="M244.382 116.761C244.234 116.613 243.993 116.613 243.845 116.761L241.428 119.179C241.279 119.327 241.279 119.567 241.428 119.716C241.576 119.864 241.816 119.864 241.965 119.716L244.113 117.567L246.262 119.716C246.41 119.864 246.651 119.864 246.799 119.716C246.947 119.567 246.947 119.327 246.799 119.179L244.382 116.761ZM244.493 123.154L244.493 117.03L243.733 117.03L243.733 123.154L244.493 123.154Z" fill="black"/>
<path d="M260.699 116.946V123.833H259.243V118.328H259.202L257.625 119.317V118.026L259.33 116.946H260.699ZM262.231 122.622V121.476L265.107 116.946H266.095V118.533H265.51L263.698 121.402V121.456H267.783V122.622H262.231ZM265.537 123.833V122.273L265.564 121.765V116.946H266.929V123.833H265.537ZM269.475 123.92C269.253 123.92 269.062 123.842 268.903 123.685C268.746 123.526 268.668 123.335 268.668 123.113C268.668 122.894 268.746 122.705 268.903 122.548C269.062 122.392 269.253 122.313 269.475 122.313C269.69 122.313 269.878 122.392 270.04 122.548C270.201 122.705 270.282 122.894 270.282 123.113C270.282 123.261 270.244 123.397 270.167 123.52C270.093 123.641 269.996 123.739 269.875 123.813C269.754 123.885 269.62 123.92 269.475 123.92ZM273.736 123.927C273.218 123.927 272.757 123.843 272.354 123.675C271.953 123.505 271.638 123.273 271.409 122.979C271.18 122.685 271.066 122.352 271.066 121.98C271.066 121.693 271.131 121.43 271.261 121.19C271.393 120.948 271.573 120.747 271.799 120.588C272.026 120.427 272.279 120.323 272.559 120.279V120.232C272.191 120.158 271.893 119.979 271.665 119.697C271.436 119.412 271.322 119.082 271.322 118.705C271.322 118.348 271.426 118.031 271.634 117.753C271.843 117.473 272.129 117.253 272.492 117.094C272.857 116.933 273.272 116.852 273.736 116.852C274.2 116.852 274.614 116.933 274.977 117.094C275.342 117.256 275.629 117.476 275.838 117.757C276.046 118.035 276.152 118.351 276.154 118.705C276.152 119.084 276.035 119.414 275.804 119.697C275.573 119.979 275.277 120.158 274.916 120.232V120.279C275.192 120.323 275.442 120.427 275.666 120.588C275.893 120.747 276.072 120.948 276.204 121.19C276.339 121.43 276.407 121.693 276.409 121.98C276.407 122.352 276.292 122.685 276.063 122.979C275.834 123.273 275.518 123.505 275.115 123.675C274.713 123.843 274.254 123.927 273.736 123.927ZM273.736 122.858C273.967 122.858 274.169 122.816 274.341 122.733C274.514 122.648 274.648 122.532 274.745 122.384C274.843 122.233 274.893 122.061 274.893 121.866C274.893 121.666 274.842 121.49 274.741 121.338C274.641 121.183 274.504 121.062 274.331 120.975C274.159 120.885 273.96 120.84 273.736 120.84C273.514 120.84 273.316 120.885 273.141 120.975C272.966 121.062 272.828 121.183 272.727 121.338C272.629 121.49 272.579 121.666 272.579 121.866C272.579 122.061 272.627 122.233 272.724 122.384C272.82 122.532 272.956 122.648 273.131 122.733C273.306 122.816 273.507 122.858 273.736 122.858ZM273.736 119.781C273.929 119.781 274.1 119.742 274.25 119.663C274.401 119.585 274.518 119.476 274.604 119.337C274.689 119.198 274.731 119.038 274.731 118.856C274.731 118.677 274.689 118.52 274.604 118.385C274.518 118.249 274.402 118.142 274.254 118.066C274.106 117.988 273.933 117.948 273.736 117.948C273.541 117.948 273.368 117.988 273.218 118.066C273.068 118.142 272.95 118.249 272.865 118.385C272.782 118.52 272.741 118.677 272.741 118.856C272.741 119.038 272.783 119.198 272.868 119.337C272.954 119.476 273.071 119.585 273.222 119.663C273.372 119.742 273.543 119.781 273.736 119.781ZM281.197 122.542V122.179C281.197 121.903 281.255 121.65 281.372 121.419C281.491 121.185 281.662 120.999 281.886 120.86C282.113 120.719 282.388 120.649 282.714 120.649C283.043 120.649 283.32 120.718 283.544 120.857C283.771 120.996 283.941 121.182 284.055 121.415C284.172 121.646 284.23 121.901 284.23 122.179V122.542C284.23 122.817 284.172 123.072 284.055 123.305C283.939 123.536 283.767 123.721 283.541 123.86C283.314 124.001 283.039 124.072 282.714 124.072C282.384 124.072 282.107 124.001 281.883 123.86C281.659 123.721 281.488 123.536 281.372 123.305C281.255 123.072 281.197 122.817 281.197 122.542ZM282.175 122.179V122.542C282.175 122.701 282.214 122.851 282.29 122.992C282.368 123.134 282.51 123.204 282.714 123.204C282.918 123.204 283.057 123.135 283.13 122.996C283.207 122.857 283.245 122.705 283.245 122.542V122.179C283.245 122.015 283.209 121.862 283.137 121.721C283.065 121.58 282.924 121.509 282.714 121.509C282.512 121.509 282.372 121.58 282.293 121.721C282.215 121.862 282.175 122.015 282.175 122.179ZM277.663 118.601V118.238C277.663 117.96 277.722 117.705 277.841 117.474C277.96 117.241 278.131 117.055 278.355 116.916C278.582 116.777 278.855 116.707 279.176 116.707C279.508 116.707 279.786 116.777 280.01 116.916C280.234 117.055 280.404 117.241 280.521 117.474C280.638 117.705 280.696 117.96 280.696 118.238V118.601C280.696 118.879 280.637 119.133 280.518 119.364C280.401 119.595 280.23 119.78 280.003 119.919C279.779 120.056 279.503 120.124 279.176 120.124C278.849 120.124 278.572 120.054 278.345 119.915C278.121 119.774 277.951 119.589 277.834 119.361C277.72 119.13 277.663 118.876 277.663 118.601ZM278.648 118.238V118.601C278.648 118.764 278.686 118.916 278.762 119.055C278.841 119.194 278.979 119.263 279.176 119.263C279.382 119.263 279.522 119.194 279.596 119.055C279.673 118.916 279.711 118.764 279.711 118.601V118.238C279.711 118.074 279.675 117.921 279.603 117.78C279.531 117.639 279.389 117.568 279.176 117.568C278.976 117.568 278.839 117.64 278.762 117.784C278.686 117.927 278.648 118.078 278.648 118.238ZM278.107 123.833L282.841 116.946H283.722L278.988 123.833H278.107Z" fill="#13714A"/>
<g filter="url(#filter2_d_10351_62209)">
<rect x="15" y="15" width="133" height="99" rx="7.59575" fill="white"/>
</g>
<path d="M29.5586 56.4102H134" stroke="#D4D3D9" stroke-width="0.632979" stroke-linecap="round"/>
<path d="M29.5586 70.335H134" stroke="#D4D3D9" stroke-width="0.632979" stroke-linecap="round"/>
<path d="M29.5586 84.2607H134" stroke="#D4D3D9" stroke-width="0.632979" stroke-linecap="round"/>
<path d="M29.5586 98.1865H134" stroke="#D4D3D9" stroke-width="0.632979" stroke-linecap="round"/>
<path d="M33.9922 76L48.4153 73.5L62.5 64.5L81.5 71.5L103 58L124.5 50" stroke="#AE70FF" stroke-width="1.26596" stroke-linecap="round"/>
<path d="M30.3453 33.6454V32.6867H35.3824V33.6454H33.431V39H32.2966V33.6454H30.3453ZM37.6828 39.0925C37.2204 39.0925 36.8197 38.9908 36.4806 38.7873C36.1415 38.5838 35.8784 38.2992 35.6914 37.9334C35.5065 37.5676 35.414 37.1401 35.414 36.651C35.414 36.1619 35.5065 35.7334 35.6914 35.3655C35.8784 34.9976 36.1415 34.712 36.4806 34.5085C36.8197 34.3051 37.2204 34.2033 37.6828 34.2033C38.1452 34.2033 38.546 34.3051 38.8851 34.5085C39.2242 34.712 39.4862 34.9976 39.6712 35.3655C39.8582 35.7334 39.9517 36.1619 39.9517 36.651C39.9517 37.1401 39.8582 37.5676 39.6712 37.9334C39.4862 38.2992 39.2242 38.5838 38.8851 38.7873C38.546 38.9908 38.1452 39.0925 37.6828 39.0925ZM37.689 38.1985C37.9397 38.1985 38.1493 38.1297 38.3179 37.992C38.4864 37.8522 38.6117 37.6652 38.694 37.4309C38.7782 37.1966 38.8203 36.9356 38.8203 36.6479C38.8203 36.3581 38.7782 36.0961 38.694 35.8618C38.6117 35.6255 38.4864 35.4374 38.3179 35.2977C38.1493 35.1579 37.9397 35.0881 37.689 35.0881C37.4321 35.0881 37.2184 35.1579 37.0478 35.2977C36.8793 35.4374 36.7529 35.6255 36.6686 35.8618C36.5864 36.0961 36.5453 36.3581 36.5453 36.6479C36.5453 36.9356 36.5864 37.1966 36.6686 37.4309C36.7529 37.6652 36.8793 37.8522 37.0478 37.992C37.2184 38.1297 37.4321 38.1985 37.689 38.1985ZM43.2633 34.265V35.1281H40.5413V34.265H43.2633ZM41.2133 33.1306H42.3292V37.5758C42.3292 37.7258 42.3518 37.8409 42.397 37.9211C42.4443 37.9992 42.506 38.0526 42.582 38.0814C42.658 38.1101 42.7423 38.1245 42.8348 38.1245C42.9046 38.1245 42.9684 38.1194 43.0259 38.1091C43.0855 38.0988 43.1307 38.0896 43.1615 38.0814L43.3496 38.9538C43.29 38.9743 43.2047 38.9969 43.0937 39.0216C42.9848 39.0462 42.8512 39.0606 42.693 39.0647C42.4135 39.073 42.1617 39.0308 41.9377 38.9383C41.7137 38.8438 41.5359 38.6979 41.4044 38.5006C41.2749 38.3033 41.2112 38.0567 41.2133 37.7608V33.1306ZM45.5591 39.0956C45.2591 39.0956 44.9888 39.0421 44.7484 38.9353C44.51 38.8263 44.3209 38.666 44.1811 38.4544C44.0434 38.2427 43.9746 37.9817 43.9746 37.6714C43.9746 37.4042 44.0239 37.1833 44.1226 37.0086C44.2212 36.8339 44.3558 36.6941 44.5264 36.5893C44.697 36.4845 44.8891 36.4054 45.1029 36.352C45.3186 36.2965 45.5416 36.2564 45.7718 36.2317C46.0492 36.203 46.2743 36.1773 46.4469 36.1547C46.6195 36.13 46.7449 36.093 46.823 36.0437C46.9032 35.9923 46.9432 35.9132 46.9432 35.8063V35.7878C46.9432 35.5556 46.8744 35.3758 46.7367 35.2484C46.599 35.121 46.4007 35.0572 46.1417 35.0572C45.8684 35.0572 45.6516 35.1168 45.4913 35.236C45.333 35.3552 45.2262 35.496 45.1707 35.6584L44.1287 35.5104C44.2109 35.2227 44.3466 34.9822 44.5356 34.789C44.7247 34.5938 44.9559 34.4479 45.2293 34.3513C45.5026 34.2527 45.8047 34.2033 46.1356 34.2033C46.3637 34.2033 46.5908 34.2301 46.8168 34.2835C47.0429 34.3369 47.2494 34.4253 47.4365 34.5486C47.6235 34.6698 47.7735 34.8353 47.8865 35.0449C48.0016 35.2545 48.0592 35.5166 48.0592 35.831V39H46.9864V38.3496H46.9494C46.8816 38.4811 46.786 38.6044 46.6627 38.7195C46.5414 38.8325 46.3883 38.924 46.2034 38.9938C46.0205 39.0617 45.8057 39.0956 45.5591 39.0956ZM45.8489 38.2756C46.0729 38.2756 46.2671 38.2314 46.4315 38.143C46.5959 38.0526 46.7223 37.9334 46.8107 37.7854C46.9011 37.6375 46.9463 37.4761 46.9463 37.3014V36.7435C46.9114 36.7722 46.8518 36.799 46.7675 36.8236C46.6853 36.8483 46.5928 36.8699 46.4901 36.8884C46.3873 36.9069 46.2856 36.9233 46.1849 36.9377C46.0842 36.9521 45.9968 36.9644 45.9229 36.9747C45.7564 36.9973 45.6074 37.0343 45.4759 37.0857C45.3443 37.137 45.2406 37.209 45.1645 37.3014C45.0885 37.3919 45.0505 37.509 45.0505 37.6529C45.0505 37.8584 45.1255 38.0135 45.2755 38.1184C45.4255 38.2232 45.6166 38.2756 45.8489 38.2756ZM50.2972 32.6867V39H49.1813V32.6867H50.2972ZM57.0783 34.4222C57.0496 34.153 56.9283 33.9434 56.7146 33.7933C56.5029 33.6433 56.2275 33.5683 55.8884 33.5683C55.65 33.5683 55.4455 33.6043 55.275 33.6762C55.1044 33.7481 54.9739 33.8457 54.8835 33.9691C54.793 34.0924 54.7468 34.2331 54.7447 34.3914C54.7447 34.5229 54.7745 34.637 54.8341 34.7336C54.8958 34.8301 54.979 34.9124 55.0838 34.9802C55.1886 35.0459 55.3048 35.1014 55.4322 35.1466C55.5596 35.1919 55.688 35.2299 55.8175 35.2607L56.4094 35.4087C56.6478 35.4642 56.8769 35.5392 57.0968 35.6337C57.3188 35.7282 57.5171 35.8474 57.6918 35.9913C57.8685 36.1352 58.0083 36.3088 58.111 36.5123C58.2138 36.7157 58.2652 36.9541 58.2652 37.2275C58.2652 37.5974 58.1706 37.9231 57.9816 38.2047C57.7925 38.4842 57.5192 38.703 57.1616 38.8613C56.806 39.0175 56.3755 39.0956 55.8699 39.0956C55.3787 39.0956 54.9523 39.0195 54.5906 38.8674C54.231 38.7154 53.9494 38.4934 53.746 38.2016C53.5445 37.9098 53.4356 37.5542 53.4192 37.135H54.5444C54.5608 37.3549 54.6286 37.5378 54.7478 37.6837C54.867 37.8296 55.0222 37.9385 55.2133 38.0105C55.4065 38.0824 55.6223 38.1184 55.8607 38.1184C56.1093 38.1184 56.3272 38.0814 56.5142 38.0074C56.7033 37.9313 56.8512 37.8265 56.9581 37.6929C57.065 37.5573 57.1194 37.3991 57.1215 37.2182C57.1194 37.0538 57.0711 36.9182 56.9766 36.8113C56.8821 36.7024 56.7495 36.6119 56.5789 36.54C56.4104 36.466 56.2131 36.4003 55.9871 36.3427L55.2688 36.1578C54.7489 36.0242 54.3378 35.8217 54.0357 35.5505C53.7357 35.2771 53.5857 34.9144 53.5857 34.4623C53.5857 34.0903 53.6864 33.7646 53.8878 33.4851C54.0912 33.2056 54.3676 32.9888 54.717 32.8346C55.0664 32.6784 55.462 32.6003 55.9038 32.6003C56.3518 32.6003 56.7444 32.6784 57.0814 32.8346C57.4205 32.9888 57.6867 33.2035 57.8798 33.4789C58.073 33.7522 58.1727 34.0667 58.1789 34.4222H57.0783ZM60.598 39.0956C60.2979 39.0956 60.0277 39.0421 59.7872 38.9353C59.5489 38.8263 59.3598 38.666 59.22 38.4544C59.0823 38.2427 59.0135 37.9817 59.0135 37.6714C59.0135 37.4042 59.0628 37.1833 59.1615 37.0086C59.2601 36.8339 59.3947 36.6941 59.5653 36.5893C59.7359 36.4845 59.928 36.4054 60.1418 36.352C60.3575 36.2965 60.5805 36.2564 60.8107 36.2317C61.0881 36.203 61.3132 36.1773 61.4858 36.1547C61.6584 36.13 61.7838 36.093 61.8619 36.0437C61.942 35.9923 61.9821 35.9132 61.9821 35.8063V35.7878C61.9821 35.5556 61.9133 35.3758 61.7756 35.2484C61.6379 35.121 61.4396 35.0572 61.1806 35.0572C60.9073 35.0572 60.6905 35.1168 60.5302 35.236C60.3719 35.3552 60.2651 35.496 60.2096 35.6584L59.1676 35.5104C59.2498 35.2227 59.3855 34.9822 59.5745 34.789C59.7636 34.5938 59.9948 34.4479 60.2681 34.3513C60.5415 34.2527 60.8436 34.2033 61.1745 34.2033C61.4026 34.2033 61.6297 34.2301 61.8557 34.2835C62.0818 34.3369 62.2883 34.4253 62.4754 34.5486C62.6624 34.6698 62.8124 34.8353 62.9254 35.0449C63.0405 35.2545 63.0981 35.5166 63.0981 35.831V39H62.0253V38.3496H61.9883C61.9205 38.4811 61.8249 38.6044 61.7016 38.7195C61.5803 38.8325 61.4272 38.924 61.2423 38.9938C61.0594 39.0617 60.8446 39.0956 60.598 39.0956ZM60.8878 38.2756C61.1118 38.2756 61.306 38.2314 61.4704 38.143C61.6348 38.0526 61.7612 37.9334 61.8496 37.7854C61.94 37.6375 61.9852 37.4761 61.9852 37.3014V36.7435C61.9503 36.7722 61.8907 36.799 61.8064 36.8236C61.7242 36.8483 61.6317 36.8699 61.529 36.8884C61.4262 36.9069 61.3245 36.9233 61.2238 36.9377C61.1231 36.9521 61.0357 36.9644 60.9618 36.9747C60.7953 36.9973 60.6463 37.0343 60.5148 37.0857C60.3832 37.137 60.2795 37.209 60.2034 37.3014C60.1274 37.3919 60.0894 37.509 60.0894 37.6529C60.0894 37.8584 60.1644 38.0135 60.3144 38.1184C60.4644 38.2232 60.6555 38.2756 60.8878 38.2756ZM65.3361 32.6867V39H64.2202V32.6867H65.3361ZM68.5798 39.0925C68.1051 39.0925 67.6951 38.9938 67.3499 38.7965C67.0066 38.5972 66.7426 38.3156 66.5576 37.9519C66.3726 37.5861 66.2802 37.1555 66.2802 36.6602C66.2802 36.1732 66.3726 35.7457 66.5576 35.3778C66.7446 35.0079 67.0056 34.7202 67.3406 34.5147C67.6756 34.3071 68.0691 34.2033 68.5213 34.2033C68.8131 34.2033 69.0885 34.2506 69.3474 34.3451C69.6084 34.4376 69.8386 34.5815 70.038 34.7767C70.2394 34.972 70.3976 35.2206 70.5127 35.5227C70.6278 35.8228 70.6853 36.1804 70.6853 36.5955V36.9377H66.8042V36.1855H69.6156C69.6136 35.9718 69.5673 35.7817 69.4769 35.6152C69.3865 35.4467 69.2601 35.3141 69.0977 35.2175C68.9374 35.121 68.7504 35.0727 68.5367 35.0727C68.3086 35.0727 68.1082 35.1281 67.9356 35.2391C67.7629 35.348 67.6283 35.4919 67.5317 35.6707C67.4372 35.8474 67.3889 36.0416 67.3868 36.2533V36.9099C67.3868 37.1853 67.4372 37.4217 67.5379 37.619C67.6386 37.8142 67.7794 37.9642 67.9602 38.069C68.1411 38.1718 68.3528 38.2232 68.5953 38.2232C68.7576 38.2232 68.9046 38.2006 69.0361 38.1553C69.1676 38.1081 69.2817 38.0392 69.3783 37.9488C69.4749 37.8584 69.5478 37.7464 69.5971 37.6128L70.6391 37.7299C70.5733 38.0053 70.448 38.2458 70.263 38.4513C70.0801 38.6547 69.8458 38.813 69.5601 38.926C69.2745 39.037 68.9477 39.0925 68.5798 39.0925ZM75.3718 35.5166L74.3545 35.6275C74.3257 35.5248 74.2754 35.4282 74.2034 35.3378C74.1336 35.2473 74.039 35.1744 73.9198 35.1189C73.8006 35.0634 73.6547 35.0357 73.4821 35.0357C73.2499 35.0357 73.0546 35.086 72.8964 35.1867C72.7402 35.2874 72.6631 35.4179 72.6652 35.5782C72.6631 35.7159 72.7135 35.8279 72.8162 35.9142C72.921 36.0005 73.0937 36.0714 73.3341 36.1269L74.1418 36.2996C74.5898 36.3962 74.9227 36.5493 75.1406 36.7589C75.3605 36.9685 75.4715 37.2429 75.4735 37.582C75.4715 37.88 75.3841 38.143 75.2115 38.3711C75.0409 38.5972 74.8035 38.7739 74.4994 38.9014C74.1952 39.0288 73.8458 39.0925 73.4513 39.0925C72.8717 39.0925 72.4052 38.9712 72.0517 38.7287C71.6982 38.4842 71.4876 38.144 71.4198 37.7084L72.508 37.6035C72.5573 37.8173 72.6621 37.9786 72.8224 38.0875C72.9827 38.1964 73.1913 38.2509 73.4482 38.2509C73.7133 38.2509 73.926 38.1964 74.0863 38.0875C74.2487 37.9786 74.3298 37.844 74.3298 37.6837C74.3298 37.5481 74.2774 37.436 74.1726 37.3477C74.0699 37.2593 73.9096 37.1915 73.6917 37.1442L72.884 36.9747C72.4299 36.8801 72.0939 36.7209 71.876 36.4969C71.6582 36.2708 71.5503 35.9851 71.5523 35.6399C71.5503 35.348 71.6294 35.0953 71.7897 34.8815C71.952 34.6657 72.1771 34.4993 72.4648 34.3821C72.7546 34.2629 73.0885 34.2033 73.4667 34.2033C74.0216 34.2033 74.4583 34.3215 74.7768 34.5578C75.0974 34.7942 75.2957 35.1138 75.3718 35.5166Z" fill="#13144D"/>
<rect x="35" y="84" width="11" height="14" rx="5.5" fill="#04DB8E"/>
<rect x="56" y="76" width="11" height="22" rx="5.5" fill="#04DB8E"/>
<rect x="77" y="79" width="11" height="19" rx="5.5" fill="#04DB8E"/>
<rect x="98" y="67" width="11" height="31" rx="5.5" fill="#04DB8E"/>
<rect x="119" y="59" width="11" height="39" rx="5.5" fill="#04DB8E"/>
<defs>
<filter id="filter0_d_10351_62209" x="25" y="119" width="135" height="83" filterUnits="userSpaceOnUse" color-interpolation-filters="sRGB">
<feFlood flood-opacity="0" result="BackgroundImageFix"/>
<feColorMatrix in="SourceAlpha" type="matrix" values="0 0 0 0 0 0 0 0 0 0 0 0 0 0 0 0 0 0 127 0" result="hardAlpha"/>
<feOffset/>
<feGaussianBlur stdDeviation="7.5"/>
<feComposite in2="hardAlpha" operator="out"/>
<feColorMatrix type="matrix" values="0 0 0 0 0 0 0 0 0 0 0 0 0 0 0 0 0 0 0.07 0"/>
<feBlend mode="normal" in2="BackgroundImageFix" result="effect1_dropShadow_10351_62209"/>
<feBlend mode="normal" in="SourceGraphic" in2="effect1_dropShadow_10351_62209" result="shape"/>
</filter>
<filter id="filter1_d_10351_62209" x="206" y="72" width="106" height="83" filterUnits="userSpaceOnUse" color-interpolation-filters="sRGB">
<feFlood flood-opacity="0" result="BackgroundImageFix"/>
<feColorMatrix in="SourceAlpha" type="matrix" values="0 0 0 0 0 0 0 0 0 0 0 0 0 0 0 0 0 0 127 0" result="hardAlpha"/>
<feOffset/>
<feGaussianBlur stdDeviation="7.5"/>
<feComposite in2="hardAlpha" operator="out"/>
<feColorMatrix type="matrix" values="0 0 0 0 0 0 0 0 0 0 0 0 0 0 0 0 0 0 0.07 0"/>
<feBlend mode="normal" in2="BackgroundImageFix" result="effect1_dropShadow_10351_62209"/>
<feBlend mode="normal" in="SourceGraphic" in2="effect1_dropShadow_10351_62209" result="shape"/>
</filter>
<filter id="filter2_d_10351_62209" x="0" y="0" width="163" height="129" filterUnits="userSpaceOnUse" color-interpolation-filters="sRGB">
<feFlood flood-opacity="0" result="BackgroundImageFix"/>
<feColorMatrix in="SourceAlpha" type="matrix" values="0 0 0 0 0 0 0 0 0 0 0 0 0 0 0 0 0 0 127 0" result="hardAlpha"/>
<feOffset/>
<feGaussianBlur stdDeviation="7.5"/>
<feComposite in2="hardAlpha" operator="out"/>
<feColorMatrix type="matrix" values="0 0 0 0 0 0 0 0 0 0 0 0 0 0 0 0 0 0 0.07 0"/>
<feBlend mode="normal" in2="BackgroundImageFix" result="effect1_dropShadow_10351_62209"/>
<feBlend mode="normal" in="SourceGraphic" in2="effect1_dropShadow_10351_62209" result="shape"/>
</filter>
</defs>
</svg>
