<svg width="40" height="40" viewBox="0 0 40 40" fill="none" xmlns="http://www.w3.org/2000/svg">
<rect width="40" height="40" rx="20" fill="#F1EEFF"/>
<g clip-path="url(#clip0_15269_12695)">
<path d="M16 12H29V14H16V12ZM12.5 14.5C12.1022 14.5 11.7206 14.342 11.4393 14.0607C11.158 13.7794 11 13.3978 11 13C11 12.6022 11.158 12.2206 11.4393 11.9393C11.7206 11.658 12.1022 11.5 12.5 11.5C12.8978 11.5 13.2794 11.658 13.5607 11.9393C13.842 12.2206 14 12.6022 14 13C14 13.3978 13.842 13.7794 13.5607 14.0607C13.2794 14.342 12.8978 14.5 12.5 14.5ZM12.5 21.5C12.1022 21.5 11.7206 21.342 11.4393 21.0607C11.158 20.7794 11 20.3978 11 20C11 19.6022 11.158 19.2206 11.4393 18.9393C11.7206 18.658 12.1022 18.5 12.5 18.5C12.8978 18.5 13.2794 18.658 13.5607 18.9393C13.842 19.2206 14 19.6022 14 20C14 20.3978 13.842 20.7794 13.5607 21.0607C13.2794 21.342 12.8978 21.5 12.5 21.5ZM12.5 28.4C12.1022 28.4 11.7206 28.242 11.4393 27.9607C11.158 27.6794 11 27.2978 11 26.9C11 26.5022 11.158 26.1206 11.4393 25.8393C11.7206 25.558 12.1022 25.4 12.5 25.4C12.8978 25.4 13.2794 25.558 13.5607 25.8393C13.842 26.1206 14 26.5022 14 26.9C14 27.2978 13.842 27.6794 13.5607 27.9607C13.2794 28.242 12.8978 28.4 12.5 28.4ZM16 19H29V21H16V19ZM16 26H29V28H16V26Z" fill="#680DE4"/>
</g>
<defs>
<clipPath id="clip0_15269_12695">
<rect width="24" height="24" fill="white" transform="translate(8 8)"/>
</clipPath>
</defs>
</svg>
