<svg width="48" height="48" viewBox="0 0 48 48" fill="none" xmlns="http://www.w3.org/2000/svg">
<circle cx="24" cy="24" r="24" fill="#F5F5F6"/>
<g clip-path="url(#clip0_13630_81567)">
<path d="M20 16H33V18H20V16ZM16.5 18.5C16.1022 18.5 15.7206 18.342 15.4393 18.0607C15.158 17.7794 15 17.3978 15 17C15 16.6022 15.158 16.2206 15.4393 15.9393C15.7206 15.658 16.1022 15.5 16.5 15.5C16.8978 15.5 17.2794 15.658 17.5607 15.9393C17.842 16.2206 18 16.6022 18 17C18 17.3978 17.842 17.7794 17.5607 18.0607C17.2794 18.342 16.8978 18.5 16.5 18.5ZM16.5 25.5C16.1022 25.5 15.7206 25.342 15.4393 25.0607C15.158 24.7794 15 24.3978 15 24C15 23.6022 15.158 23.2206 15.4393 22.9393C15.7206 22.658 16.1022 22.5 16.5 22.5C16.8978 22.5 17.2794 22.658 17.5607 22.9393C17.842 23.2206 18 23.6022 18 24C18 24.3978 17.842 24.7794 17.5607 25.0607C17.2794 25.342 16.8978 25.5 16.5 25.5ZM16.5 32.4C16.1022 32.4 15.7206 32.242 15.4393 31.9607C15.158 31.6794 15 31.2978 15 30.9C15 30.5022 15.158 30.1206 15.4393 29.8393C15.7206 29.558 16.1022 29.4 16.5 29.4C16.8978 29.4 17.2794 29.558 17.5607 29.8393C17.842 30.1206 18 30.5022 18 30.9C18 31.2978 17.842 31.6794 17.5607 31.9607C17.2794 32.242 16.8978 32.4 16.5 32.4ZM20 23H33V25H20V23ZM20 30H33V32H20V30Z" fill="#5A5A67"/>
</g>
<defs>
<clipPath id="clip0_13630_81567">
<rect width="24" height="24" fill="white" transform="translate(12 12)"/>
</clipPath>
</defs>
</svg>
