<svg width="268" height="279" viewBox="0 0 268 279" fill="none" xmlns="http://www.w3.org/2000/svg">
<g clip-path="url(#clip0_16269_62889)">
<path d="M163.313 84.5C189.136 84.5 210.063 105.75 210.063 135.5C210.063 195 146.313 229 125.063 241.75C103.813 229 40.0635 195 40.0635 135.5C40.0635 105.75 61.3135 84.5 86.8135 84.5C102.623 84.5 116.563 93 125.063 101.5C133.563 93 147.503 84.5 163.313 84.5ZM133.002 217.134C140.491 212.408 147.248 207.707 153.572 202.675C178.911 182.531 193.063 160.516 193.063 135.5C193.063 115.44 179.999 101.5 163.313 101.5C154.167 101.5 144.273 106.345 137.082 113.519L125.063 125.538L113.044 113.519C105.853 106.345 95.9595 101.5 86.8135 101.5C70.3235 101.5 57.0635 115.576 57.0635 135.5C57.0635 160.524 71.2245 182.531 96.546 202.675C102.878 207.707 109.636 212.408 117.124 217.126C119.666 218.732 122.182 220.27 125.063 221.987C127.945 220.27 130.461 218.732 133.002 217.134Z" fill="#F1EEFF"/>
</g>
<circle cx="54.5635" cy="160.5" r="54.5" fill="#B3F001"/>
<mask id="mask0_16269_62889" style="mask-type:alpha" maskUnits="userSpaceOnUse" x="0" y="106" width="110" height="109">
<circle cx="54.5635" cy="160.5" r="54.5" fill="#B3F001"/>
</mask>
<g mask="url(#mask0_16269_62889)">
<g clip-path="url(#clip1_16269_62889)">
<path d="M41.0607 189.136C41.0607 189.136 17.6822 186.772 12.9073 218.235L-5.93652 239.18L31.6582 243.148L41.0607 189.128V189.136Z" fill="#014550"/>
<path d="M74.0198 189.137H37.146C35.526 189.137 34.0299 190.067 33.3556 191.547C18.7363 223.53 15.907 261.753 15.3644 275.333C15.2481 278.224 17.3953 280.697 20.2788 280.953C33.2935 282.131 67.9194 284.898 81.6783 285.991C84.6471 286.232 87.1276 283.79 86.9415 280.813C85.9261 264.574 83.8952 217.616 83.6084 198.562C83.5309 193.322 79.2598 189.129 74.0198 189.129V189.137Z" fill="#014550"/>
<path d="M25.5806 214.422C25.5806 214.422 18.426 235.723 15.5734 275.294C15.3719 278.131 17.4725 280.62 20.3018 280.852L81.6625 285.991" stroke="#4D2E3C" stroke-width="0.821657" stroke-miterlimit="10"/>
<path d="M74.02 189.137L91.0035 309.998C91.4453 313.16 94.3211 315.401 97.4993 315.059L117.173 312.928C120.521 312.563 122.885 309.486 122.389 306.161L108.344 213.228C105.987 199.314 93.9413 189.129 79.8259 189.129H74.0278L74.02 189.137Z" fill="#014550"/>
<path d="M38.6809 163.469C42.2941 163.469 45.2232 160.54 45.2232 156.927C45.2232 153.314 42.2941 150.385 38.6809 150.385C35.0677 150.385 32.1387 153.314 32.1387 156.927C32.1387 160.54 35.0677 163.469 38.6809 163.469Z" fill="#FFF5E2"/>
<path d="M45.5023 167.145L45.1689 190.461C45.1147 197.019 49.6183 197.508 56.0675 197.508C61.5788 197.508 66.2917 195.895 66.9739 190.423L68.1908 165.223L45.5023 167.137V167.145Z" fill="#FFF5E2"/>
<path d="M45.2231 186.049L62.7415 172.926L45.4014 172.717L45.2231 186.049Z" fill="#014550"/>
<path d="M56.3932 176.445H47.2465C40.3787 176.445 34.8751 170.755 35.0999 163.895L35.72 144.927C36.0068 136.323 43.0607 129.494 51.6726 129.494C60.486 129.494 69.1754 136.641 69.1754 145.454L68.191 165.228C67.8809 171.515 62.6874 176.453 56.3932 176.453V176.445Z" fill="#FFF5E2"/>
<path d="M65.0591 157.609L68.0899 167.02L68.4077 161.439L65.0591 157.609Z" fill="#014550"/>
<path d="M44.231 155.502L43.1846 162.284H45.2775" stroke="#014550" stroke-width="0.852663" stroke-linecap="round" stroke-linejoin="round"/>
<path d="M52.4633 150.23C52.4633 150.23 48.9364 149.695 48.8511 151.586C48.8511 151.586 48.8201 152.865 51.9052 153.253C54.9903 153.641 55.7964 153.377 56.1065 152.183C56.4165 150.99 54.1221 150.307 52.4633 150.222V150.23Z" fill="#014550"/>
<path d="M38.9444 150.122C38.9444 150.122 41.8745 149.851 42.0683 151.641C42.0683 151.641 42.1768 152.851 39.6111 153.013C37.0453 153.176 36.2237 152.711 36.0066 151.727C35.7586 150.61 37.5492 150.091 38.9367 150.122H38.9444Z" fill="#014550"/>
<path d="M42.8047 164.207H52.6878C52.6878 164.207 52.7111 167.664 46.9672 167.672C43.1613 167.672 42.8047 164.207 42.8047 164.207Z" fill="#014550"/>
<path d="M48.8511 155.501C48.8511 155.501 50.5797 154.238 52.9128 155.501" stroke="#014550" stroke-width="0.852663" stroke-linecap="round" stroke-linejoin="round"/>
<path d="M37.5645 155.501C37.5645 155.501 38.7272 154.238 41.0604 155.501" stroke="#014550" stroke-width="0.852663" stroke-linecap="round" stroke-linejoin="round"/>
<path d="M72.0356 189.135H41.0607C41.0607 189.135 37.5648 199.948 52.8817 199.933C70.8574 199.909 72.0356 189.135 72.0356 189.135Z" fill="#FFF5E2"/>
<path d="M73.6012 139.836C73.6012 139.836 73.6012 133.836 67.8186 132.727C66.4079 132.456 64.9351 132.169 63.7259 131.945C63.5088 130.34 62.8422 128.821 61.2299 128.084C58.1138 126.658 55.269 127.48 53.1916 128.673C51.9824 126.17 49.9825 123.899 46.6804 123.999C39.4172 124.216 30.3015 130.17 34.3555 139.626C37.2701 146.417 50.9902 141.828 53.804 141.169C56.6178 140.51 57.9743 140.525 57.3541 144.269C56.8736 147.192 61.1679 147.688 62.9895 147.773L64.1212 155.129C64.1212 155.129 71.1285 155.951 69.9968 155.129C68.5705 154.098 71.0045 146.51 72.5393 144.409C73.516 143.076 73.5857 139.828 73.5857 139.828L73.6012 139.836Z" fill="#014550"/>
<path d="M70.4773 163.469C74.0905 163.469 77.0196 160.54 77.0196 156.927C77.0196 153.314 74.0905 150.385 70.4773 150.385C66.8641 150.385 63.9351 153.314 63.9351 156.927C63.9351 160.54 66.8641 163.469 70.4773 163.469Z" fill="#FFF5E2"/>
<path d="M68.1904 158.872C68.1904 158.872 68.1904 154.128 72.7251 154.872" stroke="#014550" stroke-width="0.852663" stroke-linecap="round" stroke-linejoin="round"/>
</g>
</g>
<path d="M197.038 153.45C199.544 150.193 204.456 150.193 206.962 153.45L211.263 159.042C213.044 161.358 216.191 162.133 218.844 160.91L225.252 157.958C228.984 156.238 233.333 158.521 234.038 162.57L235.248 169.52C235.749 172.398 238.175 174.547 241.093 174.698L248.138 175.061C252.242 175.273 255.033 179.315 253.775 183.228L251.617 189.944C250.723 192.726 251.872 195.756 254.385 197.245L260.455 200.841C263.991 202.936 264.583 207.812 261.651 210.692L256.619 215.636C254.534 217.683 254.144 220.9 255.677 223.387L259.38 229.392C261.538 232.89 259.796 237.482 255.862 238.67L249.108 240.709C246.311 241.553 244.47 244.22 244.672 247.135L245.161 254.173C245.445 258.273 241.769 261.53 237.733 260.753L230.806 259.42C227.937 258.868 225.067 260.374 223.892 263.049L221.054 269.507C219.4 273.27 214.631 274.445 211.419 271.882L205.904 267.482C203.62 265.66 200.38 265.66 198.096 267.482L192.582 271.882C189.369 274.445 184.6 273.27 182.947 269.507L180.108 263.049C178.933 260.374 176.064 258.868 173.195 259.42L166.267 260.753C162.231 261.53 158.555 258.273 158.839 254.173L159.328 247.135C159.53 244.22 157.689 241.553 154.892 240.709L148.139 238.67C144.204 237.482 142.463 232.89 144.62 229.392L148.323 223.387C149.856 220.9 149.466 217.683 147.382 215.636L142.349 210.692C139.418 207.812 140.01 202.936 143.545 200.841L149.615 197.245C152.128 195.756 153.277 192.726 152.384 189.944L150.225 183.228C148.968 179.315 151.758 175.273 155.862 175.061L162.907 174.698C165.825 174.547 168.251 172.398 168.752 169.52L169.962 162.57C170.667 158.521 175.016 156.238 178.749 157.958L185.156 160.91C187.809 162.133 190.956 161.358 192.737 159.042L197.038 153.45Z" fill="#04DB8E"/>
<mask id="mask1_16269_62889" style="mask-type:alpha" maskUnits="userSpaceOnUse" x="140" y="151" width="124" height="123">
<path d="M197.038 153.45C199.544 150.193 204.456 150.193 206.962 153.45L211.263 159.042C213.044 161.358 216.191 162.133 218.844 160.91L225.252 157.958C228.984 156.238 233.333 158.521 234.038 162.57L235.248 169.52C235.749 172.398 238.175 174.547 241.093 174.698L248.138 175.061C252.242 175.273 255.033 179.315 253.775 183.228L251.617 189.944C250.723 192.726 251.872 195.756 254.385 197.245L260.455 200.841C263.991 202.936 264.583 207.812 261.651 210.692L256.619 215.636C254.534 217.683 254.144 220.9 255.677 223.387L259.38 229.392C261.538 232.89 259.796 237.482 255.862 238.67L249.108 240.709C246.311 241.553 244.47 244.22 244.672 247.135L245.161 254.173C245.445 258.273 241.769 261.53 237.733 260.753L230.806 259.42C227.937 258.868 225.067 260.374 223.892 263.049L221.054 269.507C219.4 273.27 214.631 274.445 211.419 271.882L205.904 267.482C203.62 265.66 200.38 265.66 198.096 267.482L192.582 271.882C189.369 274.445 184.6 273.27 182.947 269.507L180.108 263.049C178.933 260.374 176.064 258.868 173.195 259.42L166.267 260.753C162.231 261.53 158.555 258.273 158.839 254.173L159.328 247.135C159.53 244.22 157.689 241.553 154.892 240.709L148.139 238.67C144.204 237.482 142.463 232.89 144.62 229.392L148.323 223.387C149.856 220.9 149.466 217.683 147.382 215.636L142.349 210.692C139.418 207.812 140.01 202.936 143.545 200.841L149.615 197.245C152.128 195.756 153.277 192.726 152.384 189.944L150.225 183.228C148.968 179.315 151.758 175.273 155.862 175.061L162.907 174.698C165.825 174.547 168.251 172.398 168.752 169.52L169.962 162.57C170.667 158.521 175.016 156.238 178.749 157.958L185.156 160.91C187.809 162.133 190.956 161.358 192.737 159.042L197.038 153.45Z" fill="#04DB8E"/>
</mask>
<g mask="url(#mask1_16269_62889)">
<g clip-path="url(#clip2_16269_62889)">
<path d="M208.916 221.675C225.392 216.988 236.012 203.567 232.635 191.699C229.259 179.831 213.166 174.01 196.69 178.697C180.214 183.384 169.595 196.804 172.971 208.672C176.347 220.54 192.441 226.362 208.916 221.675Z" fill="#AE70FF"/>
<path d="M233.035 222.234L228.172 222.655C227.241 220.267 226.263 218.078 225.192 215.655C225.62 218.037 225.701 220.484 225.438 222.889L189.078 226.021C187.756 223.738 186.638 221.303 185.724 218.851C185.268 221.309 185.338 223.861 185.929 226.296L181.85 226.647C180.861 224.142 180.258 221.444 180.416 218.757C180.58 216.064 181.551 213.378 183.389 211.405C184.226 210.51 185.25 209.743 185.836 208.666C186.392 207.642 186.497 206.442 186.556 205.277C186.684 202.661 186.632 200.009 187.223 197.451C188.001 194.068 189.921 190.96 192.602 188.748C195.277 186.535 198.695 185.23 202.16 185.101C203.167 184.071 207.961 183.819 209.377 184.054C211.958 184.475 214.815 184.744 217.22 185.769C219.632 186.793 221.429 188.561 222.828 190.779C224.771 193.846 222.219 198.072 223.114 201.595C223.39 202.661 223.747 203.738 224.408 204.622C225.497 206.079 227.253 206.84 228.692 207.952C231.309 209.977 232.831 213.144 233.615 216.357C234.089 218.306 234.317 220.688 233.035 222.234Z" fill="#13144D"/>
<path d="M150.729 249.005C150.729 249.005 150.951 246.388 150.653 246.014C150.354 245.639 149.903 243.474 150.056 241.981C150.208 240.488 151.027 232.938 151.027 232.938C151.027 232.938 150.132 234.056 148.938 233.389C147.744 232.715 149.687 226.587 150.506 226.365C151.326 226.142 151.929 227.184 151.929 227.184C151.929 227.184 154.094 224.79 155.663 224.79C157.232 224.79 157.682 226.435 157.682 226.435C157.682 226.435 161.27 215.15 163.213 215.378C165.157 215.601 161.645 227.559 161.645 227.559L162.763 227.933C162.763 227.933 168.142 217.023 170.384 217.919C172.625 218.814 164.63 235.256 163.436 238.99C162.242 242.724 161.493 248.929 161.493 248.929L150.735 249.005H150.729Z" fill="#FFD5DC"/>
<path d="M151.999 238.539C151.941 238.539 151.882 238.516 151.835 238.469C151.753 238.381 151.759 238.241 151.853 238.159L154.217 236.005C153.796 234.448 152.233 228.273 153.796 227.723C155.37 227.178 159.825 233.921 160.703 235.285C160.767 235.384 160.738 235.525 160.638 235.589C160.539 235.654 160.404 235.624 160.334 235.525C158.233 232.265 154.844 227.822 153.942 228.144C153.047 228.46 153.831 232.938 154.68 236.022C154.703 236.104 154.68 236.186 154.615 236.245L152.151 238.487C152.11 238.528 152.058 238.545 152.005 238.545L151.999 238.539Z" fill="#13144D"/>
<path d="M151.507 232.113C151.367 232.113 151.226 232.084 151.086 232.019C150.816 231.896 150.623 231.68 150.506 231.358C150.155 230.398 150.606 228.812 150.975 228.039C151.507 226.921 154.135 224.837 155.616 224.58C156.904 224.358 157.665 225.657 157.881 226.377C157.916 226.494 157.852 226.617 157.735 226.652C157.618 226.687 157.495 226.623 157.46 226.506C157.436 226.435 156.921 224.802 155.692 225.013C154.352 225.247 151.858 227.208 151.373 228.226C151.021 228.97 150.629 230.427 150.916 231.206C150.992 231.411 151.103 231.545 151.261 231.615C152.052 231.972 153.017 230.375 153.023 230.363C153.082 230.258 153.216 230.222 153.322 230.287C153.427 230.345 153.462 230.48 153.398 230.585C153.357 230.656 152.496 232.113 151.495 232.113H151.507Z" fill="#13144D"/>
<path d="M149.652 233.875C149.347 233.875 149.061 233.769 148.797 233.559C147.556 232.569 148.651 228.636 149.693 226.968C150.021 226.447 150.395 226.184 150.817 226.184C151.554 226.184 152.087 227.032 152.11 227.073C152.174 227.179 152.139 227.313 152.04 227.378C151.94 227.442 151.8 227.413 151.735 227.307C151.618 227.12 151.22 226.628 150.817 226.628C150.559 226.628 150.307 226.822 150.067 227.208C149.049 228.835 148.153 232.493 149.072 233.219C149.289 233.395 149.523 233.465 149.769 233.43C150.424 233.342 150.992 232.593 150.998 232.587L151.32 231.832C151.367 231.721 151.501 231.668 151.607 231.721C151.718 231.767 151.771 231.896 151.718 232.007L151.367 232.804C151.314 232.885 150.659 233.752 149.816 233.863C149.757 233.869 149.699 233.875 149.64 233.875H149.652Z" fill="#13144D"/>
<path d="M259 289.493V295.878H183.489L183.477 294.989L183.465 293.531L183.395 286.952L183.383 285.653L183.354 283.23C183.354 283.23 183.325 283.253 183.266 283.294C183.202 283.347 183.102 283.417 182.968 283.516C180.299 285.471 164.337 296.651 152.865 293.192C150.296 292.413 148.3 291.161 146.76 289.627V255.445C148.036 251.394 149.078 248.158 149.078 248.158L150.77 248.257H150.781L161.493 248.883L162.827 248.959L164.226 263.107C164.226 263.107 177.372 241.386 184.349 238.395C185.719 237.809 187.118 237.241 188.482 236.703C189.535 236.293 190.577 235.901 191.56 235.538C195.195 234.186 198.145 233.209 198.906 232.957L199.093 232.893L219.755 233.068H220.352L223.606 233.103C223.606 233.103 225.239 233.244 227.633 233.642C228.23 233.735 228.868 233.852 229.547 233.981C229.77 234.022 229.998 234.069 230.232 234.116C230.572 234.186 230.917 234.256 231.268 234.332C231.701 234.432 232.146 234.531 232.597 234.643C232.708 234.672 232.813 234.695 232.924 234.725C233.159 234.783 233.399 234.842 233.633 234.906C233.826 234.959 234.025 235.011 234.218 235.064C234.68 235.193 235.137 235.327 235.599 235.468C235.623 235.48 235.652 235.486 235.675 235.491C237.074 235.925 238.45 236.434 239.743 237.025C242.149 238.108 244.233 239.477 245.491 241.186C246.937 243.147 248.324 246.086 249.624 249.633C249.776 250.036 249.928 250.458 250.074 250.879C250.121 251.008 250.162 251.131 250.209 251.26C250.262 251.412 250.308 251.564 250.367 251.716C250.367 251.722 250.367 251.734 250.367 251.74C250.414 251.886 250.461 252.027 250.513 252.173C250.531 252.231 250.548 252.284 250.566 252.343C250.671 252.659 250.777 252.981 250.882 253.303C254.37 264.207 257.192 278.916 258.965 289.493H259Z" fill="#F1EEFF"/>
<path d="M240.75 292.476C240.838 293.6 240.949 294.73 241.095 295.877H183.214V295.585C183.26 295.321 183.301 295.052 183.336 294.783C183.395 294.367 183.436 293.951 183.465 293.53C183.495 293.103 183.512 292.676 183.518 292.242C183.518 292.178 183.518 292.119 183.518 292.055C183.518 291.891 183.518 291.727 183.518 291.563C183.518 291.347 183.518 291.136 183.518 290.92C183.518 290.762 183.518 290.603 183.506 290.445C183.506 290.182 183.495 289.919 183.483 289.649C183.483 289.585 183.483 289.527 183.483 289.462C183.454 288.637 183.43 287.8 183.395 286.951C183.383 286.53 183.366 286.114 183.348 285.687C183.325 284.897 183.296 284.095 183.266 283.293C183.149 279.933 183.032 276.527 182.927 273.343C183.02 273.272 183.114 273.196 183.202 273.12C185.356 271.323 186.784 268.76 187.609 266.079C188.47 263.281 188.721 260.337 188.879 257.41C189.254 250.509 189.119 243.585 188.481 236.702C189.535 236.292 190.577 235.9 191.56 235.537C192.38 238.686 193.158 241.929 194.007 245.019C194.399 246.459 194.803 247.899 195.23 249.339C195.259 249.444 195.289 249.549 195.324 249.649C195.482 250.176 195.646 250.697 195.815 251.218C195.815 251.253 195.833 251.288 195.851 251.323C195.851 251.335 195.851 251.352 195.862 251.364C195.862 251.393 195.88 251.422 195.891 251.452C195.891 251.458 195.891 251.463 195.891 251.475C195.891 251.475 195.891 251.481 195.891 251.487C195.944 251.651 195.997 251.809 196.055 251.973C196.055 251.973 196.055 251.996 196.067 252.008C196.067 252.02 196.067 252.025 196.079 252.037C196.079 252.049 196.079 252.055 196.079 252.066C196.079 252.078 196.079 252.084 196.09 252.096C196.131 252.219 196.172 252.295 196.219 252.412V252.464C196.617 253.641 197.062 254.788 197.554 255.918C198.449 257.978 199.515 259.951 200.832 261.771C204.39 266.688 210.302 270.363 216.313 269.556C217.653 269.374 218.97 268.976 220.141 268.291C221.446 267.53 222.529 266.436 223.448 265.236C225.122 263.053 226.246 260.524 227.024 257.879C227.253 257.112 227.452 256.339 227.627 255.561C227.651 255.449 227.674 255.344 227.697 255.233C227.809 254.712 227.908 254.191 228.002 253.67C228.019 253.588 228.031 253.5 228.049 253.418V253.407C228.195 252.54 228.324 251.668 228.423 250.796C228.851 247.167 228.897 243.497 228.564 239.857C228.523 239.406 228.476 238.961 228.423 238.51C228.365 238.001 228.295 237.492 228.218 236.983C228.148 236.491 228.066 235.999 227.978 235.508C227.873 234.881 227.75 234.261 227.616 233.641C228.213 233.734 228.851 233.851 229.53 233.98C229.752 234.021 229.98 234.068 230.214 234.115C230.554 234.185 230.899 234.255 231.25 234.331C231.683 234.431 232.128 234.53 232.579 234.642C232.632 235.016 232.679 235.391 232.731 235.765L232.766 236.029C232.766 236.029 232.766 236.07 232.778 236.093V236.105C232.778 236.175 232.796 236.245 232.807 236.316C232.807 236.392 232.825 236.462 232.837 236.538L232.872 236.766C232.883 236.895 232.907 237.03 232.924 237.158C233.03 237.931 233.141 238.698 233.252 239.47V239.482C233.82 243.263 234.458 247.021 235.248 250.755C235.295 250.978 235.342 251.2 235.394 251.422C235.634 252.546 235.892 253.67 236.167 254.788C236.261 255.169 236.354 255.537 236.454 255.912C236.729 257.006 237.022 258.089 237.338 259.172C237.718 260.501 238.128 261.824 238.573 263.135C240.293 268.262 242.945 273.108 240.732 278.048C240.358 278.874 239.854 280.226 239.685 281.116C239.55 281.818 239.977 283.316 240.059 284.025C240.071 284.106 240.077 284.194 240.083 284.276C240.165 285.043 240.235 285.798 240.293 286.541V286.565C240.346 287.197 240.387 287.812 240.434 288.426C240.463 288.889 240.492 289.333 240.522 289.784C240.586 290.691 240.645 291.581 240.721 292.476H240.75Z" fill="#13144D"/>
<path d="M193.433 272.885C192.625 271.907 192.057 270.708 191.981 269.443C191.97 269.227 192.011 268.952 192.221 268.893C192.379 268.852 192.526 268.969 192.649 269.08C193.948 270.274 195.323 271.878 195.95 273.552C196.804 275.829 193.989 273.552 193.433 272.879V272.885Z" fill="#FFF5E2"/>
<path d="M195.212 271.61C195.382 270.357 195.88 269.122 196.758 268.209C196.91 268.051 197.144 267.899 197.325 268.016C197.46 268.104 197.477 268.291 197.477 268.455C197.477 270.223 197.232 272.312 196.43 273.916C195.335 276.088 195.095 272.476 195.218 271.61H195.212Z" fill="#FFF5E2"/>
<path d="M197.027 271.844C197.952 270.978 199.111 270.334 200.369 270.176C200.586 270.146 200.867 270.176 200.931 270.38C200.984 270.533 200.872 270.691 200.773 270.819C199.661 272.195 198.151 273.664 196.512 274.396C194.294 275.391 196.383 272.441 197.021 271.844H197.027Z" fill="#FFF5E2"/>
<path d="M192.075 273.073C193.339 272.985 194.645 273.213 195.722 273.886C195.903 274.003 196.108 274.196 196.026 274.401C195.968 274.553 195.786 274.606 195.628 274.641C193.901 275.004 191.8 275.191 190.068 274.735C187.715 274.109 191.203 273.137 192.075 273.073Z" fill="#FFF5E2"/>
<path d="M230.765 254.713C230.776 254.789 230.776 254.859 230.765 254.912C230.747 255.029 230.677 255.093 230.577 255.117C230.577 255.117 230.574 255.117 230.566 255.117C230.566 255.117 230.531 255.122 230.507 255.122C230.449 255.122 230.384 255.111 230.314 255.087C230.285 255.081 230.255 255.076 230.226 255.064C230.226 255.064 230.185 255.046 230.168 255.035C230.103 255.011 230.027 254.976 229.957 254.941C229.787 254.847 229.6 254.73 229.413 254.601C229.015 254.32 228.611 253.975 228.342 253.718C228.242 253.618 228.16 253.53 228.102 253.46C228.09 253.448 228.078 253.431 228.072 253.419V253.407C228.219 252.541 228.347 251.669 228.447 250.797C228.968 251.365 229.454 251.985 229.857 252.635C230.133 253.062 230.367 253.507 230.548 253.958L230.618 254.133C230.659 254.244 230.694 254.35 230.718 254.438C230.73 254.49 230.741 254.537 230.747 254.578C230.759 254.625 230.765 254.672 230.771 254.713H230.765Z" fill="#AE70FF"/>
<path d="M231.614 258.571C230.806 257.593 230.238 256.393 230.162 255.129C230.15 254.912 230.191 254.637 230.402 254.579C230.56 254.538 230.706 254.655 230.829 254.766C232.129 255.96 233.504 257.564 234.13 259.238C234.985 261.515 232.17 259.238 231.614 258.565V258.571Z" fill="#AE70FF"/>
<path d="M229.881 252.178C230.05 250.926 230.548 249.691 231.426 248.778C231.578 248.62 231.812 248.467 231.994 248.584C232.128 248.672 232.146 248.86 232.146 249.023C232.146 250.791 231.9 252.881 231.098 254.484C230.004 256.656 229.764 253.045 229.887 252.178H229.881Z" fill="#AE70FF"/>
<path d="M228.505 258.231C228.675 256.978 229.173 255.743 230.05 254.83C230.203 254.672 230.437 254.52 230.618 254.637C230.753 254.725 230.77 254.912 230.77 255.076C230.77 256.844 230.525 258.933 229.723 260.537C228.628 262.709 228.388 259.097 228.511 258.231H228.505Z" fill="#AE70FF"/>
<path d="M235.424 251.424C234.698 252.314 233.808 253.239 232.825 253.982C232.298 254.38 231.748 254.719 231.18 254.977L231.092 255.012C230.969 255.065 230.864 255.106 230.77 255.135C230.747 255.135 230.729 255.141 230.712 255.147C230.665 255.158 230.618 255.17 230.577 255.176C230.53 255.182 230.484 255.182 230.448 255.176C230.337 255.176 230.267 255.129 230.226 255.065C230.208 255.024 230.197 254.983 230.191 254.93C230.191 254.895 230.191 254.866 230.191 254.836C230.191 254.79 230.203 254.743 230.22 254.69C230.232 254.632 230.249 254.567 230.273 254.503C230.29 254.474 230.296 254.444 230.314 254.415C230.372 254.275 230.448 254.117 230.542 253.958C230.893 253.344 231.42 252.671 231.689 252.419C231.73 252.378 231.777 252.337 231.824 252.302C232.725 251.5 233.837 250.903 235.037 250.757C235.113 250.745 235.195 250.745 235.277 250.757C235.324 250.979 235.371 251.202 235.424 251.424Z" fill="#AE70FF"/>
<path d="M230.893 254.824C230.893 254.824 230.893 254.836 230.893 254.841C230.893 254.929 230.841 255.011 230.776 255.087C230.759 255.105 230.741 255.128 230.718 255.146L230.689 255.175L230.653 255.21C230.519 255.351 230.378 255.485 230.232 255.62C229.816 256.006 229.372 256.381 228.897 256.732C228.312 257.171 227.698 257.569 227.06 257.879C227.288 257.112 227.487 256.34 227.662 255.561C227.686 255.45 227.709 255.345 227.733 255.234C228.265 254.941 228.833 254.719 229.424 254.601C229.635 254.555 229.84 254.525 230.056 254.514C230.132 254.502 230.209 254.502 230.285 254.502C230.314 254.496 230.337 254.496 230.367 254.496C230.396 254.496 230.425 254.496 230.46 254.502C230.495 254.502 230.53 254.502 230.571 254.514C230.636 254.525 230.694 254.543 230.747 254.578C230.823 254.613 230.876 254.678 230.893 254.759C230.893 254.783 230.893 254.806 230.893 254.824Z" fill="#AE70FF"/>
<path d="M236.483 255.912C234.961 256.059 233.194 256.041 231.678 255.602C231.461 255.543 231.25 255.473 231.046 255.397C230.94 255.356 230.847 255.315 230.765 255.274C230.718 255.257 230.677 255.233 230.642 255.21C230.618 255.198 230.595 255.186 230.577 255.175C230.566 255.163 230.56 255.157 230.554 255.157C230.554 255.145 230.542 255.145 230.536 255.14C230.525 255.134 230.513 255.128 230.507 255.122C230.244 254.929 230.261 254.753 230.443 254.601C230.443 254.595 230.46 254.584 230.472 254.578C230.484 254.566 230.501 254.554 230.519 254.548C230.531 254.531 230.548 254.525 230.566 254.513C230.612 254.484 230.665 254.461 230.718 254.437C230.858 254.373 231.022 254.314 231.204 254.262C231.725 254.109 232.374 254.01 232.831 253.981C232.995 253.963 233.129 253.957 233.229 253.963C234.265 254.004 235.313 254.262 236.202 254.788C236.296 255.169 236.39 255.538 236.489 255.912H236.483Z" fill="#AE70FF"/>
<path d="M230.695 254.975C230.671 255.04 230.624 255.081 230.572 255.116C230.572 255.116 230.568 255.116 230.56 255.116C230.56 255.116 230.542 255.133 230.531 255.139C230.513 255.151 230.496 255.157 230.472 255.168C230.472 255.168 230.46 255.168 230.455 255.168C230.408 255.186 230.355 255.198 230.308 255.209C230.267 255.209 230.226 255.227 230.185 255.233C230.01 255.268 229.828 255.303 229.641 255.338C229.003 255.443 228.336 255.525 227.663 255.555C227.686 255.443 227.709 255.338 227.733 255.227C227.844 254.706 227.944 254.185 228.037 253.664C228.143 253.676 228.248 253.687 228.353 253.711C228.921 253.799 229.477 253.968 229.992 254.226C230.109 254.279 230.215 254.343 230.326 254.407C230.355 254.425 230.378 254.437 230.402 254.454C230.419 254.466 230.443 254.478 230.46 254.495C230.478 254.507 230.501 254.524 230.525 254.542C230.536 254.56 230.554 254.571 230.572 254.589C230.583 254.595 230.589 254.606 230.601 254.618C230.695 254.723 230.753 254.841 230.706 254.969L230.695 254.975Z" fill="#AE70FF"/>
<path d="M196.067 251.973C196.043 251.985 196.014 251.985 195.985 251.985C195.926 251.985 195.856 251.973 195.78 251.95C195.757 251.95 195.739 251.938 195.716 251.926C195.692 251.926 195.669 251.909 195.645 251.903C195.581 251.874 195.517 251.844 195.446 251.809C195.271 251.716 195.083 251.598 194.896 251.464C194.498 251.183 194.094 250.843 193.825 250.58C193.726 250.481 193.644 250.393 193.585 250.322C192.777 249.351 192.204 248.151 192.128 246.887C192.116 246.67 192.163 246.389 192.368 246.336C192.526 246.296 192.678 246.413 192.795 246.524C193.661 247.314 194.551 248.286 195.242 249.333C195.277 249.386 195.306 249.433 195.335 249.48V249.644C195.493 250.17 195.657 250.691 195.827 251.212C195.827 251.247 195.844 251.282 195.862 251.318C195.862 251.329 195.862 251.347 195.874 251.358C195.874 251.388 195.891 251.417 195.903 251.446C195.903 251.452 195.903 251.458 195.903 251.47C195.903 251.47 195.915 251.464 195.92 251.47C195.92 251.47 195.92 251.476 195.909 251.481C195.961 251.645 196.014 251.803 196.073 251.967L196.067 251.973Z" fill="#B3F001"/>
<path d="M197.571 255.917C197.36 255.736 197.191 255.56 197.091 255.443C196.711 254.981 196.383 254.471 196.137 253.927C195.926 253.471 195.774 252.991 195.698 252.493C195.675 252.364 195.657 252.235 195.651 252.107C195.651 252.072 195.64 252.036 195.64 252.001C195.64 251.972 195.64 251.937 195.64 251.908C195.64 251.861 195.64 251.814 195.651 251.767L195.669 251.697C195.692 251.627 195.722 251.562 195.768 251.521C195.798 251.486 195.833 251.463 195.88 251.451H195.891C195.891 251.451 195.891 251.463 195.891 251.475C195.891 251.475 195.903 251.469 195.909 251.475C195.909 251.475 195.909 251.48 195.897 251.486C195.95 251.65 196.003 251.808 196.061 251.972C196.061 251.972 196.061 251.996 196.073 252.007C196.073 252.019 196.073 252.025 196.084 252.036C196.084 252.048 196.084 252.054 196.084 252.066C196.096 252.072 196.102 252.077 196.114 252.083C196.114 252.089 196.102 252.095 196.096 252.095C196.137 252.218 196.178 252.294 196.225 252.411V252.464C196.623 253.64 197.068 254.787 197.559 255.917H197.571Z" fill="#B3F001"/>
<path d="M196.079 252.007C196.079 252.007 196.05 252.019 196.032 252.025C196.003 252.037 195.973 252.042 195.944 252.042H195.927C195.868 252.037 195.815 252.001 195.769 251.955C195.733 251.914 195.698 251.861 195.663 251.797C195.663 251.791 195.652 251.779 195.646 251.767C195.628 251.726 195.611 251.685 195.599 251.639C195.564 251.562 195.54 251.475 195.517 251.381C195.493 251.293 195.47 251.2 195.453 251.1C195.365 250.638 195.324 250.082 195.324 249.648C195.482 250.175 195.646 250.696 195.815 251.217C195.815 251.252 195.833 251.287 195.851 251.322C195.851 251.334 195.851 251.352 195.862 251.363C195.862 251.393 195.88 251.422 195.891 251.451C195.891 251.457 195.891 251.463 195.891 251.475C195.891 251.475 195.903 251.469 195.909 251.475C195.909 251.475 195.909 251.48 195.897 251.486C195.95 251.65 196.003 251.808 196.061 251.972C196.061 251.972 196.061 251.996 196.073 252.007H196.079Z" fill="#B3F001"/>
<path d="M196.237 252.412V252.464C196.225 252.939 196.196 253.436 196.137 253.928C196.003 255.145 195.71 256.38 195.195 257.41C194.1 259.582 193.86 255.97 193.983 255.104C194.054 254.595 194.176 254.086 194.364 253.606C194.545 253.108 194.791 252.634 195.113 252.213C195.207 252.066 195.312 251.944 195.435 251.815C195.458 251.78 195.493 251.739 195.529 251.704C195.552 251.68 195.575 251.657 195.599 251.639C195.628 251.61 195.657 251.586 195.687 251.563C195.71 251.551 195.739 251.534 195.763 251.522C195.804 251.499 195.85 251.481 195.891 251.475C195.891 251.475 195.903 251.469 195.909 251.475C195.909 251.475 195.909 251.481 195.897 251.487C195.95 251.651 196.003 251.809 196.061 251.973C196.061 251.973 196.061 251.996 196.073 252.008C196.073 252.02 196.073 252.025 196.085 252.037C196.085 252.049 196.085 252.055 196.085 252.066C196.096 252.072 196.102 252.078 196.114 252.084C196.114 252.09 196.102 252.096 196.096 252.096C196.137 252.219 196.178 252.295 196.225 252.412H196.237Z" fill="#B3F001"/>
<path d="M196.091 252.038C196.091 252.038 196.067 252.044 196.056 252.044C196.015 252.05 195.98 252.05 195.95 252.044H195.933C195.816 252.044 195.74 252.003 195.71 251.933C195.681 251.898 195.669 251.851 195.669 251.798C195.669 251.769 195.669 251.734 195.669 251.699C195.669 251.652 195.681 251.611 195.693 251.564C195.71 251.506 195.728 251.441 195.757 251.371C195.757 251.348 195.775 251.318 195.792 251.289C195.792 251.266 195.81 251.242 195.822 251.219C195.822 251.254 195.839 251.289 195.857 251.324C195.857 251.336 195.857 251.353 195.868 251.365C195.868 251.394 195.886 251.424 195.898 251.453C195.898 251.459 195.898 251.465 195.898 251.476C195.898 251.476 195.909 251.47 195.915 251.476C195.915 251.476 195.915 251.482 195.904 251.488C195.956 251.652 196.009 251.81 196.067 251.974C196.067 251.974 196.067 251.997 196.079 252.009C196.079 252.021 196.079 252.026 196.091 252.038Z" fill="#B3F001"/>
<path d="M196.126 252.085C196.126 252.085 196.114 252.097 196.108 252.097C195.979 252.232 195.839 252.366 195.699 252.495C195.283 252.881 194.838 253.256 194.364 253.607C193.486 254.268 192.52 254.824 191.543 255.146C189.225 255.896 191.625 253.186 192.327 252.659C192.421 252.589 192.514 252.518 192.614 252.454C193.299 251.992 194.071 251.634 194.885 251.471C195.096 251.43 195.306 251.395 195.517 251.383C195.593 251.377 195.675 251.371 195.751 251.371C195.775 251.371 195.804 251.371 195.827 251.371H195.862C195.862 251.371 195.88 251.43 195.892 251.459C195.892 251.465 195.892 251.471 195.892 251.482C195.892 251.482 195.903 251.476 195.909 251.482C195.909 251.482 195.909 251.488 195.898 251.494C195.95 251.658 196.003 251.816 196.061 251.98C196.061 251.98 196.061 252.003 196.073 252.015C196.073 252.027 196.073 252.033 196.085 252.044C196.085 252.056 196.085 252.062 196.085 252.073C196.097 252.079 196.102 252.085 196.114 252.091L196.126 252.085Z" fill="#B3F001"/>
<path d="M196.096 252.066C196.096 252.066 196.067 252.048 196.055 252.042L196.038 252.025C196.038 252.025 196.02 252.013 196.014 252.007C196.014 252.007 195.997 251.996 195.991 251.99C195.739 251.802 195.751 251.633 195.921 251.486C195.973 251.65 196.026 251.808 196.084 251.972C196.084 251.972 196.084 251.996 196.096 252.007C196.096 252.019 196.096 252.025 196.108 252.037C196.108 252.048 196.108 252.054 196.108 252.066H196.096Z" fill="#B3F001"/>
<path d="M196.067 251.972C196.05 251.984 196.032 251.996 196.014 252.002C196.014 252.002 195.973 252.025 195.956 252.037H195.938C195.886 252.054 195.833 252.066 195.786 252.078C195.745 252.084 195.704 252.095 195.663 252.101C195.488 252.142 195.306 252.177 195.125 252.201C194.323 252.347 193.468 252.441 192.625 252.447C191.794 252.452 190.975 252.37 190.226 252.171C187.873 251.545 191.355 250.574 192.227 250.509C192.76 250.474 193.299 250.492 193.825 250.579C194.399 250.667 194.949 250.837 195.464 251.094C195.581 251.153 195.692 251.212 195.798 251.282C195.821 251.282 195.839 251.305 195.862 251.317C195.862 251.329 195.862 251.346 195.874 251.358C195.874 251.387 195.891 251.416 195.903 251.446C195.903 251.452 195.903 251.457 195.903 251.469C195.903 251.469 195.915 251.463 195.921 251.469C195.921 251.469 195.921 251.475 195.909 251.481C195.962 251.645 196.014 251.803 196.073 251.967L196.067 251.972Z" fill="#B3F001"/>
<path d="M218.888 276.229C218.081 275.251 217.513 274.051 217.437 272.787C217.425 272.571 217.466 272.295 217.677 272.237C217.835 272.196 217.981 272.313 218.104 272.424C219.404 273.618 220.779 275.222 221.405 276.896C222.26 279.173 219.445 276.896 218.888 276.223V276.229Z" fill="#FCBD63"/>
<path d="M220.674 274.948C220.843 273.695 221.341 272.46 222.219 271.547C222.371 271.389 222.605 271.237 222.787 271.354C222.921 271.442 222.939 271.629 222.939 271.793C222.939 273.561 222.693 275.65 221.891 277.254C220.797 279.425 220.557 275.814 220.68 274.948H220.674Z" fill="#FCBD63"/>
<path d="M232.837 236.316C232.837 236.392 232.854 236.462 232.866 236.538C232.813 236.521 232.761 236.492 232.702 236.462C232.526 236.369 232.339 236.252 232.152 236.123C231.76 235.842 231.362 235.502 231.092 235.239C230.993 235.14 230.911 235.052 230.852 234.981C230.63 234.706 230.419 234.42 230.244 234.115C230.583 234.185 230.928 234.256 231.28 234.332C231.713 234.431 232.158 234.531 232.608 234.642C232.661 235.017 232.708 235.391 232.76 235.766L232.796 236.029C232.796 236.029 232.796 236.07 232.807 236.094V236.105C232.807 236.176 232.825 236.246 232.837 236.316Z" fill="#04DB8E"/>
<path d="M232.807 236.094C232.807 236.094 232.796 236.053 232.79 236.03C232.766 235.942 232.743 235.848 232.725 235.749C232.661 235.398 232.62 235.005 232.603 234.643C232.655 235.017 232.702 235.392 232.755 235.766L232.79 236.03C232.79 236.03 232.79 236.071 232.802 236.094H232.807Z" fill="#04DB8E"/>
<path d="M233.281 239.471V239.483C233.118 240.396 232.86 241.286 232.468 242.058C231.373 244.23 231.139 240.618 231.256 239.752C231.326 239.243 231.449 238.734 231.631 238.254C231.806 237.762 232.052 237.288 232.374 236.867C232.468 236.726 232.573 236.592 232.696 236.463C232.725 236.428 232.761 236.387 232.796 236.352L232.831 236.316C232.831 236.392 232.848 236.463 232.86 236.539L232.895 236.767C232.907 236.896 232.93 237.03 232.948 237.159C233.053 237.932 233.164 238.699 233.276 239.471H233.281Z" fill="#04DB8E"/>
<path d="M232.954 237.159C232.544 237.534 232.105 237.908 231.637 238.253C230.759 238.915 229.799 239.477 228.821 239.793C228.739 239.822 228.657 239.846 228.587 239.857C228.546 239.407 228.499 238.962 228.447 238.511C228.851 238.002 229.342 237.504 229.606 237.311C229.705 237.235 229.805 237.165 229.91 237.1C230.595 236.632 231.356 236.287 232.158 236.123C232.368 236.076 232.579 236.047 232.796 236.029C232.796 236.029 232.796 236.07 232.807 236.094V236.105C232.807 236.176 232.825 236.246 232.837 236.316C232.837 236.392 232.854 236.462 232.866 236.539L232.901 236.767C232.913 236.896 232.936 237.03 232.954 237.159Z" fill="#04DB8E"/>
<path d="M232.866 236.539L232.901 236.767C232.731 236.802 232.556 236.837 232.38 236.867C231.59 237.001 230.741 237.095 229.904 237.101C229.336 237.107 228.775 237.072 228.236 236.984C228.166 236.492 228.084 236 227.996 235.509C228.576 235.321 229.19 235.193 229.495 235.169C230.021 235.134 230.56 235.152 231.087 235.24C231.654 235.327 232.205 235.497 232.72 235.749L232.755 235.766L232.79 236.03C232.79 236.03 232.79 236.071 232.802 236.094V236.106C232.802 236.176 232.819 236.246 232.831 236.317C232.831 236.393 232.848 236.463 232.86 236.539H232.866Z" fill="#04DB8E"/>
<path d="M193.392 234.887C193.392 234.887 196.026 246.161 210.372 245.534C221.476 245.048 223.612 233.102 223.612 233.102L217.829 232.095L217.665 229.737L216.939 222.643L216.811 221.39L197.87 215.314L199.099 232.891L193.398 234.882L193.392 234.887Z" fill="#FFD5DC"/>
<path d="M200.902 220.775C202.435 223.362 204.8 225.394 207.452 226.822C210.103 228.238 213.035 229.081 215.991 229.602C216.518 229.701 217.109 229.795 217.654 229.737L216.928 222.643C211.56 221.975 206.281 221.472 200.896 220.775H200.902Z" fill="#13144D"/>
<path d="M193.919 204.556C193.164 195.712 199.72 187.928 208.569 187.172C217.414 186.417 225.198 192.973 225.953 201.823C225.977 202.11 225.994 202.391 226 202.672C226.147 207.091 227.85 211.44 227.171 215.993C226.556 220.114 224.449 222.057 220.645 223.199C217.185 224.24 213.498 224.65 209.898 224.802C207.528 224.902 204.507 225.189 202.26 224.235C202.219 224.217 202.178 224.194 202.137 224.17C199.474 222.672 195.177 209.824 195.177 209.824L195.277 209.795C194.551 208.179 194.077 206.418 193.913 204.556H193.919Z" fill="#FFD5DC"/>
<path d="M215.137 214.377C216.354 214.067 217.367 213.242 218.397 212.522C218.731 212.287 219.076 212.059 219.474 211.977C219.872 211.895 220.328 211.989 220.574 212.311C220.885 212.715 220.744 213.329 220.405 213.71C220.059 214.084 219.568 214.283 219.088 214.465C217.876 214.927 216.383 214.734 215.137 214.377Z" fill="#B00020"/>
<path d="M216.278 215.389C216.963 215.986 217.706 216.612 218.602 216.718C219.298 216.805 220.036 216.542 220.522 216.033C220.668 215.881 220.791 215.711 220.861 215.512C221.037 214.997 220.779 214.406 220.346 214.078C219.919 213.744 219.357 213.633 218.813 213.621C217.736 213.592 216.173 213.861 215.283 214.488C215.564 214.821 215.95 215.096 216.278 215.389Z" fill="#B00020"/>
<path d="M206.655 200.951C206.38 201.085 206.111 201.249 205.953 201.472C205.795 201.694 205.783 201.992 205.994 202.168C206.105 202.262 206.269 202.314 206.433 202.349C207.206 202.508 208.048 202.332 208.792 202.051C209.125 201.922 209.465 201.77 209.676 201.524C210.273 200.857 209.477 200.517 208.757 200.471C208.019 200.418 207.299 200.64 206.65 200.951H206.655Z" fill="#13144D"/>
<path d="M220.92 199.067C220.627 199.166 220.34 199.295 220.159 199.5C219.977 199.705 219.93 199.997 220.118 200.196C220.217 200.308 220.375 200.372 220.533 200.425C221.277 200.671 222.137 200.6 222.91 200.407C223.255 200.319 223.612 200.208 223.852 199.992C224.525 199.4 223.776 198.967 223.068 198.833C222.342 198.692 221.599 198.827 220.92 199.055V199.067Z" fill="#13144D"/>
<path d="M195.552 208.04C194.264 207.01 192.514 206.155 191.016 206.84C189.716 207.437 189.131 209.006 189.102 210.434C189.061 212.33 189.781 214.238 191.068 215.631C192.362 217.025 194.206 217.891 196.102 217.984C196.875 218.025 197.682 217.926 198.332 217.499C199.175 216.943 199.596 215.901 199.637 214.888C199.749 211.967 197.688 209.743 195.546 208.034L195.552 208.04Z" fill="#FFD5DC"/>
<path d="M196.284 215.25C196.284 215.25 196.313 215.25 196.325 215.244C196.442 215.209 196.512 215.086 196.477 214.969C195.921 213.008 195.295 211.51 194.51 210.251C193.515 208.659 192.233 207.442 190.793 206.728C190.682 206.675 190.548 206.716 190.495 206.827C190.442 206.939 190.483 207.073 190.594 207.126C191.958 207.805 193.182 208.964 194.13 210.486C194.891 211.709 195.499 213.166 196.044 215.086C196.073 215.192 196.172 215.256 196.278 215.25H196.284Z" fill="#13144D"/>
<path d="M217.852 211.406C217.764 211.406 217.682 211.353 217.647 211.271C217.601 211.16 217.647 211.031 217.764 210.984L219.591 210.217C219.684 210.177 219.795 210.13 219.842 210.065C219.959 209.913 219.825 209.626 219.69 209.404C218.999 208.304 218.28 207.197 217.548 206.12C217.478 206.021 217.507 205.886 217.606 205.816C217.706 205.746 217.841 205.775 217.911 205.874C218.648 206.957 219.374 208.069 220.065 209.176C220.369 209.667 220.416 210.059 220.193 210.34C220.071 210.493 219.895 210.569 219.766 210.621L217.94 211.388C217.94 211.388 217.881 211.406 217.852 211.406Z" fill="#301815"/>
<path d="M200.059 206.452C200.059 206.452 202.119 202.601 208.084 203.057C214.048 203.514 216.565 206.464 216.565 206.464C216.565 206.464 214.241 212.896 208.107 212.978C201.973 213.06 200.065 206.446 200.065 206.446L200.059 206.452Z" fill="#13144D"/>
<path d="M216.044 207.155L215.628 206.745C216.582 205.773 218.046 205.381 219.357 205.75L219.199 206.312C218.11 206.008 216.84 206.347 216.05 207.155H216.044Z" fill="#13144D"/>
<path d="M218.175 206.084C218.175 206.084 218.965 200.435 224.098 199.411C229.226 198.387 231.011 200.956 231.011 200.956C231.011 200.956 230.823 208.729 226.258 209.479C221.043 210.333 218.175 206.09 218.175 206.09V206.084Z" fill="#13144D"/>
<path d="M204.209 187.728C205.321 189.426 205.847 191.445 206.029 193.459C206.339 196.865 205.672 200.371 204.033 203.374C202.388 206.382 199.76 208.864 196.599 210.234C196.313 209.163 195.645 208.156 194.715 207.541C193.784 206.927 192.625 206.663 191.519 206.815C190.641 203.034 190.114 199.44 190.266 195.566C190.313 194.442 190.401 193.3 190.793 192.241C191.425 190.503 192.801 189.127 194.317 188.056C196.283 186.663 198.619 185.668 201.042 185.662C201.82 185.662 202.611 185.767 203.295 186.136C203.974 186.505 203.787 187.079 204.209 187.722V187.728Z" fill="#13144D"/>
<path d="M220.492 191.609C221.428 193.237 222.201 194.951 222.804 196.731C221.106 197.024 219.403 197.304 217.7 197.597C216.898 196.462 216.055 195.355 215.212 194.261C214.68 193.564 214.118 192.85 213.345 192.429C214.252 193.992 214.627 195.724 215.429 197.304C215.546 197.544 215.698 197.749 215.868 197.907C214.258 198.177 212.654 198.452 211.056 198.744C209.839 195.882 207.984 193.318 205.689 191.317C205.08 190.778 204.442 190.287 203.781 189.836C203.453 189.608 202.084 189.654 201.703 189.549C199.678 188.993 197.518 188.443 195.733 187.29C196.746 186.775 197.811 186.388 198.888 186.037C199.175 185.943 199.467 185.85 199.754 185.762C199.754 185.762 199.758 185.76 199.766 185.756C203.003 184.761 206.351 184.082 209.728 184.094C213.409 184.106 217.138 184.972 220.287 186.974C223.436 188.981 225.806 192.282 226.719 196.04C226.011 196.169 225.297 196.298 224.583 196.421C223.547 194.536 222.131 193.038 220.492 191.609Z" fill="#13144D"/>
<path d="M198.332 208.531C198.291 209.556 198.303 210.603 198.636 211.575C198.97 212.547 199.684 213.436 200.662 213.746C199.871 214.133 198.759 213.928 198.075 213.372C197.15 212.623 196.547 211.493 196.442 210.305C196.395 209.784 196.447 209.239 196.717 208.795C196.986 208.35 197.823 208.443 198.332 208.537V208.531Z" fill="#13144D"/>
<path d="M241.804 274.086C241.435 277.235 240.024 280.413 239.82 280.876L240.171 284.236L240.411 286.501V286.536L240.61 288.45L240.785 290.13L241.049 292.641L241.388 295.877H240.943L240.575 292.366L240.264 289.398L240.159 288.385L239.995 286.805L239.972 286.577L239.761 284.528L239.609 283.094V283.082L239.404 281.116L239.375 280.858C239.375 280.823 239.375 280.782 239.392 280.741C239.41 280.712 240.979 277.346 241.365 274.039C241.757 270.744 237.045 259.518 236.998 259.401C236.952 259.289 236.998 259.161 237.115 259.114C237.203 259.079 237.309 259.102 237.367 259.172C237.385 259.19 237.396 259.207 237.402 259.231C237.601 259.699 242.202 270.685 241.804 274.086Z" fill="#301815"/>
<path d="M183.653 295.877H183.214V295.584L182.968 283.515L182.634 266.646C182.634 266.523 182.728 266.424 182.851 266.418C182.968 266.418 183.067 266.517 183.067 266.635L183.196 273.12L183.442 285.575L183.518 289.415L183.536 290.357L183.547 290.913L183.559 291.546L183.571 292.113V292.265L183.635 295.192L183.647 295.877H183.653Z" fill="#301815"/>
</g>
</g>
<rect x="170.563" width="96.8736" height="96.8736" rx="11.5097" transform="rotate(45 170.563 0)" fill="#AE70FF"/>
<mask id="mask2_16269_62889" style="mask-type:alpha" maskUnits="userSpaceOnUse" x="106" y="4" width="129" height="129">
<rect x="170.563" width="96.8736" height="96.8736" rx="11.5097" transform="rotate(45 170.563 0)" fill="#AE70FF"/>
</mask>
<g mask="url(#mask2_16269_62889)">
<g clip-path="url(#clip3_16269_62889)">
<path d="M161.838 110.829L142.055 114.447C139.14 115.201 137.236 117.992 137.602 120.973L148.867 174.424H190.263L202.765 122.005C203.124 119.01 201.205 116.205 198.276 115.472L178.574 110.514L161.845 110.821L161.838 110.829Z" fill="#F1EEFF"/>
<path d="M156.44 111.818C156.44 111.818 168.642 124.438 184.99 112.133" stroke="#AE70FF" stroke-width="1.34765" stroke-miterlimit="10"/>
<path d="M155.685 111.4C155.685 111.4 160.761 160.67 158.219 208.138L133.083 210.892C133.083 210.892 134.072 184.737 133.742 176.461C132.702 150.409 120.471 124.166 120.471 124.166C120.471 124.166 124.279 114.484 135.068 113.319L155.685 111.4Z" fill="#04DB8E"/>
<path d="M121.87 121.604C121.87 121.604 107.104 145.041 95.9568 172.543C93.0051 179.831 96.2644 187.301 103.75 189.704C111.953 192.333 123.928 196.068 139.704 197.599C140.466 197.672 141.242 197.746 142.026 197.811C176.552 200.792 141.242 197.746 141.242 197.746L148.412 174.989L126.945 166.266L132.878 156.401L121.862 121.611L121.87 121.604Z" fill="#DD8285"/>
<path d="M195.177 113.328C195.177 113.328 219.398 111.819 223.353 132.283C225.873 145.305 236.5 170.061 234.955 186.687C233.981 197.189 220.775 203.906 209.474 199.357C206.515 198.163 204.127 196.332 203.366 193.535C200.802 184.204 195.177 113.32 195.177 113.32V113.328Z" fill="#DD8285"/>
<path d="M186.176 112.344C186.176 112.344 180.426 186.04 180.69 210.012L208.178 211.132C208.178 211.132 206.434 152.861 209.042 122.986C209.342 119.565 207.064 115.786 203.71 115.054C199.564 114.153 193.478 113.589 186.176 112.344Z" fill="#04DB8E"/>
<path d="M168.231 122.169L156.901 120.942C154.797 120.714 152.908 122.234 152.68 124.338L149.78 151.119C149.552 153.223 151.073 155.112 153.176 155.34L164.506 156.567C166.609 156.795 168.499 155.274 168.727 153.171L171.627 126.389C171.854 124.286 170.334 122.396 168.231 122.169Z" fill="#F1EEFF"/>
<path d="M177.328 89.6089C177.328 89.6089 175.051 89.6894 171.879 90.2754C168.701 90.8686 166.108 89.1987 165.471 91.3447C165.456 91.3887 162.878 89.1914 162.878 89.1914L160.922 111.032C160.922 111.032 170.62 116.174 179.797 110.768L177.336 89.6016L177.328 89.6089Z" fill="#FFD5DC"/>
<path d="M173.842 46.2727C173.842 46.2727 186.388 35.638 177.695 27.4496C169.001 19.2612 159.348 27.5741 158.622 32.5033C157.355 41.1604 165.412 45.9211 165.412 45.9211L173.842 46.2727Z" fill="#13144D"/>
<path d="M164.35 43.4741C164.35 43.4741 159.289 43.6132 156.074 36.5527C156.074 36.5527 157.875 46.0742 166.232 44.9169L164.35 43.4741Z" fill="#13144D"/>
<path d="M174.553 42.8085C174.553 42.8085 178.662 43.4384 183.159 35.9824C183.159 35.9824 181.144 45.101 172.744 44.3466L174.553 42.8159V42.8085Z" fill="#13144D"/>
<path d="M161.501 86.855C161.501 86.855 164.248 98.0316 178.185 97.1967L176.794 84.6504L161.501 86.8623V86.855Z" fill="#13144D"/>
<path d="M191.852 62.9051C191.852 75.012 182.426 84.8337 170.803 84.8337C159.179 84.8337 149.753 75.0193 149.753 62.9051C149.753 50.791 159.179 42.5586 170.803 42.5586C182.426 42.5586 191.852 50.7983 191.852 62.9051Z" fill="#13144D"/>
<path d="M187.319 63.3309C187.319 70.2156 186.323 76.1628 185.327 80.3816C184.353 84.5124 181.613 87.3981 177.731 89.7199L177.028 90.1447C172.927 92.6056 167.631 92.6569 163.464 90.2911C159.267 87.9035 156.323 84.7541 155.422 80.323C153.774 72.259 153.598 63.3309 153.598 63.3309C153.598 63.3309 152.031 45.9433 170.217 46.2802C188.403 46.6171 187.319 63.3309 187.319 63.3309Z" fill="#FFD5DC"/>
<path d="M155.583 81.0111C152.382 83.7796 145.629 72.8226 148.735 69.871C151.84 66.9194 154.03 71.724 154.03 71.724L154.66 75.1883L155.598 79.8465L155.839 80.8939L155.583 81.0184V81.0111Z" fill="#FFD5DC"/>
<path d="M150.126 73.5552C150.126 73.5552 151.437 70.7207 154.492 75.7011" stroke="#13144D" stroke-width="0.864252" stroke-linecap="round" stroke-linejoin="round"/>
<path d="M185.319 81.0697C188.571 83.7797 195.126 72.7128 191.977 69.8125C188.828 66.9121 186.711 71.7534 186.711 71.7534L186.14 75.225L185.283 79.8979L185.056 80.9452L185.312 81.0624L185.319 81.0697Z" fill="#FFD5DC"/>
<path d="M190.644 73.5336C190.644 73.5336 189.282 70.7211 186.323 75.7528" stroke="#13144D" stroke-width="0.864252" stroke-linecap="round" stroke-linejoin="round"/>
<path d="M179.504 61.8515H190.783C190.783 61.8515 189.662 43.8706 168.913 45.1231C168.913 45.1231 151.84 45.3208 152.302 61.8515H170.693L171.081 60.0424L171.513 61.8515H178.009L178.647 57.5741L179.496 61.8515H179.504Z" fill="#13144D"/>
<path d="M151.687 68.8901L154.345 73.4457L153.562 61.8516L151.687 68.8901Z" fill="#13144D"/>
<path d="M189.392 68.8901L186.667 73.4457L187.304 61.8516L189.392 68.8901Z" fill="#13144D"/>
<path d="M164.248 70.956C164.248 71.8569 163.515 72.582 162.622 72.582C161.728 72.582 160.996 71.8496 160.996 70.956C160.996 70.0625 161.728 69.3301 162.622 69.3301C163.515 69.3301 164.248 70.0625 164.248 70.956Z" fill="#1C2238"/>
<path d="M179.328 70.956C179.328 71.8569 178.596 72.582 177.702 72.582C176.809 72.582 176.076 71.8496 176.076 70.956C176.076 70.0625 176.809 69.3301 177.702 69.3301C178.596 69.3301 179.328 70.0625 179.328 70.956Z" fill="#1C2238"/>
<path d="M162.028 63.7994C162.028 63.7994 166.101 63.2134 166.247 64.876C166.247 64.876 166.313 66.0039 162.754 66.4507C159.194 66.8975 158.249 66.6924 157.854 65.6524C157.458 64.6124 160.102 63.9312 162.021 63.8067L162.028 63.7994Z" fill="#1C2238"/>
<path d="M178.259 63.8213C178.259 63.8213 182.375 63.9751 182.214 65.6377C182.214 65.6377 182.075 66.7583 178.493 66.5532C174.912 66.3481 174.018 65.9746 173.82 64.8833C173.622 63.792 176.347 63.5942 178.259 63.8139V63.8213Z" fill="#1C2238"/>
<path d="M170.444 73.1309L171.418 75.8408L170.019 76.7197" stroke="#1C2238" stroke-width="0.849603" stroke-linecap="round" stroke-linejoin="round"/>
<path d="M164.248 79.766L167.25 78.6454C167.734 78.4989 168.261 78.5062 168.796 78.682L170.107 79.1068L171.227 78.5868C171.74 78.3524 172.429 78.3378 172.919 78.5502L175.747 79.6927L164.24 79.766H164.248Z" fill="#B00020"/>
<path d="M164.248 79.7666C164.248 79.7666 165.727 84.8203 170.092 84.8203C174.457 84.8203 175.754 79.6934 175.754 79.6934L164.248 79.7666Z" fill="#B00020"/>
<path d="M165.163 80.0737C165.163 80.0737 165.815 82.6592 170.092 82.6665C173.989 82.6665 175.051 80.0078 175.051 80.0078L165.163 80.0737Z" fill="white"/>
<path d="M167.983 83.8311C168.254 83.8311 168.474 83.6113 168.474 83.3403C168.474 83.0693 168.254 82.8496 167.983 82.8496C167.712 82.8496 167.492 83.0693 167.492 83.3403C167.492 83.6113 167.712 83.8311 167.983 83.8311Z" fill="#FFD5DC" fill-opacity="0.5"/>
<path d="M154.917 93.7333C151.767 93.3451 149.226 90.789 148.867 87.6323C148.471 84.1899 150.617 81.2017 153.657 80.2202C153.84 80.1616 153.972 79.9932 153.972 79.7954C153.972 79.4878 153.672 79.2754 153.379 79.3706C149.973 80.4766 147.57 83.831 147.981 87.6835C148.362 91.2211 151.174 94.1142 154.704 94.5976C158.571 95.1176 161.64 93.2646 162.841 89.9174C162.592 89.7783 162.153 89.4853 162.153 89.4853C161.186 92.5834 158.418 94.1654 154.924 93.7406L154.917 93.7333Z" fill="#B3F001"/>
<path d="M185.524 93.7333C188.674 93.3451 191.215 90.789 191.574 87.6323C191.97 84.1899 189.824 81.2017 186.784 80.2202C186.601 80.1616 186.469 79.9932 186.469 79.7954C186.469 79.4878 186.769 79.2754 187.062 79.3706C190.468 80.4766 192.871 83.831 192.46 87.6835C192.079 91.2211 189.267 94.1142 185.737 94.5976C181.87 95.1176 178.801 93.2646 177.6 89.9174C177.849 89.7783 178.288 89.4853 178.288 89.4853C179.255 92.5834 182.023 94.1654 185.517 93.7406L185.524 93.7333Z" fill="#B3F001"/>
</g>
</g>
<path d="M243.647 123.663C243.845 123.702 243.85 123.957 243.647 123.995L238.322 125.061C236.406 125.445 234.918 127.439 234.667 129.954L234.119 135.512C234.098 135.719 233.761 135.719 233.74 135.512L233.192 129.954C232.946 127.439 231.453 125.445 229.537 125.061L224.212 123.995C224.014 123.957 224.014 123.698 224.212 123.663L229.477 122.701C231.418 122.347 232.937 120.332 233.187 117.786L233.748 112.155C233.77 111.948 234.106 111.948 234.128 112.155L234.672 117.786C234.918 120.332 236.437 122.343 238.383 122.701L243.647 123.663Z" fill="#DDC4FE"/>
<path d="M76.2209 65.4318C76.3644 65.4598 76.3675 65.6439 76.2209 65.672L72.3716 66.4425C70.9866 66.7201 69.9104 68.1613 69.7294 69.9799L69.3333 73.9977C69.3177 74.1474 69.0744 74.1474 69.0588 73.9977L68.6626 69.9799C68.4848 68.1613 67.4055 66.7201 66.0204 66.4425L62.1711 65.672C62.0276 65.6439 62.0276 65.4567 62.1711 65.4318L65.9768 64.7361C67.3805 64.4803 68.4785 63.0236 68.6595 61.1831L69.065 57.1123C69.0806 56.9626 69.3239 56.9626 69.3395 57.1123L69.7325 61.1831C69.9104 63.0236 71.0084 64.4772 72.4152 64.7361L76.2209 65.4318Z" fill="#DDC4FE"/>
<path d="M102.099 251.888C102.403 251.948 102.41 252.338 102.099 252.398L93.9324 254.032C90.994 254.621 88.7109 257.679 88.327 261.537L87.4865 270.061C87.4535 270.379 86.9373 270.379 86.9042 270.061L86.0637 261.537C85.6865 257.679 83.3967 254.621 80.4583 254.032L72.2918 252.398C71.9874 252.338 71.9874 251.941 72.2918 251.888L80.3657 250.412C83.3437 249.87 85.6732 246.779 86.0571 242.875L86.9174 234.238C86.9505 233.921 87.4667 233.921 87.4998 234.238L88.3336 242.875C88.7109 246.779 91.0404 249.863 94.025 250.412L102.099 251.888Z" fill="#DDC4FE"/>
<defs>
<clipPath id="clip0_16269_62889">
<rect width="204" height="204" fill="white" transform="translate(23.0635 59)"/>
</clipPath>
<clipPath id="clip1_16269_62889">
<rect width="128.38" height="191.089" fill="white" transform="translate(-5.93652 124)"/>
</clipPath>
<clipPath id="clip2_16269_62889">
<rect width="112.24" height="118.796" fill="white" transform="translate(146.76 177.082)"/>
</clipPath>
<clipPath id="clip3_16269_62889">
<rect width="140.236" height="277" fill="white" transform="translate(94.873 24)"/>
</clipPath>
</defs>
</svg>
