<svg width="24" height="24" viewBox="0 0 24 24" fill="none" xmlns="http://www.w3.org/2000/svg">
    <g clip-path="url(#clip0_7285_1184)">
        <g clip-path="url(#clip1_7285_1184)">
            <path d="M11.9994 0.00155896C5.37236 0.00155896 0 5.37392 0 12.001C0 18.4363 5.0663 23.6884 11.428 23.9865C11.6178 23.9954 11.8079 24.0005 11.9996 24.0005C15.0718 24.0005 17.8736 22.8453 19.9965 20.9468C18.59 21.8796 16.9455 22.4163 15.1881 22.4163C12.3305 22.4163 9.77125 20.9987 8.05003 18.7632C6.72317 17.197 5.86379 14.8817 5.80524 12.2834V11.7184C5.86375 9.12015 6.72313 6.80446 8.04969 5.2386C9.77116 3.00309 12.3303 1.58547 15.1877 1.58547C16.9456 1.58547 18.5904 2.1222 19.9971 3.05562C17.8845 1.16579 15.0997 0.0129653 12.0446 0.00162032C12.0293 0.00162032 12.0144 0.00102606 11.9992 0.00102606L11.9994 0.00155896Z"
                  fill="url(#paint0_linear_7285_1184)"/>
            <path d="M8.04883 5.23957C9.15001 3.93959 10.5721 3.15569 12.1258 3.15569C15.6192 3.15569 18.4507 7.11627 18.4507 12.0018C18.4507 16.8874 15.619 20.8479 12.1258 20.8479C10.5721 20.8479 9.15001 20.0644 8.04912 18.7644C9.7703 20.9999 12.3293 22.4175 15.1871 22.4175C16.9447 22.4175 18.5892 21.8808 19.9956 20.9479C22.4517 18.7506 23.9983 15.5569 23.9983 12.0019C23.9983 8.44728 22.452 5.25375 19.9965 3.05672C18.5897 2.1233 16.9449 1.58657 15.1872 1.58657C12.3296 1.58657 9.77005 3.00406 8.04883 5.23957Z"
                  fill="url(#paint1_linear_7285_1184)"/>
        </g>
    </g>
    <defs>
        <linearGradient id="paint0_linear_7285_1184" x1="9.99882" y1="0.392708" x2="9.99882" y2="23.6516"
                        gradientUnits="userSpaceOnUse">
            <stop stop-color="#FF1B2D"/>
            <stop offset="0.3" stop-color="#FF1B2D"/>
            <stop offset="0.614" stop-color="#FF1B2D"/>
            <stop offset="1" stop-color="#A70014"/>
        </linearGradient>
        <linearGradient id="paint1_linear_7285_1184" x1="16.0233" y1="1.76411" x2="16.0233" y2="22.3354"
                        gradientUnits="userSpaceOnUse">
            <stop stop-color="#9C0000"/>
            <stop offset="0.7" stop-color="#FF4B4B"/>
            <stop offset="1" stop-color="#FF4B4B"/>
        </linearGradient>
        <clipPath id="clip0_7285_1184">
            <rect width="24" height="24" fill="white"/>
        </clipPath>
        <clipPath id="clip1_7285_1184">
            <rect width="24" height="24" fill="white"/>
        </clipPath>
    </defs>
</svg>
