<svg width="134" height="146" viewBox="0 0 134 146" fill="none" xmlns="http://www.w3.org/2000/svg">
<path d="M101.388 19H63.3764C57.7919 19 53.2646 23.5272 53.2646 29.1118V80.5055C53.2646 86.09 57.7919 90.6172 63.3764 90.6172H101.388C106.973 90.6172 111.5 86.09 111.5 80.5055V29.1118C111.5 23.5272 106.973 19 101.388 19Z" fill="white"/>
<path d="M67.9197 54.8066H96.8457" stroke="#04DB8E" stroke-width="6.84154" stroke-linecap="round" stroke-linejoin="round"/>
<path d="M67.9197 39.2773H79.9608" stroke="#04DB8E" stroke-width="6.84154" stroke-linecap="round" stroke-linejoin="round"/>
<path d="M67.9197 70.3379H96.8457" stroke="#04DB8E" stroke-width="6.84154" stroke-linecap="round" stroke-linejoin="round"/>
<circle cx="60.3125" cy="84.4316" r="27" fill="white" fill-opacity="0.55"/>
<rect x="33.6497" y="102.443" width="20.2347" height="7.58803" rx="3.79402" transform="rotate(36.7469 33.6497 102.443)" fill="#AE70FF"/>
<path d="M41.7562 108.493C43.4821 109.782 43.9507 112.169 42.8402 114.014L29.0498 136.932C26.9551 140.413 22.3127 141.325 19.0573 138.894C15.8019 136.464 15.3569 131.754 18.0994 128.756L36.155 109.023C37.609 107.434 40.0304 107.205 41.7562 108.493Z" fill="#AE70FF"/>
<path fill-rule="evenodd" clip-rule="evenodd" d="M41.8636 108.478C55.2955 118.507 74.3144 115.749 84.3434 102.317C94.3724 88.8846 91.6138 69.8657 78.1818 59.8367C64.7499 49.8077 45.731 52.5663 35.702 65.9983C25.673 79.4303 28.4316 98.4491 41.8636 108.478ZM64.2619 106.508C76.3541 104.367 84.4216 92.8291 82.281 80.7369C80.1404 68.6446 68.6025 60.5772 56.5102 62.7178C44.418 64.8583 36.3505 76.3963 38.4911 88.4885C40.6316 100.581 52.1696 108.648 64.2619 106.508Z" fill="#AE70FF"/>
<path d="M54.8076 79.3867L66.059 90.6381" stroke="#AE70FF" stroke-width="6.29756" stroke-linecap="round"/>
<path d="M54.8076 79.3867L66.059 90.6381" stroke="#AE70FF" stroke-width="6.29756" stroke-linecap="round"/>
<path d="M54.8076 79.3867L66.059 90.6381" stroke="#AE70FF" stroke-width="6.29756" stroke-linecap="round"/>
<path d="M66.0593 79.7266L54.8079 90.978" stroke="#AE70FF" stroke-width="6.29756" stroke-linecap="round"/>
<rect x="13.5" width="120" height="120" rx="8" fill="#E0F9EC"/>
<path d="M101.388 19H63.3764C57.7919 19 53.2646 23.5272 53.2646 29.1118V80.5055C53.2646 86.09 57.7919 90.6172 63.3764 90.6172H101.388C106.973 90.6172 111.5 86.09 111.5 80.5055V29.1118C111.5 23.5272 106.973 19 101.388 19Z" fill="white"/>
<path d="M67.9197 54.8066H96.8457" stroke="#04DB8E" stroke-width="6.84154" stroke-linecap="round" stroke-linejoin="round"/>
<path d="M67.9197 39.2773H79.9608" stroke="#04DB8E" stroke-width="6.84154" stroke-linecap="round" stroke-linejoin="round"/>
<path d="M67.9197 70.3379H96.8457" stroke="#04DB8E" stroke-width="6.84154" stroke-linecap="round" stroke-linejoin="round"/>
<circle cx="60.3125" cy="84.4316" r="27" fill="white" fill-opacity="0.55"/>
<rect x="33.6497" y="102.443" width="20.2347" height="7.58803" rx="3.79402" transform="rotate(36.7469 33.6497 102.443)" fill="#AE70FF"/>
<path d="M41.7562 108.493C43.4821 109.782 43.9507 112.169 42.8402 114.014L29.0498 136.932C26.9551 140.413 22.3127 141.325 19.0573 138.894C15.8019 136.464 15.3569 131.754 18.0994 128.756L36.155 109.023C37.609 107.434 40.0304 107.205 41.7562 108.493Z" fill="#AE70FF"/>
<path fill-rule="evenodd" clip-rule="evenodd" d="M42.0191 108.478C55.4511 118.507 74.4699 115.749 84.499 102.317C94.528 88.8846 91.7693 69.8657 78.3373 59.8367C64.9054 49.8077 45.8865 52.5663 35.8575 65.9983C25.8285 79.4303 28.5871 98.4491 42.0191 108.478ZM64.4174 106.508C76.5096 104.367 84.5771 92.8291 82.4365 80.7369C80.296 68.6446 68.758 60.5772 56.6657 62.7178C44.5735 64.8583 36.506 76.3963 38.6466 88.4885C40.7872 100.581 52.3251 108.648 64.4174 106.508Z" fill="#AE70FF"/>
<path d="M63.7375 70L63.1688 89.3597H57.8314L57.2481 70H63.7375ZM60.5001 98C59.5376 98 58.7113 97.685 58.021 97.055C57.3307 96.4159 56.9905 95.6509 57.0002 94.7599C56.9905 93.8779 57.3307 93.1218 58.021 92.4918C58.7113 91.8618 59.5376 91.5468 60.5001 91.5468C61.4237 91.5468 62.2355 91.8618 62.9354 92.4918C63.6354 93.1218 63.9903 93.8779 64 94.7599C63.9903 95.3539 63.8201 95.8984 63.4896 96.3934C63.1688 96.8795 62.7459 97.271 62.2209 97.568C61.6959 97.856 61.1223 98 60.5001 98Z" fill="#AE70FF"/>
</svg>
