<svg width="134" height="146" viewBox="0 0 134 146" fill="none" xmlns="http://www.w3.org/2000/svg">
    <path d="M101.388 19H63.3764C57.7919 19 53.2646 23.5272 53.2646 29.1118V80.5055C53.2646 86.09 57.7919 90.6172 63.3764 90.6172H101.388C106.973 90.6172 111.5 86.09 111.5 80.5055V29.1118C111.5 23.5272 106.973 19 101.388 19Z" fill="white"/>
    <path d="M67.9197 54.8066H96.8457" stroke="#04DB8E" stroke-width="6.84154" stroke-linecap="round" stroke-linejoin="round"/>
    <path d="M67.9197 39.2773H79.9608" stroke="#04DB8E" stroke-width="6.84154" stroke-linecap="round" stroke-linejoin="round"/>
    <path d="M67.9197 70.3379H96.8457" stroke="#04DB8E" stroke-width="6.84154" stroke-linecap="round" stroke-linejoin="round"/>
    <circle cx="60.3125" cy="84.4316" r="27" fill="white" fill-opacity="0.55"/>
    <rect x="33.6497" y="102.442" width="20.2347" height="7.58803" rx="3.79402" transform="rotate(36.7469 33.6497 102.442)" fill="#AE70FF"/>
    <path d="M41.7562 108.492C43.4821 109.781 43.9507 112.168 42.8402 114.013L29.0498 136.931C26.9551 140.412 22.3127 141.324 19.0573 138.893C15.8019 136.463 15.3569 131.753 18.0994 128.755L36.155 109.022C37.609 107.433 40.0304 107.204 41.7562 108.492Z" fill="#AE70FF"/>
    <path fill-rule="evenodd" clip-rule="evenodd" d="M41.8636 108.477C55.2955 118.506 74.3144 115.748 84.3434 102.316C94.3724 88.8836 91.6138 69.8647 78.1818 59.8357C64.7499 49.8067 45.731 52.5654 35.702 65.9973C25.673 79.4293 28.4316 98.4482 41.8636 108.477ZM64.2619 106.507C76.3541 104.366 84.4216 92.8282 82.281 80.7359C80.1404 68.6437 68.6025 60.5762 56.5102 62.7168C44.418 64.8574 36.3505 76.3953 38.4911 88.4876C40.6316 100.58 52.1696 108.647 64.2619 106.507Z" fill="#AE70FF"/>
    <path d="M54.8076 79.3867L66.059 90.6381" stroke="#AE70FF" stroke-width="6.29756" stroke-linecap="round"/>
    <path d="M54.8076 79.3867L66.059 90.6381" stroke="#AE70FF" stroke-width="6.29756" stroke-linecap="round"/>
    <path d="M54.8076 79.3867L66.059 90.6381" stroke="#AE70FF" stroke-width="6.29756" stroke-linecap="round"/>
    <path d="M66.0593 79.7266L54.8079 90.978" stroke="#AE70FF" stroke-width="6.29756" stroke-linecap="round"/>
    <rect x="13.5" width="120" height="120" rx="8" fill="#E0F9EC"/>
    <path d="M101.388 19H63.3764C57.7919 19 53.2646 23.5272 53.2646 29.1118V80.5055C53.2646 86.09 57.7919 90.6172 63.3764 90.6172H101.388C106.973 90.6172 111.5 86.09 111.5 80.5055V29.1118C111.5 23.5272 106.973 19 101.388 19Z" fill="white"/>
    <path d="M67.9197 54.8066H96.8457" stroke="#04DB8E" stroke-width="6.84154" stroke-linecap="round" stroke-linejoin="round"/>
    <path d="M67.9197 39.2773H79.9608" stroke="#04DB8E" stroke-width="6.84154" stroke-linecap="round" stroke-linejoin="round"/>
    <path d="M67.9197 70.3379H96.8457" stroke="#04DB8E" stroke-width="6.84154" stroke-linecap="round" stroke-linejoin="round"/>
    <circle cx="60.3125" cy="84.4316" r="27" fill="white" fill-opacity="0.55"/>
    <rect x="33.6497" y="102.442" width="20.2347" height="7.58803" rx="3.79402" transform="rotate(36.7469 33.6497 102.442)" fill="#AE70FF"/>
    <path d="M41.7562 108.492C43.4821 109.781 43.9507 112.168 42.8402 114.013L29.0498 136.931C26.9551 140.412 22.3127 141.324 19.0573 138.893C15.8019 136.463 15.3569 131.753 18.0994 128.755L36.155 109.022C37.609 107.433 40.0304 107.204 41.7562 108.492Z" fill="#AE70FF"/>
    <path fill-rule="evenodd" clip-rule="evenodd" d="M41.8636 108.477C55.2955 118.506 74.3144 115.748 84.3434 102.316C94.3724 88.8836 91.6138 69.8647 78.1818 59.8357C64.7499 49.8067 45.731 52.5654 35.702 65.9973C25.673 79.4293 28.4316 98.4482 41.8636 108.477ZM64.2619 106.507C76.3541 104.366 84.4216 92.8282 82.281 80.7359C80.1404 68.6437 68.6025 60.5762 56.5102 62.7168C44.418 64.8574 36.3505 76.3953 38.4911 88.4876C40.6316 100.58 52.1696 108.647 64.2619 106.507Z" fill="#AE70FF"/>
    <path d="M57.489 87.6506V87.1609C57.489 86.0386 57.5775 85.1442 57.7543 84.4776C57.9311 83.8111 58.193 83.2772 58.5399 82.8759C58.8868 82.4678 59.3119 82.1005 59.8152 81.774C60.2505 81.4884 60.6382 81.2129 60.9782 80.9476C61.3251 80.6824 61.5972 80.4001 61.7944 80.1008C61.9985 79.8016 62.1005 79.4615 62.1005 79.0806C62.1005 78.7405 62.0189 78.4413 61.8556 78.1828C61.6924 77.9243 61.4714 77.7237 61.1925 77.5809C60.9136 77.438 60.6042 77.3666 60.2641 77.3666C59.8968 77.3666 59.5567 77.4516 59.2438 77.6217C58.9378 77.7917 58.6895 78.0264 58.4991 78.3256C58.3154 78.6249 58.2236 78.9718 58.2236 79.3663H53C53.0136 77.8699 53.3537 76.6558 54.0202 75.724C54.6868 74.7854 55.571 74.0985 56.6728 73.6632C57.7747 73.2211 58.9854 73 60.3049 73C61.7604 73 63.0595 73.2142 64.2022 73.6427C65.3448 74.0644 66.2461 74.7038 66.9058 75.5608C67.5656 76.411 67.8954 77.4754 67.8954 78.7541C67.8954 79.5771 67.7526 80.3015 67.4669 80.9272C67.1881 81.5462 66.797 82.0937 66.2937 82.5698C65.7972 83.0391 65.2156 83.4676 64.5491 83.8553C64.0594 84.141 63.6479 84.4368 63.3146 84.7429C62.9813 85.0422 62.7296 85.3857 62.5596 85.7733C62.3896 86.1542 62.3045 86.6167 62.3045 87.1609V87.6506H57.489ZM59.9784 94.5066C59.1894 94.5066 58.5127 94.2311 57.9481 93.6802C57.3904 93.1224 57.1149 92.4457 57.1218 91.6499C57.1149 90.8745 57.3904 90.2114 57.9481 89.6604C58.5127 89.1095 59.1894 88.8341 59.9784 88.8341C60.7266 88.8341 61.3863 89.1095 61.9577 89.6604C62.5358 90.2114 62.8283 90.8745 62.8351 91.6499C62.8283 92.1804 62.6888 92.6633 62.4168 93.0986C62.1515 93.5271 61.8046 93.8706 61.3761 94.1291C60.9476 94.3807 60.4817 94.5066 59.9784 94.5066Z" fill="#AE70FF"/>
</svg>
