<svg width="20" height="20" viewBox="0 0 20 20" fill="none" xmlns="http://www.w3.org/2000/svg">
<path d="M10.0002 11.6673V13.334C7.23874 13.334 5.00016 15.5726 5.00016 18.334H3.3335C3.3335 14.6521 6.31826 11.6673 10.0002 11.6673ZM10.0002 10.834C7.23766 10.834 5.00016 8.59648 5.00016 5.83398C5.00016 3.07148 7.23766 0.833984 10.0002 0.833984C12.7627 0.833984 15.0002 3.07148 15.0002 5.83398C15.0002 8.59648 12.7627 10.834 10.0002 10.834ZM10.0002 9.16732C11.8418 9.16732 13.3335 7.67565 13.3335 5.83398C13.3335 3.99232 11.8418 2.50065 10.0002 2.50065C8.1585 2.50065 6.66683 3.99232 6.66683 5.83398C6.66683 7.67565 8.1585 9.16732 10.0002 9.16732ZM17.872 16.694L19.1249 17.9469L17.9464 19.1254L16.6935 17.8725C16.1972 18.1657 15.6183 18.334 15.0002 18.334C13.1592 18.334 11.6668 16.8416 11.6668 15.0007C11.6668 13.1597 13.1592 11.6673 15.0002 11.6673C16.8411 11.6673 18.3335 13.1597 18.3335 15.0007C18.3335 15.6188 18.1652 16.1977 17.872 16.694ZM15.0002 16.6673C15.9207 16.6673 16.6668 15.9212 16.6668 15.0007C16.6668 14.0802 15.9207 13.334 15.0002 13.334C14.0797 13.334 13.3335 14.0802 13.3335 15.0007C13.3335 15.9212 14.0797 16.6673 15.0002 16.6673Z" fill="#680DE4"/>
</svg>

