<svg width="24" height="24" viewBox="0 0 24 24" fill="none" xmlns="http://www.w3.org/2000/svg">
    <g clip-path="url(#clip0_7285_1167)">
        <g clip-path="url(#clip1_7285_1167)">
            <path d="M23.7813 8.42182C23.4844 6.19221 22.6957 4.17192 21.3083 2.692C19.8284 1.30458 17.8081 0.515939 15.5785 0.218982C13.4511 -0.063371 12.0004 0.00478316 12.0004 0.00478316C12.0004 0.00478316 10.5497 -0.063371 8.42231 0.218982C6.1927 0.515939 4.17241 1.30458 2.69736 2.692C1.30507 4.17192 0.516428 6.19221 0.21947 8.42182C-0.0628827 10.5492 0.00527144 11.9999 0.00527144 11.9999C0.00527144 11.9999 -0.0628827 13.4506 0.21947 15.578C0.516428 17.8076 1.30507 19.8279 2.69249 21.3078C4.17241 22.7001 6.19269 23.4888 8.41744 23.7857C10.5448 24.0681 11.9955 23.9999 11.9955 23.9999C11.9955 23.9999 13.4462 24.0681 15.5736 23.7857C17.8032 23.4888 19.8235 22.7001 21.2986 21.3078C22.6909 19.8279 23.4795 17.8076 23.7716 15.578C24.054 13.4506 23.9858 11.9999 23.9858 11.9999C23.9858 11.9999 24.0637 10.5492 23.7813 8.42182Z"
                  fill="#7882FF"/>
            <path d="M18.1445 10.2234C19.0938 13.6311 17.0978 17.1654 13.6901 18.1147C10.2824 19.064 6.74813 17.068 5.79884 13.6603C4.84955 10.2526 6.84549 6.71834 10.2532 5.76905C13.6609 4.81976 17.1952 6.81571 18.1445 10.2234Z"
                  fill="white"/>
            <path d="M18.1439 10.2231C18.4993 11.5035 18.4409 12.7984 18.0514 13.9668C18.0222 14.0592 17.9882 14.1566 17.9492 14.2491"
                  fill="white"/>
            <path d="M18.041 10.2231C18.2893 11.1189 18.338 12.0244 18.2065 12.886Z" fill="white"/>
            <path d="M16.2542 16.4402C14.6331 16.4402 12.6615 16.0264 10.6948 15.2816C8.72807 14.5367 6.9804 13.5339 5.76823 12.458C3.8015 10.7104 3.9232 9.35703 4.17148 8.7047C4.41975 8.05237 5.22787 6.95703 7.85667 6.95703C9.47777 6.95703 11.4494 7.37082 13.4161 8.11565C15.3828 8.86048 17.1305 9.86332 18.3427 10.9392C20.3094 12.6868 20.1877 14.0402 19.9394 14.6925C19.696 15.3449 18.8879 16.4402 16.2542 16.4402ZM7.86154 8.98705C6.6445 8.98705 6.12361 9.28888 6.07006 9.42519C6.01651 9.56149 6.21124 10.1359 7.12158 10.944C8.13902 11.8447 9.70657 12.7404 11.4202 13.3879C13.1338 14.0402 14.9009 14.415 16.2591 14.415C17.4761 14.415 17.997 14.1132 18.0506 13.9769C18.1041 13.8406 17.9094 13.2662 17.0039 12.458C15.9865 11.5574 14.4189 10.6617 12.7054 10.0142C10.982 9.3619 9.21975 8.98705 7.86154 8.98705Z"
                  fill="#4D5CC1"/>
            <path d="M6.07227 9.44451L18.0431 13.9914C18.4422 12.8133 18.5055 11.5086 18.1453 10.2234C17.196 6.81571 13.6666 4.81976 10.254 5.76905C8.29701 6.31429 6.80736 7.71145 6.07227 9.44451Z"
                  fill="white"/>
        </g>
    </g>
    <defs>
        <clipPath id="clip0_7285_1167">
            <rect width="24" height="24" fill="white"/>
        </clipPath>
        <clipPath id="clip1_7285_1167">
            <rect width="24" height="24" fill="white"/>
        </clipPath>
    </defs>
</svg>
