<svg width="96" height="96" viewBox="0 0 96 96" fill="none" xmlns="http://www.w3.org/2000/svg">
    <rect width="96" height="96" rx="48" fill="#F1EEFF"/>
    <path d="M63.8762 40H66C68.2092 40 70 41.7909 70 44V52C70 54.2092 68.2092 56 66 56H63.8762C62.892 63.8926 56.1592 70 48 70V66C54.6274 66 60 60.6274 60 54V42C60 35.3726 54.6274 30 48 30C41.3726 30 36 35.3726 36 42V56H30C27.7909 56 26 54.2092 26 52V44C26 41.7909 27.7909 40 30 40H32.1238C33.108 32.1074 39.8408 26 48 26C56.1592 26 62.892 32.1074 63.8762 40ZM30 44V52H32V44H30ZM64 44V52H66V44H64ZM39.5189 55.5698L41.6392 52.1774C43.4832 53.3324 45.6636 54 48 54C50.3364 54 52.5168 53.3324 54.3608 52.1774L56.4812 55.5698C54.0224 57.1098 51.1152 58 48 58C44.8848 58 41.9776 57.1098 39.5189 55.5698Z" fill="#680DE4"/>
</svg>
