<svg width="48" height="48" viewBox="0 0 48 48" fill="none" xmlns="http://www.w3.org/2000/svg">
<circle cx="24" cy="24" r="24" fill="#F5F5F6"/>
<path d="M30.031 28.6168L34.3137 32.8995L32.8995 34.3137L28.6168 30.031C27.0769 31.263 25.124 32 23 32C18.032 32 14 27.968 14 23C14 18.032 18.032 14 23 14C27.968 14 32 18.032 32 23C32 25.124 31.263 27.0769 30.031 28.6168ZM28.0247 27.8748C29.2475 26.6146 30 24.8956 30 23C30 19.1325 26.8675 16 23 16C19.1325 16 16 19.1325 16 23C16 26.8675 19.1325 30 23 30C24.8956 30 26.6146 29.2475 27.8748 28.0247L28.0247 27.8748Z" fill="#5A5A67"/>
</svg>
