<svg width="322" height="220" viewBox="0 0 322 220" fill="none" xmlns="http://www.w3.org/2000/svg">
<path d="M145.634 90.9639C147.361 89.7802 149.639 89.7802 151.366 90.9639L164.674 100.082C165.479 100.634 166.426 100.941 167.401 100.968L183.527 101.413C185.62 101.471 187.463 102.81 188.164 104.783L193.571 119.982C193.898 120.901 194.483 121.706 195.256 122.301L208.041 132.14C209.7 133.417 210.404 135.583 209.812 137.592L205.252 153.067C204.977 154.002 204.977 154.998 205.252 155.933L209.812 171.408C210.404 173.417 209.7 175.583 208.041 176.86L195.256 186.699C194.483 187.294 193.898 188.099 193.571 189.018L188.164 204.217C187.463 206.19 185.62 207.529 183.527 207.587L167.401 208.032C166.426 208.059 165.479 208.366 164.674 208.918L151.366 218.036C149.639 219.22 147.361 219.22 145.634 218.036L132.326 208.918C131.521 208.366 130.574 208.059 129.599 208.032L113.473 207.587C111.38 207.529 109.537 206.19 108.836 204.217L103.429 189.018C103.102 188.099 102.517 187.294 101.744 186.699L88.9593 176.86C87.2997 175.583 86.596 173.417 87.1879 171.408L91.7477 155.933C92.0234 154.998 92.0234 154.002 91.7477 153.067L87.1879 137.592C86.596 135.583 87.2997 133.417 88.9593 132.14L101.744 122.301C102.517 121.706 103.102 120.901 103.429 119.982L108.836 104.783C109.537 102.81 111.38 101.471 113.473 101.413L129.599 100.968C130.574 100.941 131.521 100.634 132.326 100.082L145.634 90.9639Z" fill="#04DB8E"/>
<g filter="url(#filter0_d_9995_61945)">
<rect x="162" y="15" width="133" height="99" rx="7.59575" fill="white"/>
</g>
<path d="M176.559 56.4102H281" stroke="#D4D3D9" stroke-width="0.632979" stroke-linecap="round"/>
<path d="M176.559 70.335H281" stroke="#D4D3D9" stroke-width="0.632979" stroke-linecap="round"/>
<path d="M176.559 84.2607H281" stroke="#D4D3D9" stroke-width="0.632979" stroke-linecap="round"/>
<path d="M176.559 98.1865H281" stroke="#D4D3D9" stroke-width="0.632979" stroke-linecap="round"/>
<path d="M180.992 76L195.415 73.5L209.5 64.5L228.5 71.5L250 58L271.5 50" stroke="#AE70FF" stroke-width="1.26596" stroke-linecap="round"/>
<path d="M177.345 33.6454V32.6867H182.382V33.6454H180.431V39H179.297V33.6454H177.345ZM184.683 39.0925C184.22 39.0925 183.82 38.9908 183.481 38.7873C183.141 38.5838 182.878 38.2992 182.691 37.9334C182.506 37.5676 182.414 37.1401 182.414 36.651C182.414 36.1619 182.506 35.7334 182.691 35.3655C182.878 34.9976 183.141 34.712 183.481 34.5085C183.82 34.3051 184.22 34.2033 184.683 34.2033C185.145 34.2033 185.546 34.3051 185.885 34.5085C186.224 34.712 186.486 34.9976 186.671 35.3655C186.858 35.7334 186.952 36.1619 186.952 36.651C186.952 37.1401 186.858 37.5676 186.671 37.9334C186.486 38.2992 186.224 38.5838 185.885 38.7873C185.546 38.9908 185.145 39.0925 184.683 39.0925ZM184.689 38.1985C184.94 38.1985 185.149 38.1297 185.318 37.992C185.486 37.8522 185.612 37.6652 185.694 37.4309C185.778 37.1966 185.82 36.9356 185.82 36.6479C185.82 36.3581 185.778 36.0961 185.694 35.8618C185.612 35.6255 185.486 35.4374 185.318 35.2977C185.149 35.1579 184.94 35.0881 184.689 35.0881C184.432 35.0881 184.218 35.1579 184.048 35.2977C183.879 35.4374 183.753 35.6255 183.669 35.8618C183.586 36.0961 183.545 36.3581 183.545 36.6479C183.545 36.9356 183.586 37.1966 183.669 37.4309C183.753 37.6652 183.879 37.8522 184.048 37.992C184.218 38.1297 184.432 38.1985 184.689 38.1985ZM190.263 34.265V35.1281H187.541V34.265H190.263ZM188.213 33.1306H189.329V37.5758C189.329 37.7258 189.352 37.8409 189.397 37.9211C189.444 37.9992 189.506 38.0526 189.582 38.0814C189.658 38.1101 189.742 38.1245 189.835 38.1245C189.905 38.1245 189.968 38.1194 190.026 38.1091C190.085 38.0988 190.131 38.0896 190.162 38.0814L190.35 38.9538C190.29 38.9743 190.205 38.9969 190.094 39.0216C189.985 39.0462 189.851 39.0606 189.693 39.0647C189.413 39.073 189.162 39.0308 188.938 38.9383C188.714 38.8438 188.536 38.6979 188.404 38.5006C188.275 38.3033 188.211 38.0567 188.213 37.7608V33.1306ZM192.559 39.0956C192.259 39.0956 191.989 39.0421 191.748 38.9353C191.51 38.8263 191.321 38.666 191.181 38.4544C191.043 38.2427 190.975 37.9817 190.975 37.6714C190.975 37.4042 191.024 37.1833 191.123 37.0086C191.221 36.8339 191.356 36.6941 191.526 36.5893C191.697 36.4845 191.889 36.4054 192.103 36.352C192.319 36.2965 192.542 36.2564 192.772 36.2317C193.049 36.203 193.274 36.1773 193.447 36.1547C193.62 36.13 193.745 36.093 193.823 36.0437C193.903 35.9923 193.943 35.9132 193.943 35.8063V35.7878C193.943 35.5556 193.874 35.3758 193.737 35.2484C193.599 35.121 193.401 35.0572 193.142 35.0572C192.868 35.0572 192.652 35.1168 192.491 35.236C192.333 35.3552 192.226 35.496 192.171 35.6584L191.129 35.5104C191.211 35.2227 191.347 34.9822 191.536 34.789C191.725 34.5938 191.956 34.4479 192.229 34.3513C192.503 34.2527 192.805 34.2033 193.136 34.2033C193.364 34.2033 193.591 34.2301 193.817 34.2835C194.043 34.3369 194.249 34.4253 194.436 34.5486C194.623 34.6698 194.773 34.8353 194.887 35.0449C195.002 35.2545 195.059 35.5166 195.059 35.831V39H193.986V38.3496H193.949C193.882 38.4811 193.786 38.6044 193.663 38.7195C193.541 38.8325 193.388 38.924 193.203 38.9938C193.02 39.0617 192.806 39.0956 192.559 39.0956ZM192.849 38.2756C193.073 38.2756 193.267 38.2314 193.432 38.143C193.596 38.0526 193.722 37.9334 193.811 37.7854C193.901 37.6375 193.946 37.4761 193.946 37.3014V36.7435C193.911 36.7722 193.852 36.799 193.768 36.8236C193.685 36.8483 193.593 36.8699 193.49 36.8884C193.387 36.9069 193.286 36.9233 193.185 36.9377C193.084 36.9521 192.997 36.9644 192.923 36.9747C192.756 36.9973 192.607 37.0343 192.476 37.0857C192.344 37.137 192.241 37.209 192.165 37.3014C192.088 37.3919 192.05 37.509 192.05 37.6529C192.05 37.8584 192.125 38.0135 192.275 38.1184C192.426 38.2232 192.617 38.2756 192.849 38.2756ZM197.297 32.6867V39H196.181V32.6867H197.297ZM204.078 34.4222C204.05 34.153 203.928 33.9434 203.715 33.7933C203.503 33.6433 203.228 33.5683 202.888 33.5683C202.65 33.5683 202.446 33.6043 202.275 33.6762C202.104 33.7481 201.974 33.8457 201.883 33.9691C201.793 34.0924 201.747 34.2331 201.745 34.3914C201.745 34.5229 201.775 34.637 201.834 34.7336C201.896 34.8301 201.979 34.9124 202.084 34.9802C202.189 35.0459 202.305 35.1014 202.432 35.1466C202.56 35.1919 202.688 35.2299 202.818 35.2607L203.409 35.4087C203.648 35.4642 203.877 35.5392 204.097 35.6337C204.319 35.7282 204.517 35.8474 204.692 35.9913C204.869 36.1352 205.008 36.3088 205.111 36.5123C205.214 36.7157 205.265 36.9541 205.265 37.2275C205.265 37.5974 205.171 37.9231 204.982 38.2047C204.792 38.4842 204.519 38.703 204.162 38.8613C203.806 39.0175 203.375 39.0956 202.87 39.0956C202.379 39.0956 201.952 39.0195 201.591 38.8674C201.231 38.7154 200.949 38.4934 200.746 38.2016C200.545 37.9098 200.436 37.5542 200.419 37.135H201.544C201.561 37.3549 201.629 37.5378 201.748 37.6837C201.867 37.8296 202.022 37.9385 202.213 38.0105C202.406 38.0824 202.622 38.1184 202.861 38.1184C203.109 38.1184 203.327 38.0814 203.514 38.0074C203.703 37.9313 203.851 37.8265 203.958 37.6929C204.065 37.5573 204.119 37.3991 204.121 37.2182C204.119 37.0538 204.071 36.9182 203.977 36.8113C203.882 36.7024 203.75 36.6119 203.579 36.54C203.41 36.466 203.213 36.4003 202.987 36.3427L202.269 36.1578C201.749 36.0242 201.338 35.8217 201.036 35.5505C200.736 35.2771 200.586 34.9144 200.586 34.4623C200.586 34.0903 200.686 33.7646 200.888 33.4851C201.091 33.2056 201.368 32.9888 201.717 32.8346C202.066 32.6784 202.462 32.6003 202.904 32.6003C203.352 32.6003 203.744 32.6784 204.081 32.8346C204.421 32.9888 204.687 33.2035 204.88 33.4789C205.073 33.7522 205.173 34.0667 205.179 34.4222H204.078ZM207.598 39.0956C207.298 39.0956 207.028 39.0421 206.787 38.9353C206.549 38.8263 206.36 38.666 206.22 38.4544C206.082 38.2427 206.013 37.9817 206.013 37.6714C206.013 37.4042 206.063 37.1833 206.161 37.0086C206.26 36.8339 206.395 36.6941 206.565 36.5893C206.736 36.4845 206.928 36.4054 207.142 36.352C207.358 36.2965 207.581 36.2564 207.811 36.2317C208.088 36.203 208.313 36.1773 208.486 36.1547C208.658 36.13 208.784 36.093 208.862 36.0437C208.942 35.9923 208.982 35.9132 208.982 35.8063V35.7878C208.982 35.5556 208.913 35.3758 208.776 35.2484C208.638 35.121 208.44 35.0572 208.181 35.0572C207.907 35.0572 207.69 35.1168 207.53 35.236C207.372 35.3552 207.265 35.496 207.21 35.6584L206.168 35.5104C206.25 35.2227 206.385 34.9822 206.575 34.789C206.764 34.5938 206.995 34.4479 207.268 34.3513C207.541 34.2527 207.844 34.2033 208.174 34.2033C208.403 34.2033 208.63 34.2301 208.856 34.2835C209.082 34.3369 209.288 34.4253 209.475 34.5486C209.662 34.6698 209.812 34.8353 209.925 35.0449C210.041 35.2545 210.098 35.5166 210.098 35.831V39H209.025V38.3496H208.988C208.92 38.4811 208.825 38.6044 208.702 38.7195C208.58 38.8325 208.427 38.924 208.242 38.9938C208.059 39.0617 207.845 39.0956 207.598 39.0956ZM207.888 38.2756C208.112 38.2756 208.306 38.2314 208.47 38.143C208.635 38.0526 208.761 37.9334 208.85 37.7854C208.94 37.6375 208.985 37.4761 208.985 37.3014V36.7435C208.95 36.7722 208.891 36.799 208.806 36.8236C208.724 36.8483 208.632 36.8699 208.529 36.8884C208.426 36.9069 208.324 36.9233 208.224 36.9377C208.123 36.9521 208.036 36.9644 207.962 36.9747C207.795 36.9973 207.646 37.0343 207.515 37.0857C207.383 37.137 207.279 37.209 207.203 37.3014C207.127 37.3919 207.089 37.509 207.089 37.6529C207.089 37.8584 207.164 38.0135 207.314 38.1184C207.464 38.2232 207.656 38.2756 207.888 38.2756ZM212.336 32.6867V39H211.22V32.6867H212.336ZM215.58 39.0925C215.105 39.0925 214.695 38.9938 214.35 38.7965C214.007 38.5972 213.743 38.3156 213.558 37.9519C213.373 37.5861 213.28 37.1555 213.28 36.6602C213.28 36.1732 213.373 35.7457 213.558 35.3778C213.745 35.0079 214.006 34.7202 214.341 34.5147C214.676 34.3071 215.069 34.2033 215.521 34.2033C215.813 34.2033 216.088 34.2506 216.347 34.3451C216.608 34.4376 216.839 34.5815 217.038 34.7767C217.239 34.972 217.398 35.2206 217.513 35.5227C217.628 35.8228 217.685 36.1804 217.685 36.5955V36.9377H213.804V36.1855H216.616C216.614 35.9718 216.567 35.7817 216.477 35.6152C216.386 35.4467 216.26 35.3141 216.098 35.2175C215.937 35.121 215.75 35.0727 215.537 35.0727C215.309 35.0727 215.108 35.1281 214.936 35.2391C214.763 35.348 214.628 35.4919 214.532 35.6707C214.437 35.8474 214.389 36.0416 214.387 36.2533V36.9099C214.387 37.1853 214.437 37.4217 214.538 37.619C214.639 37.8142 214.779 37.9642 214.96 38.069C215.141 38.1718 215.353 38.2232 215.595 38.2232C215.758 38.2232 215.905 38.2006 216.036 38.1553C216.168 38.1081 216.282 38.0392 216.378 37.9488C216.475 37.8584 216.548 37.7464 216.597 37.6128L217.639 37.7299C217.573 38.0053 217.448 38.2458 217.263 38.4513C217.08 38.6547 216.846 38.813 216.56 38.926C216.274 39.037 215.948 39.0925 215.58 39.0925ZM222.372 35.5166L221.354 35.6275C221.326 35.5248 221.275 35.4282 221.203 35.3378C221.134 35.2473 221.039 35.1744 220.92 35.1189C220.801 35.0634 220.655 35.0357 220.482 35.0357C220.25 35.0357 220.055 35.086 219.896 35.1867C219.74 35.2874 219.663 35.4179 219.665 35.5782C219.663 35.7159 219.713 35.8279 219.816 35.9142C219.921 36.0005 220.094 36.0714 220.334 36.1269L221.142 36.2996C221.59 36.3962 221.923 36.5493 222.141 36.7589C222.36 36.9685 222.471 37.2429 222.474 37.582C222.471 37.88 222.384 38.143 222.211 38.3711C222.041 38.5972 221.804 38.7739 221.499 38.9014C221.195 39.0288 220.846 39.0925 220.451 39.0925C219.872 39.0925 219.405 38.9712 219.052 38.7287C218.698 38.4842 218.488 38.144 218.42 37.7084L219.508 37.6035C219.557 37.8173 219.662 37.9786 219.822 38.0875C219.983 38.1964 220.191 38.2509 220.448 38.2509C220.713 38.2509 220.926 38.1964 221.086 38.0875C221.249 37.9786 221.33 37.844 221.33 37.6837C221.33 37.5481 221.277 37.436 221.173 37.3477C221.07 37.2593 220.91 37.1915 220.692 37.1442L219.884 36.9747C219.43 36.8801 219.094 36.7209 218.876 36.4969C218.658 36.2708 218.55 35.9851 218.552 35.6399C218.55 35.348 218.629 35.0953 218.79 34.8815C218.952 34.6657 219.177 34.4993 219.465 34.3821C219.755 34.2629 220.089 34.2033 220.467 34.2033C221.022 34.2033 221.458 34.3215 221.777 34.5578C222.097 34.7942 222.296 35.1138 222.372 35.5166Z" fill="#13144D"/>
<rect x="182" y="84" width="11" height="14" rx="5.5" fill="#04DB8E"/>
<rect x="203" y="76" width="11" height="22" rx="5.5" fill="#04DB8E"/>
<rect x="224" y="79" width="11" height="19" rx="5.5" fill="#04DB8E"/>
<rect x="245" y="67" width="11" height="31" rx="5.5" fill="#04DB8E"/>
<rect x="266" y="59" width="11" height="39" rx="5.5" fill="#04DB8E"/>
<g filter="url(#filter1_d_9995_61945)">
<rect x="15" y="84" width="102" height="51" rx="7.59575" fill="white"/>
</g>
<path d="M47.0397 102.315V101.476H51.4472V102.315H49.7397V107H48.7471V102.315H47.0397ZM53.4601 107.081C53.0554 107.081 52.7048 106.992 52.4081 106.814C52.1114 106.636 51.8812 106.387 51.7176 106.067C51.5557 105.747 51.4748 105.373 51.4748 104.945C51.4748 104.517 51.5557 104.142 51.7176 103.82C51.8812 103.498 52.1114 103.248 52.4081 103.07C52.7048 102.892 53.0554 102.803 53.4601 102.803C53.8647 102.803 54.2153 102.892 54.512 103.07C54.8087 103.248 55.038 103.498 55.1998 103.82C55.3635 104.142 55.4453 104.517 55.4453 104.945C55.4453 105.373 55.3635 105.747 55.1998 106.067C55.038 106.387 54.8087 106.636 54.512 106.814C54.2153 106.992 53.8647 107.081 53.4601 107.081ZM53.4654 106.299C53.6848 106.299 53.8683 106.238 54.0157 106.118C54.1632 105.996 54.2729 105.832 54.3448 105.627C54.4185 105.422 54.4554 105.194 54.4554 104.942C54.4554 104.688 54.4185 104.459 54.3448 104.254C54.2729 104.047 54.1632 103.883 54.0157 103.76C53.8683 103.638 53.6848 103.577 53.4654 103.577C53.2407 103.577 53.0537 103.638 52.9044 103.76C52.7569 103.883 52.6463 104.047 52.5726 104.254C52.5007 104.459 52.4647 104.688 52.4647 104.942C52.4647 105.194 52.5007 105.422 52.5726 105.627C52.6463 105.832 52.7569 105.996 52.9044 106.118C53.0537 106.238 53.2407 106.299 53.4654 106.299ZM58.3429 102.857V103.612H55.9612V102.857H58.3429ZM56.5492 101.864H57.5256V105.754C57.5256 105.885 57.5454 105.986 57.585 106.056C57.6263 106.124 57.6803 106.171 57.7468 106.196C57.8134 106.221 57.8871 106.234 57.968 106.234C58.0291 106.234 58.0849 106.229 58.1352 106.22C58.1874 106.211 58.2269 106.203 58.2539 106.196L58.4185 106.96C58.3663 106.978 58.2917 106.997 58.1946 107.019C58.0993 107.04 57.9824 107.053 57.8439 107.057C57.5994 107.064 57.3791 107.027 57.1831 106.946C56.9871 106.863 56.8315 106.736 56.7164 106.563C56.6031 106.39 56.5474 106.175 56.5492 105.916V101.864ZM60.3518 107.084C60.0892 107.084 59.8528 107.037 59.6424 106.943C59.4338 106.848 59.2683 106.708 59.1461 106.523C59.0256 106.337 58.9653 106.109 58.9653 105.837C58.9653 105.604 59.0085 105.41 59.0948 105.258C59.1811 105.105 59.2989 104.982 59.4482 104.891C59.5974 104.799 59.7656 104.73 59.9526 104.683C60.1414 104.634 60.3365 104.599 60.5379 104.578C60.7807 104.553 60.9776 104.53 61.1286 104.51C61.2797 104.489 61.3894 104.456 61.4577 104.413C61.5278 104.368 61.5629 104.299 61.5629 104.206V104.189C61.5629 103.986 61.5027 103.829 61.3822 103.717C61.2617 103.606 61.0882 103.55 60.8616 103.55C60.6224 103.55 60.4327 103.602 60.2924 103.707C60.154 103.811 60.0605 103.934 60.0119 104.076L59.1002 103.947C59.1721 103.695 59.2908 103.484 59.4563 103.315C59.6217 103.145 59.824 103.017 60.0632 102.932C60.3023 102.846 60.5667 102.803 60.8562 102.803C61.0558 102.803 61.2545 102.826 61.4523 102.873C61.6501 102.92 61.8308 102.997 61.9945 103.105C62.1581 103.211 62.2894 103.356 62.3883 103.539C62.489 103.723 62.5393 103.952 62.5393 104.227V107H61.6007V106.431H61.5683C61.509 106.546 61.4253 106.654 61.3174 106.755C61.2113 106.853 61.0774 106.933 60.9155 106.995C60.7555 107.054 60.5676 107.084 60.3518 107.084ZM60.6053 106.366C60.8013 106.366 60.9713 106.327 61.1151 106.25C61.259 106.171 61.3696 106.067 61.4469 105.937C61.526 105.808 61.5656 105.667 61.5656 105.514V105.026C61.535 105.051 61.4829 105.074 61.4091 105.096C61.3372 105.117 61.2563 105.136 61.1664 105.152C61.0765 105.168 60.9875 105.183 60.8993 105.195C60.8112 105.208 60.7348 105.219 60.6701 105.228C60.5244 105.248 60.394 105.28 60.279 105.325C60.1639 105.37 60.0731 105.433 60.0065 105.514C59.94 105.593 59.9067 105.695 59.9067 105.821C59.9067 106.001 59.9724 106.137 60.1036 106.229C60.2349 106.32 60.4021 106.366 60.6053 106.366ZM64.4976 101.476V107H63.5212V101.476H64.4976ZM34.8018 114.34H33.793C33.7642 114.174 33.7112 114.028 33.6338 113.9C33.5565 113.771 33.4603 113.661 33.3452 113.571C33.2301 113.481 33.0989 113.414 32.9514 113.369C32.8057 113.322 32.6484 113.299 32.4794 113.299C32.1791 113.299 31.9129 113.374 31.681 113.525C31.449 113.674 31.2674 113.894 31.1361 114.183C31.0048 114.471 30.9392 114.823 30.9392 115.238C30.9392 115.66 31.0048 116.017 31.1361 116.306C31.2692 116.594 31.4508 116.811 31.681 116.959C31.9129 117.104 32.1782 117.177 32.4767 117.177C32.6421 117.177 32.7968 117.156 32.9406 117.113C33.0863 117.068 33.2166 117.002 33.3317 116.916C33.4486 116.829 33.5466 116.723 33.6257 116.597C33.7067 116.472 33.7624 116.328 33.793 116.166L34.8018 116.171C34.764 116.434 34.6822 116.68 34.5563 116.91C34.4323 117.14 34.2695 117.344 34.0681 117.52C33.8667 117.694 33.6311 117.831 33.3614 117.93C33.0917 118.027 32.7923 118.076 32.4632 118.076C31.9777 118.076 31.5443 117.963 31.1631 117.738C30.7818 117.514 30.4815 117.189 30.2621 116.765C30.0428 116.34 29.9331 115.831 29.9331 115.238C29.9331 114.643 30.0437 114.134 30.2648 113.711C30.486 113.287 30.7872 112.962 31.1685 112.737C31.5497 112.513 31.9813 112.4 32.4632 112.4C32.7707 112.4 33.0566 112.443 33.3209 112.53C33.5853 112.616 33.8209 112.743 34.0276 112.91C34.2344 113.076 34.4044 113.279 34.5374 113.52C34.6723 113.759 34.7604 114.032 34.8018 114.34ZM36.6515 115.572V118H35.6751V112.476H36.6299V114.561H36.6785C36.7756 114.327 36.9257 114.143 37.1289 114.008C37.3339 113.871 37.5947 113.803 37.9112 113.803C38.1989 113.803 38.4497 113.863 38.6637 113.984C38.8777 114.104 39.0432 114.28 39.16 114.512C39.2787 114.744 39.3381 115.028 39.3381 115.362V118H38.3616V115.513C38.3616 115.234 38.2897 115.018 38.1458 114.863C38.0038 114.707 37.8042 114.628 37.547 114.628C37.3744 114.628 37.2197 114.666 37.0831 114.742C36.9482 114.815 36.8421 114.922 36.7648 115.063C36.6893 115.203 36.6515 115.373 36.6515 115.572ZM42.1676 118.081C41.7522 118.081 41.3934 117.995 41.0913 117.822C40.791 117.648 40.56 117.401 40.3981 117.083C40.2363 116.763 40.1554 116.386 40.1554 115.953C40.1554 115.527 40.2363 115.152 40.3981 114.831C40.5618 114.507 40.7901 114.255 41.0833 114.075C41.3764 113.894 41.7207 113.803 42.1163 113.803C42.3717 113.803 42.6126 113.844 42.8392 113.927C43.0676 114.008 43.269 114.134 43.4434 114.305C43.6197 114.475 43.7581 114.693 43.8588 114.957C43.9595 115.22 44.0099 115.533 44.0099 115.896V116.195H40.6139V115.537H43.0739C43.0721 115.35 43.0316 115.184 42.9525 115.038C42.8734 114.891 42.7628 114.775 42.6207 114.69C42.4805 114.606 42.3168 114.564 42.1298 114.564C41.9302 114.564 41.7549 114.612 41.6038 114.709C41.4528 114.805 41.335 114.93 41.2505 115.087C41.1678 115.242 41.1255 115.411 41.1237 115.597V116.171C41.1237 116.412 41.1678 116.619 41.2559 116.792C41.344 116.962 41.4672 117.094 41.6254 117.185C41.7837 117.275 41.9689 117.32 42.1811 117.32C42.3231 117.32 42.4517 117.3 42.5668 117.261C42.6819 117.22 42.7817 117.159 42.8662 117.08C42.9507 117.001 43.0146 116.903 43.0577 116.786L43.9694 116.889C43.9119 117.13 43.8022 117.34 43.6403 117.52C43.4803 117.698 43.2753 117.836 43.0253 117.935C42.7754 118.032 42.4895 118.081 42.1676 118.081ZM46.6432 118.081C46.2296 118.081 45.8744 117.99 45.5777 117.808C45.2828 117.627 45.0553 117.376 44.8953 117.056C44.737 116.734 44.6579 116.364 44.6579 115.945C44.6579 115.524 44.7388 115.152 44.9007 114.831C45.0625 114.507 45.2909 114.255 45.5858 114.075C45.8825 113.894 46.2332 113.803 46.6378 113.803C46.974 113.803 47.2717 113.865 47.5306 113.989C47.7913 114.111 47.999 114.285 48.1537 114.51C48.3083 114.733 48.3964 114.993 48.418 115.292H47.4847C47.447 115.092 47.3571 114.926 47.215 114.793C47.0747 114.658 46.8868 114.591 46.6513 114.591C46.4517 114.591 46.2763 114.644 46.1253 114.752C45.9742 114.858 45.8564 115.011 45.7719 115.211C45.6892 115.411 45.6478 115.65 45.6478 115.928C45.6478 116.211 45.6892 116.454 45.7719 116.657C45.8546 116.858 45.9706 117.014 46.1199 117.123C46.2709 117.231 46.4481 117.285 46.6513 117.285C46.7951 117.285 46.9237 117.258 47.037 117.204C47.1521 117.149 47.2483 117.069 47.3256 116.964C47.4029 116.86 47.456 116.733 47.4847 116.584H48.418C48.3946 116.877 48.3083 117.137 48.1591 117.363C48.0098 117.588 47.8066 117.764 47.5495 117.892C47.2923 118.018 46.9902 118.081 46.6432 118.081ZM50.1099 116.7L50.1072 115.521H50.2637L51.7526 113.857H52.8936L51.0621 115.896H50.8598L50.1099 116.7ZM49.2198 118V112.476H50.1963V118H49.2198ZM51.8201 118L50.4714 116.115L51.1295 115.427L52.988 118H51.8201ZM55.181 118.081C54.7764 118.081 54.4257 117.992 54.129 117.814C53.8323 117.636 53.6021 117.387 53.4385 117.067C53.2766 116.747 53.1957 116.373 53.1957 115.945C53.1957 115.517 53.2766 115.142 53.4385 114.82C53.6021 114.498 53.8323 114.248 54.129 114.07C54.4257 113.892 54.7764 113.803 55.181 113.803C55.5856 113.803 55.9362 113.892 56.2329 114.07C56.5296 114.248 56.7589 114.498 56.9208 114.82C57.0844 115.142 57.1662 115.517 57.1662 115.945C57.1662 116.373 57.0844 116.747 56.9208 117.067C56.7589 117.387 56.5296 117.636 56.2329 117.814C55.9362 117.992 55.5856 118.081 55.181 118.081ZM55.1864 117.299C55.4057 117.299 55.5892 117.238 55.7366 117.118C55.8841 116.996 55.9938 116.832 56.0657 116.627C56.1394 116.422 56.1763 116.194 56.1763 115.942C56.1763 115.688 56.1394 115.459 56.0657 115.254C55.9938 115.047 55.8841 114.883 55.7366 114.76C55.5892 114.638 55.4057 114.577 55.1864 114.577C54.9616 114.577 54.7746 114.638 54.6253 114.76C54.4779 114.883 54.3673 115.047 54.2935 115.254C54.2216 115.459 54.1856 115.688 54.1856 115.942C54.1856 116.194 54.2216 116.422 54.2935 116.627C54.3673 116.832 54.4779 116.996 54.6253 117.118C54.7746 117.238 54.9616 117.299 55.1864 117.299ZM60.6357 116.258V113.857H61.6121V118H60.6654V117.264H60.6222C60.5287 117.496 60.3749 117.685 60.161 117.833C59.9488 117.98 59.6871 118.054 59.376 118.054C59.1045 118.054 58.8644 117.994 58.6558 117.873C58.449 117.751 58.2872 117.574 58.1703 117.342C58.0534 117.108 57.995 116.826 57.995 116.495V113.857H58.9714V116.344C58.9714 116.606 59.0433 116.815 59.1872 116.97C59.3311 117.124 59.5199 117.202 59.7537 117.202C59.8975 117.202 60.0369 117.167 60.1717 117.096C60.3066 117.026 60.4172 116.922 60.5035 116.783C60.5916 116.643 60.6357 116.468 60.6357 116.258ZM64.6851 113.857V114.612H62.3033V113.857H64.6851ZM62.8913 112.864H63.8678V116.754C63.8678 116.885 63.8876 116.986 63.9271 117.056C63.9685 117.124 64.0224 117.171 64.089 117.196C64.1555 117.221 64.2292 117.234 64.3102 117.234C64.3713 117.234 64.427 117.229 64.4774 117.22C64.5295 117.211 64.5691 117.203 64.5961 117.196L64.7606 117.96C64.7085 117.978 64.6338 117.997 64.5367 118.019C64.4414 118.04 64.3245 118.053 64.1861 118.057C63.9415 118.064 63.7212 118.027 63.5252 117.946C63.3292 117.863 63.1737 117.736 63.0586 117.563C62.9453 117.39 62.8895 117.175 62.8913 116.916V112.864Z" fill="#13144D"/>
<path d="M76.1201 103.86C76.0359 103.451 76.3482 103.068 76.7656 103.068L97.6422 103.068C98.5073 103.068 99.1379 103.888 98.9165 104.724L96.6485 113.292C96.4954 113.87 95.9723 114.273 95.3742 114.273H78.8011C78.4883 114.273 78.2186 114.053 78.1555 113.747L76.1201 103.86Z" fill="#AE70FF"/>
<path d="M72 99.7734H75.2955L78.9205 117.898H95.7273" stroke="#AE70FF" stroke-width="1.31818" stroke-linecap="round" stroke-linejoin="round"/>
<path fill-rule="evenodd" clip-rule="evenodd" d="M79.9335 118.228C79.9181 118.335 79.9102 118.445 79.9102 118.557C79.9102 119.831 80.943 120.864 82.217 120.864C83.491 120.864 84.5238 119.831 84.5238 118.557C84.5238 118.445 84.5158 118.335 84.5004 118.228H79.9335Z" fill="#AE70FF"/>
<path fill-rule="evenodd" clip-rule="evenodd" d="M89.8203 118.228C89.8048 118.335 89.7969 118.445 89.7969 118.557C89.7969 119.831 90.8297 120.864 92.1037 120.864C93.3777 120.864 94.4105 119.831 94.4105 118.557C94.4105 118.445 94.4025 118.335 94.3871 118.228H89.8203Z" fill="#AE70FF"/>
<circle cx="95.0685" cy="103.069" r="5.93182" fill="#B3F001"/>
<path d="M93.0938 103.068L94.4943 104.386L97.3778 101.75" stroke="black" stroke-width="1.31818" stroke-linecap="round" stroke-linejoin="round"/>
<g filter="url(#filter2_d_9995_61945)">
<rect x="194" y="135" width="113" height="53" rx="7.59575" fill="white"/>
</g>
<path d="M246.302 154.315V153.476H250.71V154.315H249.002V159H248.01V154.315H246.302ZM252.722 159.081C252.318 159.081 251.967 158.992 251.671 158.814C251.374 158.636 251.144 158.387 250.98 158.067C250.818 157.747 250.737 157.373 250.737 156.945C250.737 156.517 250.818 156.142 250.98 155.82C251.144 155.498 251.374 155.248 251.671 155.07C251.967 154.892 252.318 154.803 252.722 154.803C253.127 154.803 253.478 154.892 253.774 155.07C254.071 155.248 254.3 155.498 254.462 155.82C254.626 156.142 254.708 156.517 254.708 156.945C254.708 157.373 254.626 157.747 254.462 158.067C254.3 158.387 254.071 158.636 253.774 158.814C253.478 158.992 253.127 159.081 252.722 159.081ZM252.728 158.299C252.947 158.299 253.131 158.238 253.278 158.118C253.426 157.996 253.535 157.832 253.607 157.627C253.681 157.422 253.718 157.194 253.718 156.942C253.718 156.688 253.681 156.459 253.607 156.254C253.535 156.047 253.426 155.883 253.278 155.76C253.131 155.638 252.947 155.577 252.728 155.577C252.503 155.577 252.316 155.638 252.167 155.76C252.019 155.883 251.909 156.047 251.835 156.254C251.763 156.459 251.727 156.688 251.727 156.942C251.727 157.194 251.763 157.422 251.835 157.627C251.909 157.832 252.019 157.996 252.167 158.118C252.316 158.238 252.503 158.299 252.728 158.299ZM257.605 154.857V155.612H255.224V154.857H257.605ZM255.812 153.864H256.788V157.754C256.788 157.885 256.808 157.986 256.847 158.056C256.889 158.124 256.943 158.171 257.009 158.196C257.076 158.221 257.15 158.234 257.23 158.234C257.292 158.234 257.347 158.229 257.398 158.22C257.45 158.211 257.489 158.203 257.516 158.196L257.681 158.96C257.629 158.978 257.554 158.997 257.457 159.019C257.362 159.04 257.245 159.053 257.106 159.057C256.862 159.064 256.642 159.027 256.445 158.946C256.249 158.863 256.094 158.736 255.979 158.563C255.866 158.39 255.81 158.175 255.812 157.916V153.864ZM259.614 159.084C259.352 159.084 259.115 159.037 258.905 158.943C258.696 158.848 258.531 158.708 258.408 158.523C258.288 158.337 258.228 158.109 258.228 157.837C258.228 157.604 258.271 157.41 258.357 157.258C258.444 157.105 258.561 156.982 258.711 156.891C258.86 156.799 259.028 156.73 259.215 156.683C259.404 156.634 259.599 156.599 259.8 156.578C260.043 156.553 260.24 156.53 260.391 156.51C260.542 156.489 260.652 156.456 260.72 156.413C260.79 156.368 260.825 156.299 260.825 156.206V156.189C260.825 155.986 260.765 155.829 260.645 155.717C260.524 155.606 260.351 155.55 260.124 155.55C259.885 155.55 259.695 155.602 259.555 155.707C259.416 155.811 259.323 155.934 259.274 156.076L258.363 155.947C258.435 155.695 258.553 155.484 258.719 155.315C258.884 155.145 259.086 155.017 259.326 154.932C259.565 154.846 259.829 154.803 260.119 154.803C260.318 154.803 260.517 154.826 260.715 154.873C260.913 154.92 261.093 154.997 261.257 155.105C261.421 155.211 261.552 155.356 261.651 155.539C261.751 155.723 261.802 155.952 261.802 156.227V159H260.863V158.431H260.831C260.771 158.546 260.688 158.654 260.58 158.755C260.474 158.853 260.34 158.933 260.178 158.995C260.018 159.054 259.83 159.084 259.614 159.084ZM259.868 158.366C260.064 158.366 260.234 158.327 260.378 158.25C260.521 158.171 260.632 158.067 260.709 157.937C260.788 157.808 260.828 157.667 260.828 157.514V157.026C260.797 157.051 260.745 157.074 260.672 157.096C260.6 157.117 260.519 157.136 260.429 157.152C260.339 157.168 260.25 157.183 260.162 157.195C260.074 157.208 259.997 157.219 259.933 157.228C259.787 157.248 259.656 157.28 259.541 157.325C259.426 157.37 259.335 157.433 259.269 157.514C259.202 157.593 259.169 157.695 259.169 157.821C259.169 158.001 259.235 158.137 259.366 158.229C259.497 158.32 259.665 158.366 259.868 158.366ZM263.76 153.476V159H262.784V153.476H263.76ZM268.455 159.081C268.051 159.081 267.7 158.992 267.403 158.814C267.107 158.636 266.877 158.387 266.713 158.067C266.551 157.747 266.47 157.373 266.47 156.945C266.47 156.517 266.551 156.142 266.713 155.82C266.877 155.498 267.107 155.248 267.403 155.07C267.7 154.892 268.051 154.803 268.455 154.803C268.86 154.803 269.211 154.892 269.507 155.07C269.804 155.248 270.033 155.498 270.195 155.82C270.359 156.142 270.441 156.517 270.441 156.945C270.441 157.373 270.359 157.747 270.195 158.067C270.033 158.387 269.804 158.636 269.507 158.814C269.211 158.992 268.86 159.081 268.455 159.081ZM268.461 158.299C268.68 158.299 268.864 158.238 269.011 158.118C269.159 157.996 269.268 157.832 269.34 157.627C269.414 157.422 269.451 157.194 269.451 156.942C269.451 156.688 269.414 156.459 269.34 156.254C269.268 156.047 269.159 155.883 269.011 155.76C268.864 155.638 268.68 155.577 268.461 155.577C268.236 155.577 268.049 155.638 267.9 155.76C267.752 155.883 267.642 156.047 267.568 156.254C267.496 156.459 267.46 156.688 267.46 156.942C267.46 157.194 267.496 157.422 267.568 157.627C267.642 157.832 267.752 157.996 267.9 158.118C268.049 158.238 268.236 158.299 268.461 158.299ZM271.269 159V154.857H272.216V155.547H272.259C272.335 155.308 272.464 155.124 272.648 154.994C272.833 154.863 273.044 154.798 273.282 154.798C273.336 154.798 273.396 154.8 273.462 154.806C273.531 154.809 273.587 154.816 273.632 154.824V155.723C273.591 155.708 273.525 155.696 273.435 155.685C273.347 155.672 273.262 155.666 273.179 155.666C273.001 155.666 272.841 155.705 272.699 155.782C272.559 155.858 272.448 155.963 272.367 156.098C272.286 156.233 272.246 156.388 272.246 156.564V159H271.269ZM275.648 159.073C275.322 159.073 275.031 158.989 274.774 158.822C274.517 158.655 274.314 158.412 274.164 158.094C274.015 157.775 273.941 157.389 273.941 156.934C273.941 156.473 274.016 156.085 274.167 155.769C274.32 155.45 274.526 155.21 274.785 155.048C275.044 154.885 275.332 154.803 275.651 154.803C275.893 154.803 276.093 154.844 276.249 154.927C276.406 155.008 276.53 155.106 276.622 155.221C276.713 155.334 276.784 155.441 276.835 155.542H276.875V153.476H277.854V159H276.894V158.347H276.835C276.784 158.448 276.712 158.555 276.616 158.668C276.521 158.78 276.395 158.875 276.239 158.954C276.082 159.033 275.885 159.073 275.648 159.073ZM275.92 158.272C276.127 158.272 276.303 158.216 276.449 158.104C276.595 157.991 276.705 157.834 276.781 157.632C276.856 157.431 276.894 157.196 276.894 156.928C276.894 156.66 276.856 156.428 276.781 156.23C276.707 156.032 276.597 155.878 276.452 155.769C276.308 155.659 276.131 155.604 275.92 155.604C275.703 155.604 275.521 155.661 275.376 155.774C275.23 155.887 275.12 156.044 275.046 156.243C274.973 156.443 274.936 156.671 274.936 156.928C274.936 157.187 274.973 157.418 275.046 157.622C275.122 157.823 275.233 157.982 275.378 158.099C275.526 158.214 275.706 158.272 275.92 158.272ZM280.729 159.081C280.314 159.081 279.955 158.995 279.653 158.822C279.353 158.648 279.121 158.401 278.96 158.083C278.798 157.763 278.717 157.386 278.717 156.953C278.717 156.527 278.798 156.152 278.96 155.831C279.123 155.507 279.352 155.255 279.645 155.075C279.938 154.894 280.282 154.803 280.678 154.803C280.933 154.803 281.174 154.844 281.401 154.927C281.629 155.008 281.831 155.134 282.005 155.305C282.181 155.475 282.32 155.693 282.42 155.957C282.521 156.22 282.571 156.533 282.571 156.896V157.195H279.175V156.537H281.635C281.634 156.35 281.593 156.184 281.514 156.038C281.435 155.891 281.324 155.775 281.182 155.69C281.042 155.606 280.878 155.564 280.691 155.564C280.492 155.564 280.316 155.612 280.165 155.709C280.014 155.805 279.897 155.93 279.812 156.087C279.729 156.242 279.687 156.411 279.685 156.597V157.171C279.685 157.412 279.729 157.619 279.817 157.792C279.906 157.962 280.029 158.094 280.187 158.185C280.345 158.275 280.53 158.32 280.743 158.32C280.885 158.32 281.013 158.3 281.128 158.261C281.243 158.22 281.343 158.159 281.428 158.08C281.512 158.001 281.576 157.903 281.619 157.786L282.531 157.889C282.473 158.13 282.364 158.34 282.202 158.52C282.042 158.698 281.837 158.836 281.587 158.935C281.337 159.032 281.051 159.081 280.729 159.081ZM283.397 159V154.857H284.344V155.547H284.387C284.463 155.308 284.592 155.124 284.776 154.994C284.961 154.863 285.172 154.798 285.41 154.798C285.464 154.798 285.524 154.8 285.59 154.806C285.659 154.809 285.715 154.816 285.76 154.824V155.723C285.719 155.708 285.653 155.696 285.563 155.685C285.475 155.672 285.39 155.666 285.307 155.666C285.129 155.666 284.969 155.705 284.827 155.782C284.687 155.858 284.576 155.963 284.495 156.098C284.414 156.233 284.374 156.388 284.374 156.564V159H283.397ZM289.684 155.952L288.794 156.049C288.768 155.959 288.724 155.875 288.661 155.796C288.6 155.716 288.517 155.653 288.413 155.604C288.309 155.555 288.181 155.531 288.03 155.531C287.827 155.531 287.656 155.575 287.518 155.663C287.381 155.751 287.314 155.866 287.315 156.006C287.314 156.126 287.358 156.224 287.448 156.3C287.539 156.375 287.69 156.438 287.901 156.486L288.607 156.637C288.999 156.722 289.291 156.856 289.481 157.039C289.674 157.222 289.771 157.463 289.773 157.759C289.771 158.02 289.694 158.25 289.543 158.45C289.394 158.648 289.186 158.802 288.92 158.914C288.654 159.025 288.348 159.081 288.003 159.081C287.496 159.081 287.088 158.975 286.779 158.763C286.469 158.549 286.285 158.251 286.226 157.87L287.178 157.778C287.221 157.965 287.313 158.106 287.453 158.202C287.593 158.297 287.776 158.345 288 158.345C288.232 158.345 288.419 158.297 288.559 158.202C288.701 158.106 288.772 157.988 288.772 157.848C288.772 157.73 288.726 157.632 288.634 157.554C288.544 157.477 288.404 157.418 288.214 157.376L287.507 157.228C287.109 157.145 286.815 157.006 286.625 156.81C286.434 156.612 286.34 156.362 286.342 156.06C286.34 155.805 286.409 155.583 286.549 155.396C286.691 155.208 286.888 155.062 287.14 154.959C287.394 154.855 287.686 154.803 288.017 154.803C288.502 154.803 288.884 154.906 289.163 155.113C289.444 155.32 289.617 155.6 289.684 155.952ZM246.502 171.554V165.857H247.462V166.542H247.519C247.569 166.441 247.64 166.334 247.732 166.221C247.823 166.106 247.947 166.008 248.104 165.927C248.26 165.844 248.46 165.803 248.703 165.803C249.023 165.803 249.311 165.885 249.569 166.048C249.828 166.21 250.033 166.45 250.184 166.769C250.336 167.085 250.413 167.473 250.413 167.934C250.413 168.389 250.338 168.775 250.189 169.094C250.04 169.412 249.837 169.655 249.579 169.822C249.322 169.989 249.031 170.073 248.705 170.073C248.468 170.073 248.271 170.033 248.115 169.954C247.958 169.875 247.832 169.78 247.737 169.668C247.644 169.555 247.571 169.448 247.519 169.347H247.478V171.554H246.502ZM247.459 167.928C247.459 168.196 247.497 168.431 247.573 168.632C247.65 168.834 247.76 168.991 247.904 169.104C248.05 169.216 248.226 169.272 248.433 169.272C248.649 169.272 248.83 169.214 248.975 169.099C249.121 168.982 249.231 168.823 249.304 168.622C249.38 168.418 249.418 168.187 249.418 167.928C249.418 167.671 249.381 167.443 249.307 167.243C249.233 167.044 249.124 166.887 248.978 166.774C248.832 166.661 248.651 166.604 248.433 166.604C248.224 166.604 248.047 166.659 247.902 166.769C247.756 166.878 247.645 167.032 247.57 167.23C247.496 167.428 247.459 167.66 247.459 167.928ZM252.225 164.476V170H251.249V164.476H252.225ZM254.422 170.084C254.159 170.084 253.923 170.037 253.712 169.943C253.504 169.848 253.338 169.708 253.216 169.523C253.096 169.337 253.035 169.109 253.035 168.837C253.035 168.604 253.079 168.41 253.165 168.258C253.251 168.105 253.369 167.982 253.518 167.891C253.667 167.799 253.836 167.73 254.023 167.683C254.211 167.634 254.407 167.599 254.608 167.578C254.851 167.553 255.048 167.53 255.199 167.51C255.35 167.489 255.459 167.456 255.528 167.413C255.598 167.368 255.633 167.299 255.633 167.206V167.189C255.633 166.986 255.573 166.829 255.452 166.717C255.332 166.606 255.158 166.55 254.932 166.55C254.692 166.55 254.503 166.602 254.362 166.707C254.224 166.811 254.13 166.934 254.082 167.076L253.17 166.947C253.242 166.695 253.361 166.484 253.526 166.315C253.692 166.145 253.894 166.017 254.133 165.932C254.372 165.846 254.637 165.803 254.926 165.803C255.126 165.803 255.325 165.826 255.522 165.873C255.72 165.92 255.901 165.997 256.064 166.105C256.228 166.211 256.359 166.356 256.458 166.539C256.559 166.723 256.609 166.952 256.609 167.227V170H255.671V169.431H255.638C255.579 169.546 255.495 169.654 255.387 169.755C255.281 169.853 255.147 169.933 254.986 169.995C254.826 170.054 254.638 170.084 254.422 170.084ZM254.675 169.366C254.871 169.366 255.041 169.327 255.185 169.25C255.329 169.171 255.44 169.067 255.517 168.937C255.596 168.808 255.636 168.667 255.636 168.514V168.026C255.605 168.051 255.553 168.074 255.479 168.096C255.407 168.117 255.326 168.136 255.236 168.152C255.146 168.168 255.057 168.183 254.969 168.195C254.881 168.208 254.805 168.219 254.74 168.228C254.594 168.248 254.464 168.28 254.349 168.325C254.234 168.37 254.143 168.433 254.077 168.514C254.01 168.593 253.977 168.695 253.977 168.821C253.977 169.001 254.042 169.137 254.174 169.229C254.305 169.32 254.472 169.366 254.675 169.366ZM259.398 170.081C258.985 170.081 258.63 169.99 258.333 169.808C258.038 169.627 257.811 169.376 257.651 169.056C257.492 168.734 257.413 168.364 257.413 167.945C257.413 167.524 257.494 167.152 257.656 166.831C257.818 166.507 258.046 166.255 258.341 166.075C258.638 165.894 258.988 165.803 259.393 165.803C259.729 165.803 260.027 165.865 260.286 165.989C260.547 166.111 260.754 166.285 260.909 166.51C261.064 166.733 261.152 166.993 261.173 167.292H260.24C260.202 167.092 260.112 166.926 259.97 166.793C259.83 166.658 259.642 166.591 259.407 166.591C259.207 166.591 259.032 166.644 258.881 166.752C258.729 166.858 258.612 167.011 258.527 167.211C258.444 167.411 258.403 167.65 258.403 167.928C258.403 168.211 258.444 168.454 258.527 168.657C258.61 168.858 258.726 169.014 258.875 169.123C259.026 169.231 259.203 169.285 259.407 169.285C259.55 169.285 259.679 169.258 259.792 169.204C259.907 169.149 260.004 169.069 260.081 168.964C260.158 168.86 260.211 168.733 260.24 168.584H261.173C261.15 168.877 261.064 169.137 260.914 169.363C260.765 169.588 260.562 169.764 260.305 169.892C260.048 170.018 259.745 170.081 259.398 170.081ZM263.809 170.081C263.394 170.081 263.035 169.995 262.733 169.822C262.433 169.648 262.202 169.401 262.04 169.083C261.878 168.763 261.797 168.386 261.797 167.953C261.797 167.527 261.878 167.152 262.04 166.831C262.203 166.507 262.432 166.255 262.725 166.075C263.018 165.894 263.362 165.803 263.758 165.803C264.013 165.803 264.254 165.844 264.481 165.927C264.709 166.008 264.911 166.134 265.085 166.305C265.261 166.475 265.4 166.693 265.501 166.957C265.601 167.22 265.652 167.533 265.652 167.896V168.195H262.256V167.537H264.716C264.714 167.35 264.673 167.184 264.594 167.038C264.515 166.891 264.404 166.775 264.262 166.69C264.122 166.606 263.959 166.564 263.772 166.564C263.572 166.564 263.397 166.612 263.246 166.709C263.094 166.805 262.977 166.93 262.892 167.087C262.809 167.242 262.767 167.411 262.765 167.597V168.171C262.765 168.412 262.809 168.619 262.898 168.792C262.986 168.962 263.109 169.094 263.267 169.185C263.425 169.275 263.611 169.32 263.823 169.32C263.965 169.32 264.093 169.3 264.208 169.261C264.324 169.22 264.423 169.159 264.508 169.08C264.592 169.001 264.656 168.903 264.699 168.786L265.611 168.889C265.554 169.13 265.444 169.34 265.282 169.52C265.122 169.698 264.917 169.836 264.667 169.935C264.417 170.032 264.131 170.081 263.809 170.081ZM268.015 170.073C267.69 170.073 267.398 169.989 267.141 169.822C266.884 169.655 266.681 169.412 266.532 169.094C266.382 168.775 266.308 168.389 266.308 167.934C266.308 167.473 266.383 167.085 266.534 166.769C266.687 166.45 266.893 166.21 267.152 166.048C267.411 165.885 267.7 165.803 268.018 165.803C268.261 165.803 268.46 165.844 268.617 165.927C268.773 166.008 268.897 166.106 268.989 166.221C269.081 166.334 269.152 166.441 269.202 166.542H269.242V164.476H270.222V170H269.261V169.347H269.202C269.152 169.448 269.079 169.555 268.983 169.668C268.888 169.78 268.762 169.875 268.606 169.954C268.449 170.033 268.252 170.073 268.015 170.073ZM268.288 169.272C268.494 169.272 268.671 169.216 268.816 169.104C268.962 168.991 269.072 168.834 269.148 168.632C269.224 168.431 269.261 168.196 269.261 167.928C269.261 167.66 269.224 167.428 269.148 167.23C269.074 167.032 268.965 166.878 268.819 166.769C268.675 166.659 268.498 166.604 268.288 166.604C268.07 166.604 267.888 166.661 267.743 166.774C267.597 166.887 267.487 167.044 267.414 167.243C267.34 167.443 267.303 167.671 267.303 167.928C267.303 168.187 267.34 168.418 267.414 168.622C267.489 168.823 267.6 168.982 267.745 169.099C267.893 169.214 268.074 169.272 268.288 169.272Z" fill="#13144D"/>
<path fill-rule="evenodd" clip-rule="evenodd" d="M212 148L212 161L212 161.5V174.5L214.5 173L217 174.5L219.5 173L222 174.5L224.5 173L227 174.5L229.5 173L232.5 174.5V161.5L232.5 161L232.5 148L230 149.5L227.5 148L225 149.5L222.5 148L220 149.5L217.5 148L215 149.5L212 148Z" fill="#AE70FF"/>
<path d="M225 169H238V170C238 170.552 237.552 171 237 171H226C225.448 171 225 170.552 225 170V169Z" fill="#014550"/>
<path d="M228 167.078L229.05 166L232.898 169.747C233.196 170.038 233.202 170.514 232.912 170.812C232.622 171.11 232.145 171.116 231.847 170.826L228 167.078Z" fill="#04DB8E"/>
<path d="M226 171L237 171L236.476 176H226.524L226 171Z" fill="#04DB8E"/>
<line x1="216.5" y1="159.5" x2="221.5" y2="159.5" stroke="#13144D" stroke-linecap="round"/>
<line x1="226.5" y1="159.5" x2="228.5" y2="159.5" stroke="#13144D" stroke-linecap="round"/>
<line x1="226.5" y1="162.5" x2="228.5" y2="162.5" stroke="#13144D" stroke-linecap="round"/>
<line x1="216.5" y1="165.5" x2="221.5" y2="165.5" stroke="#13144D" stroke-linecap="round"/>
<line x1="216.5" y1="162.5" x2="223.5" y2="162.5" stroke="#13144D" stroke-linecap="round"/>
<rect x="216" y="154" width="9" height="2" rx="1" fill="white"/>
<rect x="54" y="37" width="86" height="21" rx="10.5" fill="#B3F001"/>
<path d="M66.3668 45.0692V44.4758H70.51V45.0692H68.7729V50H68.1039V45.0692H66.3668ZM72.5384 50.0863C72.1644 50.0863 71.8362 49.9973 71.5538 49.8193C71.2733 49.6413 71.0539 49.3922 70.8957 49.0721C70.7392 48.752 70.661 48.378 70.661 47.95C70.661 47.5184 70.7392 47.1417 70.8957 46.8198C71.0539 46.4979 71.2733 46.248 71.5538 46.07C71.8362 45.8919 72.1644 45.8029 72.5384 45.8029C72.9124 45.8029 73.2397 45.8919 73.5202 46.07C73.8025 46.248 74.0219 46.4979 74.1784 46.8198C74.3366 47.1417 74.4157 47.5184 74.4157 47.95C74.4157 48.378 74.3366 48.752 74.1784 49.0721C74.0219 49.3922 73.8025 49.6413 73.5202 49.8193C73.2397 49.9973 72.9124 50.0863 72.5384 50.0863ZM72.5384 49.5145C72.8225 49.5145 73.0563 49.4416 73.2397 49.296C73.4231 49.1503 73.5589 48.9588 73.647 48.7215C73.7351 48.4841 73.7792 48.2269 73.7792 47.95C73.7792 47.6731 73.7351 47.415 73.647 47.1759C73.5589 46.9367 73.4231 46.7434 73.2397 46.5959C73.0563 46.4485 72.8225 46.3748 72.5384 46.3748C72.2543 46.3748 72.0205 46.4485 71.8371 46.5959C71.6537 46.7434 71.5179 46.9367 71.4298 47.1759C71.3417 47.415 71.2976 47.6731 71.2976 47.95C71.2976 48.2269 71.3417 48.4841 71.4298 48.7215C71.5179 48.9588 71.6537 49.1503 71.8371 49.296C72.0205 49.4416 72.2543 49.5145 72.5384 49.5145ZM77.1893 45.8569V46.3963H75.0422V45.8569H77.1893ZM75.668 44.8642H76.3046V48.8132C76.3046 48.993 76.3306 49.1279 76.3828 49.2178C76.4367 49.3059 76.5051 49.3652 76.5878 49.3958C76.6723 49.4246 76.7613 49.439 76.8548 49.439C76.925 49.439 76.9825 49.4354 77.0275 49.4282C77.0724 49.4192 77.1084 49.412 77.1353 49.4066L77.2648 49.9784C77.2217 49.9946 77.1614 50.0108 77.0841 50.027C77.0068 50.045 76.9088 50.0539 76.7901 50.0539C76.6103 50.0539 76.434 50.0153 76.2614 49.938C76.0906 49.8606 75.9485 49.7429 75.8352 49.5846C75.7237 49.4264 75.668 49.2268 75.668 48.9858V44.8642ZM79.3661 50.0971C79.1035 50.0971 78.8652 50.0477 78.6513 49.9488C78.4373 49.848 78.2673 49.7033 78.1415 49.5145C78.0156 49.3239 77.9526 49.0937 77.9526 48.824C77.9526 48.5866 77.9994 48.3942 78.0929 48.2467C78.1864 48.0975 78.3114 47.9806 78.4678 47.8961C78.6243 47.8115 78.7969 47.7486 78.9857 47.7073C79.1763 47.6641 79.3679 47.6299 79.5603 47.6048C79.812 47.5724 80.0161 47.5481 80.1726 47.5319C80.3308 47.5139 80.4459 47.4843 80.5178 47.4429C80.5916 47.4016 80.6284 47.3296 80.6284 47.2271V47.2055C80.6284 46.9394 80.5556 46.7326 80.4099 46.5852C80.2661 46.4377 80.0476 46.364 79.7545 46.364C79.4506 46.364 79.2123 46.4305 79.0397 46.5636C78.867 46.6966 78.7457 46.8387 78.6755 46.9898L78.0713 46.774C78.1792 46.5222 78.3231 46.3262 78.5029 46.1859C78.6845 46.0439 78.8823 45.945 79.0963 45.8892C79.3121 45.8317 79.5243 45.8029 79.7329 45.8029C79.866 45.8029 80.0188 45.8191 80.1914 45.8515C80.3659 45.882 80.534 45.9459 80.6959 46.043C80.8595 46.1401 80.9953 46.2866 81.1032 46.4827C81.211 46.6787 81.265 46.9412 81.265 47.2703V50H80.6284V49.439H80.5961C80.5529 49.5289 80.481 49.6251 80.3803 49.7276C80.2796 49.8301 80.1456 49.9173 79.9784 49.9892C79.8111 50.0611 79.607 50.0971 79.3661 50.0971ZM79.4632 49.5253C79.7149 49.5253 79.9271 49.4758 80.0997 49.3769C80.2742 49.278 80.4054 49.1503 80.4936 48.9939C80.5835 48.8374 80.6284 48.6729 80.6284 48.5003V47.9176C80.6014 47.95 80.5421 47.9797 80.4504 48.0067C80.3605 48.0318 80.2562 48.0543 80.1375 48.0741C80.0206 48.0921 79.9064 48.1083 79.7949 48.1226C79.6852 48.1352 79.5962 48.146 79.5279 48.155C79.3625 48.1766 79.2078 48.2117 79.064 48.2602C78.9219 48.307 78.8068 48.378 78.7187 48.4733C78.6324 48.5668 78.5892 48.6945 78.5892 48.8563C78.5892 49.0775 78.671 49.2447 78.8347 49.358C79.0001 49.4695 79.2096 49.5253 79.4632 49.5253ZM83.0635 44.4758V50H82.4269V44.4758H83.0635ZM87.5849 50.0971C87.3223 50.0971 87.0841 50.0477 86.8701 49.9488C86.6561 49.848 86.4862 49.7033 86.3603 49.5145C86.2344 49.3239 86.1715 49.0937 86.1715 48.824C86.1715 48.5866 86.2182 48.3942 86.3117 48.2467C86.4052 48.0975 86.5302 47.9806 86.6867 47.8961C86.8431 47.8115 87.0158 47.7486 87.2046 47.7073C87.3952 47.6641 87.5867 47.6299 87.7791 47.6048C88.0309 47.5724 88.235 47.5481 88.3914 47.5319C88.5496 47.5139 88.6647 47.4843 88.7367 47.4429C88.8104 47.4016 88.8473 47.3296 88.8473 47.2271V47.2055C88.8473 46.9394 88.7744 46.7326 88.6288 46.5852C88.4849 46.4377 88.2664 46.364 87.9733 46.364C87.6694 46.364 87.4311 46.4305 87.2585 46.5636C87.0859 46.6966 86.9645 46.8387 86.8944 46.9898L86.2902 46.774C86.3981 46.5222 86.5419 46.3262 86.7217 46.1859C86.9034 46.0439 87.1012 45.945 87.3152 45.8892C87.5309 45.8317 87.7431 45.8029 87.9517 45.8029C88.0848 45.8029 88.2377 45.8191 88.4103 45.8515C88.5847 45.882 88.7528 45.9459 88.9147 46.043C89.0783 46.1401 89.2141 46.2866 89.322 46.4827C89.4299 46.6787 89.4838 46.9412 89.4838 47.2703V50H88.8473V49.439H88.8149C88.7717 49.5289 88.6998 49.6251 88.5991 49.7276C88.4984 49.8301 88.3644 49.9173 88.1972 49.9892C88.03 50.0611 87.8259 50.0971 87.5849 50.0971ZM87.682 49.5253C87.9337 49.5253 88.1459 49.4758 88.3186 49.3769C88.493 49.278 88.6243 49.1503 88.7124 48.9939C88.8023 48.8374 88.8473 48.6729 88.8473 48.5003V47.9176C88.8203 47.95 88.7609 47.9797 88.6692 48.0067C88.5793 48.0318 88.475 48.0543 88.3563 48.0741C88.2394 48.0921 88.1253 48.1083 88.0138 48.1226C87.9041 48.1352 87.8151 48.146 87.7467 48.155C87.5813 48.1766 87.4266 48.2117 87.2828 48.2602C87.1407 48.307 87.0256 48.378 86.9375 48.4733C86.8512 48.5668 86.8081 48.6945 86.8081 48.8563C86.8081 49.0775 86.8899 49.2447 87.0535 49.358C87.219 49.4695 87.4284 49.5253 87.682 49.5253ZM92.2102 50.0863C91.8649 50.0863 91.5601 49.9991 91.2958 49.8247C91.0314 49.6484 90.8246 49.4003 90.6754 49.0802C90.5261 48.7583 90.4515 48.378 90.4515 47.9392C90.4515 47.504 90.5261 47.1264 90.6754 46.8063C90.8246 46.4862 91.0323 46.239 91.2985 46.0646C91.5646 45.8901 91.8721 45.8029 92.221 45.8029C92.4907 45.8029 92.7038 45.8479 92.8602 45.9378C93.0185 46.0259 93.139 46.1266 93.2217 46.2399C93.3062 46.3514 93.3718 46.4431 93.4186 46.515H93.4725V44.4758H94.1091V50H93.4941V49.3634H93.4186C93.3718 49.439 93.3053 49.5343 93.219 49.6493C93.1327 49.7626 93.0095 49.8642 92.8494 49.9541C92.6894 50.0423 92.4763 50.0863 92.2102 50.0863ZM92.2965 49.5145C92.5518 49.5145 92.7676 49.4479 92.9439 49.3149C93.1201 49.18 93.2541 48.9939 93.3458 48.7565C93.4375 48.5174 93.4833 48.2413 93.4833 47.9284C93.4833 47.6191 93.4384 47.3485 93.3485 47.1165C93.2585 46.8828 93.1255 46.7011 92.9493 46.5717C92.773 46.4404 92.5554 46.3748 92.2965 46.3748C92.0268 46.3748 91.802 46.444 91.6222 46.5825C91.4441 46.7191 91.3102 46.9052 91.2202 47.1408C91.1321 47.3746 91.0881 47.6371 91.0881 47.9284C91.0881 48.2233 91.133 48.4913 91.2229 48.7322C91.3147 48.9714 91.4495 49.162 91.6275 49.3041C91.8074 49.4443 92.0304 49.5145 92.2965 49.5145ZM96.9278 50.0863C96.5826 50.0863 96.2778 49.9991 96.0134 49.8247C95.7491 49.6484 95.5423 49.4003 95.3931 49.0802C95.2438 48.7583 95.1692 48.378 95.1692 47.9392C95.1692 47.504 95.2438 47.1264 95.3931 46.8063C95.5423 46.4862 95.75 46.239 96.0161 46.0646C96.2823 45.8901 96.5898 45.8029 96.9386 45.8029C97.2084 45.8029 97.4215 45.8479 97.5779 45.9378C97.7362 46.0259 97.8566 46.1266 97.9394 46.2399C98.0239 46.3514 98.0895 46.4431 98.1363 46.515H98.1902V44.4758H98.8268V50H98.2118V49.3634H98.1363C98.0895 49.439 98.023 49.5343 97.9367 49.6493C97.8503 49.7626 97.7272 49.8642 97.5671 49.9541C97.4071 50.0423 97.194 50.0863 96.9278 50.0863ZM97.0142 49.5145C97.2695 49.5145 97.4853 49.4479 97.6615 49.3149C97.8378 49.18 97.9717 48.9939 98.0634 48.7565C98.1551 48.5174 98.201 48.2413 98.201 47.9284C98.201 47.6191 98.156 47.3485 98.0661 47.1165C97.9762 46.8828 97.8431 46.7011 97.6669 46.5717C97.4907 46.4404 97.2731 46.3748 97.0142 46.3748C96.7444 46.3748 96.5196 46.444 96.3398 46.5825C96.1618 46.7191 96.0278 46.9052 95.9379 47.1408C95.8498 47.3746 95.8057 47.6371 95.8057 47.9284C95.8057 48.2233 95.8507 48.4913 95.9406 48.7322C96.0323 48.9714 96.1672 49.162 96.3452 49.3041C96.525 49.4443 96.748 49.5145 97.0142 49.5145ZM104.019 45.8569V46.3963H101.872V45.8569H104.019ZM102.498 44.8642H103.134V48.8132C103.134 48.993 103.161 49.1279 103.213 49.2178C103.267 49.3059 103.335 49.3652 103.418 49.3958C103.502 49.4246 103.591 49.439 103.685 49.439C103.755 49.439 103.812 49.4354 103.857 49.4282C103.902 49.4192 103.938 49.412 103.965 49.4066L104.095 49.9784C104.052 49.9946 103.991 50.0108 103.914 50.027C103.837 50.045 103.739 50.0539 103.62 50.0539C103.44 50.0539 103.264 50.0153 103.091 49.938C102.92 49.8606 102.778 49.7429 102.665 49.5846C102.554 49.4264 102.498 49.2268 102.498 48.9858V44.8642ZM106.615 50.0863C106.241 50.0863 105.913 49.9973 105.631 49.8193C105.35 49.6413 105.131 49.3922 104.973 49.0721C104.816 48.752 104.738 48.378 104.738 47.95C104.738 47.5184 104.816 47.1417 104.973 46.8198C105.131 46.4979 105.35 46.248 105.631 46.07C105.913 45.8919 106.241 45.8029 106.615 45.8029C106.989 45.8029 107.317 45.8919 107.597 46.07C107.88 46.248 108.099 46.4979 108.255 46.8198C108.414 47.1417 108.493 47.5184 108.493 47.95C108.493 48.378 108.414 48.752 108.255 49.0721C108.099 49.3922 107.88 49.6413 107.597 49.8193C107.317 49.9973 106.989 50.0863 106.615 50.0863ZM106.615 49.5145C106.9 49.5145 107.133 49.4416 107.317 49.296C107.5 49.1503 107.636 48.9588 107.724 48.7215C107.812 48.4841 107.856 48.2269 107.856 47.95C107.856 47.6731 107.812 47.415 107.724 47.1759C107.636 46.9367 107.5 46.7434 107.317 46.5959C107.133 46.4485 106.9 46.3748 106.615 46.3748C106.331 46.3748 106.097 46.4485 105.914 46.5959C105.731 46.7434 105.595 46.9367 105.507 47.1759C105.419 47.415 105.375 47.6731 105.375 47.95C105.375 48.2269 105.419 48.4841 105.507 48.7215C105.595 48.9588 105.731 49.1503 105.914 49.296C106.097 49.4416 106.331 49.5145 106.615 49.5145ZM113.284 50.0863C112.896 50.0863 112.561 49.9946 112.281 49.8112C112 49.6278 111.784 49.3751 111.633 49.0532C111.482 48.7313 111.407 48.3636 111.407 47.95C111.407 47.5292 111.484 47.1579 111.639 46.836C111.795 46.5123 112.013 46.2597 112.291 46.078C112.572 45.8946 112.899 45.8029 113.273 45.8029C113.564 45.8029 113.827 45.8569 114.061 45.9648C114.295 46.0727 114.486 46.2237 114.635 46.4179C114.785 46.6121 114.877 46.8387 114.913 47.0976H114.277C114.228 46.9088 114.12 46.7416 113.953 46.5959C113.787 46.4485 113.564 46.3748 113.284 46.3748C113.036 46.3748 112.818 46.4395 112.631 46.569C112.446 46.6966 112.301 46.8774 112.197 47.1111C112.094 47.3431 112.043 47.6155 112.043 47.9284C112.043 48.2485 112.093 48.5272 112.194 48.7646C112.297 49.002 112.441 49.1863 112.626 49.3176C112.813 49.4488 113.032 49.5145 113.284 49.5145C113.449 49.5145 113.6 49.4857 113.734 49.4282C113.869 49.3706 113.983 49.2879 114.077 49.18C114.17 49.0721 114.237 48.9426 114.277 48.7916H114.913C114.877 49.0361 114.788 49.2564 114.646 49.4524C114.506 49.6466 114.32 49.8013 114.088 49.9164C113.858 50.0297 113.59 50.0863 113.284 50.0863ZM117.063 50.0971C116.8 50.0971 116.562 50.0477 116.348 49.9488C116.134 49.848 115.964 49.7033 115.838 49.5145C115.712 49.3239 115.649 49.0937 115.649 48.824C115.649 48.5866 115.696 48.3942 115.79 48.2467C115.883 48.0975 116.008 47.9806 116.165 47.8961C116.321 47.8115 116.494 47.7486 116.683 47.7073C116.873 47.6641 117.065 47.6299 117.257 47.6048C117.509 47.5724 117.713 47.5481 117.869 47.5319C118.028 47.5139 118.143 47.4843 118.215 47.4429C118.288 47.4016 118.325 47.3296 118.325 47.2271V47.2055C118.325 46.9394 118.252 46.7326 118.107 46.5852C117.963 46.4377 117.744 46.364 117.451 46.364C117.147 46.364 116.909 46.4305 116.737 46.5636C116.564 46.6966 116.443 46.8387 116.372 46.9898L115.768 46.774C115.876 46.5222 116.02 46.3262 116.2 46.1859C116.381 46.0439 116.579 45.945 116.793 45.8892C117.009 45.8317 117.221 45.8029 117.43 45.8029C117.563 45.8029 117.716 45.8191 117.888 45.8515C118.063 45.882 118.231 45.9459 118.393 46.043C118.556 46.1401 118.692 46.2866 118.8 46.4827C118.908 46.6787 118.962 46.9412 118.962 47.2703V50H118.325V49.439H118.293C118.25 49.5289 118.178 49.6251 118.077 49.7276C117.976 49.8301 117.842 49.9173 117.675 49.9892C117.508 50.0611 117.304 50.0971 117.063 50.0971ZM117.16 49.5253C117.412 49.5253 117.624 49.4758 117.797 49.3769C117.971 49.278 118.102 49.1503 118.19 48.9939C118.28 48.8374 118.325 48.6729 118.325 48.5003V47.9176C118.298 47.95 118.239 47.9797 118.147 48.0067C118.057 48.0318 117.953 48.0543 117.834 48.0741C117.717 48.0921 117.603 48.1083 117.492 48.1226C117.382 48.1352 117.293 48.146 117.225 48.155C117.059 48.1766 116.905 48.2117 116.761 48.2602C116.619 48.307 116.504 48.378 116.416 48.4733C116.329 48.5668 116.286 48.6945 116.286 48.8563C116.286 49.0775 116.368 49.2447 116.532 49.358C116.697 49.4695 116.906 49.5253 117.16 49.5253ZM120.124 50V45.8569H120.739V46.4827H120.782C120.857 46.2777 120.994 46.1113 121.192 45.9836C121.39 45.856 121.613 45.7921 121.861 45.7921C121.908 45.7921 121.966 45.793 122.036 45.7948C122.106 45.7966 122.159 45.7993 122.195 45.8029V46.4503C122.174 46.4449 122.124 46.4368 122.047 46.426C121.971 46.4134 121.891 46.4071 121.807 46.4071C121.605 46.4071 121.426 46.4494 121.267 46.5339C121.111 46.6166 120.987 46.7317 120.895 46.8792C120.805 47.0248 120.76 47.1912 120.76 47.3782V50H120.124ZM125.011 45.8569V46.3963H122.864V45.8569H125.011ZM123.49 44.8642H124.127V48.8132C124.127 48.993 124.153 49.1279 124.205 49.2178C124.259 49.3059 124.327 49.3652 124.41 49.3958C124.494 49.4246 124.583 49.439 124.677 49.439C124.747 49.439 124.805 49.4354 124.849 49.4282C124.894 49.4192 124.93 49.412 124.957 49.4066L125.087 49.9784C125.044 49.9946 124.983 50.0108 124.906 50.027C124.829 50.045 124.731 50.0539 124.612 50.0539C124.432 50.0539 124.256 50.0153 124.083 49.938C123.913 49.8606 123.771 49.7429 123.657 49.5846C123.546 49.4264 123.49 49.2268 123.49 48.9858V44.8642ZM128.829 46.7848L128.258 46.9466C128.222 46.8513 128.169 46.7587 128.098 46.6688C128.03 46.5771 127.937 46.5015 127.818 46.4422C127.699 46.3828 127.547 46.3532 127.362 46.3532C127.109 46.3532 126.897 46.4116 126.728 46.5285C126.561 46.6436 126.477 46.7902 126.477 46.9682C126.477 47.1264 126.535 47.2514 126.65 47.3431C126.765 47.4348 126.945 47.5112 127.189 47.5724L127.804 47.7234C128.175 47.8133 128.451 47.9509 128.633 48.1361C128.814 48.3195 128.905 48.556 128.905 48.8455C128.905 49.0829 128.837 49.2951 128.7 49.4821C128.565 49.6691 128.376 49.8166 128.134 49.9245C127.891 50.0324 127.608 50.0863 127.287 50.0863C126.864 50.0863 126.514 49.9946 126.237 49.8112C125.96 49.6278 125.785 49.3598 125.711 49.0074L126.316 48.8563C126.373 49.0793 126.482 49.2465 126.642 49.358C126.804 49.4695 127.015 49.5253 127.276 49.5253C127.572 49.5253 127.808 49.4623 127.982 49.3365C128.159 49.2088 128.247 49.0559 128.247 48.8779C128.247 48.734 128.196 48.6136 128.096 48.5165C127.995 48.4176 127.84 48.3438 127.632 48.2953L126.941 48.1334C126.562 48.0435 126.283 47.9042 126.105 47.7153C125.929 47.5247 125.841 47.2865 125.841 47.0005C125.841 46.7668 125.906 46.56 126.038 46.3802C126.171 46.2003 126.351 46.0592 126.58 45.9567C126.81 45.8542 127.071 45.8029 127.362 45.8029C127.772 45.8029 128.094 45.8928 128.328 46.0727C128.563 46.2525 128.731 46.4898 128.829 46.7848Z" fill="#13144D"/>
<path d="M131.709 57.355C131.103 57.5223 130.747 58.1494 130.914 58.7555L130.695 58.816L130.513 58.1575C130.346 57.5514 129.719 57.1956 129.113 57.3629C128.507 57.5302 128.151 58.1572 128.318 58.7633L128.5 59.4218L128.28 59.4824L127.978 58.3849C127.81 57.7788 127.183 57.423 126.577 57.5903C125.971 57.7575 125.615 58.3846 125.783 58.9907L126.085 60.0882L125.866 60.1488L124.351 54.6612C124.184 54.0551 123.557 53.6993 122.951 53.8666C122.345 54.0339 121.989 54.6609 122.156 55.267L124.246 62.8396L123.048 61.8851C122.557 61.4932 121.84 61.5743 121.448 62.0663C121.057 62.5579 121.138 63.2743 121.63 63.6663L126.474 67.5261C126.759 67.753 127.135 67.8299 127.487 67.733L133.194 66.1579C133.703 66.0174 134.049 65.5449 134.029 65.0169L133.877 61.043C133.874 60.9554 133.86 60.8682 133.836 60.7837L133.11 58.1497C132.942 57.5436 132.315 57.1878 131.709 57.355Z" fill="#AE70FF"/>
<path d="M179.526 155.889C178.693 172.308 165.117 185.364 148.491 185.364C131.865 185.364 118.289 172.308 117.457 155.889" stroke="#014550" stroke-width="0.5" stroke-linecap="round" stroke-linejoin="round"/>
<path d="M117.473 152.483C118.41 136.162 131.941 123.215 148.496 123.215C165.052 123.215 178.584 136.162 179.52 152.483" stroke="#014550" stroke-width="0.5" stroke-linecap="round" stroke-linejoin="round"/>
<path d="M150.808 135.506H147.005V135.891C138.454 137.649 132.023 145.218 132.023 154.29C132.023 163.362 138.454 170.93 147.005 172.689V173.074H150.808C161.181 173.074 169.592 164.664 169.592 154.29C169.592 143.916 161.181 135.506 150.808 135.506Z" fill="#014550"/>
<path d="M147.436 173.074C157.811 173.074 166.221 164.664 166.221 154.29C166.221 143.916 157.811 135.506 147.436 135.506C137.062 135.506 128.652 143.916 128.652 154.29C128.652 164.664 137.062 173.074 147.436 173.074Z" fill="#B3F001" stroke="#04DB8E" stroke-width="0.5" stroke-miterlimit="10"/>
<path d="M118.845 151.109L117.471 152.484L116.098 151.109" stroke="#014550" stroke-width="0.5" stroke-linecap="round" stroke-linejoin="round"/>
<path d="M178.145 157.263L179.519 155.889L180.892 157.263" stroke="#014550" stroke-width="0.5" stroke-linecap="round" stroke-linejoin="round"/>
<path d="M146.672 163.441V144.03H147.916V163.441H146.672ZM149.372 150.824C149.331 150.319 149.142 149.924 148.803 149.641C148.469 149.358 147.961 149.217 147.279 149.217C146.844 149.217 146.488 149.27 146.21 149.376C145.937 149.477 145.735 149.616 145.603 149.793C145.472 149.97 145.404 150.172 145.399 150.399C145.389 150.587 145.421 150.756 145.497 150.907C145.578 151.054 145.704 151.188 145.876 151.309C146.048 151.426 146.268 151.532 146.536 151.628C146.804 151.724 147.122 151.81 147.491 151.886L148.765 152.159C149.625 152.341 150.36 152.581 150.972 152.879C151.583 153.177 152.084 153.528 152.473 153.933C152.862 154.332 153.148 154.782 153.33 155.282C153.517 155.783 153.613 156.329 153.618 156.92C153.613 157.941 153.358 158.806 152.852 159.513C152.347 160.221 151.624 160.759 150.683 161.128C149.748 161.497 148.624 161.682 147.309 161.682C145.96 161.682 144.782 161.482 143.776 161.083C142.775 160.684 141.997 160.069 141.441 159.24C140.89 158.406 140.612 157.34 140.607 156.041H144.61C144.635 156.516 144.754 156.915 144.966 157.239C145.179 157.562 145.477 157.807 145.861 157.974C146.25 158.141 146.713 158.224 147.249 158.224C147.699 158.224 148.075 158.169 148.378 158.058C148.682 157.946 148.912 157.792 149.068 157.595C149.225 157.398 149.306 157.173 149.311 156.92C149.306 156.683 149.228 156.475 149.076 156.299C148.929 156.117 148.687 155.955 148.348 155.813C148.009 155.667 147.552 155.53 146.976 155.404L145.429 155.07C144.054 154.772 142.97 154.274 142.176 153.576C141.388 152.874 140.996 151.916 141.001 150.703C140.996 149.717 141.259 148.855 141.789 148.117C142.325 147.374 143.066 146.795 144.011 146.381C144.961 145.966 146.051 145.759 147.279 145.759C148.533 145.759 149.617 145.969 150.532 146.388C151.447 146.808 152.152 147.399 152.647 148.163C153.148 148.921 153.4 149.808 153.406 150.824H149.372Z" fill="#014550"/>
<defs>
<filter id="filter0_d_9995_61945" x="147" y="0" width="163" height="129" filterUnits="userSpaceOnUse" color-interpolation-filters="sRGB">
<feFlood flood-opacity="0" result="BackgroundImageFix"/>
<feColorMatrix in="SourceAlpha" type="matrix" values="0 0 0 0 0 0 0 0 0 0 0 0 0 0 0 0 0 0 127 0" result="hardAlpha"/>
<feOffset/>
<feGaussianBlur stdDeviation="7.5"/>
<feComposite in2="hardAlpha" operator="out"/>
<feColorMatrix type="matrix" values="0 0 0 0 0 0 0 0 0 0 0 0 0 0 0 0 0 0 0.07 0"/>
<feBlend mode="normal" in2="BackgroundImageFix" result="effect1_dropShadow_9995_61945"/>
<feBlend mode="normal" in="SourceGraphic" in2="effect1_dropShadow_9995_61945" result="shape"/>
</filter>
<filter id="filter1_d_9995_61945" x="0" y="69" width="132" height="81" filterUnits="userSpaceOnUse" color-interpolation-filters="sRGB">
<feFlood flood-opacity="0" result="BackgroundImageFix"/>
<feColorMatrix in="SourceAlpha" type="matrix" values="0 0 0 0 0 0 0 0 0 0 0 0 0 0 0 0 0 0 127 0" result="hardAlpha"/>
<feOffset/>
<feGaussianBlur stdDeviation="7.5"/>
<feComposite in2="hardAlpha" operator="out"/>
<feColorMatrix type="matrix" values="0 0 0 0 0 0 0 0 0 0 0 0 0 0 0 0 0 0 0.07 0"/>
<feBlend mode="normal" in2="BackgroundImageFix" result="effect1_dropShadow_9995_61945"/>
<feBlend mode="normal" in="SourceGraphic" in2="effect1_dropShadow_9995_61945" result="shape"/>
</filter>
<filter id="filter2_d_9995_61945" x="179" y="120" width="143" height="83" filterUnits="userSpaceOnUse" color-interpolation-filters="sRGB">
<feFlood flood-opacity="0" result="BackgroundImageFix"/>
<feColorMatrix in="SourceAlpha" type="matrix" values="0 0 0 0 0 0 0 0 0 0 0 0 0 0 0 0 0 0 127 0" result="hardAlpha"/>
<feOffset/>
<feGaussianBlur stdDeviation="7.5"/>
<feComposite in2="hardAlpha" operator="out"/>
<feColorMatrix type="matrix" values="0 0 0 0 0 0 0 0 0 0 0 0 0 0 0 0 0 0 0.07 0"/>
<feBlend mode="normal" in2="BackgroundImageFix" result="effect1_dropShadow_9995_61945"/>
<feBlend mode="normal" in="SourceGraphic" in2="effect1_dropShadow_9995_61945" result="shape"/>
</filter>
</defs>
</svg>
