<svg width="24" height="24" viewBox="0 0 24 24" fill="none" xmlns="http://www.w3.org/2000/svg">
<g id="smartphone-line">
<path id="Vector" d="M7.00391 4.00391V20.0039H17.0039V4.00391H7.00391ZM6.00391 2.00391H18.0039C18.5562 2.00391 19.0039 2.45163 19.0039 3.00391V21.0039C19.0039 21.5562 18.5562 22.0039 18.0039 22.0039H6.00391C5.45163 22.0039 5.00391 21.5562 5.00391 21.0039V3.00391C5.00391 2.45163 5.45163 2.00391 6.00391 2.00391ZM12.0039 17.0039C12.5562 17.0039 13.0039 17.4516 13.0039 18.0039C13.0039 18.5562 12.5562 19.0039 12.0039 19.0039C11.4516 19.0039 11.0039 18.5562 11.0039 18.0039C11.0039 17.4516 11.4516 17.0039 12.0039 17.0039Z" fill="#5A5A67"/>
</g>
</svg>
