<svg width="156" height="126" viewBox="0 0 156 126" fill="none" xmlns="http://www.w3.org/2000/svg">
<g clip-path="url(#clip0_3200_27060)">
<path d="M110.518 54.3619L93.3785 53.3242L71.0141 59.2327C63.1706 61.3019 56.8043 67.0273 53.9111 74.6022L39.9395 111.195L67.3945 86.8648L74.9571 125.172L126.254 125.008L126.089 71.8188L110.512 54.3619H110.518Z" fill="#AE70FF"/>
<path d="M98.9758 67.52C95.692 69.107 91.6573 67.5383 90.0032 64.0286L89.4477 62.8383L83.7956 50.826L80.3408 43.4709L97.047 35.3955L104.323 50.8504C107.314 57.2106 104.927 64.639 98.9819 67.5139L98.9758 67.52Z" fill="#E69560"/>
<path d="M98.6338 47.7314C97.1628 54.8912 93.4883 59.7987 89.4476 62.8445L83.7954 50.8322L98.6338 47.7314Z" fill="#13144D"/>
<path d="M100.593 38.7651C100.593 47.4143 95.7159 53.3411 89.5327 56.3991C83.1665 59.5426 76.5194 47.4631 73.3454 39.3816C70.0493 30.995 79.1196 24.708 86.7189 24.708C94.3182 24.708 100.599 30.116 100.599 38.7651H100.593Z" fill="#E69560"/>
<path d="M100.935 33.8334C100.196 24.9584 98.3896 16.5656 90.1677 18.7081C87.0426 14.3499 73.9743 14.4354 70.7697 24.7936C68.7005 31.4773 62.0535 34.7428 62.0535 34.7428C70.0251 38.9362 77.3802 37.3675 87.6163 29.5668C90.8208 34.2545 99.9461 34.5841 99.9461 34.5841L100.935 33.8456V33.8334Z" fill="#13144D"/>
<path d="M103.482 38.0172C103.841 35.2152 102.357 32.716 100.167 32.4351C97.9772 32.1541 95.9104 34.1978 95.551 36.9998C95.1915 39.8018 96.6756 42.301 98.8657 42.5819C101.056 42.8629 103.123 40.8192 103.482 38.0172Z" fill="#E69560"/>
<path d="M100.319 35.3838C99.7876 35.8233 99.6106 36.4154 99.6167 37.0502C99.6167 37.3614 99.6717 37.6849 99.7632 37.984C99.8609 38.2892 99.9891 38.5761 100.209 38.8264L100.062 39.0766C99.6534 38.9423 99.3543 38.6005 99.1651 38.2404C98.9758 37.8742 98.8843 37.4652 98.8843 37.0502C98.8843 36.6412 98.9819 36.2139 99.2078 35.8477C99.4275 35.4815 99.7999 35.2007 100.197 35.1152L100.319 35.3777V35.3838Z" fill="#13144D"/>
<path d="M86.5393 42.1358C87.2255 42.0904 87.7404 41.4291 87.6894 40.6588C87.6383 39.8885 87.0407 39.3009 86.3545 39.3464C85.6683 39.3919 85.1534 40.0531 85.2045 40.8234C85.2555 41.5937 85.8531 42.1813 86.5393 42.1358Z" fill="#13144D"/>
<path d="M80.3658 44.4178C80.9474 44.1927 81.2138 43.4802 80.9609 42.8262C80.7079 42.1723 80.0313 41.8246 79.4496 42.0496C78.868 42.2746 78.6016 42.9872 78.8546 43.6411C79.1076 44.2951 79.7842 44.6428 80.3658 44.4178Z" fill="#13144D"/>
<path d="M89.8318 37.1278C89.8562 37.5185 87.7809 37.3903 86.8898 37.5795C86.1268 37.7382 84.967 38.4829 84.4421 37.7443C83.9721 37.079 85.1563 36.316 86.6273 36.2183C88.0983 36.1207 89.8074 36.7372 89.8318 37.1278Z" fill="#13144D"/>
<path d="M76.4461 41.4305C76.678 41.7479 77.7401 40.6492 78.3505 40.3684C78.8693 40.1243 79.9802 40.1487 79.7971 39.3125C79.6323 38.5556 78.5031 38.5373 77.6363 39.166C76.7696 39.8008 76.2203 41.107 76.4522 41.4305H76.4461Z" fill="#13144D"/>
<path d="M84.7595 50.2316C85.2356 49.6578 85.9131 49.2916 86.6029 49.0596C87.2987 48.8338 88.0129 48.73 88.7331 48.785L88.7881 49.0718C88.1349 49.3831 87.4696 49.554 86.8287 49.7616C86.1817 49.963 85.5774 50.195 84.9304 50.4696L84.7595 50.2377V50.2316Z" fill="#13144D"/>
<path d="M82.8916 44.0374C82.9282 44.5745 82.8489 45.1483 82.5681 45.6671C82.4338 45.9295 82.2446 46.1615 82.0493 46.3568C81.8601 46.5521 81.6647 46.7169 81.6159 46.8329C81.6037 46.894 81.5732 46.9367 81.5854 47.0282C81.5854 47.0832 81.5976 47.0832 81.5915 47.0954C81.5915 47.1076 81.6159 47.1259 81.6281 47.1503C81.7197 47.2541 81.9394 47.3578 82.153 47.4372C82.5986 47.5959 83.1113 47.7058 83.6119 47.8217V48.1086C83.0686 48.1819 82.5315 48.1758 81.976 48.0598C81.7014 47.9926 81.4145 47.9133 81.1215 47.6569C81.0544 47.5837 80.9811 47.4982 80.9323 47.3945C80.8835 47.2785 80.8529 47.1625 80.8529 47.0832C80.8285 46.9123 80.8651 46.6986 80.9445 46.5155C81.1337 46.1615 81.3779 46.0089 81.5549 45.8441C81.738 45.6854 81.8906 45.5206 82.0249 45.3375C82.2934 44.9651 82.4582 44.5012 82.5986 44.0068L82.8855 44.0374H82.8916Z" fill="#13144D"/>
<path d="M139.09 72.2263C134.219 61.9779 124.16 55.1905 112.831 54.5007L110.518 54.3604L127.578 93.2113L146.256 86.2773L139.09 72.2263Z" fill="#AE70FF"/>
<path d="M79.4798 46.9068C79.2967 44.0685 79.7911 37.4093 78.0637 38.1539C76.3364 38.8986 75.903 48.5121 75.903 48.5121C75.903 48.5121 75.6588 32.4835 73.8094 33.222C71.9599 33.9606 71.9599 45.5518 67.8887 57.8815L45.0359 106.145C42.2892 111.949 45.7501 118.792 52.0553 120.012C56.682 120.91 61.2904 118.395 63.0483 114.025C68.969 99.3143 79.84 67.5805 80.8959 61.3973C81.7566 56.3433 81.5368 54.1582 81.2011 52.8581C80.6518 50.7095 79.6202 49.1225 79.4737 46.9129L79.4798 46.9068Z" fill="#E69560"/>
<path d="M68.0352 56.814C68.7371 54.9096 69.1888 52.9258 69.6161 50.9421C70.0372 48.9522 70.3851 46.9502 70.7514 44.9481L71.8256 38.9298C72.0149 37.9287 72.2102 36.9277 72.4421 35.9267C72.5581 35.4262 72.6863 34.9317 72.845 34.4373C72.9243 34.1871 73.0098 33.9429 73.1258 33.6988C73.1807 33.5767 73.2478 33.4546 73.3272 33.3325C73.4187 33.2166 73.5103 33.0701 73.7544 32.9968H73.7361C73.8094 32.9846 73.8826 32.9785 73.9559 32.9785C74.023 32.9907 74.0902 33.0151 74.1573 33.0396C74.2611 33.1006 74.3587 33.1799 74.4137 33.2593C74.5479 33.418 74.6212 33.5767 74.6944 33.7415C74.8348 34.065 74.9386 34.3885 75.024 34.712C75.195 35.359 75.317 36.0182 75.4208 36.6713C75.6283 37.9837 75.7687 39.296 75.8786 40.6083C76.0922 43.2391 76.2082 45.8759 76.1777 48.5189L75.6161 48.5067C75.6772 47.0112 75.787 45.5341 75.9579 44.0509C76.1349 42.5737 76.3425 41.0905 76.8125 39.6378C76.9407 39.2777 77.081 38.9175 77.2947 38.5696C77.4106 38.3987 77.5327 38.2278 77.7219 38.0874C77.899 37.9348 78.1797 37.8677 78.43 37.8982C78.491 37.9104 78.546 37.9348 78.6009 37.9531C78.6619 37.9776 78.7047 37.9776 78.784 38.0447C78.8206 38.0691 78.8512 38.0996 78.8817 38.1302C78.9061 38.1607 78.9183 38.179 78.9366 38.2095C78.9671 38.2583 79.0037 38.3133 79.0221 38.3621C79.1075 38.5574 79.1624 38.7466 79.2113 38.9298C79.3089 39.3021 79.3639 39.6744 79.4188 40.0468C79.6141 41.5361 79.663 43.0254 79.6508 44.5209C79.6508 45.2716 79.5958 46.0041 79.663 46.7244C79.724 47.4507 79.8522 48.1649 80.0414 48.8729C80.2306 49.5809 80.4687 50.2768 80.7311 50.9665C80.9997 51.6501 81.2683 52.3704 81.4148 53.109C81.7322 54.5861 81.7688 56.0998 81.6284 57.5892C81.488 59.0785 81.2011 60.5434 80.8105 61.9778L80.5969 61.9229C80.957 60.4885 81.2133 59.0297 81.3232 57.5648C81.4331 56.0998 81.3659 54.6166 81.0302 53.1944C80.8715 52.4803 80.6213 51.8027 80.3466 51.113C80.078 50.4172 79.8278 49.7091 79.6324 48.9828C79.4371 48.2564 79.2906 47.5117 79.2296 46.761C79.1563 46.0041 79.1991 45.2472 79.1991 44.5209C79.1991 43.0498 79.1441 41.5666 78.9427 40.12C78.8878 39.7599 78.8328 39.3998 78.7413 39.0579C78.6986 38.887 78.6436 38.7222 78.5765 38.5757C78.5643 38.533 78.5399 38.5208 78.5276 38.4903C78.5093 38.4537 78.4971 38.4476 78.4971 38.4476C78.5093 38.4353 78.4605 38.4292 78.43 38.417C78.3995 38.4109 78.3689 38.3926 78.3384 38.3865C78.1187 38.3499 77.8806 38.5452 77.7036 38.8382C77.5266 39.1251 77.3984 39.4608 77.2825 39.7965C76.8491 41.176 76.6477 42.647 76.4829 44.1119C76.3242 45.5768 76.2204 47.054 76.1716 48.525L75.61 48.5128C75.6344 45.8942 75.549 43.2635 75.3475 40.651C75.2438 39.3448 75.1156 38.0386 74.9203 36.7446C74.8226 36.0976 74.7066 35.4567 74.5418 34.8341C74.4625 34.5228 74.3648 34.2176 74.2428 33.9368C74.1817 33.7964 74.1146 33.656 74.0291 33.5645C73.9925 33.5034 73.9498 33.4912 73.9193 33.4607C73.907 33.4607 73.8948 33.4546 73.8887 33.4485C73.8826 33.4546 73.8765 33.4546 73.8643 33.4485H73.846C73.846 33.4485 73.7545 33.5095 73.6995 33.6011C73.6385 33.6927 73.5835 33.7903 73.5347 33.9002C73.4309 34.1138 73.3516 34.3519 73.2722 34.5838C73.1197 35.0599 72.9915 35.5482 72.8694 36.0365C72.6313 37.0193 72.4299 38.0142 72.2346 39.0152L71.1298 45.0214C70.7636 47.0234 70.3668 49.0255 69.9151 51.0153C69.4512 52.9991 68.9629 54.9889 68.2244 56.8994L68.0168 56.8201L68.0352 56.814Z" fill="#C8753E"/>
<path d="M155.18 113.389C155.094 119.072 152.622 123.04 149.515 125.328L143.216 125.231L141.66 125.206H141.623L134.219 108.354L134.207 108.317L127.572 93.2162L146.244 86.2822L153.214 103.385C154.643 107.17 155.222 110.502 155.18 113.395V113.389Z" fill="#E69560"/>
<path d="M150.01 106.585L100.99 112.073L94.6112 110.009C91.724 109.076 88.5623 109.649 86.1879 111.542C80.6273 115.985 71.5814 124.17 73.9253 124.83C77.8683 125.94 83.0261 123.865 87.6528 122.699C90.2103 122.058 92.9082 122.364 95.2521 123.56L98.4566 125.202H147.293L150.003 106.579L150.01 106.585Z" fill="#E69560"/>
<path d="M75.0969 123.97C76.4215 123.194 77.7643 122.462 79.1132 121.736C80.4561 121.003 81.8234 120.313 83.1784 119.605C83.8437 119.257 84.564 118.897 85.3086 118.635C86.0533 118.378 86.8285 118.189 87.6098 118.104C88.3911 118.018 89.1785 118.006 89.9598 118.079C90.7349 118.165 91.5101 118.317 92.2426 118.568L92.1693 118.848C91.4247 118.702 90.68 118.604 89.9292 118.598C89.1846 118.574 88.4338 118.623 87.7013 118.751C86.9689 118.873 86.2486 119.056 85.5528 119.318C84.8509 119.563 84.2038 119.917 83.5141 120.258C82.1408 120.936 80.7857 121.638 79.4001 122.297C78.0207 122.962 76.6351 123.616 75.2373 124.232L75.103 123.976L75.0969 123.97Z" fill="#C8753E"/>
<path d="M75.8108 121.522C76.702 120.68 77.6297 119.887 78.5819 119.117C79.528 118.342 80.5046 117.604 81.5057 116.896C82.5128 116.194 83.526 115.51 84.6125 114.912C85.699 114.344 86.8038 113.722 88.1039 113.6L88.1283 113.886C87.5668 114.033 87.0235 114.253 86.4986 114.558C85.9676 114.826 85.4548 115.15 84.9421 115.467C83.9228 116.114 82.9279 116.804 81.9329 117.5C80.938 118.19 79.9614 118.916 78.9665 119.618C77.9776 120.326 76.9949 121.046 76 121.748L75.8169 121.522H75.8108Z" fill="#C8753E"/>
<path d="M140.725 107.772L134.147 107.934L134.165 108.672L140.743 108.51L140.725 107.772Z" fill="#C8753E"/>
<path d="M123.02 83.3846L122.577 83.6025L127.349 93.3224L127.793 93.1045L123.02 83.3846Z" fill="#995DE7"/>
<path d="M155.18 113.389C155.094 119.072 152.622 123.04 149.515 125.329L143.216 125.231C143.216 125.231 143.216 125.219 143.216 125.206C142.984 124.382 142.862 123.516 142.862 122.618C142.862 118.541 145.395 115.056 148.984 113.658C150.071 113.237 151.249 113.005 152.482 113.005C153.422 113.005 154.325 113.139 155.186 113.396L155.18 113.389Z" fill="#E69560"/>
<path d="M77.0999 119.256H48.9856V125.177H77.0999V119.256Z" fill="#13144D"/>
<path d="M58.5196 125.176H13.8823L1.05811 80.5391H45.6954L58.5196 125.176Z" fill="#13144D"/>
<g clip-path="url(#clip1_3200_27060)">
<path d="M28.6107 105.998C29.9536 105.998 31.0422 104.476 31.0422 102.598C31.0422 100.72 29.9536 99.1982 28.6107 99.1982C27.2678 99.1982 26.1792 100.72 26.1792 102.598C26.1792 104.476 27.2678 105.998 28.6107 105.998Z" fill="#AE70FF"/>
</g>
<path d="M13.7053 125.226L0.813965 80.3564H14.6208V80.7227H1.30227L14.0593 125.128L13.7053 125.226Z" fill="#1B1B43"/>
<path d="M68.2551 0.0234375L67.8401 4.9065L72.7171 5.73663L71.1972 9.85061L73.7852 10.9798" stroke="#1B1B43" stroke-width="0.610383" stroke-miterlimit="10"/>
<path d="M77.8623 1.86035L78.3445 9.14833" stroke="#1B1B43" stroke-width="0.610383" stroke-miterlimit="10"/>
<path d="M68.0353 14.1307L65.2764 12.5498" stroke="#1B1B43" stroke-width="0.610383" stroke-miterlimit="10"/>
</g>
<defs>
<clipPath id="clip0_3200_27060">
<rect width="154.372" height="125.33" fill="white" transform="translate(0.813965)"/>
</clipPath>
<clipPath id="clip1_3200_27060">
<rect width="4.85788" height="6.8" fill="white" transform="translate(26.1792 99.1973)"/>
</clipPath>
</defs>
</svg>
