<svg width="48" height="49" viewBox="0 0 48 49" fill="none" xmlns="http://www.w3.org/2000/svg">
<circle cx="24" cy="24.4781" r="24" fill="#F5F5F6"/>
<g clip-path="url(#clip0_8777_23899)">
<path d="M33 24.1241V33.4781C33 33.7434 32.8946 33.9977 32.7071 34.1853C32.5196 34.3728 32.2652 34.4781 32 34.4781H16C15.7348 34.4781 15.4804 34.3728 15.2929 34.1853C15.1054 33.9977 15 33.7434 15 33.4781V24.1241C14.3543 23.3941 13.9986 22.4528 14 21.4781V15.4781C14 15.2129 14.1054 14.9586 14.2929 14.771C14.4804 14.5835 14.7348 14.4781 15 14.4781H33C33.2652 14.4781 33.5196 14.5835 33.7071 14.771C33.8946 14.9586 34 15.2129 34 15.4781V21.4781C34 22.4921 33.622 23.4181 33 24.1241ZM31 25.3521C30.2849 25.5359 29.5328 25.5184 28.827 25.3017C28.1211 25.085 27.4889 24.6775 27 24.1241C26.625 24.5502 26.1635 24.8914 25.6461 25.1249C25.1288 25.3584 24.5676 25.4788 24 25.4781C23.4324 25.4788 22.8712 25.3584 22.3539 25.1249C21.8365 24.8914 21.375 24.5502 21 24.1241C20.5123 24.6791 19.8801 25.0877 19.1739 25.3045C18.4676 25.5214 17.7151 25.5378 17 25.3521V32.4781H31V25.3521ZM26 21.4781C26 21.2129 26.1054 20.9586 26.2929 20.771C26.4804 20.5835 26.7348 20.4781 27 20.4781C27.2652 20.4781 27.5196 20.5835 27.7071 20.771C27.8946 20.9586 28 21.2129 28 21.4781C28 22.0086 28.2107 22.5173 28.5858 22.8924C28.9609 23.2674 29.4696 23.4781 30 23.4781C30.5304 23.4781 31.0391 23.2674 31.4142 22.8924C31.7893 22.5173 32 22.0086 32 21.4781V16.4781H16V21.4781C16 22.0086 16.2107 22.5173 16.5858 22.8924C16.9609 23.2674 17.4696 23.4781 18 23.4781C18.5304 23.4781 19.0391 23.2674 19.4142 22.8924C19.7893 22.5173 20 22.0086 20 21.4781C20 21.2129 20.1054 20.9586 20.2929 20.771C20.4804 20.5835 20.7348 20.4781 21 20.4781C21.2652 20.4781 21.5196 20.5835 21.7071 20.771C21.8946 20.9586 22 21.2129 22 21.4781C22 22.0086 22.2107 22.5173 22.5858 22.8924C22.9609 23.2674 23.4696 23.4781 24 23.4781C24.5304 23.4781 25.0391 23.2674 25.4142 22.8924C25.7893 22.5173 26 22.0086 26 21.4781Z" fill="#5A5A67"/>
</g>
<defs>
<clipPath id="clip0_8777_23899">
<rect width="24" height="24" fill="white" transform="translate(12 12.4781)"/>
</clipPath>
</defs>
</svg>
