<svg width="48" height="48" viewBox="0 0 48 48" fill="none" xmlns="http://www.w3.org/2000/svg">
    <rect x="0.375" y="0.375" width="47.25" height="47.25" rx="23.625" fill="white" stroke="#E5E5E8" stroke-width="0.75"/>
    <rect x="8" y="8" width="32" height="32" rx="16" fill="white"/>
    <path d="M21.9776 21.758V20.9409C21.694 20.8959 21.4075 20.8713 21.1203 20.8672C18.3401 20.8613 15.8786 22.6629 15.0438 25.3149C14.2089 27.9667 15.1944 30.8534 17.4765 32.4413C15.7671 30.6117 15.2924 27.9483 16.2646 25.6408C17.2368 23.3334 19.4743 21.8126 21.9776 21.758Z" fill="#25F4EE"/>
    <path d="M22.1334 31.0152C23.6877 31.0131 24.9655 29.7885 25.0336 28.2355V14.3774H27.5654C27.5137 14.0879 27.4891 13.7941 27.4917 13.5L24.0289 13.5V27.3447C23.9713 28.9055 22.6906 30.1419 21.1287 30.1445C20.6619 30.1405 20.2028 30.0257 19.7891 29.8096C20.0572 30.181 20.4093 30.4839 20.8167 30.6934C21.2241 30.9029 21.6752 31.0132 22.1334 31.0152ZM32.2942 19.0794V18.3091C31.3624 18.3095 30.4513 18.0345 29.6753 17.5188C30.3556 18.3096 31.2749 18.8574 32.2942 19.0794Z" fill="#25F4EE"/>
    <path d="M29.6722 17.5191C28.9077 16.6486 28.4863 15.5296 28.4866 14.3711H27.5623C27.6817 15.0116 27.9304 15.6211 28.2931 16.1624C28.6559 16.7036 29.1251 17.1653 29.6722 17.5191ZM21.1189 24.331C19.7849 24.3378 18.6268 25.2517 18.31 26.5475C17.9932 27.8433 18.599 29.1883 19.7793 29.8099C19.4656 29.3769 19.2778 28.8656 19.2365 28.3325C19.1952 27.7994 19.3022 27.2652 19.5454 26.7891C19.7887 26.313 20.1589 25.9133 20.615 25.6344C21.0712 25.3554 21.5956 25.208 22.1303 25.2084C22.421 25.212 22.7096 25.2572 22.9876 25.3424V21.8192C22.7038 21.7767 22.4173 21.7543 22.1303 21.7523H21.9762V24.4314C21.6968 24.3565 21.408 24.3227 21.1189 24.331Z" fill="#FE2C55"/>
    <path d="M32.2925 19.0781V21.7573C30.5675 21.754 28.8874 21.208 27.49 20.1967V27.2362C27.4827 30.7489 24.6329 33.5926 21.1203 33.5926C19.8157 33.5949 18.5426 33.1924 17.4766 32.4406C19.2557 34.354 22.0245 34.9839 24.4563 34.0284C26.8881 33.0728 28.4874 30.7265 28.488 28.1137V21.0942C29.8901 22.0989 31.5723 22.6378 33.2972 22.6347V19.1853C32.9595 19.1842 32.6228 19.1483 32.2925 19.0781Z" fill="#FE2C55"/>
    <path d="M27.488 27.2379V20.1983C28.8896 21.2038 30.5721 21.7428 32.2971 21.7389V19.0597C31.278 18.8445 30.3565 18.3038 29.6715 17.5191C29.1244 17.1653 28.6552 16.7036 28.2925 16.1624C27.9297 15.6211 27.681 15.0116 27.5617 14.3711H25.0298V28.2359C24.9792 29.4729 24.1507 30.542 22.9655 30.8998C21.7803 31.2576 20.4987 30.8256 19.7719 29.8233C18.5916 29.2017 17.9858 27.8567 18.3027 26.5609C18.6195 25.2651 19.7776 24.3512 21.1115 24.3444C21.4023 24.347 21.6911 24.3921 21.9689 24.4783V21.7991C19.4514 21.8418 17.197 23.3678 16.2221 25.6891C15.2472 28.0104 15.7358 30.6885 17.4678 32.5159C18.5444 33.243 19.8194 33.6196 21.1182 33.5943C24.6309 33.5943 27.4806 30.7506 27.488 27.2379Z" fill="black"/>
</svg>
