<svg width="64" height="64" viewBox="0 0 64 64" fill="none" xmlns="http://www.w3.org/2000/svg">
    <circle cx="32" cy="32" r="32" fill="white"/>
    <circle cx="32" cy="32" r="31.3846" stroke="#1956DD" stroke-opacity="0.1" stroke-width="1.23077"/>
    <path d="M40.0119 46.0326L38.5352 43.4738L40.412 40.4922L41.8944 43.0567L40.0119 46.0326Z" stroke="black" stroke-width="0.00839495" stroke-miterlimit="10"/>
    <path d="M29.1698 40.4369L29.0909 40.8765L29.0176 41.3161L28.9444 41.7445L28.8767 42.1728L28.7978 42.5956L28.7189 43.0183L28.6287 43.4354L28.5329 43.8468L28.5047 43.9652L28.4878 44.0779L28.4766 44.185L28.4822 44.2808L28.4935 44.3766L28.5104 44.4612L28.5386 44.5401L28.578 44.619L28.6287 44.6923L28.6907 44.7655L28.7584 44.8332L28.8373 44.8952L28.9275 44.9572L29.0233 45.0135L29.1304 45.0699L29.2487 45.1262L29.5305 45.2502L29.8124 45.3517L30.0998 45.4475L30.3816 45.5208L30.6691 45.5884L30.9509 45.6335L31.2327 45.673L31.5201 45.6955L31.802 45.7068L32.0894 45.7124L32.3712 45.7011L32.6587 45.6842L32.9405 45.6504L33.2223 45.6166L33.5097 45.5659L33.7916 45.5151L33.8761 45.4982L33.955 45.487L34.0339 45.4813L34.1072 45.4757L34.1748 45.4813L34.2368 45.487L34.2988 45.5039L34.3552 45.5208L34.4115 45.549L34.4679 45.5771L34.513 45.6166L34.5637 45.6617L34.6088 45.7068L34.6539 45.7631L34.699 45.8251L34.7384 45.8928L34.7948 45.9942L35.009 46.4L35.2344 46.8059L35.5839 47.3977L35.939 48.0007L37.8215 45.0248L37.4664 44.4217L37.1169 43.8243L36.8859 43.4241L36.6717 43.0127L36.621 42.9168L36.5815 42.8492L36.5364 42.7872L36.4913 42.7308L36.4462 42.6801L36.3955 42.6407L36.3448 42.6012L36.2941 42.573L36.2377 42.5448L36.1813 42.5279L36.1193 42.511L36.0517 42.5054L35.9841 42.4998H35.9164L35.8375 42.511L35.7586 42.5223L35.6741 42.5336L35.3866 42.5899L35.1048 42.635L34.823 42.6745L34.5355 42.7027L34.2537 42.7252L33.9663 42.7365L33.6845 42.7308L33.4027 42.7196L33.1152 42.697L32.8334 42.6576L32.5459 42.6068L32.2641 42.5448L31.9767 42.4716L31.6949 42.3758L31.4131 42.2687L31.1256 42.1503L31.0129 42.0939L30.9058 42.0376L30.81 41.9812L30.7198 41.9192L30.6409 41.8572L30.5733 41.7896L30.5113 41.7163L30.4605 41.6374L30.4211 41.5641L30.3929 41.4852L30.376 41.4007L30.3647 41.3049L30.3591 41.209L30.3703 41.102L30.3873 40.9892L30.4098 40.8709L30.5113 40.4538L30.6014 40.0423L30.6803 39.6196L30.7536 39.1969L30.8269 38.7685L30.9002 38.3346L30.9734 37.9006L31.0523 37.4609L29.1698 40.4369Z" stroke="black" stroke-width="0.00839495" stroke-miterlimit="10"/>
    <path d="M35.1689 38.4681L35.2365 38.6485L35.2872 38.8345L35.3267 39.0261L35.3379 39.1445V39.2572L35.3323 39.3643L35.321 39.4714L35.2929 39.5728L35.259 39.6687L35.2196 39.7588L35.1689 39.849L35.1069 39.9392L35.0336 40.0237L34.9547 40.1026L34.8645 40.1816L34.763 40.2548L34.6503 40.3281L34.532 40.3957L34.4023 40.4634L34.1825 40.5648L33.9345 40.655L33.6471 40.7508L33.354 40.8297L33.0609 40.8917L32.7734 40.9424L32.4747 40.9819L32.1816 40.9988L31.8886 41.0044L31.5898 40.9988L31.2911 40.9763L30.9924 40.9424L30.6937 40.8917L30.3893 40.8297L30.0906 40.7508L29.7862 40.6606L29.4819 40.5592L29.1719 40.4408L31.0544 37.4649L31.3587 37.5832L31.6687 37.6847L31.9731 37.7749L32.2718 37.8538L32.5762 37.9158L32.8749 37.9665L33.1736 38.0003L33.4723 38.0229L33.7654 38.0285L34.0641 38.0229L34.3572 38.0003L34.6503 37.9665L34.9434 37.9158L35.2365 37.8538L35.5239 37.7749L35.817 37.6791L36.0594 37.5889L36.2848 37.4874L36.4145 37.4198L36.5328 37.3522L36.6456 37.2789L36.747 37.2056L36.8372 37.1267L36.9161 37.0478L36.9894 36.9633L37.0457 36.8731L37.1021 36.7829L37.1415 36.6927L37.1754 36.5913L37.1979 36.4954L37.2148 36.3884L37.2205 36.2813L37.2148 36.1685L37.2035 36.0502L37.1697 35.8585L37.119 35.6725L37.0514 35.4922L35.1689 38.4681Z" fill="#F88560"/>
    <path d="M22.0037 23.8705L22.1615 24.141L22.3081 24.4059L22.4546 24.6708L22.6011 24.9301L22.697 25.0935L22.7928 25.257L22.8999 25.4148L23.0013 25.5726L23.0859 25.7079L23.1253 25.7868L23.1648 25.8601L23.1873 25.9333L23.2099 26.001L23.2211 26.0743L23.2268 26.1419V26.2095L23.2155 26.2715L23.2042 26.3392L23.1817 26.4068L23.1535 26.4688L23.1197 26.5364L23.0746 26.6041L23.0295 26.6717L22.9731 26.745L22.9111 26.8126L22.7533 27.0042L22.6011 27.1959L22.4602 27.3931L22.325 27.5904L22.2066 27.7933L22.0882 27.9962L21.9811 28.2048L21.8853 28.4133L21.8008 28.6218L21.7219 28.8304L21.6486 29.0446L21.5922 29.2587L21.5359 29.4786L21.4964 29.6927L21.457 29.9125L21.4344 30.1267L21.4175 30.3465L21.4062 30.5664L21.4119 30.7862L21.4175 31.006L21.4344 31.2258L21.4626 31.44L21.4964 31.6598L21.5415 31.874L21.5979 32.0938L21.6542 32.308L21.7275 32.5165L21.8064 32.7307L21.891 32.9392L21.9868 33.1478L22.0939 33.3563L22.2066 33.5592L22.3475 33.7959L22.5053 34.0327L22.6744 34.2637L22.8604 34.4892L23.052 34.7146L23.2549 34.9288L23.4748 35.143L23.7002 35.3459L23.9313 35.5375L24.168 35.7179L24.4104 35.887L24.6527 36.0448L24.9064 36.1913L25.16 36.3266L25.4193 36.4506L25.6785 36.5577L25.9491 36.6591L26.2196 36.7493L26.4958 36.8282L26.772 36.8902L27.0594 36.9466L27.3469 36.9917L27.6343 37.0255L27.9274 37.048L28.6094 37.0819L29.2914 37.1157L29.9734 37.1439L30.6553 37.172L31.3373 37.2059L32.0193 37.2397L32.6957 37.2848L33.3777 37.3468L33.5298 37.3637L33.6764 37.3862L33.8173 37.4144L33.9526 37.4539L34.0822 37.4933L34.2062 37.544L34.3189 37.5948L34.4316 37.6568L34.5331 37.7188L34.6289 37.7864L34.7247 37.8653L34.8093 37.9442L34.8882 38.0231L34.9558 38.1133L35.0234 38.2091L35.0854 38.3049L35.17 38.4684L37.0525 35.4924L36.968 35.329L36.906 35.2275L36.8383 35.1374L36.7651 35.0472L36.6861 34.9626L36.6016 34.8837L36.5114 34.8105L36.4156 34.7428L36.3085 34.6808L36.2014 34.6188L36.0831 34.5681L35.9647 34.5174L35.8351 34.4779L35.6998 34.4385L35.5589 34.4103L35.4124 34.3877L35.2602 34.3652L34.5782 34.3088L33.8962 34.2637L33.2142 34.2243L32.5379 34.1961L31.8559 34.1679L31.1739 34.1397L30.4919 34.1059L29.8099 34.0721L29.5168 34.0496L29.2237 34.0157L28.9363 33.9707L28.6545 33.9143L28.3783 33.8467L28.1021 33.7734L27.8316 33.6832L27.561 33.5817L27.2961 33.469L27.0425 33.3507L26.7832 33.2154L26.5352 33.0689L26.2929 32.911L26.0505 32.7419L25.8138 32.5616L25.5827 32.37L25.3516 32.167L25.1375 31.9529L24.9345 31.7387L24.7373 31.5132L24.5569 31.2878L24.3878 31.0567L24.23 30.82L24.0835 30.5833L23.9707 30.3747L23.8693 30.1718L23.7735 29.9633L23.6889 29.7547L23.61 29.5406L23.5368 29.3264L23.4748 29.1122L23.424 28.898L23.3789 28.6838L23.3451 28.464L23.3169 28.2442L23.3 28.03L23.2888 27.8102V27.5904L23.3 27.3706L23.3169 27.1508L23.3395 26.9366L23.3733 26.7168L23.4184 26.5026L23.4691 26.2828L23.5311 26.0686L23.6044 25.8544L23.6833 25.6459L23.7678 25.4374L23.8637 25.2288L23.9707 25.0203L24.0835 24.8174L24.2075 24.6145L24.3427 24.4172L24.4836 24.2199L24.6358 24.0283L24.7936 23.8367L24.8556 23.769L24.9064 23.6958L24.9571 23.6281L24.9965 23.5605L25.036 23.4928L25.0642 23.4308L25.0867 23.3632L25.098 23.2956L25.1093 23.2279V23.1659L25.1036 23.0983L25.0924 23.025L25.0698 22.9574L25.0416 22.8841L25.0078 22.8052L24.9684 22.732L24.8838 22.5967L24.7767 22.4389L24.6753 22.2811L24.5795 22.1176L24.4836 21.9541L24.3371 21.6949L24.1906 21.43L24.0384 21.1651L23.8862 20.8945L22.0037 23.8705Z" stroke="black" stroke-width="0.00839495" stroke-miterlimit="10"/>
    <path d="M26.0902 21.89L22.0039 23.8683L23.8864 20.8924L27.9671 18.9141L26.0902 21.89Z" fill="#F88560"/>
    <path d="M32.2052 24.3023L31.9346 24.2065L31.6585 24.1163L31.3879 24.0431L31.1174 23.9811L30.8468 23.9303L30.5819 23.8909L30.3114 23.8627L30.0465 23.8458L29.7816 23.8402L29.5223 23.8458L29.2574 23.8571L28.9982 23.8796L28.7389 23.9078L28.4796 23.9472L28.2203 23.998L27.9611 24.0543L27.8822 24.0656L27.8089 24.0825L27.7413 24.0881H27.6736L27.6116 24.0825L27.5553 24.0769L27.5045 24.0656L27.4538 24.0487L27.4087 24.0205L27.3636 23.9923L27.3185 23.9642L27.2791 23.9247L27.2396 23.8796L27.2058 23.8289L27.1664 23.7782L27.1326 23.7162L27.0875 23.6372L26.8958 23.2822L26.6986 22.9327L26.3942 22.4142L26.0898 21.89L27.9667 18.9141L28.2767 19.4382L28.5811 19.9568L28.7783 20.3062L28.97 20.6613L29.0151 20.7402L29.0489 20.8022L29.0827 20.8529L29.1222 20.9037L29.1616 20.9488L29.2011 20.9826L29.2461 21.0164L29.2856 21.0446L29.3363 21.0671L29.3871 21.0897L29.4378 21.1009L29.4941 21.1066L29.5561 21.1122H29.6181L29.6914 21.1009L29.7647 21.0897L29.8436 21.0727L30.0972 21.022L30.3565 20.9713L30.6158 20.9318L30.8807 20.9037L31.1399 20.8811L31.3992 20.8698L31.6641 20.8642L31.929 20.8698L32.1939 20.8868L32.4588 20.9149L32.7294 20.9544L32.9999 21.0051L33.2704 21.0671L33.541 21.1404L33.8115 21.2306L34.0877 21.3264L32.2052 24.3023Z" stroke="black" stroke-width="0.00839495" stroke-miterlimit="10"/>
    <path d="M31.7734 28.6722L31.8862 27.5731L31.9933 26.4853L32.1003 25.3975L32.2074 24.3041L34.0899 21.3281L33.9829 22.4216L33.8758 23.5094L33.7687 24.5972L33.6559 25.6962L31.7734 28.6722Z" stroke="black" stroke-width="0.00839495" stroke-miterlimit="10"/>
    <path d="M39.5722 35.8627L41.4491 32.8867L41.59 33.1291L41.7196 33.3827L41.8436 33.6476L41.962 33.9125L42.0465 34.1323L42.1255 34.3465L42.1987 34.5607L42.2607 34.7749L42.3115 34.9834L42.3565 35.1919L42.396 35.4005L42.4242 35.609L42.4467 35.8119L42.458 36.0092L42.4636 36.2121V36.4094L42.4524 36.6066L42.4354 36.7983L42.4073 36.9899L42.3734 37.1815L42.334 37.3732L42.2833 37.5592L42.2269 37.7452L42.1649 37.9312L42.0916 38.1115L42.0184 38.2919L41.9338 38.4722L41.838 38.647L41.7422 38.8217L41.6351 38.9964L41.5224 39.1655L41.404 39.3402L41.28 39.5093L41.1447 39.6728L41.0038 39.8419L40.8573 40.0053L40.7108 40.1519L40.5642 40.304L40.5529 40.3153L40.5417 40.3322L40.5248 40.3491L40.5135 40.366L40.4909 40.3886L40.474 40.4168L40.4458 40.4506L40.412 40.49L38.5352 43.4716L38.5633 43.4265L38.5915 43.3983L38.6141 43.3702L38.631 43.342L38.6422 43.3251L38.6592 43.3082L38.6704 43.2969L38.6817 43.28L38.8339 43.1334L38.9804 42.9813L39.127 42.8178L39.2622 42.6487L39.3975 42.4853L39.5215 42.3162L39.6399 42.1471L39.7526 41.9724L39.8597 41.7976L39.9611 41.6229L40.0513 41.4482L40.1359 41.2678L40.2148 41.0875L40.2824 40.9071L40.3444 40.7211L40.4008 40.5351L40.4515 40.3491L40.4909 40.1575L40.5248 39.9659L40.5529 39.7742L40.5698 39.5826L40.5811 39.3853V39.1881L40.5755 38.9908L40.5642 38.7879L40.5417 38.585L40.5135 38.3764L40.4797 38.1735L40.4346 37.965L40.3782 37.7508L40.3162 37.5423L40.2429 37.3281L40.164 37.1083L40.0795 36.8941L39.9611 36.6236L39.8371 36.3587L39.7075 36.105L39.5722 35.8627Z" stroke="black" stroke-width="0.00839495" stroke-miterlimit="10"/>
    <path d="M39.5719 35.8629L39.7072 36.1053L39.8368 36.3589L39.9608 36.6238L40.0792 36.8943L40.1637 37.1085L40.2426 37.3283L40.3159 37.5425L40.3779 37.7511L40.4343 37.9652L40.4794 38.1738L40.5132 38.3767L40.5413 38.5852L40.5639 38.7881L40.5752 38.991L40.5808 39.1883V39.3856L40.5695 39.5828L40.5526 39.7745L40.5244 39.9661L40.4906 40.1577L40.4512 40.3494L40.4004 40.5354L40.3441 40.7214L40.2821 40.9074L40.2144 41.0877L40.1355 41.2681L40.051 41.4484L39.9608 41.6232L39.8594 41.7979L39.7523 41.9726L39.6395 42.1473L39.5212 42.3164L39.3972 42.4855L39.2619 42.649L39.1266 42.8181L38.9801 42.9815L38.8336 43.1337L38.6814 43.2802L38.6701 43.2971L38.6588 43.3084L38.6419 43.3253L38.6307 43.3422L38.6137 43.3704L38.5912 43.3986L38.563 43.4268L38.5348 43.4719L40.0115 46.0307L35.9422 48.0034L35.5871 47.4003L35.2376 46.8085L35.0122 46.4027L34.798 45.9969L34.7416 45.8955L34.7022 45.8278L34.6571 45.7658L34.612 45.7095L34.5669 45.6644L34.5162 45.6193L34.4711 45.5798L34.4147 45.5516L34.3584 45.5235L34.302 45.5065L34.24 45.4896L34.178 45.484L34.1104 45.4784L34.0371 45.484L33.9582 45.4896L33.8793 45.5009L33.7947 45.5178L33.5129 45.5685L33.2255 45.6193L32.9437 45.6531L32.6619 45.6869L32.3744 45.7038L32.0926 45.7151L31.8051 45.7095L31.5233 45.6982L31.2359 45.6756L30.9541 45.6362L30.6723 45.5911L30.3848 45.5235L30.103 45.4502L29.8155 45.3544L29.5337 45.2529L29.2519 45.1289L29.1336 45.0726L29.0265 45.0162L28.9307 44.9598L28.8405 44.8978L28.7616 44.8358L28.6939 44.7682L28.6319 44.6949L28.5812 44.6217L28.5418 44.5427L28.5136 44.4638L28.4967 44.3793L28.4854 44.2835L28.4798 44.1877L28.491 44.0806L28.5079 43.9678L28.5361 43.8495L28.6319 43.438L28.7221 43.021L28.801 42.5982L28.8799 42.1755L28.9476 41.7472L29.0208 41.3188L29.0941 40.8792L29.173 40.4396L29.483 40.5579L29.7874 40.6594L30.0917 40.7495L30.3904 40.8285L30.6948 40.8905L30.9935 40.9412L31.2922 40.975L31.591 40.9975L31.8897 41.0032L32.1828 40.9975L32.4759 40.9806L32.7746 40.9412L33.062 40.8905L33.3551 40.8285L33.6482 40.7495L33.9357 40.6537L34.1836 40.5636L34.4035 40.4621L34.5331 40.3945L34.6515 40.3268L34.7642 40.2536L34.8656 40.1803L34.9558 40.1014L35.0347 40.0225L35.108 39.9379L35.17 39.8477L35.2207 39.7576L35.2602 39.6674L35.294 39.5716L35.3222 39.4701L35.3334 39.363L35.3391 39.2559V39.1432L35.3278 39.0249L35.2884 38.8332L35.2376 38.6472L35.17 38.4669L35.0855 38.3034L35.0235 38.2076L34.9558 38.1118L34.8882 38.0216L34.8093 37.9427L34.7247 37.8638L34.6289 37.7849L34.5331 37.7172L34.4316 37.6552L34.3189 37.5932L34.2062 37.5425L34.0822 37.4918L33.9526 37.4523L33.8173 37.4129L33.6764 37.3847L33.5298 37.3622L33.3777 37.3452L32.6957 37.2832L32.0193 37.2382L31.3373 37.2043L30.6554 37.1705L29.9734 37.1423L29.2914 37.1142L28.6094 37.0803L27.9274 37.0465L27.6343 37.024L27.3469 36.9902L27.0594 36.9451L26.772 36.8887L26.4958 36.8267L26.2196 36.7478L25.9491 36.6576L25.6785 36.5562L25.4193 36.4491L25.16 36.3251L24.9064 36.1898L24.6527 36.0433L24.4104 35.8855L24.168 35.7164L23.9313 35.536L23.7002 35.3444L23.4748 35.1415L23.2549 34.9273L23.052 34.7131L22.8604 34.4877L22.6744 34.2622L22.5053 34.0311L22.3475 33.7944L22.2066 33.5577L22.0939 33.3548L21.9868 33.1462L21.891 32.9377L21.8064 32.7292L21.7275 32.515L21.6542 32.3064L21.5979 32.0923L21.5415 31.8724L21.4964 31.6583L21.4626 31.4384L21.4344 31.2243L21.4175 31.0045L21.4119 30.7846L21.4062 30.5648L21.4175 30.345L21.4344 30.1252L21.457 29.911L21.4964 29.6912L21.5359 29.477L21.5922 29.2572L21.6486 29.043L21.7219 28.8289L21.8008 28.6203L21.8853 28.4118L21.9811 28.2032L22.0882 27.9947L22.2066 27.7918L22.325 27.5889L22.4602 27.3916L22.6011 27.1943L22.7533 27.0027L22.9111 26.8111L22.9731 26.7434L23.0295 26.6702L23.0746 26.6025L23.1197 26.5349L23.1535 26.4673L23.1817 26.4053L23.2042 26.3376L23.2155 26.27L23.2268 26.208V26.1404L23.2211 26.0727L23.2099 25.9995L23.1873 25.9318L23.1648 25.8586L23.1253 25.7853L23.0859 25.7064L23.0013 25.5711L22.8999 25.4133L22.7928 25.2555L22.697 25.092L22.6011 24.9286L22.4546 24.6693L22.3081 24.4044L22.1615 24.1395L22.0037 23.869L26.09 21.8906L26.3943 22.4148L26.6987 22.9333L26.896 23.2828L27.0876 23.6379L27.1327 23.7168L27.1665 23.7788L27.206 23.8295L27.2398 23.8802L27.2792 23.9253L27.3187 23.9648L27.3638 23.9929L27.4089 24.0211L27.454 24.0493L27.5047 24.0662L27.5554 24.0775L27.6118 24.0831L27.6738 24.0888H27.7414L27.809 24.0831L27.8823 24.0662L27.9612 24.0549L28.2205 23.9986L28.4798 23.9479L28.739 23.9084L28.9983 23.8802L29.2576 23.8577L29.5225 23.8464L29.7817 23.8408L30.0466 23.8464L30.3115 23.8633L30.5821 23.8915L30.847 23.931L31.1175 23.9817L31.3881 24.0437L31.6586 24.1169L31.9348 24.2071L32.2053 24.3029L32.0982 25.3964L31.9911 26.4842L31.8841 27.572L31.7713 28.671L31.4388 28.609L31.1175 28.547L30.8075 28.4907L30.4919 28.4343L30.3341 28.4118L30.1819 28.3949L30.0241 28.3836L29.8775 28.378L29.7254 28.3836L29.5845 28.3892L29.4379 28.4005L29.297 28.423L29.1561 28.4456L29.0208 28.4738L28.8856 28.5076L28.7503 28.547L28.6207 28.5921L28.491 28.6429L28.367 28.6936L28.243 28.7556L28.0852 28.8345L27.9387 28.919L27.7865 29.0092L27.64 29.105L27.499 29.2065L27.3581 29.3136L27.2229 29.4263L27.0876 29.539L26.9918 29.6348L26.9016 29.7307L26.8283 29.8321L26.7663 29.9392L26.71 30.0463L26.6705 30.159L26.6367 30.2661L26.6198 30.3845L26.6085 30.4972L26.6029 30.6156L26.6142 30.7283L26.6311 30.8466L26.6592 30.9594L26.6987 31.0721L26.7494 31.1792L26.8058 31.2919L26.8847 31.4159L26.9805 31.5399L27.0876 31.6526L27.206 31.7597L27.3412 31.8612L27.4878 31.9513L27.6456 32.0303L27.8147 32.0979L28.0852 32.1881L28.367 32.2613L28.6488 32.3233L28.9363 32.3684L29.2237 32.4022L29.5168 32.4304L29.8043 32.453L30.0917 32.4699L30.6441 32.4981L31.1908 32.515L31.7431 32.5262L32.2955 32.5375L32.8422 32.5488L33.3946 32.5657L33.9413 32.5939L34.4936 32.6333L34.7135 32.6559L34.9276 32.6841L35.1362 32.7122L35.3447 32.7517L35.5476 32.7968L35.7449 32.8475L35.9365 32.8982L36.1282 32.9602L36.3142 33.0279L36.5002 33.0955L36.6749 33.1688L36.8496 33.2533L37.0243 33.3379L37.1878 33.428L37.3512 33.5239L37.5147 33.6253L37.6669 33.7324L37.819 33.8395L37.9712 33.9579L38.1121 34.0762L38.253 34.2002L38.3939 34.3298L38.5236 34.4651L38.6532 34.6004L38.7828 34.7413L38.9068 34.8935L39.0252 35.04L39.1379 35.1978L39.2506 35.3556L39.3634 35.5191L39.4705 35.6882L39.5719 35.8629Z" fill="#FF7D50"/>
    <path d="M39.5706 35.8593L39.4691 35.6846L39.3621 35.5155L39.2493 35.3521L39.1366 35.1943L39.0239 35.0364L38.9055 34.8899L38.7815 34.7377L38.6519 34.5968L38.5222 34.4615L38.3926 34.3263L38.2517 34.1966L38.1108 34.0726L37.9699 33.9543L37.8177 33.8359L37.6655 33.7288L37.5134 33.6217L37.3499 33.5203L37.1865 33.4245L37.023 33.3343L36.8483 33.2497L36.6736 33.1652L36.4988 33.0919L36.3128 33.0243L36.1268 32.9567L35.9352 32.8947L35.7436 32.8439L35.5463 32.7932L35.3434 32.7481L35.1349 32.7087L34.9263 32.6805L34.7121 32.6523L34.4923 32.6298L33.94 32.5903L33.3933 32.5621L32.8409 32.5452L32.2942 32.5339L31.7418 32.5227L31.1895 32.5114L30.6428 32.4945L30.0904 32.4663L29.803 32.4494L29.5155 32.4269L29.2224 32.3987L28.935 32.3649L28.6475 32.3198L28.3657 32.2578L28.0839 32.1845L27.8134 32.0943L27.6443 32.0267L27.4865 31.9478L27.3399 31.8576L27.2046 31.7561L27.0863 31.649L26.9792 31.5363L26.8834 31.4123L26.8045 31.2883L26.7481 31.1756L26.6974 31.0685L26.6579 30.9558L26.6297 30.8431L26.6128 30.7247L26.6016 30.612L26.6072 30.4936L26.6185 30.3809L26.6354 30.2625L26.6692 30.1554L26.7087 30.0427L26.765 29.9356L26.827 29.8285L26.9003 29.7271L26.9905 29.6313L27.0863 29.5355L27.2216 29.4227L27.3568 29.31L27.4977 29.2029L27.6386 29.1015L27.7852 29.0056L27.9374 28.9155L28.0839 28.8309L28.2417 28.752L28.3657 28.69L28.4897 28.6393L28.6193 28.5886L28.749 28.5435L28.8842 28.504L29.0195 28.4702L29.1548 28.442L29.2957 28.4195L29.4366 28.3969L29.5831 28.3857L29.724 28.38L29.8762 28.3744L30.0228 28.38L30.1806 28.3913L30.3328 28.4082L30.4906 28.4307L30.8062 28.4871L31.1162 28.5435L31.4375 28.6055L31.77 28.6675L33.6525 25.6915L33.32 25.6295L32.9987 25.5675L32.6831 25.5112L32.3731 25.4548L32.2153 25.4323L32.0575 25.4153L31.9053 25.4041L31.7531 25.3984H31.6066L31.46 25.4097L31.3191 25.421L31.1782 25.4379L31.0373 25.4661L30.902 25.4943L30.7668 25.5281L30.6315 25.5675L30.5019 25.6126L30.3722 25.6633L30.2482 25.7141L30.1242 25.7761L29.9664 25.855L29.8142 25.9395L29.6677 26.0297L29.5211 26.1255L29.3802 26.227L29.2393 26.3341L29.0984 26.4468L28.9688 26.5595L28.8673 26.6553L28.7828 26.7511L28.7095 26.8526L28.6475 26.9597L28.5912 27.0668L28.5517 27.1739L28.5179 27.2866L28.4953 27.4049L28.4841 27.5177V27.636L28.4953 27.7488L28.5123 27.8615L28.5404 27.9798L28.5799 28.0926L28.625 28.1997L28.6813 28.3067L28.7659 28.4364L28.8617 28.5547L28.9688 28.6731L29.0872 28.7802L29.2224 28.8816L29.3633 28.9718L29.5211 29.0507L29.6902 29.1184L29.9664 29.2085L30.2426 29.2818L30.53 29.3382L30.8175 29.3889L31.1049 29.4227L31.398 29.4509L31.6855 29.4735L31.9729 29.4904L32.5253 29.5185L33.072 29.5355L33.6243 29.5467L34.1711 29.558L34.7234 29.5693L35.2758 29.5862L35.8225 29.6144L36.3748 29.6538L36.5947 29.6764L36.8088 29.6989L37.0174 29.7327L37.2259 29.7722L37.4288 29.8173L37.6261 29.868L37.8177 29.9187L38.0093 29.9807L38.1953 30.0427L38.3757 30.116L38.5561 30.1893L38.7308 30.2738L38.9055 30.3583L39.069 30.4485L39.2324 30.5443L39.3902 30.6458L39.548 30.7529L39.7002 30.86L39.8468 30.9783L39.9933 31.0967L40.1342 31.2207L40.2695 31.3503L40.4048 31.4856L40.5344 31.6209L40.664 31.7618L40.7824 31.9083L40.9064 32.0605L41.0191 32.2183L41.1318 32.3761L41.2446 32.5396L41.346 32.7087L41.4475 32.8834L39.5706 35.8593Z" fill="#F88560"/>
    <path d="M41.4452 32.8863L41.3437 32.7116L41.2423 32.5425L41.1296 32.3791L41.0168 32.2213L40.9041 32.0635L40.7801 31.9113L40.6617 31.7647L40.5321 31.6238L40.4025 31.4886L40.2672 31.3533L40.1319 31.2237L39.991 31.0997L39.8445 30.9813L39.6979 30.8629L39.5458 30.7558L39.3879 30.6488L39.2301 30.5473L39.0667 30.4515L38.9032 30.3613L38.7285 30.2768L38.5538 30.1922L38.3734 30.1189L38.1931 30.0457L38.0071 29.9837L37.8154 29.9217L37.6238 29.8709L37.4265 29.8202L37.2236 29.7751L37.0151 29.7357L36.8065 29.7019L36.5924 29.6793L36.3726 29.6568L35.8202 29.6173L35.2735 29.5891L34.7211 29.5722L34.1688 29.561L33.6221 29.5497L33.0697 29.5384L32.523 29.5215L31.9706 29.4933L31.6832 29.4764L31.3957 29.4539L31.1026 29.4257L30.8152 29.3919L30.5277 29.3411L30.2403 29.2848L29.9641 29.2115L29.6879 29.1213L29.5189 29.0537L29.361 28.9748L29.2201 28.8846L29.0849 28.7832L28.9665 28.6761L28.8594 28.5577L28.7636 28.4393L28.6791 28.3097L28.6227 28.2026L28.5776 28.0955L28.5381 27.9828L28.51 27.8644L28.4931 27.7517L28.4818 27.639V27.5206L28.4931 27.4079L28.5156 27.2895L28.5494 27.1768L28.5889 27.0697L28.6452 26.9626L28.7072 26.8556L28.7805 26.7541L28.8651 26.6583L28.9665 26.5625L29.0961 26.4497L29.237 26.337L29.378 26.2299L29.5189 26.1285L29.6654 26.0327L29.8119 25.9425L29.9641 25.8579L30.1219 25.779L30.2459 25.717L30.3699 25.6663L30.4996 25.6156L30.6292 25.5705L30.7645 25.531L30.8997 25.4972L31.035 25.469L31.1759 25.4409L31.3168 25.4239L31.4577 25.4127L31.6043 25.4014H31.7508L31.903 25.407L32.0552 25.4183L32.213 25.4352L32.3708 25.4578L32.6808 25.5141L32.9964 25.5705L33.3177 25.6325L33.6502 25.6945L33.763 24.5954L33.87 23.5076L33.9771 22.4198L34.0842 21.3264L33.8081 21.2306L33.5375 21.1404L33.267 21.0671L32.9964 21.0051L32.7259 20.9544L32.4553 20.9149L32.1904 20.8868L31.9255 20.8698L31.6606 20.8642L31.3957 20.8698L31.1365 20.8811L30.8772 20.9037L30.6123 20.9318L30.353 20.9713L30.0938 21.022L29.8401 21.0727L29.7612 21.0897L29.6879 21.1009L29.6147 21.1122H29.5527L29.4907 21.1066L29.4343 21.1009L29.3836 21.0897L29.3329 21.0671L29.2821 21.0446L29.2427 21.0164L29.1976 20.9826L29.1581 20.9488L29.1187 20.9037L29.0792 20.8529L29.0454 20.8022L29.0116 20.7402L28.9665 20.6613L28.7749 20.3062L28.5776 19.9568L28.2732 19.4382L27.9633 18.9141L23.8826 20.8924L24.0348 21.1629L24.187 21.4278L24.3335 21.6927L24.48 21.952L24.5759 22.1155L24.6717 22.2789L24.7731 22.4367L24.8802 22.5945L24.9648 22.7298L25.0042 22.8031L25.038 22.882L25.0662 22.9553L25.0888 23.0229L25.1 23.0962L25.1057 23.1638V23.2258L25.0944 23.2934L25.0831 23.3611L25.0606 23.4287L25.0324 23.4907L24.9929 23.5583L24.9535 23.626L24.9028 23.6936L24.852 23.7669L24.79 23.8345L24.6322 24.0261L24.48 24.2178L24.3391 24.4151L24.2039 24.6123L24.0799 24.8152L23.9671 25.0181L23.8601 25.2267L23.7642 25.4352L23.6797 25.6438L23.6008 25.8523L23.5275 26.0665L23.4655 26.2807L23.4148 26.5005L23.3697 26.7146L23.3359 26.9345L23.3133 27.1486L23.2964 27.3685L23.2852 27.5883V27.8081L23.2964 28.0279L23.3133 28.2421L23.3415 28.4619L23.3753 28.6817L23.4204 28.8959L23.4712 29.1101L23.5332 29.3242L23.6064 29.5384L23.6853 29.7526L23.7699 29.9611L23.8657 30.1697L23.9671 30.3726L24.0799 30.5811L24.2264 30.8178L24.3842 31.0546L24.5533 31.2857L24.7337 31.5111L24.9309 31.7366L25.1338 31.9507L25.348 32.1649L25.5791 32.3678L25.8102 32.5594L26.0469 32.7398L26.2893 32.9089L26.5316 33.0667L26.7796 33.2133L27.0389 33.3485L27.2925 33.4669L27.5574 33.5796L27.828 33.6811L28.0985 33.7712L28.3747 33.8445L28.6509 33.9121L28.9327 33.9685L29.2201 34.0136L29.5132 34.0474L29.8063 34.07L30.4883 34.1038L31.1703 34.1376L31.8523 34.1658L32.5343 34.194L33.2106 34.2221L33.8926 34.2616L34.5746 34.3067L35.2566 34.363L35.4087 34.3856L35.5553 34.4081L35.6962 34.4363L35.8315 34.4758L35.9611 34.5152L36.0795 34.566L36.1978 34.6167L36.3049 34.6787L36.412 34.7407L36.5078 34.8083L36.598 34.8816L36.6825 34.9605L36.7615 35.045L36.8347 35.1352L36.9024 35.2254L36.9644 35.3268L37.0489 35.4903L37.1165 35.6707L37.1673 35.8567L37.2011 36.0483L37.2124 36.1667L37.218 36.2794L37.2124 36.3865L37.1954 36.4936L37.1729 36.5894L37.1391 36.6908L37.0996 36.781L37.0433 36.8712L36.9869 36.9614L36.9136 37.0459L36.8347 37.1248L36.7445 37.2037L36.6431 37.277L36.5304 37.3503L36.412 37.4179L36.2824 37.4855L36.0569 37.587L35.8146 37.6772L35.5215 37.773L35.234 37.8519L34.9409 37.9139L34.6479 37.9646L34.3548 37.9984L34.0617 38.021L33.763 38.0266L33.4699 38.021L33.1712 37.9984L32.8724 37.9646L32.5737 37.9139L32.2694 37.8519L31.9706 37.773L31.6663 37.6828L31.3563 37.5814L31.0519 37.463L30.973 37.9026L30.8997 38.3366L30.8265 38.7706L30.7532 39.199L30.6799 39.6217L30.601 40.0444L30.5108 40.4558L30.4094 40.8729L30.3868 40.9913L30.3699 41.104L30.3587 41.2111L30.3643 41.3069L30.3756 41.4027L30.3925 41.4873L30.4207 41.5662L30.4601 41.6395L30.5108 41.7184L30.5728 41.7916L30.6405 41.8593L30.7194 41.9213L30.8096 41.9833L30.9054 42.0396L31.0125 42.096L31.1252 42.1524L31.4126 42.2707L31.6945 42.3778L31.9763 42.4736L32.2637 42.5469L32.5455 42.6089L32.833 42.6596L33.1148 42.6991L33.4022 42.7216L33.6841 42.7329L33.9659 42.7385L34.2533 42.7273L34.5351 42.7047L34.8226 42.6765L35.1044 42.6371L35.3862 42.592L35.6737 42.5356L35.7582 42.5243L35.8371 42.5131L35.916 42.5018H35.9836L36.0513 42.5074L36.1189 42.5131L36.1809 42.53L36.2373 42.5469L36.2936 42.5751L36.3444 42.6033L36.3951 42.6427L36.4458 42.6822L36.4909 42.7329L36.536 42.7893L36.5811 42.8513L36.6205 42.9189L36.6713 43.0147L36.8854 43.4262L37.1165 43.8263L37.466 44.4238L37.8211 45.0268L41.8904 43.0542L40.4081 40.4897L40.4419 40.4502L40.4701 40.4164L40.487 40.3882L40.5096 40.3657L40.5208 40.3488L40.5377 40.3318L40.549 40.3149L40.5603 40.3037L40.7068 40.1515L40.8534 40.0049L40.9999 39.8415L41.1408 39.6724L41.2761 39.509L41.4001 39.3399L41.5185 39.1651L41.6312 38.996L41.7383 38.8213L41.8341 38.6466L41.9299 38.4719L42.0144 38.2915L42.0877 38.1112L42.161 37.9308L42.223 37.7448L42.2793 37.5588L42.3301 37.3728L42.3695 37.1812L42.4033 36.9895L42.4315 36.7979L42.4484 36.6063L42.4597 36.409V36.2117L42.4541 36.0088L42.4428 35.8116L42.4203 35.6087L42.3921 35.4001L42.3526 35.1916L42.3075 34.983L42.2568 34.7745L42.1948 34.5603L42.1215 34.3461L42.0426 34.132L41.9581 33.9121L41.8397 33.6472L41.7157 33.3823L41.5861 33.1287L41.4452 32.8863Z" fill="#FFC628"/>
    <path d="M35.9414 48.0033L40.0108 46.0306L41.8933 43.0547L37.8239 45.0274L35.9414 48.0033Z" fill="white"/>
    <path d="M28.4828 44.2808L30.4611 41.6374C30.4611 41.6374 30.2976 41.4458 30.3709 41.102L31.0529 37.4609L29.1704 40.4369L28.5053 43.9652C28.5053 43.9652 28.4715 44.1343 28.4828 44.2808Z" fill="white"/>
    <path d="M23.1819 26.4012L23.7681 25.4317C23.7681 25.4317 24.1626 24.4961 24.8559 23.7634C24.8559 23.7634 25.1828 23.397 25.0926 23.025C25.0926 23.025 25.0362 22.8278 24.884 22.5967L23.8864 20.8945L22.0039 23.8705L22.6352 24.9921L23.0804 25.7023C23.0804 25.7023 23.3115 26.0573 23.1762 26.4012H23.1819Z" fill="white"/>
    <path d="M48.2862 38.6076C49.1756 38.6076 49.8967 37.8866 49.8967 36.9972C49.8967 36.1077 49.1756 35.3867 48.2862 35.3867C47.3968 35.3867 46.6758 36.1077 46.6758 36.9972C46.6758 37.8866 47.3968 38.6076 48.2862 38.6076Z" fill="#AB6FFF"/>
    <path d="M48.1191 36.107C48.5746 36.053 49.0929 36.1863 49.2539 36.8305" stroke="#E7D6FF" stroke-width="0.479736" stroke-linecap="round"/>
    <path d="M39.9108 20.5676C41.1559 20.5676 42.1653 19.5582 42.1653 18.3131C42.1653 17.068 41.1559 16.0586 39.9108 16.0586C38.6656 16.0586 37.6562 17.068 37.6562 18.3131C37.6562 19.5582 38.6656 20.5676 39.9108 20.5676Z" fill="#AB6FFF"/>
    <path d="M39.6172 17.5465C39.9989 17.4041 40.5835 17.4721 40.9055 18.1163" stroke="#E7D6FF" stroke-width="0.959473" stroke-linecap="round"/>
    <path d="M11.2479 41.1834C13.3826 41.1834 15.1131 39.4529 15.1131 37.3182C15.1131 35.1836 13.3826 33.4531 11.2479 33.4531C9.11329 33.4531 7.38281 35.1836 7.38281 37.3182C7.38281 39.4529 9.11329 41.1834 11.2479 41.1834Z" fill="#AB6FFF"/>
    <path d="M10.4883 35.342C11.1013 35.1133 12.0401 35.2225 12.5574 36.2571" stroke="#E7D6FF" stroke-width="1.54091" stroke-linecap="round"/>
    <path d="M47.3577 22.8242L47.7128 24.4362L49.3247 24.7913L47.7128 25.152L47.3577 26.7583L47.0026 25.152L45.3906 24.7913L47.0026 24.4362L47.3577 22.8242Z" fill="#FFC343"/>
    <path d="M20.9475 39.8945L21.3082 41.5065L22.9202 41.8616L21.3082 42.2167L20.9475 43.8286L20.5924 42.2167L18.9805 41.8616L20.5924 41.5065L20.9475 39.8945Z" fill="#FFC343"/>
    <path d="M19.0196 16.7031L19.3746 18.3151L20.9866 18.6702L19.3746 19.0253L19.0196 20.6372L18.6588 19.0253L17.0469 18.6702L18.6588 18.3151L19.0196 16.7031Z" fill="#FFC343"/>
    <path d="M17.6587 31.38C18.2599 31.38 18.7472 30.8927 18.7472 30.2916C18.7472 29.6904 18.2599 29.2031 17.6587 29.2031C17.0576 29.2031 16.5703 29.6904 16.5703 30.2916C16.5703 30.8927 17.0576 31.38 17.6587 31.38Z" fill="#F88560"/>
    <path d="M25.2226 49.1562C25.4685 49.1562 25.6679 48.9568 25.6679 48.7109C25.6679 48.465 25.4685 48.2656 25.2226 48.2656C24.9767 48.2656 24.7773 48.465 24.7773 48.7109C24.7773 48.9568 24.9767 49.1562 25.2226 49.1562Z" fill="white"/>
    <path d="M55.0234 28.8202C55.2693 28.8202 55.4687 28.6209 55.4687 28.375C55.4687 28.129 55.2693 27.9297 55.0234 27.9297C54.7775 27.9297 54.5781 28.129 54.5781 28.375C54.5781 28.6209 54.7775 28.8202 55.0234 28.8202Z" fill="white"/>
    <path d="M47.3582 47.4859C47.9767 47.4859 48.4781 46.9845 48.4781 46.366C48.4781 45.7475 47.9767 45.2461 47.3582 45.2461C46.7397 45.2461 46.2383 45.7475 46.2383 46.366C46.2383 46.9845 46.7397 47.4859 47.3582 47.4859Z" fill="#F88560"/>
    <path d="M30.375 15.6601C30.6209 15.6601 30.8202 15.4607 30.8202 15.2148C30.8202 14.9689 30.6209 14.7695 30.375 14.7695C30.129 14.7695 29.9297 14.9689 29.9297 15.2148C29.9297 15.4607 30.129 15.6601 30.375 15.6601Z" fill="white"/>
</svg>
