<svg width="24" height="25" viewBox="0 0 24 25" fill="none" xmlns="http://www.w3.org/2000/svg">
<g clip-path="url(#clip0_3760_663)">
<path d="M4.00012 3.5H20.0001C20.2653 3.5 20.5197 3.60536 20.7072 3.79289C20.8948 3.98043 21.0001 4.23478 21.0001 4.5V20.5C21.0001 20.7652 20.8948 21.0196 20.7072 21.2071C20.5197 21.3946 20.2653 21.5 20.0001 21.5H4.00012C3.73491 21.5 3.48055 21.3946 3.29302 21.2071C3.10548 21.0196 3.00012 20.7652 3.00012 20.5V4.5C3.00012 4.23478 3.10548 3.98043 3.29302 3.79289C3.48055 3.60536 3.73491 3.5 4.00012 3.5ZM5.00012 5.5V19.5H19.0001V5.5H5.00012Z" fill="#5A5A67"/>
</g>
<defs>
<clipPath id="clip0_3760_663">
<rect width="24" height="24" fill="white" transform="translate(0 0.5)"/>
</clipPath>
</defs>
</svg>
