<svg width="97" height="96" viewBox="0 0 97 96" fill="none" xmlns="http://www.w3.org/2000/svg">
    <rect x="0.25" width="96" height="96" rx="48" fill="#F5F5F6"/>
    <path d="M28.25 68C28.25 59.1634 35.4134 52 44.25 52C53.0866 52 60.25 59.1634 60.25 68H56.25C56.25 61.3726 50.8774 56 44.25 56C37.6226 56 32.25 61.3726 32.25 68H28.25ZM44.25 50C37.62 50 32.25 44.63 32.25 38C32.25 31.37 37.62 26 44.25 26C50.88 26 56.25 31.37 56.25 38C56.25 44.63 50.88 50 44.25 50ZM44.25 46C48.67 46 52.25 42.42 52.25 38C52.25 33.58 48.67 30 44.25 30C39.83 30 36.25 33.58 36.25 38C36.25 42.42 39.83 46 44.25 46ZM60.8174 53.4056C66.3788 55.9122 70.25 61.504 70.25 68H66.25C66.25 63.128 63.3466 58.9342 59.1756 57.0542L60.8174 53.4056ZM59.4424 30.8264C63.4388 32.4741 66.25 36.4072 66.25 41C66.25 46.7404 61.8584 51.4504 56.25 51.9552V47.9292C59.6434 47.4444 62.25 44.528 62.25 41C62.25 38.2387 60.6532 35.8521 58.332 34.7127L59.4424 30.8264Z" fill="#5A5A67"/>
</svg>
