<svg width="24" height="24" viewBox="0 0 24 24" fill="none" xmlns="http://www.w3.org/2000/svg">
<path class="themed-icon" d="M11.6562 1.51715C10.0544 1.63105 8.5175 2.52528 7.65625 4.01715C6.44925 6.10815 6.9455 8.72615 8.6875 10.2672L7 13.1734C6.311 13.1764 5.65025 13.5334 5.28125 14.1734C4.72925 15.1294 5.044 16.3392 6 16.8922C6.957 17.4442 8.16675 17.1294 8.71875 16.1734C9.08775 15.5344 9.06175 14.7714 8.71875 14.1734L11.375 9.6109L10.5 9.1109C9.068 8.2829 8.57925 6.45015 9.40625 5.01715C10.2332 3.58415 12.067 3.0964 13.5 3.9234C14.933 4.7504 15.4207 6.58415 14.5938 8.01715L16.3438 9.01715C17.7218 6.63015 16.887 3.5514 14.5 2.1734C13.6049 1.65665 12.6173 1.44881 11.6562 1.51715ZM11.75 4.51715C11.4921 4.54922 11.2393 4.6289 11 4.76715C10.044 5.31915 9.72925 6.56015 10.2812 7.51715C10.6503 8.15615 11.312 8.51415 12 8.51715L14.625 13.0797L15.5 12.5797C16.933 11.7527 18.7668 12.2404 19.5938 13.6734C20.4207 15.1064 19.933 16.9402 18.5 17.7672C17.067 18.5942 15.2332 18.1064 14.4062 16.6734L12.6562 17.6734C14.0343 20.0604 17.113 20.8962 19.5 19.5172C21.887 18.1382 22.7227 15.0604 21.3438 12.6734C20.1367 10.5824 17.6123 9.6854 15.4062 10.4234L13.7188 7.51715C14.0608 6.91915 14.0878 6.15715 13.7188 5.51715C13.3048 4.7994 12.5236 4.42097 11.75 4.51715ZM7 10.1734C4.243 10.1734 2 12.4164 2 15.1734C2 17.9304 4.243 20.1734 7 20.1734C9.415 20.1734 11.4423 18.4524 11.9062 16.1734H15.2812C15.6272 16.7684 16.261 17.1734 17 17.1734C18.105 17.1734 19 16.2784 19 15.1734C19 14.0684 18.105 13.1734 17 13.1734C16.262 13.1734 15.6283 13.5784 15.2812 14.1734H10V15.1734C10 16.8274 8.654 18.1734 7 18.1734C5.346 18.1734 4 16.8274 4 15.1734C4 13.5194 5.346 12.1734 7 12.1734V10.1734Z" fill="#5A5A67"/>
</svg>
