<svg width="24" height="24" viewBox="0 0 24 24" fill="currentColor" xmlns="http://www.w3.org/2000/svg">
<path class="themed-icon" d="M11.6562 1.51743C10.0544 1.63132 8.5175 2.52555 7.65625 4.01743C6.44925 6.10843 6.9455 8.72643 8.6875 10.2674L7 13.1737C6.311 13.1767 5.65025 13.5337 5.28125 14.1737C4.72925 15.1297 5.044 16.3394 6 16.8924C6.957 17.4444 8.16675 17.1297 8.71875 16.1737C9.08775 15.5347 9.06175 14.7717 8.71875 14.1737L11.375 9.61118L10.5 9.11118C9.068 8.28318 8.57925 6.45043 9.40625 5.01743C10.2332 3.58443 12.067 3.09668 13.5 3.92368C14.933 4.75068 15.4207 6.58443 14.5938 8.01743L16.3438 9.01743C17.7218 6.63043 16.887 3.55168 14.5 2.17368C13.6049 1.65693 12.6173 1.44909 11.6562 1.51743ZM11.75 4.51743C11.4921 4.54949 11.2393 4.62918 11 4.76743C10.044 5.31943 9.72925 6.56043 10.2812 7.51743C10.6503 8.15643 11.312 8.51443 12 8.51743L14.625 13.0799L15.5 12.5799C16.933 11.7529 18.7668 12.2407 19.5938 13.6737C20.4207 15.1067 19.933 16.9404 18.5 17.7674C17.067 18.5944 15.2332 18.1067 14.4062 16.6737L12.6562 17.6737C14.0343 20.0607 17.113 20.8964 19.5 19.5174C21.887 18.1384 22.7227 15.0607 21.3438 12.6737C20.1367 10.5827 17.6123 9.68568 15.4062 10.4237L13.7188 7.51743C14.0608 6.91943 14.0878 6.15743 13.7188 5.51743C13.3048 4.79968 12.5236 4.42124 11.75 4.51743ZM7 10.1737C4.243 10.1737 2 12.4167 2 15.1737C2 17.9307 4.243 20.1737 7 20.1737C9.415 20.1737 11.4423 18.4527 11.9062 16.1737H15.2812C15.6272 16.7687 16.261 17.1737 17 17.1737C18.105 17.1737 19 16.2787 19 15.1737C19 14.0687 18.105 13.1737 17 13.1737C16.262 13.1737 15.6283 13.5787 15.2812 14.1737H10V15.1737C10 16.8277 8.654 18.1737 7 18.1737C5.346 18.1737 4 16.8277 4 15.1737C4 13.5197 5.346 12.1737 7 12.1737V10.1737Z" fill="#B9B8C0"/>
</svg>
